<svg width="500" height="500" viewBox="0 0 500 500" fill="none" xmlns="http://www.w3.org/2000/svg">
<path d="M500 382.4H0V382.65H500V382.4Z" fill="#EBEBEB"/>
<path d="M449.9 398.49H416.78V398.74H449.9V398.49Z" fill="#EBEBEB"/>
<path d="M295.22 390.76H267.86V391.01H295.22V390.76Z" fill="#EBEBEB"/>
<path d="M415.78 389.21H396.59V389.46H415.78V389.21Z" fill="#EBEBEB"/>
<path d="M69.61 390.89H52.46V391.14H69.61V390.89Z" fill="#EBEBEB"/>
<path d="M110.89 390.89H78.5098V391.14H110.89V390.89Z" fill="#EBEBEB"/>
<path d="M225.15 395.11H164.78V395.36H225.15V395.11Z" fill="#EBEBEB"/>
<path d="M237 337.8H43.91C42.3973 337.797 40.9475 337.195 39.8788 336.124C38.8102 335.054 38.21 333.603 38.21 332.09V60.66C38.2231 59.156 38.8292 57.718 39.8964 56.6582C40.9637 55.5985 42.4059 55.0026 43.91 55H237C238.514 55 239.967 55.6016 241.038 56.6724C242.108 57.7433 242.71 59.1956 242.71 60.71V332.09C242.71 333.604 242.108 335.057 241.038 336.128C239.967 337.198 238.514 337.8 237 337.8ZM43.91 55.2C42.4636 55.2026 41.0774 55.7791 40.0556 56.8027C39.0338 57.8264 38.46 59.2136 38.46 60.66V332.09C38.46 333.536 39.0338 334.924 40.0556 335.947C41.0774 336.971 42.4636 337.547 43.91 337.55H237C238.447 337.547 239.834 336.971 240.858 335.948C241.881 334.924 242.457 333.537 242.46 332.09V60.66C242.457 59.2127 241.881 57.8255 240.858 56.8021C239.834 55.7787 238.447 55.2026 237 55.2H43.91Z" fill="#EBEBEB"/>
<path d="M453.31 337.8H260.21C258.696 337.797 257.246 337.195 256.175 336.125C255.105 335.054 254.503 333.604 254.5 332.09V60.66C254.516 59.1551 255.124 57.7171 256.193 56.6576C257.262 55.5981 258.705 55.0025 260.21 55H453.31C454.812 55.0052 456.252 55.6022 457.317 56.6617C458.382 57.7212 458.987 59.1578 459 60.66V332.09C459 333.601 458.401 335.05 457.335 336.121C456.268 337.191 454.821 337.795 453.31 337.8ZM260.21 55.2C258.763 55.2026 257.375 55.7787 256.352 56.8021C255.329 57.8255 254.753 59.2127 254.75 60.66V332.09C254.753 333.537 255.329 334.924 256.352 335.948C257.375 336.971 258.763 337.547 260.21 337.55H453.31C454.757 337.547 456.145 336.971 457.168 335.948C458.191 334.924 458.767 333.537 458.77 332.09V60.66C458.767 59.2127 458.191 57.8255 457.168 56.8021C456.145 55.7787 454.757 55.2026 453.31 55.2H260.21Z" fill="#EBEBEB"/>
<path d="M81.3001 238.02H64.3501V377.84H81.3001V238.02Z" fill="#F0F0F0"/>
<path d="M229.49 377.84H66.7002V382.4H229.49V377.84Z" fill="#F0F0F0"/>
<path d="M81.2998 377.83H231.84L231.84 238.01L81.2998 238.01L81.2998 377.83Z" fill="#FAFAFA"/>
<path d="M100.18 319.17H212.97C215.82 319.17 218.13 316.86 218.13 314.01V292.81C218.13 289.96 215.82 287.65 212.97 287.65H100.18C97.3301 287.65 95.0199 289.96 95.0199 292.81V314.01C95.0199 316.86 97.3301 319.17 100.18 319.17Z" fill="#F0F0F0"/>
<path d="M100.18 359.74H212.97C215.82 359.74 218.13 357.43 218.13 354.58V333.38C218.13 330.53 215.82 328.22 212.97 328.22H100.18C97.3301 328.22 95.0199 330.53 95.0199 333.38V354.58C95.0199 357.43 97.3301 359.74 100.18 359.74Z" fill="#F0F0F0"/>
<path d="M178.38 292.18H134.77C133.867 292.177 133.003 291.817 132.365 291.178C131.728 290.538 131.37 289.673 131.37 288.77C131.373 287.869 131.732 287.006 132.369 286.369C133.006 285.732 133.869 285.373 134.77 285.37H178.38C179.281 285.373 180.144 285.732 180.781 286.369C181.418 287.006 181.777 287.869 181.78 288.77C181.78 289.673 181.422 290.538 180.785 291.178C180.148 291.817 179.283 292.177 178.38 292.18Z" fill="#FAFAFA"/>
<path d="M100.18 278.6H212.97C215.82 278.6 218.13 276.29 218.13 273.44V252.24C218.13 249.39 215.82 247.08 212.97 247.08H100.18C97.3301 247.08 95.0199 249.39 95.0199 252.24V273.44C95.0199 276.29 97.3301 278.6 100.18 278.6Z" fill="#F0F0F0"/>
<path d="M178.38 251.61H134.77C133.869 251.607 133.006 251.248 132.369 250.611C131.732 249.974 131.373 249.111 131.37 248.21C131.373 247.309 131.732 246.446 132.369 245.809C133.006 245.172 133.869 244.813 134.77 244.81H178.38C179.281 244.813 180.144 245.172 180.781 245.809C181.418 246.446 181.777 247.309 181.78 248.21C181.777 249.111 181.418 249.974 180.781 250.611C180.144 251.248 179.281 251.607 178.38 251.61Z" fill="#FAFAFA"/>
<path d="M178.38 332.74H134.77C133.869 332.737 133.006 332.378 132.369 331.741C131.732 331.104 131.373 330.241 131.37 329.34C131.373 328.439 131.732 327.576 132.369 326.939C133.006 326.302 133.869 325.943 134.77 325.94H178.38C179.281 325.943 180.144 326.302 180.781 326.939C181.418 327.576 181.777 328.439 181.78 329.34C181.777 330.241 181.418 331.104 180.781 331.741C180.144 332.378 179.281 332.737 178.38 332.74Z" fill="#FAFAFA"/>
<path d="M234.94 230.91H81.3101V238.02H234.94V230.91Z" fill="#F0F0F0"/>
<path d="M61.0301 238.01H81.3101V230.9H61.0301V238.01Z" fill="#E6E6E6"/>
<path d="M419.25 71.5H68.5601V189.3H419.25V71.5Z" fill="#EBEBEB"/>
<path d="M424.18 71.5H70.8599V189.3H424.18V71.5Z" fill="#F5F5F5"/>
<path d="M299.18 189.3H68.5601V195.15H299.18V189.3Z" fill="#EBEBEB"/>
<path d="M431.45 189.3H92.8101V195.15H431.45V189.3Z" fill="#F5F5F5"/>
<path d="M417.27 182.07V78.74L77.79 78.74V182.07H417.27Z" fill="#FAFAFA"/>
<path d="M120.7 182.07L179.77 78.74H207.66L148.59 182.07H120.7Z" fill="white"/>
<path d="M154.58 182.07L213.65 78.74H224.52L165.45 182.07H154.58Z" fill="white"/>
<path d="M327.67 182.07L386.73 78.74H397.6L338.54 182.07H327.67Z" fill="white"/>
<path d="M417.27 182.07V78.74H416.39V182.07H417.27Z" fill="#EBEBEB"/>
<path opacity="0.5" d="M425.82 87.12H75.13L74.5 81.55H425.18L425.82 87.12Z" fill="#EBEBEB"/>
<path opacity="0.5" d="M425.82 94.06H75.13L74.5 88.49H425.18L425.82 94.06Z" fill="#EBEBEB"/>
<path opacity="0.5" d="M425.82 101.01H75.13L74.5 95.4399H425.18L425.82 101.01Z" fill="#EBEBEB"/>
<path opacity="0.5" d="M425.82 107.95H75.13L74.5 102.38H425.18L425.82 107.95Z" fill="#EBEBEB"/>
<path opacity="0.5" d="M425.82 114.9H75.13L74.5 109.33H425.18L425.82 114.9Z" fill="#EBEBEB"/>
<path opacity="0.5" d="M425.82 121.85H75.13L74.5 116.28H425.18L425.82 121.85Z" fill="#EBEBEB"/>
<path opacity="0.5" d="M425.82 128.79H75.13L74.5 123.22H425.18L425.82 128.79Z" fill="#EBEBEB"/>
<path opacity="0.5" d="M425.82 135.74H75.13L74.5 130.17H425.18L425.82 135.74Z" fill="#EBEBEB"/>
<path opacity="0.5" d="M425.82 142.68H75.13L74.5 137.11H425.18L425.82 142.68Z" fill="#EBEBEB"/>
<path opacity="0.5" d="M425.82 149.63H75.13L74.5 144.06H425.18L425.82 149.63Z" fill="#EBEBEB"/>
<path opacity="0.5" d="M425.82 156.57H75.13L74.5 151H425.18L425.82 156.57Z" fill="#EBEBEB"/>
<path opacity="0.5" d="M425.82 163.52H75.13L74.5 157.95H425.18L425.82 163.52Z" fill="#EBEBEB"/>
<path opacity="0.5" d="M425.82 170.47H75.13L74.5 164.89H425.18L425.82 170.47Z" fill="#EBEBEB"/>
<path opacity="0.5" d="M425.82 177.41H75.13L74.5 171.84H425.18L425.82 177.41Z" fill="#EBEBEB"/>
<path d="M408.17 325.94H349.83L344.27 229.33C344.224 228.77 344.296 228.206 344.481 227.676C344.667 227.146 344.963 226.66 345.348 226.252C345.734 225.843 346.202 225.521 346.721 225.305C347.24 225.089 347.798 224.985 348.36 225H398C399.168 225.013 400.289 225.465 401.138 226.268C401.987 227.071 402.502 228.164 402.58 229.33L408.17 325.94Z" fill="#E6E6E6"/>
<path d="M414.05 325.94H355.72L350.16 229.33C350.114 228.771 350.185 228.208 350.371 227.679C350.556 227.149 350.85 226.664 351.235 226.256C351.62 225.847 352.086 225.525 352.604 225.308C353.122 225.092 353.679 224.987 354.24 225H403.91C405.079 225.013 406.199 225.465 407.048 226.268C407.897 227.071 408.412 228.164 408.49 229.33L414.05 325.94Z" fill="#F5F5F5"/>
<path d="M356.89 313.89H397.5V325.89H352.55V318.17C352.563 317.029 353.026 315.939 353.839 315.137C354.652 314.335 355.748 313.887 356.89 313.89Z" fill="#E6E6E6"/>
<path d="M388.55 313.89H440.25C441.398 313.89 442.5 314.346 443.312 315.158C444.124 315.97 444.58 317.072 444.58 318.22V325.94H384.21V318.22C384.21 317.651 384.322 317.087 384.541 316.561C384.759 316.035 385.079 315.557 385.482 315.155C385.885 314.752 386.363 314.434 386.89 314.217C387.416 314 387.98 313.889 388.55 313.89Z" fill="#F5F5F5"/>
<path d="M353.83 325.94H349.83V382.4H353.83V325.94Z" fill="#E6E6E6"/>
<path d="M383.19 325.94H379.19V382.4H383.19V325.94Z" fill="#E6E6E6"/>
<path d="M414.31 325.94H410.31V382.4H414.31V325.94Z" fill="#E6E6E6"/>
<path d="M443.66 325.94H439.66V382.4H443.66V325.94Z" fill="#E6E6E6"/>
<path d="M333.5 325.94H275.17L269.6 229.33C269.563 228.772 269.641 228.212 269.83 227.686C270.019 227.16 270.315 226.678 270.699 226.272C271.083 225.865 271.547 225.543 272.062 225.324C272.576 225.105 273.131 224.995 273.69 225H323.36C324.527 225.015 325.647 225.468 326.495 226.271C327.344 227.073 327.86 228.165 327.94 229.33L333.5 325.94Z" fill="#E6E6E6"/>
<path d="M339.39 325.94H281.05L275.49 229.33C275.451 228.772 275.529 228.211 275.718 227.685C275.906 227.158 276.202 226.676 276.586 226.269C276.971 225.862 277.435 225.539 277.95 225.321C278.466 225.102 279.021 224.993 279.58 225H329.24C330.41 225.012 331.531 225.465 332.382 226.267C333.233 227.07 333.75 228.163 333.83 229.33L339.39 325.94Z" fill="#F5F5F5"/>
<path d="M282.22 313.89H322.83V325.89H277.89V318.17C277.903 317.03 278.365 315.942 279.176 315.141C279.987 314.339 281.08 313.89 282.22 313.89Z" fill="#E6E6E6"/>
<path d="M313.88 313.89H365.58C366.728 313.89 367.83 314.346 368.642 315.158C369.454 315.97 369.91 317.072 369.91 318.22V325.94H309.55V318.22C309.55 317.072 310.006 315.97 310.818 315.158C311.63 314.346 312.731 313.89 313.88 313.89Z" fill="#F5F5F5"/>
<path d="M279.17 325.94H275.17V382.4H279.17V325.94Z" fill="#E6E6E6"/>
<path d="M308.52 325.94H304.52V382.4H308.52V325.94Z" fill="#E6E6E6"/>
<path d="M339.64 325.94H335.64V382.4H339.64V325.94Z" fill="#E6E6E6"/>
<path d="M368.99 325.94H364.99V382.4H368.99V325.94Z" fill="#E6E6E6"/>
<path d="M250 427.56C357.082 427.56 443.89 422.492 443.89 416.24C443.89 409.988 357.082 404.92 250 404.92C142.917 404.92 56.1099 409.988 56.1099 416.24C56.1099 422.492 142.917 427.56 250 427.56Z" fill="#F5F5F5"/>
<path d="M286.59 402.44L279 399.81L283.06 381.55L290.65 384.18L286.59 402.44Z" fill="#B55B52"/>
<path d="M349.66 408.04H341.63L339.56 389.45H347.59L349.66 408.04Z" fill="#B55B52"/>
<path d="M341 407.11H350.19C350.349 407.111 350.502 407.166 350.626 407.266C350.75 407.366 350.836 407.505 350.87 407.66L352.46 414.8C352.496 414.974 352.492 415.153 352.449 415.326C352.406 415.498 352.325 415.658 352.212 415.794C352.098 415.931 351.956 416.04 351.794 416.114C351.633 416.187 351.457 416.224 351.28 416.22C348.13 416.17 345.84 415.98 341.87 415.98C339.43 415.98 332.67 416.24 329.3 416.24C325.93 416.24 325.49 412.91 326.87 412.6C333.05 411.25 337.71 409.39 339.69 407.6C340.053 407.284 340.518 407.11 341 407.11Z" fill="#263238"/>
<path d="M279.11 399L287.39 401.87C287.541 401.921 287.67 402.023 287.755 402.157C287.841 402.292 287.878 402.452 287.86 402.61L287.02 409.87C287.006 410.048 286.951 410.22 286.86 410.374C286.768 410.527 286.642 410.657 286.492 410.754C286.342 410.85 286.172 410.911 285.995 410.931C285.817 410.952 285.638 410.931 285.47 410.87C282.47 409.78 278.24 408.11 274.47 406.81C270.08 405.29 267.99 404.96 262.84 403.18C259.73 402.1 260.61 398.74 262.02 398.81C268.44 399.16 270.85 400.37 277.07 398.98C277.739 398.8 278.445 398.807 279.11 399Z" fill="#263238"/>
<path d="M326.65 167.75C324.37 170.19 322.15 172.41 319.81 174.64C317.47 176.87 315.11 179.01 312.66 181.13C307.694 185.481 302.38 189.418 296.77 192.9C295.266 193.811 293.718 194.645 292.13 195.4C291.32 195.8 290.45 196.17 289.58 196.53L288.21 197.03C287.73 197.19 287.21 197.34 286.69 197.48C282.584 198.548 278.257 198.405 274.23 197.07C270.623 195.85 267.308 193.9 264.49 191.34C263.171 190.165 261.944 188.892 260.82 187.53C260.26 186.86 259.73 186.16 259.23 185.45C258.73 184.74 258.29 184.05 257.76 183.17L263.28 178.98L264.86 180.24C265.42 180.68 265.99 181.09 266.56 181.5C267.685 182.297 268.854 183.031 270.06 183.7C272.229 184.933 274.599 185.776 277.06 186.19C279.086 186.498 281.157 186.259 283.06 185.5L283.77 185.2L284.57 184.83C285.12 184.55 285.67 184.28 286.25 183.94C287.39 183.31 288.54 182.54 289.71 181.76C292.04 180.18 294.36 178.39 296.64 176.5C298.92 174.61 301.18 172.65 303.42 170.62C305.66 168.59 307.86 166.52 310.05 164.43C312.24 162.34 314.45 160.17 316.5 158.11L326.65 167.75Z" fill="#263238"/>
<path d="M263.33 179.61L258.33 171.84L253.33 181.54C253.33 181.54 259.13 187.65 262 184.86L263.33 179.61Z" fill="#B55B52"/>
<path d="M252.28 170.51L249.59 177.34L253.25 181.54L258.29 171.84L252.28 170.51Z" fill="#B55B52"/>
<path opacity="0.2" d="M283.06 381.56L280.97 390.97L288.56 393.6L290.65 384.18L283.06 381.56Z" fill="black"/>
<path opacity="0.2" d="M347.59 389.46H339.56L340.63 399.04H348.66L347.59 389.46Z" fill="black"/>
<path d="M359.87 167.44C351.66 195.22 352.53 224.71 351.45 230.7C345.21 229.87 318.45 225.95 305.6 224.22C303.6 192.04 311.36 170.48 314.88 160.91C315.568 159.031 316.796 157.396 318.41 156.211C320.023 155.027 321.95 154.344 323.95 154.25H324.06C325.24 154.2 326.51 154.17 327.83 154.18C328.56 154.18 329.3 154.18 330.05 154.18C336.121 154.646 342.161 155.461 348.14 156.62C349.27 156.83 350.42 157.07 351.53 157.32C352.64 157.57 353.53 157.81 354.53 158.06H354.66C355.63 158.314 356.539 158.761 357.331 159.376C358.124 159.99 358.783 160.759 359.27 161.636C359.757 162.513 360.061 163.479 360.165 164.477C360.268 165.474 360.167 166.482 359.87 167.44Z" fill="#263238"/>
<path d="M338.1 176.57L338 178.01L347.42 179.57L347.72 178.39L338.1 176.57Z" fill="white"/>
<path opacity="0.3" d="M330.05 154.23C327.89 156.49 325.35 175.33 328.5 184.08C333.82 175.25 344.5 159.39 348.13 156.67C342.155 155.511 336.118 154.696 330.05 154.23Z" fill="white"/>
<path d="M349.09 136.06C347.17 141.72 344.59 152.23 348.14 156.66C346.8 157.98 341.24 159.09 336.14 158.31C331.95 157.67 329.95 155.85 330.06 154.23C336.76 153.55 337.24 148.71 336.72 144.04L349.09 136.06Z" fill="#B55B52"/>
<path opacity="0.2" d="M344 139.31L336.72 144C336.854 145.091 336.894 146.192 336.84 147.29C339.37 147.29 343.14 145 343.76 142.44C344.025 141.419 344.106 140.359 344 139.31Z" fill="black"/>
<path d="M331.68 132.07C330.56 129.53 330.14 124.58 332.25 118.2C333.97 113 339.42 114.68 343.19 115.59C346.96 116.5 345.57 121.59 342.83 125.3C339.89 129.25 331.68 132.07 331.68 132.07Z" fill="#263238"/>
<path d="M353.52 128.05C351.22 135.68 350.27 140.26 345.42 143.31C338.14 147.9 329.42 142.11 329.42 133.95C329.42 126.6 333.15 115.36 341.42 114.07C343.249 113.773 345.124 113.949 346.866 114.581C348.608 115.214 350.16 116.281 351.372 117.682C352.585 119.084 353.419 120.772 353.795 122.587C354.171 124.402 354.076 126.282 353.52 128.05Z" fill="#B55B52"/>
<path d="M348.35 136C347.01 133.57 346.47 127.18 347.75 122.14C348.75 118.32 354.97 117.45 358.42 119.22C362.53 121.33 361.76 125.47 358.67 128.85C355.33 132.51 348.35 136 348.35 136Z" fill="#263238"/>
<path d="M357.6 121.56C360.68 121.38 362.72 117.29 360.22 115.33C357.28 113.03 353.22 115.33 349.52 110.24C346.05 105.46 337.44 104.63 334.2 108.92C332.34 111.39 334 112.38 329.01 115.38C326.1 117.13 327.01 120.1 327.76 121.56C327.68 120.46 328.14 117.63 330.85 117.02C333.12 116.51 334.46 118.47 336.02 116.71C336.02 116.71 341.3 121.56 351.3 122.33C356.87 122.76 357.6 121.56 357.6 121.56Z" fill="#263238"/>
<path d="M355 137.4C353.57 138.804 351.644 139.587 349.64 139.58C346.99 139.58 346.41 136.98 347.77 134.87C349 132.97 351.86 130.69 354.23 131.75C356.6 132.81 356.74 135.66 355 137.4Z" fill="#B55B52"/>
<path d="M278.73 388.23L291.58 392.67C291.58 392.67 304.16 343.09 308.1 318.39C309.3 310.87 311.98 300.47 315.22 289.39C319.31 275.39 324.22 260.31 328.31 248.5C332.56 236.06 335.75 227.27 335.75 227.27L307.75 223.5C307.75 223.5 289.06 287.09 285.75 311.37C282.4 336.59 278.73 388.23 278.73 388.23Z" fill="#263238"/>
<path opacity="0.2" d="M315.22 289.37C319.31 275.37 324.22 260.29 328.31 248.48L325.8 242C318.29 249.84 314.77 275.36 315.22 289.37Z" fill="black"/>
<path d="M322.87 225.51C322.87 225.51 321.49 294.29 323.38 317.73C325.44 343.4 336.92 397.19 336.92 397.19H351.63C351.63 397.19 349.58 347.85 346.57 322.92C343.14 294.52 350.33 229.21 350.33 229.21L322.87 225.51Z" fill="#263238"/>
<path d="M335.16 397.5H352.48V392.33L333.99 392L335.16 397.5Z" fill="#263238"/>
<path d="M277.01 387.97L292.32 393.27L294.03 388.33L277.71 381.56L277.01 387.97Z" fill="#263238"/>
<path d="M341.27 127.45C341.12 128.08 340.67 128.51 340.27 128.45C339.87 128.39 339.64 127.77 339.79 127.14C339.94 126.51 340.39 126.08 340.79 126.14C341.19 126.2 341.42 126.82 341.27 127.45Z" fill="#263238"/>
<path d="M334.15 125.77C334 126.4 333.55 126.84 333.15 126.77C332.75 126.7 332.53 126.08 332.68 125.45C332.83 124.82 333.28 124.39 333.68 124.45C334.08 124.51 334.3 125.14 334.15 125.77Z" fill="#263238"/>
<path d="M336.34 126.62C335.135 128.369 333.695 129.944 332.06 131.3C332.419 131.708 332.863 132.033 333.36 132.253C333.857 132.472 334.397 132.58 334.94 132.57L336.34 126.62Z" fill="#A02724"/>
<path d="M337.2 134.89C337.915 134.964 338.638 134.894 339.325 134.682C340.012 134.471 340.65 134.123 341.2 133.66C341.237 133.626 341.259 133.578 341.261 133.527C341.263 133.476 341.244 133.427 341.21 133.39C341.175 133.353 341.128 133.331 341.077 133.329C341.026 133.327 340.977 133.346 340.94 133.38C340.317 133.892 339.582 134.249 338.795 134.423C338.008 134.596 337.19 134.582 336.41 134.38C336.386 134.374 336.36 134.373 336.336 134.377C336.311 134.381 336.287 134.389 336.266 134.402C336.244 134.415 336.226 134.432 336.211 134.453C336.196 134.473 336.186 134.496 336.18 134.52C336.17 134.569 336.18 134.62 336.205 134.662C336.231 134.705 336.272 134.736 336.32 134.75C336.65 134.81 336.93 134.86 337.2 134.89Z" fill="#263238"/>
<path d="M344 125.66C344.061 125.679 344.128 125.679 344.19 125.66C344.236 125.641 344.277 125.612 344.312 125.576C344.347 125.54 344.374 125.497 344.391 125.451C344.409 125.404 344.417 125.354 344.415 125.304C344.413 125.254 344.401 125.205 344.38 125.16C344.149 124.603 343.788 124.11 343.327 123.722C342.865 123.334 342.318 123.062 341.73 122.93C341.68 122.921 341.63 122.923 341.581 122.934C341.532 122.944 341.486 122.965 341.445 122.994C341.404 123.022 341.37 123.059 341.343 123.101C341.316 123.144 341.298 123.191 341.29 123.24C341.275 123.341 341.3 123.443 341.36 123.525C341.42 123.607 341.509 123.663 341.61 123.68C342.074 123.791 342.505 124.012 342.866 124.323C343.228 124.635 343.51 125.028 343.69 125.47C343.721 125.526 343.765 125.572 343.82 125.606C343.874 125.639 343.936 125.658 344 125.66Z" fill="#263238"/>
<path d="M331.65 122.6C331.714 122.607 331.779 122.598 331.838 122.574C331.898 122.549 331.95 122.51 331.99 122.46C332.28 122.08 332.656 121.775 333.087 121.57C333.518 121.364 333.993 121.265 334.47 121.28C334.519 121.285 334.569 121.281 334.617 121.267C334.665 121.253 334.709 121.229 334.747 121.197C334.785 121.165 334.817 121.126 334.84 121.082C334.863 121.038 334.876 120.99 334.88 120.94C334.889 120.841 334.859 120.743 334.798 120.665C334.737 120.587 334.648 120.535 334.55 120.52C333.945 120.498 333.343 120.621 332.796 120.878C332.248 121.136 331.769 121.52 331.4 122C331.367 122.039 331.343 122.083 331.328 122.131C331.312 122.179 331.307 122.23 331.312 122.28C331.316 122.331 331.331 122.38 331.355 122.424C331.378 122.469 331.411 122.508 331.45 122.54C331.51 122.578 331.579 122.599 331.65 122.6Z" fill="#263238"/>
<path d="M338.33 408.52C339.038 408.5 339.742 408.403 340.43 408.23C340.468 408.221 340.502 408.201 340.529 408.172C340.555 408.144 340.573 408.108 340.58 408.07C340.583 408.033 340.576 407.996 340.56 407.963C340.545 407.93 340.52 407.901 340.49 407.88C340.2 407.7 337.61 406.11 336.72 406.56C336.621 406.612 336.539 406.69 336.481 406.785C336.423 406.88 336.391 406.989 336.39 407.1C336.372 407.287 336.398 407.475 336.468 407.649C336.538 407.823 336.648 407.978 336.79 408.1C337.242 408.409 337.784 408.557 338.33 408.52ZM339.88 407.96C338.52 408.23 337.47 408.18 337.03 407.81C336.933 407.727 336.859 407.622 336.813 407.503C336.768 407.384 336.753 407.256 336.77 407.13C336.767 407.084 336.777 407.039 336.798 406.998C336.819 406.958 336.851 406.924 336.89 406.9C337.35 406.66 338.83 407.35 339.88 408V407.96Z" fill="#393ED0"/>
<path d="M340.39 408.23C340.423 408.239 340.457 408.239 340.49 408.23C340.518 408.212 340.541 408.186 340.557 408.157C340.573 408.127 340.581 408.094 340.58 408.06C340.58 407.96 340.38 405.64 339.44 404.88C339.331 404.783 339.202 404.712 339.062 404.67C338.922 404.629 338.774 404.619 338.63 404.64C338.489 404.64 338.352 404.688 338.242 404.778C338.133 404.867 338.058 404.992 338.03 405.13C337.86 406.03 339.47 407.79 340.3 408.24L340.39 408.23ZM338.77 405C338.93 404.999 339.084 405.06 339.2 405.17C339.765 405.89 340.097 406.766 340.15 407.68C339.33 407.05 338.3 405.68 338.4 405.2C338.4 405.15 338.4 405.03 338.68 405H338.77Z" fill="#393ED0"/>
<path d="M278 399.74C278.034 399.741 278.069 399.731 278.099 399.714C278.129 399.696 278.153 399.671 278.17 399.64C278.191 399.607 278.203 399.569 278.203 399.53C278.203 399.491 278.191 399.453 278.17 399.42C277.89 399.13 275.37 396.52 274.27 396.72C274.168 396.739 274.073 396.782 273.993 396.847C273.913 396.911 273.85 396.995 273.81 397.09C273.729 397.244 273.687 397.416 273.687 397.59C273.687 397.764 273.729 397.936 273.81 398.09C274.39 399.09 276.67 399.57 277.97 399.75L278 399.74ZM274.38 397.09C275.02 397.09 276.46 398.29 277.46 399.28C275.69 398.98 274.46 398.47 274.15 397.9C274.095 397.8 274.067 397.689 274.067 397.575C274.067 397.461 274.095 397.35 274.15 397.25C274.161 397.209 274.184 397.172 274.216 397.143C274.248 397.115 274.287 397.096 274.33 397.09H274.38Z" fill="#393ED0"/>
<path d="M278 399.74H278.05C278.082 399.729 278.112 399.711 278.136 399.687C278.161 399.662 278.179 399.633 278.19 399.6C278.19 399.51 278.71 397.4 278.02 396.27C277.923 396.107 277.794 395.966 277.641 395.854C277.488 395.742 277.314 395.663 277.13 395.62C276.62 395.5 276.39 395.7 276.29 395.89C275.85 396.7 277.1 398.96 277.87 399.69C277.887 399.707 277.907 399.72 277.929 399.729C277.952 399.738 277.976 399.741 278 399.74ZM276.85 396H277.04C277.175 396.03 277.303 396.089 277.415 396.171C277.527 396.254 277.621 396.359 277.69 396.48C278.035 397.331 278.105 398.268 277.89 399.16C277.15 398.28 276.36 396.56 276.62 396.08C276.647 396.047 276.683 396.021 276.723 396.007C276.764 395.993 276.808 395.991 276.85 396Z" fill="#393ED0"/>
<path d="M357.5 159.65C358.57 161.09 359.5 162.37 360.4 163.76C361.3 165.15 362.2 166.5 363.08 167.89C364.82 170.67 366.457 173.533 367.99 176.48C369.553 179.461 370.959 182.522 372.2 185.65C373.539 188.939 374.564 192.348 375.26 195.83C375.44 196.75 375.58 197.7 375.69 198.66C375.69 198.73 375.69 199.03 375.75 199.22C375.81 199.41 375.75 199.66 375.75 199.85C375.75 200.26 375.75 200.65 375.75 201.01C375.699 201.682 375.606 202.35 375.47 203.01C374.999 205.047 374.255 207.011 373.26 208.85C371.621 211.913 369.703 214.819 367.53 217.53C365.46 220.15 363.31 222.61 361.07 224.96C358.83 227.31 356.53 229.55 354.02 231.72L348.86 227.09C352.23 221.95 355.71 216.73 358.65 211.53C360.088 209.078 361.344 206.525 362.41 203.89C362.81 202.902 363.086 201.867 363.23 200.81C363.248 200.694 363.248 200.576 363.23 200.46C363.1 199.87 362.97 199.27 362.79 198.65C362.012 196.006 361.032 193.425 359.86 190.93C358.63 188.33 357.28 185.7 355.8 183.11C354.32 180.52 352.8 177.95 351.17 175.39C350.37 174.123 349.553 172.857 348.72 171.59L346.25 167.92L357.5 159.65Z" fill="#263238"/>
<path d="M351 226.21L343 228.65L350.18 236.27C350.18 236.27 356.29 232.63 354.72 229.18L351 226.21Z" fill="#B55B52"/>
<path d="M339.75 234.44L345.55 240.26L350.22 236.27L343.04 228.66L339.75 234.44Z" fill="#B55B52"/>
<path opacity="0.3" d="M321.74 226.9C321.74 226.9 323.27 216.48 325.92 211.41C326.47 215.85 328.33 227.52 328.33 227.52L321.74 226.9Z" fill="white"/>
<path d="M88.8323 123.312L87.8325 123.331L88.2974 147.327L89.2973 147.307L88.8323 123.312Z" fill="#393ED0"/>
<path d="M89.4461 154.996L88.4463 155.016L88.6462 165.334L89.646 165.315L89.4461 154.996Z" fill="#393ED0"/>
<path d="M286.12 98.89H90.8501L95.9901 365.67H291.26L286.12 98.89Z" fill="#393ED0"/>
<path opacity="0.8" d="M275.38 107.67H102.85L107.65 356.24H280.17L275.38 107.67Z" fill="white"/>
<path d="M275.35 106.42H102.83L109.84 354.98H282.37L275.35 106.42Z" fill="white"/>
<path opacity="0.2" d="M152.88 157.31L162.13 129.75C167.844 131.815 172.81 135.544 176.387 140.455C179.964 145.367 181.988 151.237 182.2 157.31C182.419 164.133 180.173 170.807 175.874 176.111C171.576 181.414 165.511 184.992 158.79 186.19L152.88 157.31Z" fill="#393ED0"/>
<path d="M152.88 157.31L158.79 186.19C157.112 186.481 155.413 186.628 153.71 186.63C145.88 186.551 138.382 183.462 132.768 178.003C127.155 172.544 123.858 165.134 123.56 157.31C123.449 153.5 124.104 149.706 125.486 146.154C126.868 142.601 128.949 139.363 131.606 136.629C134.263 133.896 137.441 131.724 140.953 130.242C144.465 128.759 148.238 127.997 152.05 128C155.487 128.004 158.897 128.602 162.13 129.77L152.88 157.31Z" fill="#393ED0"/>
<path opacity="0.2" d="M226 157.31L225.27 128C233.081 128.058 240.567 131.136 246.16 136.59C257.86 147.97 258.39 166.69 247.33 178.06C236.27 189.43 217.56 189.44 205.86 178.06C201.496 173.825 198.506 168.376 197.28 162.42L226 157.31Z" fill="#393ED0"/>
<path d="M226 157.31L197.27 162.4C196.33 158.063 196.42 153.566 197.532 149.269C198.643 144.972 200.746 140.996 203.671 137.659C206.596 134.321 210.263 131.715 214.377 130.05C218.49 128.385 222.937 127.707 227.36 128.07L226 157.31Z" fill="#393ED0"/>
<path d="M262.06 332.06H127.19L125.42 269.62L126.49 269.61L128.22 330.99H262.03L262.06 332.06Z" fill="#393ED0"/>
<path d="M262 330.32C262.319 330.323 262.625 330.449 262.853 330.673C263.081 330.897 263.212 331.201 263.22 331.52C263.225 331.677 263.199 331.833 263.143 331.979C263.086 332.125 263.001 332.258 262.891 332.37C262.782 332.482 262.651 332.571 262.506 332.631C262.362 332.691 262.207 332.722 262.05 332.72C261.729 332.72 261.421 332.595 261.191 332.37C260.961 332.146 260.828 331.841 260.82 331.52C260.817 331.363 260.846 331.208 260.904 331.062C260.962 330.917 261.049 330.784 261.158 330.673C261.268 330.561 261.399 330.472 261.544 330.412C261.688 330.351 261.843 330.32 262 330.32Z" fill="#393ED0"/>
<path d="M127.16 269.66C127.147 269.34 127.011 269.037 126.78 268.815C126.548 268.593 126.24 268.47 125.92 268.47C125.764 268.471 125.609 268.504 125.466 268.566C125.322 268.627 125.193 268.717 125.085 268.83C124.977 268.943 124.892 269.076 124.836 269.222C124.781 269.368 124.755 269.524 124.76 269.68C124.768 270 124.901 270.304 125.131 270.527C125.361 270.749 125.67 270.873 125.99 270.87C126.147 270.87 126.303 270.839 126.447 270.777C126.592 270.716 126.723 270.626 126.832 270.513C126.941 270.4 127.026 270.267 127.083 270.12C127.139 269.973 127.165 269.817 127.16 269.66Z" fill="#393ED0"/>
<path d="M131.93 327.94L131.16 327.19L147.09 310.8H156.61L160.97 306.32H174.68L203.33 276.84H210.09L219.9 286.38H226L243.92 267.94H260.25L260.27 269H244.39L226.47 287.44H219.48L209.67 277.9H203.79L175.14 307.38H161.43L157.08 311.87H147.55L131.93 327.94Z" fill="#393ED0"/>
<path d="M132.46 328.37C132.291 328.541 132.076 328.658 131.841 328.706C131.605 328.754 131.361 328.731 131.139 328.639C130.917 328.548 130.727 328.393 130.594 328.194C130.46 327.995 130.389 327.76 130.389 327.52C130.389 327.28 130.46 327.046 130.594 326.846C130.727 326.647 130.917 326.492 131.139 326.401C131.361 326.31 131.605 326.287 131.841 326.334C132.076 326.382 132.291 326.499 132.46 326.67C132.683 326.897 132.809 327.202 132.809 327.52C132.809 327.838 132.683 328.144 132.46 328.37Z" fill="#393ED0"/>
<path d="M260.23 269.67C260.386 269.67 260.541 269.639 260.684 269.578C260.828 269.518 260.959 269.429 261.068 269.317C261.177 269.205 261.262 269.072 261.319 268.927C261.376 268.782 261.404 268.626 261.4 268.47C261.392 268.151 261.26 267.847 261.033 267.623C260.805 267.399 260.499 267.273 260.18 267.27C260.023 267.27 259.868 267.301 259.723 267.362C259.579 267.422 259.448 267.511 259.338 267.623C259.228 267.734 259.142 267.867 259.084 268.012C259.026 268.158 258.997 268.313 259 268.47C259.01 268.79 259.144 269.094 259.373 269.318C259.602 269.541 259.909 269.668 260.23 269.67Z" fill="#393ED0"/>
<g opacity="0.2">
<path d="M131.76 322.03L130.99 321.28L150 301.71H165.61L176.19 312.01H188.02L198.35 301.37H211.63L215.96 296.92H228.77L237.58 287.85H241.9L262.01 307.42L261.28 308.17L241.48 288.92H238.04L229.23 297.99H216.43L212.1 302.44H198.81L188.48 313.07H175.78L165.19 302.78H150.47L131.76 322.03Z" fill="#393ED0"/>
<path d="M132.29 322.45C132.122 322.622 131.906 322.74 131.671 322.79C131.435 322.839 131.191 322.816 130.968 322.726C130.745 322.635 130.554 322.48 130.42 322.28C130.286 322.081 130.214 321.846 130.214 321.605C130.214 321.364 130.286 321.129 130.42 320.93C130.554 320.73 130.745 320.575 130.968 320.484C131.191 320.394 131.435 320.371 131.671 320.42C131.906 320.47 132.122 320.588 132.29 320.76C132.401 320.871 132.49 321.002 132.55 321.147C132.611 321.292 132.642 321.448 132.642 321.605C132.642 321.762 132.611 321.918 132.55 322.063C132.49 322.208 132.401 322.339 132.29 322.45Z" fill="#393ED0"/>
<path d="M260.77 308.61C260.937 308.774 261.149 308.885 261.379 308.929C261.609 308.973 261.848 308.948 262.064 308.857C262.28 308.766 262.464 308.614 262.594 308.419C262.723 308.223 262.793 307.994 262.793 307.76C262.793 307.526 262.723 307.297 262.594 307.101C262.464 306.906 262.28 306.754 262.064 306.663C261.848 306.572 261.609 306.547 261.379 306.591C261.149 306.635 260.937 306.746 260.77 306.91C260.546 307.136 260.421 307.442 260.421 307.76C260.421 308.078 260.546 308.383 260.77 308.61Z" fill="#393ED0"/>
</g>
<path d="M138.83 218.97H124.53L124.12 204.67H138.42L138.83 218.97Z" fill="#393ED0"/>
<path d="M212.46 214.41H147.25L147.1 209.23H212.31L212.46 214.41Z" fill="#E0E0E0"/>
<path d="M256.89 214.41H220.61L220.46 209.23H256.74L256.89 214.41Z" fill="#E0E0E0"/>
<path d="M185.4 236.97H147.88L147.74 231.79H185.25L185.4 236.97Z" fill="#E0E0E0"/>
<path d="M240.79 236.97H193.55L193.4 231.79H240.65L240.79 236.97Z" fill="#E0E0E0"/>
<path opacity="0.2" d="M139.46 241.53H125.16L124.76 227.23H139.06L139.46 241.53Z" fill="#393ED0"/>
<path d="M259.25 183.65L342.09 230.33L341.05 232.16L258.76 184.52L259.25 183.65Z" fill="#E0E0E0"/>
</svg>
