<svg width="500" height="500" viewBox="0 0 500 500" fill="none" xmlns="http://www.w3.org/2000/svg">
<g clip-path="url(#clip0_58_959)">
<g clip-path="url(#clip1_58_959)">
<path d="M389.256 387.475L381.606 387.475L377.967 357.966L389.258 357.967L389.256 387.475Z" fill="#FFB6B6"/>
<path d="M389.525 395.456L366 395.455V395.158C366 390.101 370.1 386.001 375.157 386.001L379.455 382.741L387.472 386.001L389.526 386.002L389.525 395.456Z" fill="#2F2E41"/>
<path d="M355.34 387.475L347.69 387.475L344.051 357.966L355.342 357.967L355.34 387.475Z" fill="#FFB6B6"/>
<path d="M355.609 395.456L332.084 395.455V395.158C332.084 390.101 336.184 386.001 341.241 386.001L345.539 382.741L353.556 386.001L355.61 386.002L355.609 395.456Z" fill="#2F2E41"/>
<path d="M351.695 222.796L395.832 223.725C395.832 223.725 403.767 236.734 397.709 255.086L398.387 260.197L395.6 268.095L394.206 292.255L395.6 295.971L394.67 302.941C394.67 302.941 398.387 348.936 389.095 372.167L377.945 371.702L373.763 311.093L376.086 306.657L375.622 304.799L370.046 276.923L364.471 291.325V299.328L359.361 305.264C359.361 305.264 361.219 360.087 356.108 371.237H343.624L338.918 296.901L343.564 253.692L342.635 250.905L344.029 249.511L343.099 244.865L351.695 222.796Z" fill="#2F2E41"/>
<path d="M370.511 138.006L383.985 134.754L387.702 143.581C387.702 143.581 406.932 153.803 407.861 167.741C407.861 167.741 410.467 178.891 408.144 184.002C405.821 189.112 396.064 205.374 396.064 205.374C396.064 205.374 404.892 233.714 402.569 235.108C400.246 236.502 344.958 233.714 344.958 230.927C344.958 228.139 354.159 198.869 354.159 198.869L356.108 148.692L368.653 144.046L370.511 138.006Z" fill="#393ED0"/>
<path d="M406.431 252.375C403.611 250.954 402.477 247.516 403.898 244.696C404.041 244.412 404.209 244.15 404.39 243.902L396.893 192.499L407.273 192.831L412.702 242.915C414.67 244.584 415.323 247.436 414.11 249.842C412.689 252.662 409.251 253.796 406.431 252.375Z" fill="#FFB6B6"/>
<path d="M307.944 228.115C306.809 225.168 308.277 221.859 311.223 220.724C311.52 220.61 311.821 220.529 312.122 220.466L341.085 177.343L348.553 184.559L318.943 225.317C319.281 227.875 317.849 230.426 315.335 231.395C312.389 232.53 309.079 231.062 307.944 228.115Z" fill="#FFB6B6"/>
<path d="M387.517 179.534C384.584 169.459 389.455 159.18 399.948 159.23C402.981 159.244 405.338 160.124 405.991 162.56C408.276 171.087 409.523 183.957 409.523 183.957L412.234 197.661L410.592 200.506L414.016 209.689L412.355 214.034L411.996 236.22L403.633 235.756L394.419 218.842L390.895 216.747C390.895 216.747 393.724 189.4 388.097 181.526L387.517 179.534Z" fill="#393ED0"/>
<path d="M350.058 154.739C354.948 145.455 367.467 143.256 374.98 150.581C377.152 152.699 378.235 154.969 377.012 157.174C372.733 164.895 362.813 173.208 362.813 173.208L350.598 192.847L347.44 193.752L343.522 202.736L335.128 212.606L324.01 218.469L317.505 211.965L318.887 203.603L335.625 181.301C335.625 181.301 347.668 166.148 349.091 156.575L350.058 154.739Z" fill="#393ED0"/>
<path d="M373.071 135.291C373.379 135.328 373.686 135.355 373.991 135.369C374.94 135.421 375.878 135.367 376.783 135.214C379.53 134.774 382.025 133.473 383.951 131.565C385.987 129.551 387.38 126.864 387.756 123.805C388.639 116.584 383.497 110.006 376.276 109.124C369.159 108.249 362.671 113.227 361.635 120.282C361.619 120.392 361.602 120.496 361.59 120.605C360.708 127.831 365.845 134.404 373.071 135.291Z" fill="#FFB6B6"/>
<path d="M358.666 119.799C360.536 120.724 363.593 117.816 364.763 119.489C364.953 119.128 365.163 118.778 365.371 118.447C365.559 118.151 365.827 117.52 366.138 117.411C365.745 118.36 365.831 119.645 366.24 120.746C368.085 121.436 370.5 119.91 372.208 118.104C374.889 115.274 379.268 122.532 378.233 126.288C379.55 124.679 382.409 125.587 383.378 127.426C384.347 129.261 382.71 130.732 382.36 132.779L385.002 132.443C386.668 130.82 386.552 128.085 387.924 126.204C390.217 123.056 391.105 119.843 389.381 116.594C387.853 113.721 387.71 110.003 384.906 108.346C386.131 107.747 381.774 108.683 382.938 106.731C384.107 104.783 377.876 104.546 377.469 105.59C375.689 103.459 373.893 102.054 371.703 103.762C369.552 105.442 369.774 107.207 367.248 107.049C366.062 106.976 366.193 109.186 365.488 110.15C364.787 111.108 362.064 111.723 361.931 111.621C361.212 111.058 358.764 115.849 358.764 115.849C358.764 115.849 356.78 118.862 358.666 119.799Z" fill="#2F2E41"/>
<path d="M193.804 203.423C238.064 203.423 273.944 239.303 273.944 283.563C273.944 327.824 238.064 363.704 193.804 363.704C149.544 363.704 88.2896 319.821 113.664 283.563C139.038 247.306 149.544 203.423 193.804 203.423Z" fill="#F2F2F2"/>
<path d="M301.066 207.235C300.348 207.235 299.763 207.82 299.763 208.539V250.238C299.763 250.956 300.348 251.541 301.066 251.541C301.785 251.541 302.369 250.956 302.369 250.238V208.539C302.369 207.82 301.785 207.235 301.066 207.235Z" fill="#393ED0"/>
<path d="M82.1464 175.961C81.4277 175.961 80.8433 176.546 80.8433 177.264V187.689C80.8433 188.408 81.4277 188.992 82.1464 188.992C82.865 188.992 83.4494 188.408 83.4494 187.689V177.264C83.4494 176.546 82.865 175.961 82.1464 175.961Z" fill="#393ED0"/>
<path d="M82.1464 207.235C81.4277 207.235 80.8433 207.82 80.8433 208.539V228.736C80.8433 229.455 81.4277 230.04 82.1464 230.04C82.865 230.04 83.4494 229.455 83.4494 228.736V208.539C83.4494 207.82 82.865 207.235 82.1464 207.235Z" fill="#393ED0"/>
<path d="M82.1464 235.903C81.4277 235.903 80.8433 236.488 80.8433 237.207V257.404C80.8433 258.123 81.4277 258.708 82.1464 258.708C82.865 258.708 83.4494 258.123 83.4494 257.404V237.207C83.4494 236.488 82.865 235.903 82.1464 235.903Z" fill="#393ED0"/>
<path d="M199.017 134.914C198.298 134.914 197.714 135.498 197.714 136.217V156.415C197.714 157.134 198.298 157.718 199.017 157.718C199.736 157.718 200.32 157.134 200.32 156.415V136.217C200.32 135.498 199.736 134.914 199.017 134.914Z" fill="#393ED0"/>
<path d="M398.648 384.864C399.994 384.948 400.738 383.276 399.72 382.301L399.618 381.898C399.632 381.866 399.645 381.834 399.659 381.802C401.02 378.556 405.633 378.578 406.983 381.829C408.181 384.714 409.706 387.604 410.082 390.655C410.25 392.001 410.174 393.373 409.875 394.695C412.682 388.563 414.159 381.868 414.159 375.135C414.159 373.443 414.067 371.751 413.877 370.064C413.722 368.683 413.507 367.312 413.229 365.952C411.727 358.605 408.474 351.606 403.782 345.761C401.526 344.528 399.645 342.601 398.509 340.29C398.101 339.457 397.781 338.561 397.629 337.648C397.886 337.681 398.597 333.772 398.404 333.532C398.761 332.989 399.402 332.719 399.792 332.19C401.736 329.555 404.413 330.015 405.81 333.595C408.796 335.102 408.825 337.601 406.993 340.004C405.827 341.533 405.667 343.602 404.645 345.239C404.75 345.374 404.859 345.504 404.964 345.639C406.894 348.114 408.562 350.773 409.969 353.568C409.571 350.462 410.158 346.721 411.159 344.309C412.298 341.562 414.433 339.247 416.313 336.872C418.571 334.019 423.202 335.264 423.6 338.881C423.604 338.916 423.607 338.951 423.611 338.986C423.332 339.143 423.058 339.311 422.791 339.487C421.267 340.496 421.794 342.858 423.6 343.137L423.641 343.144C423.54 344.149 423.367 345.147 423.115 346.127C425.526 355.455 420.319 358.852 412.884 359.005C412.72 359.089 412.56 359.173 412.396 359.253C413.15 361.374 413.751 363.549 414.197 365.755C414.597 367.703 414.875 369.672 415.031 371.65C415.224 374.146 415.207 376.654 414.997 379.145L415.01 379.057C415.544 376.313 417.034 373.75 419.197 371.974C422.419 369.327 426.972 368.353 430.448 366.225C432.121 365.201 434.266 366.524 433.973 368.464L433.959 368.557C433.442 368.768 432.937 369.012 432.449 369.285C432.169 369.443 431.896 369.61 431.628 369.787C430.104 370.795 430.631 373.158 432.437 373.437L432.478 373.443C432.507 373.447 432.533 373.451 432.562 373.456C431.674 375.564 430.437 377.521 428.888 379.208C427.38 387.351 420.903 388.123 413.974 385.752H413.97C413.213 389.051 412.106 392.275 410.683 395.347H398.942C398.9 395.216 398.862 395.082 398.825 394.951C399.91 395.019 401.004 394.956 402.073 394.758C401.202 393.689 400.331 392.612 399.46 391.543C399.439 391.522 399.422 391.501 399.405 391.48C398.963 390.933 398.517 390.39 398.076 389.843L398.075 389.842C398.048 388.163 398.249 386.488 398.648 384.864Z" fill="#F2F2F2"/>
<path d="M66 395.382C66 395.812 66.3453 396.157 66.7754 396.157H433.133C433.563 396.157 433.908 395.812 433.908 395.382C433.908 394.952 433.563 394.606 433.133 394.606H66.7754C66.3453 394.606 66 394.952 66 395.382Z" fill="#CCCCCC"/>
<path d="M158.765 278.161H113.664V276.858H158.765C162.682 276.858 165.87 273.67 165.87 269.752V239.258H167.173V269.752C167.173 274.389 163.401 278.161 158.765 278.161Z" fill="#6C63FF"/>
<path d="M244.82 344.264H142.243V345.567H244.82V344.264Z" fill="#6C63FF"/>
<path d="M309.902 269.448H255.112C252.155 269.448 249.75 267.042 249.75 264.086V209.964C249.75 207.008 252.155 204.602 255.112 204.602H309.902C312.859 204.602 315.264 207.008 315.264 209.964V264.086C315.264 267.042 312.859 269.448 309.902 269.448Z" fill="#E6E6E6"/>
<path d="M265.316 206.2C257.601 206.2 251.348 212.454 251.348 220.168V262.937C251.348 265.651 253.547 267.85 256.26 267.85H289.763C302.964 267.85 313.666 257.148 313.666 243.947V211.113C313.666 208.399 311.467 206.2 308.754 206.2L265.316 206.2Z" fill="white"/>
<path d="M297.181 221.928H267.718C267.156 221.928 266.698 221.47 266.698 220.908C266.698 220.346 267.156 219.889 267.718 219.889H297.181C297.743 219.889 298.2 220.346 298.2 220.908C298.2 221.47 297.743 221.928 297.181 221.928Z" fill="#E6E6E6"/>
<path d="M297.181 243.666H267.718C267.156 243.666 266.698 243.208 266.698 242.646C266.698 242.084 267.156 241.627 267.718 241.627H297.181C297.743 241.627 298.2 242.084 298.2 242.646C298.2 243.208 297.743 243.666 297.181 243.666Z" fill="#E6E6E6"/>
<path d="M309.146 232.804H255.753C255.191 232.804 254.734 232.347 254.734 231.784C254.734 231.222 255.191 230.765 255.753 230.765H309.146C309.708 230.765 310.165 231.222 310.165 231.784C310.165 232.347 309.708 232.804 309.146 232.804Z" fill="#E6E6E6"/>
<path d="M309.691 252.504H290.403C289.841 252.504 289.383 252.047 289.383 251.485C289.383 250.923 289.841 250.466 290.403 250.466H309.691C310.253 250.466 310.71 250.923 310.71 251.485C310.71 252.047 310.253 252.504 309.691 252.504Z" fill="#E6E6E6"/>
<path d="M194.818 377.282H151.311C148.963 377.282 147.053 375.372 147.053 373.024V330.048C147.053 327.7 148.963 325.79 151.311 325.79H194.818C197.166 325.79 199.076 327.7 199.076 330.048V373.024C199.076 375.372 197.166 377.282 194.818 377.282Z" fill="#E6E6E6"/>
<path d="M159.413 327.058C153.288 327.058 148.322 332.024 148.322 338.15V372.112C148.322 374.266 150.068 376.013 152.223 376.013H178.826C189.309 376.013 197.807 367.515 197.807 357.032V330.96C197.807 328.805 196.06 327.058 193.906 327.058L159.413 327.058Z" fill="white"/>
<path d="M184.717 339.547H161.321C160.874 339.547 160.511 339.184 160.511 338.738C160.511 338.292 160.874 337.929 161.321 337.929H184.717C185.163 337.929 185.526 338.292 185.526 338.738C185.526 339.184 185.163 339.547 184.717 339.547Z" fill="#E6E6E6"/>
<path d="M184.717 356.809H161.321C160.874 356.809 160.511 356.446 160.511 355.999C160.511 355.553 160.874 355.19 161.321 355.19H184.717C185.163 355.19 185.526 355.553 185.526 355.999C185.526 356.446 185.163 356.809 184.717 356.809Z" fill="#E6E6E6"/>
<path d="M194.217 348.184H151.82C151.374 348.184 151.011 347.821 151.011 347.374C151.011 346.928 151.374 346.565 151.82 346.565H194.217C194.664 346.565 195.027 346.928 195.027 347.374C195.027 347.821 194.664 348.184 194.217 348.184Z" fill="#E6E6E6"/>
<path d="M194.65 363.827H179.334C178.888 363.827 178.524 363.464 178.524 363.018C178.524 362.571 178.888 362.208 179.334 362.208H194.65C195.096 362.208 195.459 362.571 195.459 363.018C195.459 363.464 195.096 363.827 194.65 363.827Z" fill="#E6E6E6"/>
<path d="M164.41 238.929H132.234C130.498 238.929 129.085 237.517 129.085 235.78V203.998C129.085 202.261 130.498 200.849 132.234 200.849H164.41C166.146 200.849 167.558 202.261 167.558 203.998V235.78C167.558 237.517 166.146 238.929 164.41 238.929Z" fill="#E6E6E6"/>
<path d="M138.226 201.787C133.696 201.787 130.023 205.459 130.023 209.99V235.106C130.023 236.699 131.315 237.991 132.908 237.991H152.583C160.335 237.991 166.62 231.706 166.62 223.954V204.672C166.62 203.079 165.328 201.787 163.735 201.787L138.226 201.787Z" fill="white"/>
<path d="M156.939 211.023H139.637C139.307 211.023 139.038 210.755 139.038 210.424C139.038 210.094 139.307 209.826 139.637 209.826H156.939C157.269 209.826 157.538 210.094 157.538 210.424C157.538 210.755 157.269 211.023 156.939 211.023Z" fill="#E6E6E6"/>
<path d="M156.939 223.789H139.637C139.307 223.789 139.038 223.52 139.038 223.19C139.038 222.86 139.307 222.591 139.637 222.591H156.939C157.269 222.591 157.538 222.86 157.538 223.19C157.538 223.52 157.269 223.789 156.939 223.789Z" fill="#E6E6E6"/>
<path d="M163.965 217.41H132.611C132.281 217.41 132.012 217.142 132.012 216.811C132.012 216.481 132.281 216.213 132.611 216.213H163.965C164.295 216.213 164.564 216.481 164.564 216.811C164.564 217.142 164.295 217.41 163.965 217.41Z" fill="#E6E6E6"/>
<path d="M164.285 228.979H152.959C152.628 228.979 152.36 228.711 152.36 228.38C152.36 228.05 152.628 227.782 152.959 227.782H164.285C164.616 227.782 164.884 228.05 164.884 228.38C164.884 228.711 164.616 228.979 164.285 228.979Z" fill="#E6E6E6"/>
<path d="M258.307 279.002C261.906 279.002 264.823 276.085 264.823 272.487C264.823 268.889 261.906 265.972 258.307 265.972C254.709 265.972 251.792 268.889 251.792 272.487C251.792 276.085 254.709 279.002 258.307 279.002Z" fill="#6C63FF"/>
<path d="M166.439 245.773C170.038 245.773 172.955 242.856 172.955 239.258C172.955 235.66 170.038 232.743 166.439 232.743C162.841 232.743 159.924 235.66 159.924 239.258C159.924 242.856 162.841 245.773 166.439 245.773Z" fill="#6C63FF"/>
<path d="M197.714 335.035C201.312 335.035 204.229 332.118 204.229 328.52C204.229 324.922 201.312 322.005 197.714 322.005C194.115 322.005 191.198 324.922 191.198 328.52C191.198 332.118 194.115 335.035 197.714 335.035Z" fill="#6C63FF"/>
<path d="M211.787 154.376C216.272 154.376 219.908 150.817 219.908 146.427C219.908 142.037 216.272 138.478 211.787 138.478C207.303 138.478 203.667 142.037 203.667 146.427C203.667 150.817 207.303 154.376 211.787 154.376Z" fill="#F2F2F2"/>
<path d="M276.886 143.707H233.177C231.677 143.707 230.457 142.487 230.457 140.988C230.457 139.488 231.677 138.268 233.177 138.268H276.886C278.385 138.268 279.605 139.488 279.605 140.988C279.605 142.487 278.385 143.707 276.886 143.707Z" fill="#F2F2F2"/>
<path d="M310.996 152.912H233.177C231.677 152.912 230.457 151.692 230.457 150.192C230.457 148.693 231.677 147.473 233.177 147.473H310.996C312.495 147.473 313.715 148.693 313.715 150.192C313.715 151.692 312.495 152.912 310.996 152.912Z" fill="#F2F2F2"/>
<path d="M94.2505 187.786C97.153 187.786 99.5059 185.483 99.5059 182.641C99.5059 179.8 97.153 177.497 94.2505 177.497C91.348 177.497 88.9951 179.8 88.9951 182.641C88.9951 185.483 91.348 187.786 94.2505 187.786Z" fill="#F2F2F2"/>
<path d="M136.381 180.881H108.093C107.123 180.881 106.333 180.092 106.333 179.121C106.333 178.151 107.123 177.361 108.093 177.361H136.381C137.351 177.361 138.141 178.151 138.141 179.121C138.141 180.092 137.351 180.881 136.381 180.881Z" fill="#F2F2F2"/>
<path d="M158.457 186.838H108.093C107.123 186.838 106.333 186.049 106.333 185.078C106.333 184.108 107.123 183.318 108.093 183.318H158.457C159.427 183.318 160.217 184.108 160.217 185.078C160.217 186.049 159.427 186.838 158.457 186.838Z" fill="#F2F2F2"/>
<path d="M251.925 370.87C254.827 370.87 257.18 368.567 257.18 365.726C257.18 362.884 254.827 360.581 251.925 360.581C249.022 360.581 246.669 362.884 246.669 365.726C246.669 368.567 249.022 370.87 251.925 370.87Z" fill="#F2F2F2"/>
<path d="M294.055 363.966H265.767C264.797 363.966 264.007 363.176 264.007 362.206C264.007 361.235 264.797 360.446 265.767 360.446H294.055C295.026 360.446 295.815 361.235 295.815 362.206C295.815 363.176 295.026 363.966 294.055 363.966Z" fill="#F2F2F2"/>
<path d="M316.131 369.923H265.767C264.797 369.923 264.007 369.133 264.007 368.163C264.007 367.192 264.797 366.403 265.767 366.403H316.131C317.101 366.403 317.891 367.192 317.891 368.163C317.891 369.133 317.101 369.923 316.131 369.923Z" fill="#F2F2F2"/>
<path d="M188.755 204.622H187.452V266.519H188.755V204.622Z" fill="#E6E6E6"/>
<path d="M188.103 270.428C190.262 270.428 192.012 268.678 192.012 266.519C192.012 264.36 190.262 262.609 188.103 262.609C185.944 262.609 184.194 264.36 184.194 266.519C184.194 268.678 185.944 270.428 188.103 270.428Z" fill="#E6E6E6"/>
<path d="M247.394 315.385C249.553 315.385 251.303 313.635 251.303 311.476C251.303 309.317 249.553 307.566 247.394 307.566C245.235 307.566 243.484 309.317 243.484 311.476C243.484 313.635 245.235 315.385 247.394 315.385Z" fill="#E6E6E6"/>
<path d="M141.843 261.958C144.002 261.958 145.753 260.208 145.753 258.049C145.753 255.89 144.002 254.139 141.843 254.139C139.684 254.139 137.934 255.89 137.934 258.049C137.934 260.208 139.684 261.958 141.843 261.958Z" fill="#E6E6E6"/>
<path d="M140.399 258.055L119.02 258.702L119.059 260.005L140.438 259.358L140.399 258.055Z" fill="#E6E6E6"/>
<path d="M279.197 326.441H246.778V311.476H248.081V325.138H279.197V326.441Z" fill="#E6E6E6"/>
<path d="M140.239 304.644C142.398 304.644 144.148 302.894 144.148 300.735C144.148 298.576 142.398 296.826 140.239 296.826C138.08 296.826 136.33 298.576 136.33 300.735C136.33 302.894 138.08 304.644 140.239 304.644Z" fill="#E6E6E6"/>
<path d="M171.656 315.701H139.237V300.735H140.54V314.398H171.656V315.701Z" fill="#E6E6E6"/>
<path d="M270.85 285.86H115.142V287.163H270.85V285.86Z" fill="#E6E6E6"/>
</g>
</g>
<defs>
<clipPath id="clip0_58_959">
<rect width="500" height="500" fill="white"/>
</clipPath>
<clipPath id="clip1_58_959">
<rect width="368" height="293.157" fill="white" transform="translate(66 103)"/>
</clipPath>
</defs>
</svg>
