<svg width="500" height="500" viewBox="0 0 500 500" fill="none" xmlns="http://www.w3.org/2000/svg">
<g clip-path="url(#clip0_58_960)">
<g clip-path="url(#clip1_58_960)">
<path d="M237.261 338.07L243.753 335.164L235.621 308.127L226.038 312.414L237.261 338.07Z" fill="#FFB6B6"/>
<path d="M232.61 330.729L242.323 323.87L245.003 328.192L258.701 328.866C259.378 328.899 260.026 329.148 260.551 329.575C261.076 330.003 261.451 330.587 261.621 331.243C261.79 331.899 261.746 332.592 261.494 333.221C261.242 333.849 260.795 334.381 260.22 334.738L248.212 342.187L243.49 339.197L245.334 343.972L240.806 346.781L232.61 330.729Z" fill="#2F2E41"/>
<path d="M404.046 286.893C404.046 284.174 403.133 281.967 402.012 281.962H96.3534C95.2272 281.967 94.3191 284.174 94.314 286.893V398.831C94.314 399.084 94.2201 399.327 94.0505 399.514C93.8808 399.701 93.6476 399.818 93.3964 399.842C92.576 399.921 91.7556 399.994 90.9352 400.062C90.9149 400.062 90.8946 400.067 90.8743 400.067C90.4279 400.108 89.9814 400.138 89.535 400.174H89.5299C89.3003 399.749 89.0733 399.321 88.8489 398.889C88.7731 398.744 88.7334 398.582 88.7334 398.418V280.496C88.7334 279.745 88.7638 278.989 88.8146 278.243C88.887 277.219 89.014 276.2 89.1951 275.189C90.0524 270.476 91.9904 267.285 94.1922 267.275H404.168C404.489 267.277 404.807 267.345 405.101 267.473C405.534 267.664 405.925 267.938 406.253 268.28C406.698 268.742 407.079 269.263 407.384 269.827C408.47 271.74 409.246 274.591 409.52 277.909C409.52 277.939 409.525 277.97 409.525 278C409.596 278.822 409.632 279.659 409.627 280.496L409.698 291.368L409.744 297.852L409.881 318.195L409.931 325.42L410.154 399.591C410.154 399.86 410.048 400.118 409.857 400.308C409.667 400.498 409.409 400.605 409.14 400.605H405.061C404.792 400.605 404.534 400.498 404.343 400.308C404.153 400.118 404.046 399.86 404.046 399.591V286.893Z" fill="#E6E6E6"/>
<path d="M320.989 216.403H288.053C287.588 216.403 287.141 216.589 286.812 216.919C286.483 217.249 286.298 217.696 286.299 218.162V270.19H322.748V218.162C322.748 217.931 322.702 217.702 322.614 217.488C322.526 217.275 322.396 217.081 322.233 216.918C322.069 216.754 321.875 216.625 321.662 216.536C321.448 216.448 321.22 216.402 320.989 216.403ZM304.632 245.964C303.602 245.959 302.615 245.548 301.887 244.82C301.159 244.092 300.748 243.105 300.743 242.075V236.074C300.744 235.043 301.154 234.055 301.883 233.327C302.613 232.599 303.601 232.19 304.632 232.19C305.663 232.19 306.651 232.599 307.38 233.327C308.109 234.055 308.52 235.043 308.521 236.074V242.075C308.516 243.105 308.105 244.092 307.377 244.82C306.648 245.548 305.662 245.959 304.632 245.964Z" fill="#2F2E41"/>
<path d="M286.186 268.525V273.545C286.187 273.805 286.29 274.054 286.474 274.238C286.658 274.422 286.907 274.526 287.167 274.526H321.88C322.14 274.525 322.389 274.421 322.572 274.238C322.756 274.054 322.86 273.805 322.861 273.545V268.525H286.186Z" fill="#3F3D56"/>
<path d="M243.87 143.949C243.491 144.903 242.907 145.762 242.16 146.467C241.413 147.171 240.52 147.703 239.545 148.025C238.57 148.347 237.536 148.451 236.517 148.33C235.497 148.21 234.516 147.867 233.643 147.326L187.153 179.713L185.87 166.806L231.581 137.191C232.586 135.785 234.073 134.796 235.758 134.413C237.444 134.03 239.212 134.278 240.727 135.111C242.242 135.944 243.398 137.304 243.978 138.933C244.557 140.561 244.519 142.346 243.87 143.949Z" fill="#FFB6B6"/>
<path d="M139.781 164.369C139.781 164.369 134.747 171.807 142.647 178.39C150.546 184.972 182.563 183.663 187.73 183.606C192.897 183.549 216.604 159.026 216.604 159.026L216.449 144.863L187.826 161.846L139.781 164.369Z" fill="#393ED0"/>
<path d="M136.931 213.753L137.438 223.392C137.438 223.392 135.941 231.931 137.173 233.773C138.395 235.607 171.959 238.334 171.959 238.334C171.959 238.334 170.907 223.958 172.805 213.56L136.931 213.753Z" fill="#FFB6B6"/>
<path d="M239.941 311.896L227.021 323.206L201.699 271.418C176.588 275.736 152.899 277.12 132.409 271.896C125.471 270.151 121.231 262.988 122.937 255.896C123.017 255.564 123.109 255.236 123.214 254.912C125.666 247.43 132.085 242.136 137.143 233.907L174.084 234.468L169.958 248.704L205.845 244.061C213.062 243.127 219.653 248.35 220.566 255.728C220.614 256.118 220.646 256.509 220.661 256.902L239.941 311.896Z" fill="#2F2E41"/>
<path d="M151.355 148.885C159.64 148.885 166.356 142.169 166.356 133.885C166.356 125.6 159.64 118.884 151.355 118.884C143.071 118.884 136.355 125.6 136.355 133.885C136.355 142.169 143.071 148.885 151.355 148.885Z" fill="#FFB6B6"/>
<path d="M142.562 154.3L156.316 155.919C156.896 155.987 157.44 156.234 157.873 156.627C158.305 157.019 158.605 157.536 158.73 158.107L160.917 168.116L174.552 184.173C174.552 184.173 179.448 193.353 177.612 203.758C176.507 210.023 174.596 216.119 171.925 221.894C171.925 221.894 138.393 235.608 137.169 233.772C135.945 231.935 135.548 223.595 135.548 223.595L131.234 175.601C130.987 173.073 131.303 170.521 132.158 168.128C133.014 165.736 134.388 163.562 136.183 161.764C137.272 160.693 138.346 159.944 139.22 159.944C141.195 159.877 140.942 155.432 142.562 154.3Z" fill="#393ED0"/>
<path d="M172.074 358.179L178.457 361.305L193.822 337.625L184.402 333.011L172.074 358.179Z" fill="#FFB6B6"/>
<path d="M187.364 352.827L174.251 347.849L192.248 293.795C167.798 286.627 149.356 275.081 133.253 261.375C127.79 256.756 123.694 250.825 128.346 245.207C128.564 244.944 128.791 244.69 129.027 244.445C134.521 238.805 148.464 239.89 156.626 234.725L174.88 254.214L173.736 259.435L208.007 271.052C214.898 273.388 218.519 280.979 216.094 288.006C215.966 288.377 215.822 288.742 215.663 289.101L187.364 352.827Z" fill="#2F2E41"/>
<path d="M171.856 354.406L182.827 358.991L180.59 363.558L187.295 375.521C187.627 376.112 187.76 376.793 187.677 377.466C187.594 378.138 187.298 378.766 186.832 379.258C186.367 379.75 185.756 380.08 185.089 380.201C184.423 380.321 183.735 380.225 183.127 379.927L170.437 373.711L170.462 368.122L167.396 372.221L162.611 369.877L171.856 354.406Z" fill="#2F2E41"/>
<path d="M150.403 271.643C149.543 271.083 148.816 270.34 148.274 269.468C147.732 268.597 147.387 267.616 147.264 266.597C147.142 265.577 147.244 264.544 147.565 263.568C147.885 262.592 148.415 261.699 149.118 260.95L126.578 208.968L139.483 210.265L159.461 260.935C160.64 262.2 161.314 263.852 161.356 265.581C161.398 267.309 160.805 268.992 159.688 270.312C158.572 271.632 157.01 272.497 155.299 272.742C153.588 272.987 151.846 272.596 150.403 271.643Z" fill="#FFB6B6"/>
<path d="M150.999 165.572C150.999 165.572 144.705 159.165 136.688 165.604C128.672 172.044 123.616 203.687 122.648 208.762C121.68 213.838 141.024 241.931 141.024 241.931L154.937 244.584L143.958 213.165L150.999 165.572Z" fill="#393ED0"/>
<path d="M375.526 135.207H234.741C233.532 135.209 232.372 135.69 231.517 136.546C230.662 137.401 230.18 138.56 230.178 139.77V234.772C230.179 235.982 230.66 237.142 231.516 237.998C232.371 238.853 233.531 239.334 234.741 239.335H375.526C376.736 239.334 377.896 238.853 378.752 237.998C379.607 237.142 380.088 235.982 380.089 234.772V139.77C380.087 138.56 379.606 137.401 378.751 136.546C377.895 135.69 376.736 135.209 375.526 135.207Z" fill="#3F3D56"/>
<path d="M374.351 138.503H235.917C235.27 138.504 234.649 138.763 234.192 139.221C233.734 139.679 233.477 140.301 233.477 140.948V233.596C233.478 234.243 233.736 234.863 234.193 235.32C234.65 235.778 235.27 236.035 235.917 236.036H374.351C374.998 236.035 375.618 235.778 376.075 235.32C376.533 234.863 376.79 234.243 376.791 233.596V140.948C376.791 140.301 376.534 139.679 376.077 139.221C375.619 138.763 374.999 138.504 374.351 138.503Z" fill="white"/>
<path d="M347.387 276.273H265.026C264.801 276.273 264.578 276.223 264.375 276.126C264.171 276.029 263.992 275.888 263.85 275.713C263.708 275.538 263.607 275.333 263.554 275.114C263.501 274.895 263.497 274.667 263.544 274.446L264.822 268.376C264.894 268.037 265.081 267.732 265.351 267.514C265.62 267.295 265.957 267.175 266.304 267.173H346.109C346.456 267.175 346.793 267.295 347.062 267.514C347.332 267.732 347.519 268.037 347.591 268.376L348.869 274.446C348.916 274.667 348.912 274.895 348.86 275.114C348.807 275.333 348.705 275.538 348.563 275.713C348.421 275.888 348.242 276.029 348.038 276.126C347.835 276.223 347.612 276.273 347.387 276.273Z" fill="#2F2E41"/>
<path d="M269.178 268.267H267.136C267 268.267 266.889 268.377 266.889 268.514V269.541C266.889 269.678 267 269.789 267.136 269.789H269.178C269.314 269.789 269.425 269.678 269.425 269.541V268.514C269.425 268.377 269.314 268.267 269.178 268.267Z" fill="#3F3D56"/>
<path d="M274.251 268.267H272.21C272.073 268.267 271.962 268.377 271.962 268.514V269.541C271.962 269.678 272.073 269.789 272.21 269.789H274.251C274.388 269.789 274.499 269.678 274.499 269.541V268.514C274.499 268.377 274.388 268.267 274.251 268.267Z" fill="#3F3D56"/>
<path d="M279.324 268.267H277.283C277.146 268.267 277.035 268.377 277.035 268.514V269.541C277.035 269.678 277.146 269.789 277.283 269.789H279.324C279.461 269.789 279.572 269.678 279.572 269.541V268.514C279.572 268.377 279.461 268.267 279.324 268.267Z" fill="#3F3D56"/>
<path d="M284.398 268.267H282.357C282.22 268.267 282.109 268.377 282.109 268.514V269.541C282.109 269.678 282.22 269.789 282.357 269.789H284.398C284.535 269.789 284.646 269.678 284.646 269.541V268.514C284.646 268.377 284.535 268.267 284.398 268.267Z" fill="#3F3D56"/>
<path d="M289.471 268.267H287.429C287.293 268.267 287.182 268.377 287.182 268.514V269.541C287.182 269.678 287.293 269.789 287.429 269.789H289.471C289.607 269.789 289.718 269.678 289.718 269.541V268.514C289.718 268.377 289.607 268.267 289.471 268.267Z" fill="#3F3D56"/>
<path d="M294.544 268.267H292.503C292.366 268.267 292.255 268.377 292.255 268.514V269.541C292.255 269.678 292.366 269.789 292.503 269.789H294.544C294.681 269.789 294.792 269.678 294.792 269.541V268.514C294.792 268.377 294.681 268.267 294.544 268.267Z" fill="#3F3D56"/>
<path d="M299.617 268.267H297.576C297.439 268.267 297.328 268.377 297.328 268.514V269.541C297.328 269.678 297.439 269.789 297.576 269.789H299.617C299.754 269.789 299.865 269.678 299.865 269.541V268.514C299.865 268.377 299.754 268.267 299.617 268.267Z" fill="#3F3D56"/>
<path d="M304.69 268.267H302.649C302.512 268.267 302.401 268.377 302.401 268.514V269.541C302.401 269.678 302.512 269.789 302.649 269.789H304.69C304.827 269.789 304.938 269.678 304.938 269.541V268.514C304.938 268.377 304.827 268.267 304.69 268.267Z" fill="#3F3D56"/>
<path d="M309.764 268.267H307.723C307.586 268.267 307.475 268.377 307.475 268.514V269.541C307.475 269.678 307.586 269.789 307.723 269.789H309.764C309.901 269.789 310.012 269.678 310.012 269.541V268.514C310.012 268.377 309.901 268.267 309.764 268.267Z" fill="#3F3D56"/>
<path d="M314.837 268.267H312.796C312.659 268.267 312.548 268.377 312.548 268.514V269.541C312.548 269.678 312.659 269.789 312.796 269.789H314.837C314.974 269.789 315.084 269.678 315.084 269.541V268.514C315.084 268.377 314.974 268.267 314.837 268.267Z" fill="#3F3D56"/>
<path d="M319.911 268.267H317.869C317.732 268.267 317.622 268.377 317.622 268.514V269.541C317.622 269.678 317.732 269.789 317.869 269.789H319.911C320.047 269.789 320.158 269.678 320.158 269.541V268.514C320.158 268.377 320.047 268.267 319.911 268.267Z" fill="#3F3D56"/>
<path d="M324.983 268.267H322.942C322.805 268.267 322.694 268.377 322.694 268.514V269.541C322.694 269.678 322.805 269.789 322.942 269.789H324.983C325.12 269.789 325.231 269.678 325.231 269.541V268.514C325.231 268.377 325.12 268.267 324.983 268.267Z" fill="#3F3D56"/>
<path d="M330.057 268.267H328.016C327.879 268.267 327.768 268.377 327.768 268.514V269.541C327.768 269.678 327.879 269.789 328.016 269.789H330.057C330.194 269.789 330.305 269.678 330.305 269.541V268.514C330.305 268.377 330.194 268.267 330.057 268.267Z" fill="#3F3D56"/>
<path d="M335.13 268.267H333.089C332.952 268.267 332.841 268.377 332.841 268.514V269.541C332.841 269.678 332.952 269.789 333.089 269.789H335.13C335.267 269.789 335.378 269.678 335.378 269.541V268.514C335.378 268.377 335.267 268.267 335.13 268.267Z" fill="#3F3D56"/>
<path d="M340.203 268.267H338.162C338.025 268.267 337.915 268.377 337.915 268.514V269.541C337.915 269.678 338.025 269.789 338.162 269.789H340.203C340.34 269.789 340.451 269.678 340.451 269.541V268.514C340.451 268.377 340.34 268.267 340.203 268.267Z" fill="#3F3D56"/>
<path d="M345.277 268.267H343.235C343.099 268.267 342.988 268.377 342.988 268.514V269.541C342.988 269.678 343.099 269.789 343.235 269.789H345.277C345.414 269.789 345.524 269.678 345.524 269.541V268.514C345.524 268.377 345.414 268.267 345.277 268.267Z" fill="#3F3D56"/>
<path d="M269.118 270.803H267.076C266.939 270.803 266.829 270.914 266.829 271.051V272.077C266.829 272.214 266.939 272.325 267.076 272.325H269.118C269.254 272.325 269.365 272.214 269.365 272.077V271.051C269.365 270.914 269.254 270.803 269.118 270.803Z" fill="#3F3D56"/>
<path d="M274.191 270.803H272.15C272.013 270.803 271.902 270.914 271.902 271.051V272.077C271.902 272.214 272.013 272.325 272.15 272.325H274.191C274.328 272.325 274.439 272.214 274.439 272.077V271.051C274.439 270.914 274.328 270.803 274.191 270.803Z" fill="#3F3D56"/>
<path d="M279.265 270.803H277.223C277.086 270.803 276.976 270.914 276.976 271.051V272.077C276.976 272.214 277.086 272.325 277.223 272.325H279.265C279.401 272.325 279.512 272.214 279.512 272.077V271.051C279.512 270.914 279.401 270.803 279.265 270.803Z" fill="#3F3D56"/>
<path d="M284.338 270.803H282.296C282.16 270.803 282.049 270.914 282.049 271.051V272.077C282.049 272.214 282.16 272.325 282.296 272.325H284.338C284.475 272.325 284.585 272.214 284.585 272.077V271.051C284.585 270.914 284.475 270.803 284.338 270.803Z" fill="#3F3D56"/>
<path d="M289.411 270.803H287.37C287.233 270.803 287.122 270.914 287.122 271.051V272.077C287.122 272.214 287.233 272.325 287.37 272.325H289.411C289.548 272.325 289.659 272.214 289.659 272.077V271.051C289.659 270.914 289.548 270.803 289.411 270.803Z" fill="#3F3D56"/>
<path d="M294.484 270.803H292.443C292.306 270.803 292.195 270.914 292.195 271.051V272.077C292.195 272.214 292.306 272.325 292.443 272.325H294.484C294.621 272.325 294.732 272.214 294.732 272.077V271.051C294.732 270.914 294.621 270.803 294.484 270.803Z" fill="#3F3D56"/>
<path d="M299.558 270.803H297.516C297.379 270.803 297.269 270.914 297.269 271.051V272.077C297.269 272.214 297.379 272.325 297.516 272.325H299.558C299.694 272.325 299.805 272.214 299.805 272.077V271.051C299.805 270.914 299.694 270.803 299.558 270.803Z" fill="#3F3D56"/>
<path d="M304.631 270.803H302.589C302.453 270.803 302.342 270.914 302.342 271.051V272.077C302.342 272.214 302.453 272.325 302.589 272.325H304.631C304.768 272.325 304.878 272.214 304.878 272.077V271.051C304.878 270.914 304.768 270.803 304.631 270.803Z" fill="#3F3D56"/>
<path d="M309.704 270.803H307.663C307.526 270.803 307.415 270.914 307.415 271.051V272.077C307.415 272.214 307.526 272.325 307.663 272.325H309.704C309.841 272.325 309.952 272.214 309.952 272.077V271.051C309.952 270.914 309.841 270.803 309.704 270.803Z" fill="#3F3D56"/>
<path d="M314.777 270.803H312.736C312.599 270.803 312.488 270.914 312.488 271.051V272.077C312.488 272.214 312.599 272.325 312.736 272.325H314.777C314.914 272.325 315.025 272.214 315.025 272.077V271.051C315.025 270.914 314.914 270.803 314.777 270.803Z" fill="#3F3D56"/>
<path d="M319.85 270.803H317.809C317.672 270.803 317.561 270.914 317.561 271.051V272.077C317.561 272.214 317.672 272.325 317.809 272.325H319.85C319.987 272.325 320.098 272.214 320.098 272.077V271.051C320.098 270.914 319.987 270.803 319.85 270.803Z" fill="#3F3D56"/>
<path d="M324.924 270.803H322.882C322.746 270.803 322.635 270.914 322.635 271.051V272.077C322.635 272.214 322.746 272.325 322.882 272.325H324.924C325.06 272.325 325.171 272.214 325.171 272.077V271.051C325.171 270.914 325.06 270.803 324.924 270.803Z" fill="#3F3D56"/>
<path d="M329.997 270.803H327.956C327.819 270.803 327.708 270.914 327.708 271.051V272.077C327.708 272.214 327.819 272.325 327.956 272.325H329.997C330.134 272.325 330.245 272.214 330.245 272.077V271.051C330.245 270.914 330.134 270.803 329.997 270.803Z" fill="#3F3D56"/>
<path d="M335.07 270.803H333.029C332.892 270.803 332.781 270.914 332.781 271.051V272.077C332.781 272.214 332.892 272.325 333.029 272.325H335.07C335.207 272.325 335.318 272.214 335.318 272.077V271.051C335.318 270.914 335.207 270.803 335.07 270.803Z" fill="#3F3D56"/>
<path d="M340.143 270.803H338.102C337.965 270.803 337.854 270.914 337.854 271.051V272.077C337.854 272.214 337.965 272.325 338.102 272.325H340.143C340.28 272.325 340.391 272.214 340.391 272.077V271.051C340.391 270.914 340.28 270.803 340.143 270.803Z" fill="#3F3D56"/>
<path d="M345.217 270.803H343.175C343.039 270.803 342.928 270.914 342.928 271.051V272.077C342.928 272.214 343.039 272.325 343.175 272.325H345.217C345.353 272.325 345.464 272.214 345.464 272.077V271.051C345.464 270.914 345.353 270.803 345.217 270.803Z" fill="#3F3D56"/>
<path d="M311.226 273.847H291.428C291.292 273.847 291.181 273.958 291.181 274.095V275.121C291.181 275.258 291.292 275.369 291.428 275.369H311.226C311.363 275.369 311.474 275.258 311.474 275.121V274.095C311.474 273.958 311.363 273.847 311.226 273.847Z" fill="#3F3D56"/>
<path d="M364.818 392.063L360.906 385.777L360.125 389.369C359.988 389.998 359.851 390.637 359.724 391.271C358.613 390.323 357.431 389.445 356.274 388.603C352.723 386.025 349.173 383.445 345.625 380.861L346.737 387.304C347.421 391.271 348.137 395.32 349.831 398.947C350.019 399.358 350.222 399.764 350.44 400.16H366.948C367.081 399.792 367.173 399.411 367.222 399.023C367.227 398.998 367.228 398.973 367.227 398.947C367.486 396.487 366.127 394.168 364.818 392.063Z" fill="#F0F0F0"/>
<path d="M141.594 392.063L137.683 385.777L136.902 389.369C136.765 389.998 136.628 390.637 136.501 391.271C135.39 390.323 134.208 389.445 133.051 388.603C129.5 386.025 125.95 383.445 122.402 380.861L123.513 387.304C124.198 391.271 124.914 395.32 126.608 398.947C126.796 399.358 126.999 399.764 127.217 400.16H143.725C143.858 399.792 143.95 399.411 143.999 399.023C144.003 398.998 144.005 398.973 144.004 398.947C144.263 396.487 142.903 394.168 141.594 392.063Z" fill="#F0F0F0"/>
<path d="M455.396 400.847L315.501 401.003C315.341 401.003 315.188 400.939 315.075 400.825C314.962 400.712 314.899 400.559 314.899 400.399C314.899 400.239 314.962 400.086 315.075 399.972C315.188 399.859 315.341 399.795 315.501 399.795L455.396 399.639C455.556 399.639 455.709 399.703 455.822 399.817C455.935 399.93 455.999 400.083 455.999 400.243C455.999 400.403 455.935 400.556 455.822 400.67C455.709 400.783 455.556 400.847 455.396 400.847Z" fill="#CACACA"/>
<path d="M185.499 400.847L45.6043 401.003C45.4444 401.003 45.2912 400.939 45.1783 400.825C45.0654 400.712 45.002 400.559 45.002 400.399C45.002 400.239 45.0654 400.086 45.1783 399.972C45.2912 399.859 45.4444 399.795 45.6043 399.795L185.499 399.639C185.659 399.639 185.812 399.703 185.925 399.817C186.038 399.93 186.102 400.083 186.102 400.243C186.102 400.403 186.038 400.556 185.925 400.67C185.812 400.783 185.659 400.847 185.499 400.847Z" fill="#CACACA"/>
<path d="M135.493 120.513C133.073 121.234 130.815 119.209 129.131 117.292L129.73 118.002C125.767 120.792 123.398 125.338 121.861 129.939C120.324 134.536 119.466 139.35 117.731 143.881C115.996 148.406 113.196 152.784 108.909 155.042C103.166 158.065 96.1294 156.69 90.0212 154.509C89.94 154.479 89.8639 154.453 89.7828 154.423C92.2567 149.802 93.7718 144.728 94.2371 139.507C91.7243 144.413 88.1005 148.664 83.6543 151.922C79.6631 150.107 75.8254 147.973 72.1786 145.539C69.8195 143.962 67.3336 141.922 67.0597 139.096C66.7807 136.291 68.8759 133.729 71.3466 132.379C73.8173 131.03 76.6583 130.573 79.3572 129.762C82.0511 128.955 84.8008 127.631 86.2163 125.196C89.4784 119.595 83.9891 111.696 87.4897 106.237C89.2146 103.553 92.5629 102.478 95.6677 101.732C100.407 100.598 105.217 99.7865 110.066 99.3019C114.322 98.8757 118.721 98.7185 122.769 100.088C126.817 101.458 130.491 104.639 131.358 108.829C133.722 110.072 136.223 111.447 137.492 113.806C138.76 116.16 138.055 119.752 135.493 120.513Z" fill="#2F2E41"/>
<path d="M131.88 119.569C129.563 122.472 128.302 125.611 128.302 127.491C123.488 136.29 130.372 143.847 139.17 148.66C142.679 150.591 146.731 151.297 150.686 150.668L151.055 149.097L151.553 150.512C151.553 150.512 157.282 169.432 159.171 170.542C158.454 167.175 157.633 151.585 157.234 148.299C156.681 143.826 158.607 137.168 159.997 133.119C160.858 130.623 161.301 128.002 161.305 125.362V125.247L162.658 129.593L167.584 127.491C166.668 122.235 167.584 116.268 156.598 116.785C150.655 112.699 145.423 112.076 141.124 113.235C140.57 112.378 137.371 113.984 136.446 113.532" fill="#2F2E41"/>
<path d="M376.792 140.948V233.596C376.791 234.243 376.533 234.863 376.076 235.32C375.618 235.778 374.998 236.035 374.352 236.036H325.537C320.137 231.028 315.706 225.067 312.468 218.452C312.255 218.026 312.052 217.595 311.859 217.159C308.909 210.756 307.122 203.879 306.583 196.85C306.548 196.419 306.517 195.988 306.497 195.552C306.431 194.435 306.4 193.304 306.4 192.168C306.391 184.61 307.818 177.119 310.606 170.094C310.774 169.658 310.951 169.226 311.134 168.795C316.745 155.611 326.884 144.867 339.722 138.503H374.352C374.999 138.504 375.62 138.763 376.077 139.221C376.535 139.679 376.792 140.301 376.792 140.948Z" fill="#393ED0"/>
<path d="M367.393 151.268H237.861C237.726 151.265 237.598 151.209 237.504 151.113C237.41 151.017 237.357 150.887 237.357 150.753C237.357 150.618 237.41 150.489 237.504 150.392C237.598 150.296 237.726 150.24 237.861 150.237H367.393C367.528 150.24 367.656 150.296 367.75 150.392C367.844 150.489 367.897 150.618 367.897 150.753C367.897 150.887 367.844 151.017 367.75 151.113C367.656 151.209 367.528 151.265 367.393 151.268Z" fill="#CACACA"/>
<path d="M246.678 147.607C248.345 147.607 249.697 146.226 249.697 144.521C249.697 142.817 248.345 141.435 246.678 141.435C245.011 141.435 243.659 142.817 243.659 144.521C243.659 146.226 245.011 147.607 246.678 147.607Z" fill="#3F3D56"/>
<path d="M257.107 147.607C258.774 147.607 260.125 146.226 260.125 144.521C260.125 142.817 258.774 141.435 257.107 141.435C255.439 141.435 254.088 142.817 254.088 144.521C254.088 146.226 255.439 147.607 257.107 147.607Z" fill="#3F3D56"/>
<path d="M267.535 147.607C269.203 147.607 270.554 146.226 270.554 144.521C270.554 142.817 269.203 141.435 267.535 141.435C265.868 141.435 264.517 142.817 264.517 144.521C264.517 146.226 265.868 147.607 267.535 147.607Z" fill="#3F3D56"/>
<path d="M361.114 142.2H353.706C353.559 142.203 353.419 142.263 353.316 142.368C353.213 142.473 353.156 142.614 353.156 142.761C353.156 142.908 353.213 143.049 353.316 143.154C353.419 143.259 353.559 143.319 353.706 143.322H361.114C361.26 143.319 361.4 143.259 361.503 143.154C361.606 143.049 361.664 142.908 361.664 142.761C361.664 142.614 361.606 142.473 361.503 142.368C361.4 142.263 361.26 142.203 361.114 142.2Z" fill="#3F3D56"/>
<path d="M361.114 144.306H353.706C353.559 144.308 353.419 144.369 353.316 144.474C353.213 144.579 353.156 144.72 353.156 144.867C353.156 145.013 353.213 145.154 353.316 145.259C353.419 145.364 353.559 145.425 353.706 145.427H361.114C361.26 145.425 361.4 145.364 361.503 145.259C361.606 145.154 361.664 145.013 361.664 144.867C361.664 144.72 361.606 144.579 361.503 144.474C361.4 144.369 361.26 144.308 361.114 144.306Z" fill="#3F3D56"/>
<path d="M361.114 146.408H353.706C353.559 146.411 353.419 146.472 353.316 146.577C353.213 146.681 353.156 146.822 353.156 146.969C353.156 147.116 353.213 147.257 353.316 147.362C353.419 147.467 353.559 147.527 353.706 147.53H361.114C361.26 147.527 361.4 147.467 361.503 147.362C361.606 147.257 361.664 147.116 361.664 146.969C361.664 146.822 361.606 146.681 361.503 146.577C361.4 146.472 361.26 146.411 361.114 146.408Z" fill="#3F3D56"/>
<path d="M276.557 181.361H260.372C259.156 181.361 258.17 182.347 258.17 183.562V183.562C258.17 184.778 259.156 185.764 260.372 185.764H276.557C277.773 185.764 278.759 184.778 278.759 183.562C278.759 182.347 277.773 181.361 276.557 181.361Z" fill="#393ED0"/>
<path d="M287.013 190.166H249.916C248.7 190.166 247.714 191.152 247.714 192.367C247.714 193.583 248.7 194.569 249.916 194.569H287.013C288.229 194.569 289.215 193.583 289.215 192.367C289.215 191.152 288.229 190.166 287.013 190.166Z" fill="#E6E6E6"/>
<path d="M287.013 198.971H249.916C248.7 198.971 247.714 199.957 247.714 201.173V201.173C247.714 202.388 248.7 203.374 249.916 203.374H287.013C288.229 203.374 289.215 202.388 289.215 201.173C289.215 199.957 288.229 198.971 287.013 198.971Z" fill="#E6E6E6"/>
<path d="M251.102 230.724C251.105 232.538 250.782 234.337 250.148 236.036H235.917C235.27 236.035 234.65 235.778 234.193 235.32C233.736 234.863 233.478 234.243 233.477 233.596V215.697C234.272 215.569 235.076 215.504 235.882 215.505C237.88 215.505 239.86 215.898 241.706 216.663C243.553 217.428 245.231 218.549 246.644 219.962C248.057 221.375 249.178 223.053 249.943 224.9C250.708 226.747 251.102 228.726 251.102 230.724Z" fill="#393ED0"/>
<path opacity="0.2" d="M376.919 170.094V168.795H355.15V153.743H353.856V168.795H328.906V153.743H327.612V168.795H311.134C310.951 169.226 310.774 169.658 310.606 170.094H327.612V195.552H306.497C306.517 195.988 306.548 196.419 306.583 196.85H327.612V217.159H311.86C312.052 217.595 312.255 218.026 312.468 218.452H327.612V235.524H328.906V218.452H353.856V235.524H355.15V218.452H376.919V217.159H355.15V196.85H376.919V195.552H355.15V170.094H376.919ZM353.856 217.159H328.906V196.85H353.856V217.159ZM353.856 195.552H328.906V170.094H353.856V195.552Z" fill="black"/>
<path d="M359.391 226.424C359.113 226.437 358.838 226.364 358.603 226.215C358.368 226.067 358.185 225.849 358.077 225.593C357.97 225.337 357.944 225.053 358.004 224.782C358.063 224.51 358.204 224.263 358.408 224.074L358.501 223.705C358.489 223.676 358.476 223.646 358.464 223.616C358.184 222.956 357.715 222.392 357.117 221.997C356.518 221.602 355.815 221.393 355.098 221.395C354.38 221.398 353.68 221.613 353.084 222.012C352.488 222.412 352.023 222.979 351.748 223.641C350.65 226.287 349.251 228.937 348.907 231.734C348.756 232.97 348.819 234.224 349.096 235.438C346.516 229.811 345.177 223.694 345.168 217.503C345.168 215.95 345.254 214.398 345.427 212.854C345.57 211.588 345.768 210.332 346.021 209.084C347.404 202.315 350.372 195.97 354.683 190.571C356.77 189.432 358.457 187.682 359.518 185.555C359.903 184.79 360.174 183.974 360.325 183.132C360.089 183.162 359.85 183.182 359.615 183.197C359.541 183.201 359.464 183.205 359.391 183.209L359.363 183.21C359.105 183.222 358.848 183.158 358.625 183.027C358.401 182.897 358.22 182.704 358.104 182.473C357.987 182.241 357.94 181.982 357.968 181.724C357.995 181.467 358.097 181.223 358.26 181.022C358.362 180.897 358.463 180.772 358.565 180.647C358.719 180.454 358.878 180.265 359.032 180.072C359.05 180.053 359.067 180.034 359.082 180.014C359.26 179.794 359.437 179.578 359.615 179.358C359.291 178.855 358.855 178.434 358.341 178.127C356.563 177.085 354.108 177.807 352.824 179.416C351.535 181.025 351.292 183.282 351.739 185.292C352.179 187.003 352.908 188.626 353.892 190.092C353.796 190.216 353.696 190.335 353.599 190.459C351.836 192.726 350.299 195.161 349.01 197.728C349.324 194.852 348.95 191.943 347.919 189.24C346.875 186.72 344.917 184.598 343.194 182.42C341.123 179.804 336.877 180.946 336.512 184.262C336.509 184.294 336.505 184.326 336.502 184.359C336.758 184.503 337.009 184.656 337.254 184.818C337.562 185.024 337.801 185.318 337.939 185.662C338.077 186.006 338.108 186.384 338.028 186.745C337.947 187.107 337.76 187.436 337.49 187.689C337.219 187.943 336.879 188.109 336.512 188.165L336.475 188.171C336.566 189.094 336.727 190.008 336.957 190.906C337.623 193.414 338.8 195.758 340.414 197.79C342.029 199.821 344.045 201.498 346.337 202.714C346.488 202.791 346.634 202.868 346.785 202.941C345.491 206.61 344.679 210.431 344.37 214.309C344.195 216.596 344.205 218.895 344.4 221.181L344.389 221.1C343.895 218.558 342.539 216.264 340.55 214.606C337.595 212.179 333.421 211.285 330.233 209.334C329.895 209.117 329.501 209 329.098 209C328.696 208.999 328.301 209.113 327.961 209.329C327.622 209.544 327.351 209.853 327.18 210.218C327.01 210.582 326.948 210.988 327.001 211.387C327.005 211.416 327.009 211.444 327.014 211.473C327.489 211.666 327.952 211.889 328.399 212.14C328.655 212.285 328.906 212.438 329.151 212.6C329.459 212.806 329.698 213.1 329.836 213.444C329.974 213.788 330.005 214.165 329.925 214.527C329.845 214.889 329.657 215.218 329.387 215.471C329.116 215.724 328.776 215.89 328.409 215.947L328.372 215.952C328.345 215.956 328.322 215.96 328.295 215.964C329.107 217.902 330.246 219.687 331.663 221.239C333.414 223.117 335.53 224.618 337.881 225.65C340.233 226.682 342.77 227.222 345.338 227.239H345.342C346.039 230.268 347.049 233.216 348.355 236.036H359.121C359.159 235.916 359.194 235.793 359.229 235.673C358.232 235.736 357.232 235.676 356.25 235.496C357.049 234.516 357.847 233.528 358.646 232.548C358.664 232.53 358.681 232.51 358.696 232.49C359.101 231.988 359.51 231.491 359.916 230.989L359.916 230.988C359.937 229.451 359.761 227.917 359.391 226.424ZM347.063 202.173L347.068 202.166L347.063 202.181V202.173ZM344.678 223.669L344.586 223.461C344.589 223.311 344.589 223.16 344.586 223.006C344.586 222.963 344.578 222.921 344.578 222.878C344.613 223.145 344.643 223.411 344.682 223.677L344.678 223.669Z" fill="#2F2E41"/>
</g>
</g>
<defs>
<clipPath id="clip0_58_960">
<rect width="500" height="500" fill="white"/>
</clipPath>
<clipPath id="clip1_58_960">
<rect width="411" height="302.003" fill="white" transform="translate(45 99)"/>
</clipPath>
</defs>
</svg>
