<svg width="500" height="500" viewBox="0 0 500 500" fill="none" xmlns="http://www.w3.org/2000/svg">
<g clip-path="url(#clip0_58_1037)">
<g clip-path="url(#clip1_58_1037)">
<path d="M337.791 196.442H309.279V187.054C309.279 171.318 322.055 158.543 337.791 158.543L337.791 196.442Z" fill="#2F2E41"/>
<path d="M331.471 178.917L336.373 200.966L307.646 196.196L319.353 175.343L331.471 178.917Z" fill="#A0616A"/>
<path opacity="0.1" d="M331.471 178.917L336.373 200.966L307.646 196.196L319.353 175.343L331.471 178.917Z" fill="black"/>
<path d="M303.93 266.779H331.471V226.019H303.93V266.779Z" fill="#A0616A"/>
<path d="M349.373 300.104L343.314 332.603C343.314 332.603 347.169 355.187 335.602 378.321L327.891 402.006L316.323 400.354C316.323 400.354 323.484 382.728 323.484 375.016C323.484 367.305 325.136 337.56 325.136 337.56L324.31 303.62L349.373 300.104Z" fill="#2F2E41"/>
<path d="M314.671 399.803C314.671 399.803 327.891 394.846 328.992 402.006L328.441 405.311C328.441 405.311 333.399 420.183 326.238 421.285C319.077 422.387 312.468 424.039 311.917 420.734C311.366 417.429 311.375 413.304 312.747 410.409C314.12 407.515 314.671 399.803 314.671 399.803Z" fill="#2F2E41"/>
<path d="M307.675 295.063L304.457 327.965C304.457 327.965 294.472 348.585 299.149 374.024L299.97 398.919L311.54 400.549C311.54 400.549 309.564 381.627 311.709 374.219C313.853 366.812 320.538 337.782 320.538 337.782L330.771 305.41L307.675 295.063Z" fill="#2F2E41"/>
<path d="M313.281 400.48C313.281 400.48 301.961 392.041 298.912 398.613L298.522 401.941C298.522 401.941 289.624 414.848 296.195 417.897C302.767 420.947 308.657 424.372 310.105 421.351C311.553 418.33 312.692 414.365 312.179 411.202C311.665 408.04 313.281 400.48 313.281 400.48Z" fill="#2F2E41"/>
<path d="M342.763 248.052C355.717 260.141 356.679 279.269 349.097 302.032C349.097 302.032 324.861 318.557 307.235 297.626L298.421 255.212L342.763 248.052Z" fill="#2F2E41"/>
<path d="M321.005 189.113L334.776 191.317L333.674 226.019L349.097 256.865L329.267 266.779C329.267 266.779 313.844 237.586 311.09 219.409C308.336 201.232 309.989 188.012 309.989 188.012L321.005 189.113Z" fill="#393ED0"/>
<path d="M310.54 190.215L296.769 192.418L297.871 227.12L294.566 259.068L302.277 267.881C302.277 267.881 317.7 238.688 320.455 220.51C323.209 202.333 321.556 189.114 321.556 189.114L310.54 190.215Z" fill="#393ED0"/>
<path d="M327.064 191.041L330.094 190.215C330.094 190.215 340.835 188.838 342.487 193.245C344.14 197.651 343.589 223.54 343.589 223.54C343.589 223.54 346.431 255.314 335.371 255.676C324.31 256.039 326.513 229.599 326.513 229.599L327.064 191.041Z" fill="#393ED0"/>
<path d="M326.664 184.968C334.537 184.968 340.92 178.585 340.92 170.712C340.92 162.839 334.537 156.456 326.664 156.456C318.791 156.456 312.408 162.839 312.408 170.712C312.408 178.585 318.791 184.968 326.664 184.968Z" fill="#A0616A"/>
<path d="M308.887 192.143L305.858 191.317C305.858 191.317 295.117 189.94 293.464 194.346C291.812 198.753 292.363 224.642 292.363 224.642C292.363 224.642 289.52 256.416 300.581 256.778C311.641 257.14 309.438 230.701 309.438 230.701L308.887 192.143Z" fill="#393ED0"/>
<path d="M318.429 190.332C315.371 189.556 311.903 192.822 310.684 197.63C310.17 199.543 310.122 201.552 310.544 203.488L309.23 208.952L309.133 208.947L298.768 233.375C296.358 239.055 296.612 245.576 299.686 250.926C301.515 254.108 303.916 256.248 306.734 254.064C311.411 250.44 314.466 229.69 315.861 217.771L319.086 205.655C320.38 204.154 321.296 202.365 321.758 200.438C322.978 195.632 321.487 191.108 318.429 190.332Z" fill="#A0616A"/>
<path d="M299.371 182.245C300.097 180.04 301.528 178.11 302.168 175.879C303.019 172.917 304.829 179.488 305.006 176.412C305.342 170.564 314.267 155.521 319.362 152.632C324.457 149.742 327.384 150.613 332.575 153.327C332.575 153.327 335.095 153.487 338.232 155.036C341.369 156.585 344.193 159.065 345.413 162.344C346.38 164.943 346.273 167.797 346.596 170.551C347.496 178.224 351.797 185.521 350.874 193.192C350.586 195.585 349.677 198.059 347.72 199.467C345.763 200.874 342.602 200.721 341.314 198.684C340.875 197.989 340.689 197.164 340.312 196.433C339.936 195.701 339.255 195.02 338.433 195.043C337.197 195.077 336.568 196.735 337.055 197.871C337.543 199.007 338.688 199.693 339.763 200.304C337.202 201.456 334.026 201.097 331.786 199.403C329.547 197.709 328.337 194.749 328.75 191.972C329.33 188.057 335.032 188.868 335.704 184.968C336.193 182.129 337.911 177.379 337.443 174.537C336.975 171.695 334.729 175.136 337.095 173.494C334.491 174.749 328.922 166.162 326.197 165.201C323.471 164.239 321.16 162.156 319.921 159.545C317.03 163.736 314.487 162.598 313.451 167.583C312.416 172.568 313.373 183.893 317.636 186.676C315.93 187.84 314.57 189.504 313.77 191.408C313.316 192.487 313.022 193.667 312.269 194.563C310.832 196.274 308.177 196.378 306.061 195.659C303.438 194.767 301.195 192.807 299.958 190.328C298.721 187.848 298.506 184.878 299.371 182.245Z" fill="#2F2E41"/>
<path d="M106 421.89C106 422.253 106.292 422.545 106.656 422.545H394.345C394.708 422.545 395 422.253 395 421.89C395 421.526 394.708 421.234 394.345 421.234H106.656C106.292 421.234 106 421.526 106 421.89Z" fill="#3F3D56"/>
<path d="M293.301 77.5507H180.014C167.167 77.5507 156.752 87.9651 156.752 100.812V398.494C156.752 411.341 167.167 421.756 180.014 421.756H293.301C306.147 421.756 316.562 411.341 316.562 398.494V100.812C316.562 87.9651 306.147 77.5507 293.301 77.5507Z" fill="white"/>
<path d="M293.301 422.306H180.014C166.884 422.306 156.202 411.624 156.202 398.494V100.812C156.202 87.6821 166.884 77 180.014 77H293.301C306.431 77 317.113 87.6821 317.113 100.812V398.494C317.113 411.624 306.431 422.306 293.301 422.306ZM180.014 78.1016C167.491 78.1016 157.303 88.2894 157.303 100.812V398.494C157.303 411.017 167.491 421.205 180.014 421.205H293.301C305.823 421.205 316.011 411.017 316.011 398.494V100.812C316.011 88.2894 305.823 78.1016 293.301 78.1016H180.014Z" fill="#3F3D56"/>
<path d="M147.391 129.089C146.396 129.089 145.587 129.898 145.587 130.893V145.319C145.587 146.314 146.396 147.123 147.391 147.123C148.385 147.123 149.194 146.314 149.194 145.319V130.893C149.194 129.898 148.385 129.089 147.391 129.089Z" fill="#3F3D56"/>
<path d="M301.507 125.176H255.971C254.04 125.176 252.469 123.604 252.469 121.673C252.469 119.742 254.04 118.17 255.971 118.17H301.507C303.438 118.17 305.009 119.742 305.009 121.673C305.009 123.604 303.438 125.176 301.507 125.176Z" fill="#E6E6E6"/>
<path d="M258.788 152.721H214.526C213.41 152.721 212.502 151.813 212.502 150.697C212.502 149.581 213.41 148.673 214.526 148.673H258.788C259.904 148.673 260.812 149.581 260.812 150.697C260.812 151.813 259.904 152.721 258.788 152.721Z" fill="#393ED0"/>
<path d="M149.142 162.709C168.885 162.709 184.89 147.041 184.89 127.714C184.89 108.387 168.885 92.7196 149.142 92.7196C129.399 92.7196 113.394 108.387 113.394 127.714C113.394 147.041 129.399 162.709 149.142 162.709Z" fill="#393ED0"/>
<path d="M161.275 110.063C156.515 118.729 151.756 127.395 146.997 136.061C143.964 130.701 140.947 125.333 137.907 119.978C136.857 118.128 134 119.792 135.053 121.646C138.578 127.853 142.066 134.082 145.591 140.289C146.193 141.351 147.848 141.375 148.444 140.289C153.672 130.77 158.9 121.25 164.128 111.731C165.153 109.865 162.3 108.196 161.275 110.063Z" fill="white"/>
<path d="M196.228 85.0739H170.957C170.863 85.0739 170.787 85.1504 170.787 85.2447V88.1866C170.787 88.281 170.863 88.3575 170.957 88.3575H196.228C196.322 88.3575 196.399 88.281 196.399 88.1866V85.2447C196.399 85.1504 196.322 85.0739 196.228 85.0739Z" fill="#E6E6E6"/>
<path d="M281.347 88.3575C282.798 88.3575 283.974 87.1814 283.974 85.7306C283.974 84.2798 282.798 83.1037 281.347 83.1037C279.896 83.1037 278.72 84.2798 278.72 85.7306C278.72 87.1814 279.896 88.3575 281.347 88.3575Z" fill="#E6E6E6"/>
<path d="M288.571 88.3575C290.022 88.3575 291.198 87.1814 291.198 85.7306C291.198 84.2798 290.022 83.1037 288.571 83.1037C287.12 83.1037 285.944 84.2798 285.944 85.7306C285.944 87.1814 287.12 88.3575 288.571 88.3575Z" fill="#E6E6E6"/>
<path d="M295.795 88.3575C297.246 88.3575 298.422 87.1814 298.422 85.7306C298.422 84.2798 297.246 83.1037 295.795 83.1037C294.344 83.1037 293.168 84.2798 293.168 85.7306C293.168 87.1814 294.344 88.3575 295.795 88.3575Z" fill="#E6E6E6"/>
<path d="M179.738 163.554C179.738 163.917 180.03 164.209 180.393 164.209H292.921C293.284 164.209 293.576 163.917 293.576 163.554C293.576 163.19 293.284 162.898 292.921 162.898H180.393C180.03 162.898 179.738 163.19 179.738 163.554Z" fill="#3F3D56"/>
<path d="M282.13 215.073H214.6C213.484 215.073 212.576 214.165 212.576 213.049C212.576 211.933 213.484 211.025 214.6 211.025H282.13C283.246 211.025 284.153 211.933 284.153 213.049C284.153 214.165 283.246 215.073 282.13 215.073Z" fill="#393ED0"/>
<path d="M282.13 244.266H214.6C213.484 244.266 212.576 243.358 212.576 242.242C212.576 241.127 213.484 240.219 214.6 240.219H282.13C283.246 240.219 284.153 241.127 284.153 242.242C284.153 243.358 283.246 244.266 282.13 244.266Z" fill="#393ED0"/>
<path d="M282.13 273.46H214.6C213.484 273.46 212.576 272.552 212.576 271.436C212.576 270.32 213.484 269.413 214.6 269.413H282.13C283.246 269.413 284.153 270.32 284.153 271.436C284.153 272.552 283.246 273.46 282.13 273.46Z" fill="#393ED0"/>
<path d="M194.118 217.756C196.856 217.756 199.075 215.537 199.075 212.799C199.075 210.061 196.856 207.841 194.118 207.841C191.38 207.841 189.161 210.061 189.161 212.799C189.161 215.537 191.38 217.756 194.118 217.756Z" fill="#393ED0"/>
<path d="M193.567 221.061V219.96C197.668 219.96 201.003 216.624 201.003 212.523C201.003 208.423 197.668 205.087 193.567 205.087V203.986C198.275 203.986 202.105 207.816 202.105 212.523C202.105 217.231 198.275 221.061 193.567 221.061Z" fill="#3F3D56"/>
<path d="M194.118 246.95C196.856 246.95 199.075 244.73 199.075 241.992C199.075 239.255 196.856 237.035 194.118 237.035C191.38 237.035 189.161 239.255 189.161 241.992C189.161 244.73 191.38 246.95 194.118 246.95Z" fill="#393ED0"/>
<path d="M193.567 250.255V249.153C197.668 249.153 201.003 245.818 201.003 241.717C201.003 237.617 197.668 234.281 193.567 234.281V233.179C198.275 233.179 202.105 237.009 202.105 241.717C202.105 246.425 198.275 250.255 193.567 250.255Z" fill="#3F3D56"/>
<path d="M194.118 276.143C196.856 276.143 199.075 273.924 199.075 271.186C199.075 268.448 196.856 266.229 194.118 266.229C191.38 266.229 189.161 268.448 189.161 271.186C189.161 273.924 191.38 276.143 194.118 276.143Z" fill="#393ED0"/>
<path d="M193.567 279.448V278.347C197.668 278.347 201.003 275.011 201.003 270.911C201.003 266.81 197.668 263.475 193.567 263.475V262.373C198.275 262.373 202.105 266.203 202.105 270.911C202.105 275.618 198.275 279.448 193.567 279.448Z" fill="#3F3D56"/>
<path d="M317.523 189.23C320.581 188.454 324.048 191.721 325.268 196.528C325.782 198.442 325.829 200.45 325.408 202.386L326.722 207.851L326.818 207.845L337.184 232.274C339.594 237.954 339.339 244.474 336.265 249.824C334.437 253.007 332.036 255.146 329.217 252.962C324.541 249.338 321.486 228.589 320.091 216.669L316.866 204.553C315.571 203.053 314.655 201.264 314.194 199.336C312.974 194.531 314.464 190.006 317.523 189.23Z" fill="#A0616A"/>
<path d="M329.297 202.617L317.7 210.86L323.499 247.376L330.771 256.782L339.242 253.852L341.719 236.59L338.804 219.896L329.297 202.617Z" fill="#393ED0"/>
</g>
</g>
<defs>
<clipPath id="clip0_58_1037">
<rect width="500" height="500" fill="white"/>
</clipPath>
<clipPath id="clip1_58_1037">
<rect width="289" height="345.687" fill="white" transform="translate(106 77)"/>
</clipPath>
</defs>
</svg>
