<svg width="666" height="251" viewBox="0 0 666 251" fill="none" xmlns="http://www.w3.org/2000/svg">
<mask id="path-1-outside-1_57_766" maskUnits="userSpaceOnUse" x="166" y="122" width="496" height="94" fill="black">
<rect fill="white" x="166" y="122" width="496" height="94"/>
<path d="M167.776 194V123.824H169.312L211.648 163.472V126.032H226.624V196.592H225.184L182.752 156.944V194H167.776ZM279.558 178.928L277.926 191.888C272.262 194.576 266.79 195.92 261.03 195.92C246.822 195.92 237.51 186.896 237.51 174.032C237.51 160.304 248.454 149.84 261.798 149.84C273.222 149.84 281.574 157.232 281.574 168.272C281.574 169.616 281.478 171.056 281.382 172.592L280.038 174.512L251.238 175.28C251.622 180.944 256.326 184.88 262.95 184.88C267.27 184.88 272.934 183.056 279.558 178.928ZM251.526 168.944L269.862 168.368V167.696C269.862 163.28 266.406 160.112 261.606 160.112C256.326 160.112 252.582 163.376 251.526 168.944ZM292.379 179.792V162.896H286.235V151.76H292.379V139.088L307.355 137.072V151.76H317.339V162.896H307.355V180.848C307.355 187.664 308.411 190.64 314.747 193.808L298.043 194.96C292.859 192.464 292.379 187.856 292.379 179.792ZM345.612 196.208L317.196 126.032H333.612L346.86 162.704L361.068 123.824H362.316L376.62 162.704L389.676 126.032H404.844L376.62 196.208H375.564L361.068 157.328L346.86 196.208H345.612ZM398.007 172.88C398.007 159.248 407.991 149.744 421.239 149.744C434.583 149.744 444.567 159.248 444.567 172.88C444.567 186.416 434.583 196.016 421.239 196.016C407.991 196.016 398.007 186.416 398.007 172.88ZM412.983 172.88C412.983 180.464 416.727 184.88 421.239 184.88C425.847 184.88 429.495 180.272 429.495 172.88C429.495 165.488 425.847 160.88 421.239 160.88C416.727 160.88 412.983 165.296 412.983 172.88ZM467.982 194H453.198V151.76H466.926L467.214 159.152C470.67 153.104 474.99 150.704 481.614 150.704H482.766V166.448H479.598C468.846 166.448 467.982 168.752 467.982 175.568V194ZM504.718 194H490.51V127.088L504.718 125.072V169.136L517.678 151.76H533.038L518.35 169.808L536.494 194H520.27L504.718 171.536V194ZM554.319 194H539.439V151.76L554.319 149.744V194ZM538.767 136.016C538.767 131.504 542.319 127.952 546.831 127.952C551.343 127.952 554.895 131.408 554.895 136.016C554.895 140.432 551.343 144.176 546.831 144.176C542.415 144.176 538.767 140.432 538.767 136.016ZM580.011 194H565.323V151.76H578.859V158.864C583.371 153.296 588.363 150.608 594.315 150.608C603.243 150.608 607.947 155.792 607.947 165.68V194H593.355V169.808C593.355 165.392 591.531 163.088 587.979 163.088C583.179 163.088 580.011 166.256 580.011 173.168V194ZM660.522 151.76V190.064C660.522 195.248 660.426 199.76 658.122 204.176C654.666 210.896 647.946 214.448 638.346 214.448C632.394 214.448 626.634 213.104 620.394 210.608L620.202 198.896C626.154 202.064 631.242 203.792 635.946 203.792C642.57 203.792 646.314 200.528 646.314 194.864V191.984C642.954 194.096 639.786 195.056 636.042 195.056C624.33 195.056 616.074 186.608 616.074 173.264C616.074 159.632 625.482 149.744 638.058 149.744C641.13 149.744 644.298 150.608 647.946 152.24L660.522 151.76ZM645.834 162.512C644.106 161.552 642.57 161.072 640.938 161.072C635.658 161.072 631.05 165.968 631.05 173.36C631.05 180.272 635.082 184.976 639.69 184.976C641.514 184.976 643.626 183.92 645.834 181.808V162.512Z"/>
</mask>
<path d="M167.776 194V123.824H169.312L211.648 163.472V126.032H226.624V196.592H225.184L182.752 156.944V194H167.776ZM279.558 178.928L277.926 191.888C272.262 194.576 266.79 195.92 261.03 195.92C246.822 195.92 237.51 186.896 237.51 174.032C237.51 160.304 248.454 149.84 261.798 149.84C273.222 149.84 281.574 157.232 281.574 168.272C281.574 169.616 281.478 171.056 281.382 172.592L280.038 174.512L251.238 175.28C251.622 180.944 256.326 184.88 262.95 184.88C267.27 184.88 272.934 183.056 279.558 178.928ZM251.526 168.944L269.862 168.368V167.696C269.862 163.28 266.406 160.112 261.606 160.112C256.326 160.112 252.582 163.376 251.526 168.944ZM292.379 179.792V162.896H286.235V151.76H292.379V139.088L307.355 137.072V151.76H317.339V162.896H307.355V180.848C307.355 187.664 308.411 190.64 314.747 193.808L298.043 194.96C292.859 192.464 292.379 187.856 292.379 179.792ZM345.612 196.208L317.196 126.032H333.612L346.86 162.704L361.068 123.824H362.316L376.62 162.704L389.676 126.032H404.844L376.62 196.208H375.564L361.068 157.328L346.86 196.208H345.612ZM398.007 172.88C398.007 159.248 407.991 149.744 421.239 149.744C434.583 149.744 444.567 159.248 444.567 172.88C444.567 186.416 434.583 196.016 421.239 196.016C407.991 196.016 398.007 186.416 398.007 172.88ZM412.983 172.88C412.983 180.464 416.727 184.88 421.239 184.88C425.847 184.88 429.495 180.272 429.495 172.88C429.495 165.488 425.847 160.88 421.239 160.88C416.727 160.88 412.983 165.296 412.983 172.88ZM467.982 194H453.198V151.76H466.926L467.214 159.152C470.67 153.104 474.99 150.704 481.614 150.704H482.766V166.448H479.598C468.846 166.448 467.982 168.752 467.982 175.568V194ZM504.718 194H490.51V127.088L504.718 125.072V169.136L517.678 151.76H533.038L518.35 169.808L536.494 194H520.27L504.718 171.536V194ZM554.319 194H539.439V151.76L554.319 149.744V194ZM538.767 136.016C538.767 131.504 542.319 127.952 546.831 127.952C551.343 127.952 554.895 131.408 554.895 136.016C554.895 140.432 551.343 144.176 546.831 144.176C542.415 144.176 538.767 140.432 538.767 136.016ZM580.011 194H565.323V151.76H578.859V158.864C583.371 153.296 588.363 150.608 594.315 150.608C603.243 150.608 607.947 155.792 607.947 165.68V194H593.355V169.808C593.355 165.392 591.531 163.088 587.979 163.088C583.179 163.088 580.011 166.256 580.011 173.168V194ZM660.522 151.76V190.064C660.522 195.248 660.426 199.76 658.122 204.176C654.666 210.896 647.946 214.448 638.346 214.448C632.394 214.448 626.634 213.104 620.394 210.608L620.202 198.896C626.154 202.064 631.242 203.792 635.946 203.792C642.57 203.792 646.314 200.528 646.314 194.864V191.984C642.954 194.096 639.786 195.056 636.042 195.056C624.33 195.056 616.074 186.608 616.074 173.264C616.074 159.632 625.482 149.744 638.058 149.744C641.13 149.744 644.298 150.608 647.946 152.24L660.522 151.76ZM645.834 162.512C644.106 161.552 642.57 161.072 640.938 161.072C635.658 161.072 631.05 165.968 631.05 173.36C631.05 180.272 635.082 184.976 639.69 184.976C641.514 184.976 643.626 183.92 645.834 181.808V162.512Z" fill="white"/>
<path d="M167.776 194H166.776V195H167.776V194ZM167.776 123.824V122.824H166.776V123.824H167.776ZM169.312 123.824L169.996 123.094L169.707 122.824H169.312V123.824ZM211.648 163.472L210.964 164.202L212.648 165.779V163.472H211.648ZM211.648 126.032V125.032H210.648V126.032H211.648ZM226.624 126.032H227.624V125.032H226.624V126.032ZM226.624 196.592V197.592H227.624V196.592H226.624ZM225.184 196.592L224.501 197.323L224.79 197.592H225.184V196.592ZM182.752 156.944L183.435 156.213L181.752 154.641V156.944H182.752ZM182.752 194V195H183.752V194H182.752ZM168.776 194V123.824H166.776V194H168.776ZM167.776 124.824H169.312V122.824H167.776V124.824ZM168.628 124.554L210.964 164.202L212.332 162.742L169.996 123.094L168.628 124.554ZM212.648 163.472V126.032H210.648V163.472H212.648ZM211.648 127.032H226.624V125.032H211.648V127.032ZM225.624 126.032V196.592H227.624V126.032H225.624ZM226.624 195.592H225.184V197.592H226.624V195.592ZM225.867 195.861L183.435 156.213L182.069 157.675L224.501 197.323L225.867 195.861ZM181.752 156.944V194H183.752V156.944H181.752ZM182.752 193H167.776V195H182.752V193ZM279.558 178.928L280.55 179.053L280.812 176.968L279.029 178.079L279.558 178.928ZM277.926 191.888L278.354 192.791L278.849 192.557L278.918 192.013L277.926 191.888ZM281.382 172.592L282.201 173.165L282.362 172.935L282.38 172.654L281.382 172.592ZM280.038 174.512L280.064 175.512L280.568 175.498L280.857 175.085L280.038 174.512ZM251.238 175.28L251.211 174.28L250.169 174.308L250.24 175.348L251.238 175.28ZM251.526 168.944L250.543 168.758L250.311 169.983L251.557 169.944L251.526 168.944ZM269.862 168.368L269.893 169.368L270.862 169.337V168.368H269.862ZM278.565 178.803L276.933 191.763L278.918 192.013L280.55 179.053L278.565 178.803ZM277.497 190.985C271.949 193.618 266.622 194.92 261.03 194.92V196.92C266.957 196.92 272.575 195.534 278.354 192.791L277.497 190.985ZM261.03 194.92C254.139 194.92 248.517 192.735 244.627 189.072C240.741 185.413 238.51 180.213 238.51 174.032H236.51C236.51 180.715 238.934 186.459 243.256 190.528C247.574 194.593 253.712 196.92 261.03 196.92V194.92ZM238.51 174.032C238.51 160.872 248.99 150.84 261.798 150.84V148.84C247.917 148.84 236.51 159.736 236.51 174.032H238.51ZM261.798 150.84C267.294 150.84 271.986 152.616 275.293 155.653C278.593 158.682 280.574 163.018 280.574 168.272H282.574C282.574 162.486 280.378 157.606 276.646 154.179C272.921 150.76 267.725 148.84 261.798 148.84V150.84ZM280.574 168.272C280.574 169.578 280.48 170.982 280.383 172.53L282.38 172.654C282.475 171.13 282.574 169.654 282.574 168.272H280.574ZM280.562 172.019L279.218 173.939L280.857 175.085L282.201 173.165L280.562 172.019ZM280.011 173.512L251.211 174.28L251.264 176.28L280.064 175.512L280.011 173.512ZM250.24 175.348C250.667 181.646 255.916 185.88 262.95 185.88V183.88C256.735 183.88 252.576 180.242 252.235 175.212L250.24 175.348ZM262.95 185.88C267.528 185.88 273.378 183.957 280.086 179.777L279.029 178.079C272.489 182.155 267.011 183.88 262.95 183.88V185.88ZM251.557 169.944L269.893 169.368L269.83 167.368L251.494 167.944L251.557 169.944ZM270.862 168.368V167.696H268.862V168.368H270.862ZM270.862 167.696C270.862 162.649 266.876 159.112 261.606 159.112V161.112C265.935 161.112 268.862 163.911 268.862 167.696H270.862ZM261.606 159.112C258.751 159.112 256.253 159.998 254.323 161.687C252.397 163.372 251.105 165.796 250.543 168.758L252.508 169.13C253.002 166.524 254.11 164.532 255.64 163.193C257.166 161.858 259.18 161.112 261.606 161.112V159.112ZM292.379 162.896H293.379V161.896H292.379V162.896ZM286.235 162.896H285.235V163.896H286.235V162.896ZM286.235 151.76V150.76H285.235V151.76H286.235ZM292.379 151.76V152.76H293.379V151.76H292.379ZM292.379 139.088L292.245 138.097L291.379 138.214V139.088H292.379ZM307.355 137.072H308.355V135.928L307.221 136.081L307.355 137.072ZM307.355 151.76H306.355V152.76H307.355V151.76ZM317.339 151.76H318.339V150.76H317.339V151.76ZM317.339 162.896V163.896H318.339V162.896H317.339ZM307.355 162.896V161.896H306.355V162.896H307.355ZM314.747 193.808L314.816 194.806L318.474 194.553L315.194 192.914L314.747 193.808ZM298.043 194.96L297.609 195.861L297.847 195.976L298.112 195.958L298.043 194.96ZM293.379 179.792V162.896H291.379V179.792H293.379ZM292.379 161.896H286.235V163.896H292.379V161.896ZM287.235 162.896V151.76H285.235V162.896H287.235ZM286.235 152.76H292.379V150.76H286.235V152.76ZM293.379 151.76V139.088H291.379V151.76H293.379ZM292.512 140.079L307.488 138.063L307.221 136.081L292.245 138.097L292.512 140.079ZM306.355 137.072V151.76H308.355V137.072H306.355ZM307.355 152.76H317.339V150.76H307.355V152.76ZM316.339 151.76V162.896H318.339V151.76H316.339ZM317.339 161.896H307.355V163.896H317.339V161.896ZM306.355 162.896V180.848H308.355V162.896H306.355ZM306.355 180.848C306.355 184.271 306.611 186.938 307.791 189.164C308.988 191.422 311.05 193.078 314.3 194.702L315.194 192.914C312.107 191.37 310.473 189.954 309.558 188.228C308.627 186.47 308.355 184.241 308.355 180.848H306.355ZM314.678 192.81L297.974 193.962L298.112 195.958L314.816 194.806L314.678 192.81ZM298.477 194.059C296.143 192.935 294.91 191.383 294.222 189.167C293.506 186.862 293.379 183.844 293.379 179.792H291.379C291.379 183.804 291.492 187.122 292.312 189.761C293.159 192.489 294.759 194.489 297.609 195.861L298.477 194.059ZM345.612 196.208L344.685 196.583L344.938 197.208H345.612V196.208ZM317.196 126.032V125.032H315.712L316.269 126.407L317.196 126.032ZM333.612 126.032L334.553 125.692L334.314 125.032H333.612V126.032ZM346.86 162.704L345.92 163.044L346.855 165.632L347.8 163.047L346.86 162.704ZM361.068 123.824V122.824H360.369L360.129 123.481L361.068 123.824ZM362.316 123.824L363.255 123.479L363.014 122.824H362.316V123.824ZM376.62 162.704L375.682 163.049L376.636 165.642L377.562 163.039L376.62 162.704ZM389.676 126.032V125.032H388.971L388.734 125.697L389.676 126.032ZM404.844 126.032L405.772 126.405L406.324 125.032H404.844V126.032ZM376.62 196.208V197.208H377.296L377.548 196.581L376.62 196.208ZM375.564 196.208L374.627 196.557L374.87 197.208H375.564V196.208ZM361.068 157.328L362.005 156.979L361.059 154.44L360.129 156.985L361.068 157.328ZM346.86 196.208V197.208H347.559L347.8 196.551L346.86 196.208ZM346.539 195.833L318.123 125.657L316.269 126.407L344.685 196.583L346.539 195.833ZM317.196 127.032H333.612V125.032H317.196V127.032ZM332.672 126.372L345.92 163.044L347.801 162.364L334.553 125.692L332.672 126.372ZM347.8 163.047L362.008 124.167L360.129 123.481L345.921 162.361L347.8 163.047ZM361.068 124.824H362.316V122.824H361.068V124.824ZM361.378 124.169L375.682 163.049L377.559 162.359L363.255 123.479L361.378 124.169ZM377.562 163.039L390.618 126.367L388.734 125.697L375.678 162.369L377.562 163.039ZM389.676 127.032H404.844V125.032H389.676V127.032ZM403.916 125.659L375.692 195.835L377.548 196.581L405.772 126.405L403.916 125.659ZM376.62 195.208H375.564V197.208H376.62V195.208ZM376.501 195.859L362.005 156.979L360.131 157.677L374.627 196.557L376.501 195.859ZM360.129 156.985L345.921 195.865L347.8 196.551L362.008 157.671L360.129 156.985ZM346.86 195.208H345.612V197.208H346.86V195.208ZM399.007 172.88C399.007 159.817 408.527 150.744 421.239 150.744V148.744C407.456 148.744 397.007 158.679 397.007 172.88H399.007ZM421.239 150.744C434.05 150.744 443.567 159.819 443.567 172.88H445.567C445.567 158.677 435.116 148.744 421.239 148.744V150.744ZM443.567 172.88C443.567 185.847 434.047 195.016 421.239 195.016V197.016C435.119 197.016 445.567 186.985 445.567 172.88H443.567ZM421.239 195.016C408.53 195.016 399.007 185.85 399.007 172.88H397.007C397.007 186.982 407.453 197.016 421.239 197.016V195.016ZM411.983 172.88C411.983 176.827 412.957 180.05 414.612 182.314C416.277 184.592 418.627 185.88 421.239 185.88V183.88C419.34 183.88 417.561 182.96 416.227 181.134C414.882 179.294 413.983 176.517 413.983 172.88H411.983ZM421.239 185.88C423.91 185.88 426.26 184.534 427.908 182.235C429.546 179.949 430.495 176.731 430.495 172.88H428.495C428.495 176.421 427.621 179.203 426.282 181.069C424.955 182.922 423.176 183.88 421.239 183.88V185.88ZM430.495 172.88C430.495 169.029 429.546 165.811 427.908 163.525C426.26 161.226 423.91 159.88 421.239 159.88V161.88C423.176 161.88 424.955 162.838 426.282 164.691C427.621 166.557 428.495 169.339 428.495 172.88H430.495ZM421.239 159.88C418.627 159.88 416.277 161.168 414.612 163.446C412.957 165.71 411.983 168.933 411.983 172.88H413.983C413.983 169.243 414.882 166.466 416.227 164.626C417.561 162.8 419.34 161.88 421.239 161.88V159.88ZM467.982 194V195H468.982V194H467.982ZM453.198 194H452.198V195H453.198V194ZM453.198 151.76V150.76H452.198V151.76H453.198ZM466.926 151.76L467.925 151.721L467.887 150.76H466.926V151.76ZM467.214 159.152L466.214 159.191L466.35 162.678L468.082 159.648L467.214 159.152ZM482.766 150.704H483.766V149.704H482.766V150.704ZM482.766 166.448V167.448H483.766V166.448H482.766ZM467.982 193H453.198V195H467.982V193ZM454.198 194V151.76H452.198V194H454.198ZM453.198 152.76H466.926V150.76H453.198V152.76ZM465.926 151.799L466.214 159.191L468.213 159.113L467.925 151.721L465.926 151.799ZM468.082 159.648C469.749 156.731 471.58 154.769 473.727 153.525C475.874 152.281 478.423 151.704 481.614 151.704V149.704C478.18 149.704 475.257 150.327 472.724 151.795C470.191 153.263 468.134 155.525 466.345 158.656L468.082 159.648ZM481.614 151.704H482.766V149.704H481.614V151.704ZM481.766 150.704V166.448H483.766V150.704H481.766ZM482.766 165.448H479.598V167.448H482.766V165.448ZM479.598 165.448C476.885 165.448 474.738 165.592 473.048 165.934C471.357 166.277 470.046 166.832 469.082 167.714C468.105 168.609 467.584 169.749 467.306 171.06C467.033 172.347 466.982 173.862 466.982 175.568H468.982C468.982 173.866 469.038 172.537 469.263 171.475C469.483 170.437 469.851 169.723 470.433 169.19C471.029 168.644 471.95 168.197 473.445 167.895C474.941 167.592 476.934 167.448 479.598 167.448V165.448ZM466.982 175.568V194H468.982V175.568H466.982ZM504.718 194V195H505.718V194H504.718ZM490.51 194H489.51V195H490.51V194ZM490.51 127.088L490.37 126.098L489.51 126.22V127.088H490.51ZM504.718 125.072H505.718V123.92L504.578 124.082L504.718 125.072ZM504.718 169.136H503.718V172.149L505.52 169.734L504.718 169.136ZM517.678 151.76V150.76H517.176L516.876 151.162L517.678 151.76ZM533.038 151.76L533.814 152.391L535.141 150.76H533.038V151.76ZM518.35 169.808L517.574 169.177L517.081 169.783L517.55 170.408L518.35 169.808ZM536.494 194V195H538.494L537.294 193.4L536.494 194ZM520.27 194L519.448 194.569L519.746 195H520.27V194ZM504.718 171.536L505.54 170.967L503.718 168.335V171.536H504.718ZM504.718 193H490.51V195H504.718V193ZM491.51 194V127.088H489.51V194H491.51ZM490.65 128.078L504.858 126.062L504.578 124.082L490.37 126.098L490.65 128.078ZM503.718 125.072V169.136H505.718V125.072H503.718ZM505.52 169.734L518.48 152.358L516.876 151.162L503.916 168.538L505.52 169.734ZM517.678 152.76H533.038V150.76H517.678V152.76ZM532.262 151.129L517.574 169.177L519.126 170.439L533.814 152.391L532.262 151.129ZM517.55 170.408L535.694 194.6L537.294 193.4L519.15 169.208L517.55 170.408ZM536.494 193H520.27V195H536.494V193ZM521.092 193.431L505.54 170.967L503.896 172.105L519.448 194.569L521.092 193.431ZM503.718 171.536V194H505.718V171.536H503.718ZM554.319 194V195H555.319V194H554.319ZM539.439 194H538.439V195H539.439V194ZM539.439 151.76L539.304 150.769L538.439 150.886V151.76H539.439ZM554.319 149.744H555.319V148.599L554.184 148.753L554.319 149.744ZM554.319 193H539.439V195H554.319V193ZM540.439 194V151.76H538.439V194H540.439ZM539.573 152.751L554.453 150.735L554.184 148.753L539.304 150.769L539.573 152.751ZM553.319 149.744V194H555.319V149.744H553.319ZM539.767 136.016C539.767 132.056 542.871 128.952 546.831 128.952V126.952C541.766 126.952 537.767 130.952 537.767 136.016H539.767ZM546.831 128.952C550.798 128.952 553.895 131.968 553.895 136.016H555.895C555.895 130.848 551.887 126.952 546.831 126.952V128.952ZM553.895 136.016C553.895 139.903 550.767 143.176 546.831 143.176V145.176C551.918 145.176 555.895 140.961 555.895 136.016H553.895ZM546.831 143.176C542.982 143.176 539.767 139.895 539.767 136.016H537.767C537.767 140.969 541.847 145.176 546.831 145.176V143.176ZM580.011 194V195H581.011V194H580.011ZM565.323 194H564.323V195H565.323V194ZM565.323 151.76V150.76H564.323V151.76H565.323ZM578.859 151.76H579.859V150.76H578.859V151.76ZM578.859 158.864H577.859V161.686L579.635 159.494L578.859 158.864ZM607.947 194V195H608.947V194H607.947ZM593.355 194H592.355V195H593.355V194ZM580.011 193H565.323V195H580.011V193ZM566.323 194V151.76H564.323V194H566.323ZM565.323 152.76H578.859V150.76H565.323V152.76ZM577.859 151.76V158.864H579.859V151.76H577.859ZM579.635 159.494C584.003 154.104 588.729 151.608 594.315 151.608V149.608C587.996 149.608 582.738 152.488 578.082 158.234L579.635 159.494ZM594.315 151.608C598.584 151.608 601.687 152.842 603.737 155.107C605.803 157.39 606.947 160.879 606.947 165.68H608.947C608.947 160.593 607.738 156.546 605.22 153.765C602.686 150.966 598.973 149.608 594.315 149.608V151.608ZM606.947 165.68V194H608.947V165.68H606.947ZM607.947 193H593.355V195H607.947V193ZM594.355 194V169.808H592.355V194H594.355ZM594.355 169.808C594.355 167.486 593.879 165.545 592.78 164.168C591.649 162.751 589.986 162.088 587.979 162.088V164.088C589.523 164.088 590.548 164.577 591.217 165.416C591.918 166.295 592.355 167.714 592.355 169.808H594.355ZM587.979 162.088C585.346 162.088 583.048 162.966 581.429 164.893C579.832 166.792 579.011 169.576 579.011 173.168H581.011C581.011 169.848 581.773 167.592 582.96 166.179C584.125 164.794 585.811 164.088 587.979 164.088V162.088ZM579.011 173.168V194H581.011V173.168H579.011ZM660.522 151.76H661.522V150.721L660.484 150.761L660.522 151.76ZM658.122 204.176L657.236 203.713L657.233 203.719L658.122 204.176ZM620.394 210.608L619.394 210.624L619.405 211.289L620.023 211.536L620.394 210.608ZM620.202 198.896L620.672 198.013L619.175 197.216L619.202 198.912L620.202 198.896ZM646.314 191.984H647.314V190.174L645.782 191.137L646.314 191.984ZM647.946 152.24L647.538 153.153L647.751 153.248L647.984 153.239L647.946 152.24ZM645.834 162.512H646.834V161.924L646.32 161.638L645.834 162.512ZM645.834 181.808L646.525 182.531L646.834 182.235V181.808H645.834ZM659.522 151.76V190.064H661.522V151.76H659.522ZM659.522 190.064C659.522 195.266 659.412 199.542 657.236 203.713L659.009 204.639C661.44 199.978 661.522 195.23 661.522 190.064H659.522ZM657.233 203.719C653.994 210.018 647.682 213.448 638.346 213.448V215.448C648.211 215.448 655.339 211.774 659.012 204.633L657.233 203.719ZM638.346 213.448C632.553 213.448 626.921 212.142 620.766 209.68L620.023 211.536C626.347 214.066 632.235 215.448 638.346 215.448V213.448ZM621.394 210.592L621.202 198.88L619.202 198.912L619.394 210.624L621.394 210.592ZM619.732 199.779C625.743 202.978 631.002 204.792 635.946 204.792V202.792C631.482 202.792 626.566 201.15 620.672 198.013L619.732 199.779ZM635.946 204.792C639.41 204.792 642.265 203.939 644.268 202.209C646.292 200.46 647.314 197.928 647.314 194.864H645.314C645.314 197.464 644.464 199.396 642.96 200.695C641.436 202.013 639.107 202.792 635.946 202.792V204.792ZM647.314 194.864V191.984H645.314V194.864H647.314ZM645.782 191.137C642.568 193.157 639.583 194.056 636.042 194.056V196.056C639.989 196.056 643.34 195.035 646.846 192.831L645.782 191.137ZM636.042 194.056C630.437 194.056 625.719 192.04 622.397 188.482C619.071 184.918 617.074 179.729 617.074 173.264H615.074C615.074 180.143 617.205 185.85 620.935 189.846C624.67 193.848 629.936 196.056 636.042 196.056V194.056ZM617.074 173.264C617.074 160.125 626.092 150.744 638.058 150.744V148.744C624.872 148.744 615.074 159.139 615.074 173.264H617.074ZM638.058 150.744C640.938 150.744 643.962 151.553 647.538 153.153L648.355 151.327C644.635 149.663 641.322 148.744 638.058 148.744V150.744ZM647.984 153.239L660.56 152.759L660.484 150.761L647.908 151.241L647.984 153.239ZM646.32 161.638C644.49 160.621 642.787 160.072 640.938 160.072V162.072C642.354 162.072 643.722 162.483 645.349 163.386L646.32 161.638ZM640.938 160.072C634.953 160.072 630.05 165.582 630.05 173.36H632.05C632.05 166.354 636.363 162.072 640.938 162.072V160.072ZM630.05 173.36C630.05 180.574 634.309 185.976 639.69 185.976V183.976C635.855 183.976 632.05 179.97 632.05 173.36H630.05ZM639.69 185.976C641.888 185.976 644.237 184.72 646.525 182.531L645.143 181.085C643.016 183.12 641.141 183.976 639.69 183.976V185.976ZM646.834 181.808V162.512H644.834V181.808H646.834Z" fill="white" mask="url(#path-1-outside-1_57_766)"/>
<circle cx="125" cy="133" r="13.5" fill="white" stroke="white"/>
<circle cx="110" cy="77" r="11.5" fill="white" stroke="white"/>
<circle cx="176" cy="95" r="8.5" fill="white" stroke="white"/>
<circle cx="217" cy="91" r="8.5" fill="white" stroke="white"/>
<circle cx="230" cy="64" r="8.5" fill="white" stroke="white"/>
<circle cx="196" cy="44" r="8.5" fill="white" stroke="white"/>
<circle cx="196" cy="44" r="8.5" fill="white" stroke="white"/>
<circle cx="193.5" cy="23.5" r="6" fill="white" stroke="white"/>
<circle cx="157.5" cy="15.5" r="6" fill="white" stroke="white"/>
<circle cx="243.5" cy="112.5" r="6" fill="white" stroke="white"/>
<circle cx="202" cy="216" r="7.5" fill="white" stroke="white"/>
<circle cx="128" cy="233" r="7.5" fill="white" stroke="white"/>
<circle cx="92" cy="229" r="7.5" fill="white" stroke="white"/>
<circle cx="54" cy="206" r="7.5" fill="white" stroke="white"/>
<circle cx="29" cy="198" r="8.5" fill="white" stroke="white"/>
<circle cx="52" cy="141" r="9.5" fill="white" stroke="white"/>
<circle cx="75.5" cy="59.5" r="9" fill="white" stroke="white"/>
<circle cx="70.5" cy="35.5" r="8" fill="white" stroke="white"/>
<circle cx="78.5" cy="9.5" r="7" fill="white" stroke="white"/>
<circle cx="106.5" cy="32.5" r="5" fill="white" stroke="white"/>
<circle cx="106.5" cy="32.5" r="5" fill="white" stroke="white"/>
<circle cx="111.5" cy="15.5" r="5" fill="white" stroke="white"/>
<circle cx="149.5" cy="3.5" r="3" fill="white" stroke="white"/>
<circle cx="5" cy="99" r="4.5" fill="white" stroke="white"/>
<circle cx="25" cy="52" r="4.5" fill="white" stroke="white"/>
<circle cx="25" cy="160" r="4.5" fill="white" stroke="white"/>
<circle cx="148" cy="242" r="4.5" fill="white" stroke="white"/>
<circle cx="104" cy="245" r="5.5" fill="white" stroke="white"/>
<circle cx="64.5" cy="233.5" r="9" fill="white" stroke="white"/>
<circle cx="166.5" cy="217.5" r="9" fill="white" stroke="white"/>
<circle cx="44.5" cy="85.5" r="6" fill="white" stroke="white"/>
<circle cx="28.5" cy="71.5" r="6" fill="white" stroke="white"/>
<circle cx="13.5" cy="112.5" r="6" fill="white" stroke="white"/>
<circle cx="6.5" cy="153.5" r="6" fill="white" stroke="white"/>
<circle cx="110.5" cy="192.5" r="12" fill="white" stroke="white"/>
<circle cx="151" cy="35" r="9.5" fill="white" stroke="white"/>
<line x1="28.6834" y1="49.613" x2="72.6834" y2="13.613" stroke="white"/>
<line x1="84.9611" y1="8.50152" x2="148.961" y2="3.50152" stroke="white"/>
<line x1="114.834" y1="15.5285" x2="148.834" y2="3.52851" stroke="white"/>
<line x1="85.14" y1="9.52" x2="109.14" y2="16.52" stroke="white"/>
<line x1="72.8271" y1="31.5308" x2="110.827" y2="17.5308" stroke="white"/>
<line x1="72.5133" y1="31.8855" x2="76.5133" y2="14.8855" stroke="white"/>
<line x1="75.9656" y1="34.5012" x2="104.966" y2="32.5012" stroke="white"/>
<line x1="106.529" y1="29.8318" x2="111.529" y2="15.8318" stroke="white"/>
<line x1="107.023" y1="32.5005" x2="151.023" y2="34.5005" stroke="white"/>
<line x1="112.224" y1="15.5528" x2="148.224" y2="33.5528" stroke="white"/>
<line x1="110.99" y1="16.5001" x2="158.99" y2="15.5001" stroke="white"/>
<line x1="150.374" y1="3.66782" x2="158.374" y2="12.6678" stroke="white"/>
<line x1="161.098" y1="16.5097" x2="191.098" y2="22.5097" stroke="white"/>
<line x1="151.211" y1="3.54664" x2="194.211" y2="23.5466" stroke="white"/>
<line x1="159.308" y1="16.606" x2="191.308" y2="41.606" stroke="white"/>
<line x1="151.11" y1="34.5122" x2="191.11" y2="43.5122" stroke="white"/>
<line x1="153.468" y1="37.8235" x2="173.468" y2="90.8235" stroke="white"/>
<line x1="176.54" y1="88.8044" x2="193.54" y2="48.8044" stroke="white"/>
<line x1="117.14" y1="78.5199" x2="172.14" y2="94.5199" stroke="white"/>
<line x1="116.635" y1="71.6584" x2="145.635" y2="40.6584" stroke="white"/>
<line x1="111.505" y1="69.067" x2="106.505" y2="32.067" stroke="white"/>
<line x1="81.2069" y1="64.5448" x2="103.207" y2="74.5448" stroke="white"/>
<line x1="78.7024" y1="54.5982" x2="105.702" y2="34.5982" stroke="white"/>
<line x1="71.4956" y1="40.9339" x2="73.4956" y2="55.9339" stroke="white"/>
<line x1="31.8876" y1="69.5128" x2="70.8876" y2="60.5128" stroke="white"/>
<line x1="31.6685" y1="69.6257" x2="66.6685" y2="38.6257" stroke="white"/>
<line x1="28.8002" y1="51.5417" x2="67.8002" y2="34.5417" stroke="white"/>
<line x1="25.4881" y1="52.8915" x2="29.4881" y2="70.8915" stroke="white"/>
<line x1="6.53438" y1="98.8178" x2="24.5344" y2="52.8178" stroke="white"/>
<line x1="4.63901" y1="97.654" x2="27.639" y2="73.654" stroke="white"/>
<line x1="30.3536" y1="73.6464" x2="43.3536" y2="86.6464" stroke="white"/>
<line x1="42.6951" y1="82.6037" x2="68.6951" y2="62.6037" stroke="white"/>
<line x1="47.9717" y1="82.5008" x2="100.972" y2="79.5008" stroke="white"/>
<line x1="43.4958" y1="88.9353" x2="49.4958" y2="134.935" stroke="white"/>
<line x1="55.6396" y1="134.653" x2="105.64" y2="82.6534" stroke="white"/>
<line x1="112.484" y1="83.8761" x2="123.484" y2="126.876" stroke="white"/>
<line x1="134.698" y1="126.601" x2="171.698" y2="98.6013" stroke="white"/>
<line x1="58.9477" y1="140.503" x2="115.948" y2="134.503" stroke="white"/>
<line x1="13.5588" y1="105.765" x2="29.5588" y2="75.7647" stroke="white"/>
<line x1="13.6978" y1="108.602" x2="42.6978" y2="86.6017" stroke="white"/>
<line x1="16.3153" y1="112.612" x2="48.3153" y2="138.612" stroke="white"/>
<line x1="56.3341" y1="143.628" x2="105.334" y2="187.628" stroke="white"/>
<line x1="113.51" y1="183.9" x2="122.51" y2="139.9" stroke="white"/>
<line x1="16.4899" y1="115.9" x2="25.4899" y2="159.9" stroke="white"/>
<line x1="14.4929" y1="113.084" x2="7.49287" y2="154.084" stroke="white"/>
<line x1="4.5" y1="150" x2="4.5" y2="100" stroke="white"/>
<line x1="7.45957" y1="154.803" x2="25.4596" y2="196.803" stroke="white"/>
<line x1="10.2704" y1="152.579" x2="24.2704" y2="161.579" stroke="white"/>
<line x1="27.697" y1="159.602" x2="48.697" y2="143.602" stroke="white"/>
<line x1="51.4997" y1="145.983" x2="53.4997" y2="204.983" stroke="white"/>
<line x1="25.4323" y1="159.749" x2="50.4323" y2="202.749" stroke="white"/>
<line x1="24.4944" y1="161.925" x2="29.4944" y2="194.925" stroke="white"/>
<line x1="35.1288" y1="200.517" x2="50.1288" y2="204.517" stroke="white"/>
<line x1="52.4545" y1="207.792" x2="63.4545" y2="231.792" stroke="white"/>
<line x1="32.3416" y1="202.635" x2="63.3416" y2="231.635" stroke="white"/>
<line x1="56.2957" y1="207.597" x2="86.2957" y2="229.597" stroke="white"/>
<line x1="56.8738" y1="206.516" x2="102.874" y2="194.516" stroke="white"/>
<line x1="107.444" y1="200.231" x2="94.4436" y2="225.231" stroke="white"/>
<line x1="70.9526" y1="231.502" x2="91.9526" y2="229.502" stroke="white"/>
<line x1="71.1721" y1="233.531" x2="101.172" y2="244.531" stroke="white"/>
<line x1="94.3716" y1="232.666" x2="103.372" y2="242.666" stroke="white"/>
<line x1="98.0661" y1="229.504" x2="128.066" y2="233.504" stroke="white"/>
<line x1="116.468" y1="199.824" x2="128.468" y2="231.824" stroke="white"/>
<line x1="106.806" y1="242.539" x2="125.806" y2="234.539" stroke="white"/>
<line x1="106.988" y1="244.5" x2="147.988" y2="243.5" stroke="white"/>
<line x1="147.834" y1="241.471" x2="130.834" y2="235.471" stroke="white"/>
<line x1="132.783" y1="232.55" x2="161.783" y2="218.55" stroke="white"/>
<line x1="165.381" y1="222.324" x2="148.381" y2="242.324" stroke="white"/>
<line x1="120.219" y1="194.551" x2="161.219" y2="214.551" stroke="white"/>
<line x1="172.981" y1="217.5" x2="198.981" y2="216.5" stroke="white"/>
<line x1="149.791" y1="241.546" x2="199.791" y2="218.546" stroke="white"/>
<line x1="180.975" y1="93.5006" x2="220.975" y2="91.5006" stroke="white"/>
<line x1="198.467" y1="46.822" x2="214.467" y2="88.822" stroke="white"/>
<line x1="220.558" y1="85.7661" x2="229.558" y2="68.7661" stroke="white"/>
<line x1="230.471" y1="67.8331" x2="247.471" y2="115.833" stroke="white"/>
<line x1="241.709" y1="109.407" x2="220.709" y2="94.4069" stroke="white"/>
<line x1="203.315" y1="44.6114" x2="224.315" y2="61.6114" stroke="white"/>
<line x1="223.634" y1="57.3412" x2="195.634" y2="27.3412" stroke="white"/>
<line x1="194.493" y1="28.9178" x2="196.493" y2="40.9178" stroke="white"/>
</svg>
