<svg width="666" height="251" viewBox="0 0 666 251" fill="none" xmlns="http://www.w3.org/2000/svg">
<path d="M167.776 194V123.824H169.312L211.648 163.472V126.032H226.624V196.592H225.184L182.752 156.944V194H167.776ZM279.558 178.928L277.926 191.888C272.262 194.576 266.79 195.92 261.03 195.92C246.822 195.92 237.51 186.896 237.51 174.032C237.51 160.304 248.454 149.84 261.798 149.84C273.222 149.84 281.574 157.232 281.574 168.272C281.574 169.616 281.478 171.056 281.382 172.592L280.038 174.512L251.238 175.28C251.622 180.944 256.326 184.88 262.95 184.88C267.27 184.88 272.934 183.056 279.558 178.928ZM251.526 168.944L269.862 168.368V167.696C269.862 163.28 266.406 160.112 261.606 160.112C256.326 160.112 252.582 163.376 251.526 168.944ZM292.379 179.792V162.896H286.235V151.76H292.379V139.088L307.355 137.072V151.76H317.339V162.896H307.355V180.848C307.355 187.664 308.411 190.64 314.747 193.808L298.043 194.96C292.859 192.464 292.379 187.856 292.379 179.792ZM345.612 196.208L317.196 126.032H333.612L346.86 162.704L361.068 123.824H362.316L376.62 162.704L389.676 126.032H404.844L376.62 196.208H375.564L361.068 157.328L346.86 196.208H345.612ZM398.007 172.88C398.007 159.248 407.991 149.744 421.239 149.744C434.583 149.744 444.567 159.248 444.567 172.88C444.567 186.416 434.583 196.016 421.239 196.016C407.991 196.016 398.007 186.416 398.007 172.88ZM412.983 172.88C412.983 180.464 416.727 184.88 421.239 184.88C425.847 184.88 429.495 180.272 429.495 172.88C429.495 165.488 425.847 160.88 421.239 160.88C416.727 160.88 412.983 165.296 412.983 172.88ZM467.982 194H453.198V151.76H466.926L467.214 159.152C470.67 153.104 474.99 150.704 481.614 150.704H482.766V166.448H479.598C468.846 166.448 467.982 168.752 467.982 175.568V194ZM504.718 194H490.51V127.088L504.718 125.072V169.136L517.678 151.76H533.038L518.35 169.808L536.494 194H520.27L504.718 171.536V194ZM554.319 194H539.439V151.76L554.319 149.744V194ZM538.767 136.016C538.767 131.504 542.319 127.952 546.831 127.952C551.343 127.952 554.895 131.408 554.895 136.016C554.895 140.432 551.343 144.176 546.831 144.176C542.415 144.176 538.767 140.432 538.767 136.016ZM580.011 194H565.323V151.76H578.859V158.864C583.371 153.296 588.363 150.608 594.315 150.608C603.243 150.608 607.947 155.792 607.947 165.68V194H593.355V169.808C593.355 165.392 591.531 163.088 587.979 163.088C583.179 163.088 580.011 166.256 580.011 173.168V194ZM660.522 151.76V190.064C660.522 195.248 660.426 199.76 658.122 204.176C654.666 210.896 647.946 214.448 638.346 214.448C632.394 214.448 626.634 213.104 620.394 210.608L620.202 198.896C626.154 202.064 631.242 203.792 635.946 203.792C642.57 203.792 646.314 200.528 646.314 194.864V191.984C642.954 194.096 639.786 195.056 636.042 195.056C624.33 195.056 616.074 186.608 616.074 173.264C616.074 159.632 625.482 149.744 638.058 149.744C641.13 149.744 644.298 150.608 647.946 152.24L660.522 151.76ZM645.834 162.512C644.106 161.552 642.57 161.072 640.938 161.072C635.658 161.072 631.05 165.968 631.05 173.36C631.05 180.272 635.082 184.976 639.69 184.976C641.514 184.976 643.626 183.92 645.834 181.808V162.512Z" fill="#393ED0"/>
<circle cx="125" cy="133" r="14" fill="#393ED0"/>
<circle cx="110" cy="77" r="12" fill="#393ED0"/>
<circle cx="176" cy="95" r="9" fill="#393ED0"/>
<circle cx="217" cy="91" r="9" fill="#393ED0"/>
<circle cx="230" cy="64" r="9" fill="#393ED0"/>
<circle cx="196" cy="44" r="9" fill="#393ED0"/>
<circle cx="196" cy="44" r="9" fill="#393ED0"/>
<circle cx="193.5" cy="23.5" r="6.5" fill="#393ED0"/>
<circle cx="157.5" cy="15.5" r="6.5" fill="#393ED0"/>
<circle cx="243.5" cy="112.5" r="6.5" fill="#393ED0"/>
<circle cx="202" cy="216" r="8" fill="#393ED0"/>
<circle cx="128" cy="233" r="8" fill="#393ED0"/>
<circle cx="92" cy="229" r="8" fill="#393ED0"/>
<circle cx="54" cy="206" r="8" fill="#393ED0"/>
<circle cx="29" cy="198" r="9" fill="#393ED0"/>
<circle cx="52" cy="141" r="10" fill="#393ED0"/>
<circle cx="75.5" cy="59.5" r="9.5" fill="#393ED0"/>
<circle cx="70.5" cy="35.5" r="8.5" fill="#393ED0"/>
<circle cx="78.5" cy="9.5" r="7.5" fill="#393ED0"/>
<circle cx="106.5" cy="32.5" r="5.5" fill="#393ED0"/>
<circle cx="106.5" cy="32.5" r="5.5" fill="#393ED0"/>
<circle cx="111.5" cy="15.5" r="5.5" fill="#393ED0"/>
<circle cx="149.5" cy="3.5" r="3.5" fill="#393ED0"/>
<circle cx="5" cy="99" r="5" fill="#393ED0"/>
<circle cx="25" cy="52" r="5" fill="#393ED0"/>
<circle cx="25" cy="160" r="5" fill="#393ED0"/>
<circle cx="148" cy="242" r="5" fill="#393ED0"/>
<circle cx="104" cy="245" r="6" fill="#393ED0"/>
<circle cx="64.5" cy="233.5" r="9.5" fill="#393ED0"/>
<circle cx="166.5" cy="217.5" r="9.5" fill="#393ED0"/>
<circle cx="44.5" cy="85.5" r="6.5" fill="#393ED0"/>
<circle cx="28.5" cy="71.5" r="6.5" fill="#393ED0"/>
<circle cx="13.5" cy="112.5" r="6.5" fill="#393ED0"/>
<circle cx="6.5" cy="153.5" r="6.5" fill="#393ED0"/>
<circle cx="110.5" cy="192.5" r="12.5" fill="#393ED0"/>
<circle cx="151" cy="35" r="10" fill="#393ED0"/>
<line x1="28.6834" y1="49.613" x2="72.6834" y2="13.613" stroke="#393ED0"/>
<line x1="84.9611" y1="8.50152" x2="148.961" y2="3.50152" stroke="#393ED0"/>
<line x1="114.834" y1="15.5285" x2="148.834" y2="3.52851" stroke="#393ED0"/>
<line x1="85.14" y1="9.52" x2="109.14" y2="16.52" stroke="#393ED0"/>
<line x1="72.8271" y1="31.5308" x2="110.827" y2="17.5308" stroke="#393ED0"/>
<line x1="72.5133" y1="31.8855" x2="76.5133" y2="14.8855" stroke="#393ED0"/>
<line x1="75.9656" y1="34.5012" x2="104.966" y2="32.5012" stroke="#393ED0"/>
<line x1="106.529" y1="29.8318" x2="111.529" y2="15.8318" stroke="#393ED0"/>
<line x1="107.023" y1="32.5005" x2="151.023" y2="34.5005" stroke="#393ED0"/>
<line x1="112.224" y1="15.5528" x2="148.224" y2="33.5528" stroke="#393ED0"/>
<line x1="110.99" y1="16.5001" x2="158.99" y2="15.5001" stroke="#393ED0"/>
<line x1="150.374" y1="3.66782" x2="158.374" y2="12.6678" stroke="#393ED0"/>
<line x1="161.098" y1="16.5097" x2="191.098" y2="22.5097" stroke="#393ED0"/>
<line x1="151.211" y1="3.54664" x2="194.211" y2="23.5466" stroke="#393ED0"/>
<line x1="159.308" y1="16.606" x2="191.308" y2="41.606" stroke="#393ED0"/>
<line x1="151.11" y1="34.5122" x2="191.11" y2="43.5122" stroke="#393ED0"/>
<line x1="153.468" y1="37.8235" x2="173.468" y2="90.8235" stroke="#393ED0"/>
<line x1="176.54" y1="88.8044" x2="193.54" y2="48.8044" stroke="#393ED0"/>
<line x1="117.14" y1="78.5199" x2="172.14" y2="94.5199" stroke="#393ED0"/>
<line x1="116.635" y1="71.6584" x2="145.635" y2="40.6584" stroke="#393ED0"/>
<line x1="111.505" y1="69.067" x2="106.505" y2="32.067" stroke="#393ED0"/>
<line x1="81.2069" y1="64.5448" x2="103.207" y2="74.5448" stroke="#393ED0"/>
<line x1="78.7024" y1="54.5982" x2="105.702" y2="34.5982" stroke="#393ED0"/>
<line x1="71.4956" y1="40.9339" x2="73.4956" y2="55.9339" stroke="#393ED0"/>
<line x1="31.8876" y1="69.5128" x2="70.8876" y2="60.5128" stroke="#393ED0"/>
<line x1="31.6685" y1="69.6257" x2="66.6685" y2="38.6257" stroke="#393ED0"/>
<line x1="28.8002" y1="51.5417" x2="67.8002" y2="34.5417" stroke="#393ED0"/>
<line x1="25.4881" y1="52.8915" x2="29.4881" y2="70.8915" stroke="#393ED0"/>
<line x1="6.53438" y1="98.8178" x2="24.5344" y2="52.8178" stroke="#393ED0"/>
<line x1="4.63901" y1="97.654" x2="27.639" y2="73.654" stroke="#393ED0"/>
<line x1="30.3536" y1="73.6464" x2="43.3536" y2="86.6464" stroke="#393ED0"/>
<line x1="42.6951" y1="82.6037" x2="68.6951" y2="62.6037" stroke="#393ED0"/>
<line x1="47.9717" y1="82.5008" x2="100.972" y2="79.5008" stroke="#393ED0"/>
<line x1="43.4958" y1="88.9353" x2="49.4958" y2="134.935" stroke="#393ED0"/>
<line x1="55.6396" y1="134.653" x2="105.64" y2="82.6534" stroke="#393ED0"/>
<line x1="112.484" y1="83.8761" x2="123.484" y2="126.876" stroke="#393ED0"/>
<line x1="134.698" y1="126.601" x2="171.698" y2="98.6013" stroke="#393ED0"/>
<line x1="58.9477" y1="140.503" x2="115.948" y2="134.503" stroke="#393ED0"/>
<line x1="13.5588" y1="105.765" x2="29.5588" y2="75.7647" stroke="#393ED0"/>
<line x1="13.6978" y1="108.602" x2="42.6978" y2="86.6017" stroke="#393ED0"/>
<line x1="16.3153" y1="112.612" x2="48.3153" y2="138.612" stroke="#393ED0"/>
<line x1="56.3341" y1="143.628" x2="105.334" y2="187.628" stroke="#393ED0"/>
<line x1="113.51" y1="183.9" x2="122.51" y2="139.9" stroke="#393ED0"/>
<line x1="16.4899" y1="115.9" x2="25.4899" y2="159.9" stroke="#393ED0"/>
<line x1="14.4929" y1="113.084" x2="7.49287" y2="154.084" stroke="#393ED0"/>
<line x1="4.5" y1="150" x2="4.5" y2="100" stroke="#393ED0"/>
<line x1="7.45957" y1="154.803" x2="25.4596" y2="196.803" stroke="#393ED0"/>
<line x1="10.2704" y1="152.579" x2="24.2704" y2="161.579" stroke="#393ED0"/>
<line x1="27.697" y1="159.602" x2="48.697" y2="143.602" stroke="#393ED0"/>
<line x1="51.4997" y1="145.983" x2="53.4997" y2="204.983" stroke="#393ED0"/>
<line x1="25.4323" y1="159.749" x2="50.4323" y2="202.749" stroke="#393ED0"/>
<line x1="24.4944" y1="161.925" x2="29.4944" y2="194.925" stroke="#393ED0"/>
<line x1="35.1288" y1="200.517" x2="50.1288" y2="204.517" stroke="#393ED0"/>
<line x1="52.4545" y1="207.792" x2="63.4545" y2="231.792" stroke="#393ED0"/>
<line x1="32.3416" y1="202.635" x2="63.3416" y2="231.635" stroke="#393ED0"/>
<line x1="56.2957" y1="207.597" x2="86.2957" y2="229.597" stroke="#393ED0"/>
<line x1="56.8738" y1="206.516" x2="102.874" y2="194.516" stroke="#393ED0"/>
<line x1="107.444" y1="200.231" x2="94.4436" y2="225.231" stroke="#393ED0"/>
<line x1="70.9526" y1="231.502" x2="91.9526" y2="229.502" stroke="#393ED0"/>
<line x1="71.1721" y1="233.531" x2="101.172" y2="244.531" stroke="#393ED0"/>
<line x1="94.3716" y1="232.666" x2="103.372" y2="242.666" stroke="#393ED0"/>
<line x1="98.0661" y1="229.504" x2="128.066" y2="233.504" stroke="#393ED0"/>
<line x1="116.468" y1="199.824" x2="128.468" y2="231.824" stroke="#393ED0"/>
<line x1="106.806" y1="242.539" x2="125.806" y2="234.539" stroke="#393ED0"/>
<line x1="106.988" y1="244.5" x2="147.988" y2="243.5" stroke="#393ED0"/>
<line x1="147.834" y1="241.471" x2="130.834" y2="235.471" stroke="#393ED0"/>
<line x1="132.783" y1="232.55" x2="161.783" y2="218.55" stroke="#393ED0"/>
<line x1="165.381" y1="222.324" x2="148.381" y2="242.324" stroke="#393ED0"/>
<line x1="120.219" y1="194.551" x2="161.219" y2="214.551" stroke="#393ED0"/>
<line x1="172.981" y1="217.5" x2="198.981" y2="216.5" stroke="#393ED0"/>
<line x1="149.791" y1="241.546" x2="199.791" y2="218.546" stroke="#393ED0"/>
<line x1="180.975" y1="93.5006" x2="220.975" y2="91.5006" stroke="#393ED0"/>
<line x1="198.467" y1="46.822" x2="214.467" y2="88.822" stroke="#393ED0"/>
<line x1="220.558" y1="85.7661" x2="229.558" y2="68.7661" stroke="#393ED0"/>
<line x1="230.471" y1="67.8331" x2="247.471" y2="115.833" stroke="#393ED0"/>
<line x1="241.709" y1="109.407" x2="220.709" y2="94.4069" stroke="#393ED0"/>
<line x1="203.315" y1="44.6114" x2="224.315" y2="61.6114" stroke="#393ED0"/>
<line x1="223.634" y1="57.3412" x2="195.634" y2="27.3412" stroke="#393ED0"/>
<line x1="194.493" y1="28.9178" x2="196.493" y2="40.9178" stroke="#393ED0"/>
</svg>
