<svg width="257" height="97" viewBox="0 0 257 97" fill="none" xmlns="http://www.w3.org/2000/svg">
<rect width="257" height="97" rx="20" fill="white"/>
<path d="M92.0949 41V31.9H93.7589L98.0359 38.309V31.9H99.6999V41H98.0359L93.7589 34.604V41H92.0949ZM104.259 41.156C103.635 41.156 103.072 41.013 102.569 40.727C102.075 40.441 101.681 40.0467 101.386 39.544C101.1 39.0327 100.957 38.4433 100.957 37.776C100.957 37.1087 101.104 36.5237 101.399 36.021C101.694 35.5097 102.088 35.111 102.582 34.825C103.085 34.539 103.648 34.396 104.272 34.396C104.887 34.396 105.442 34.539 105.936 34.825C106.439 35.111 106.833 35.5097 107.119 36.021C107.414 36.5237 107.561 37.1087 107.561 37.776C107.561 38.4433 107.414 39.0327 107.119 39.544C106.833 40.0467 106.439 40.441 105.936 40.727C105.433 41.013 104.874 41.156 104.259 41.156ZM104.259 39.713C104.692 39.713 105.069 39.5527 105.39 39.232C105.711 38.9027 105.871 38.4173 105.871 37.776C105.871 37.1347 105.711 36.6537 105.39 36.333C105.069 36.0037 104.697 35.839 104.272 35.839C103.83 35.839 103.449 36.0037 103.128 36.333C102.816 36.6537 102.66 37.1347 102.66 37.776C102.66 38.4173 102.816 38.9027 103.128 39.232C103.449 39.5527 103.826 39.713 104.259 39.713ZM110.213 41L107.847 34.552H109.589L111.227 39.427L112.865 34.552H114.607L112.228 41H110.213ZM118.174 41.156C117.55 41.156 116.986 41.013 116.484 40.727C115.99 40.441 115.595 40.0467 115.301 39.544C115.015 39.0327 114.872 38.4433 114.872 37.776C114.872 37.1087 115.019 36.5237 115.314 36.021C115.608 35.5097 116.003 35.111 116.497 34.825C116.999 34.539 117.563 34.396 118.187 34.396C118.802 34.396 119.357 34.539 119.851 34.825C120.353 35.111 120.748 35.5097 121.034 36.021C121.328 36.5237 121.476 37.1087 121.476 37.776C121.476 38.4433 121.328 39.0327 121.034 39.544C120.748 40.0467 120.353 40.441 119.851 40.727C119.348 41.013 118.789 41.156 118.174 41.156ZM118.174 39.713C118.607 39.713 118.984 39.5527 119.305 39.232C119.625 38.9027 119.786 38.4173 119.786 37.776C119.786 37.1347 119.625 36.6537 119.305 36.333C118.984 36.0037 118.611 35.839 118.187 35.839C117.745 35.839 117.363 36.0037 117.043 36.333C116.731 36.6537 116.575 37.1347 116.575 37.776C116.575 38.4173 116.731 38.9027 117.043 39.232C117.363 39.5527 117.74 39.713 118.174 39.713ZM125.368 41.156C124.796 41.156 124.294 41.065 123.86 40.883C123.427 40.6923 123.08 40.4323 122.82 40.103C122.56 39.7737 122.404 39.3923 122.352 38.959H124.029C124.081 39.2103 124.22 39.427 124.445 39.609C124.679 39.7823 124.978 39.869 125.342 39.869C125.706 39.869 125.971 39.7953 126.135 39.648C126.309 39.5007 126.395 39.3317 126.395 39.141C126.395 38.8637 126.274 38.6773 126.031 38.582C125.789 38.478 125.451 38.3783 125.017 38.283C124.74 38.2223 124.458 38.1487 124.172 38.062C123.886 37.9753 123.622 37.867 123.379 37.737C123.145 37.5983 122.955 37.425 122.807 37.217C122.66 37.0003 122.586 36.736 122.586 36.424C122.586 35.852 122.812 35.371 123.262 34.981C123.722 34.591 124.363 34.396 125.186 34.396C125.949 34.396 126.556 34.5737 127.006 34.929C127.466 35.2843 127.739 35.774 127.825 36.398H126.252C126.157 35.9213 125.797 35.683 125.173 35.683C124.861 35.683 124.619 35.7437 124.445 35.865C124.281 35.9863 124.198 36.138 124.198 36.32C124.198 36.5107 124.324 36.6623 124.575 36.775C124.827 36.8877 125.16 36.9917 125.576 37.087C126.027 37.191 126.439 37.308 126.811 37.438C127.193 37.5593 127.496 37.7457 127.721 37.997C127.947 38.2397 128.059 38.5907 128.059 39.05C128.068 39.4487 127.964 39.8083 127.747 40.129C127.531 40.4497 127.219 40.701 126.811 40.883C126.404 41.065 125.923 41.156 125.368 41.156ZM135.27 41.156C134.612 41.156 134.031 41.013 133.528 40.727C133.026 40.441 132.627 40.0423 132.332 39.531C132.046 39.0197 131.903 38.4347 131.903 37.776C131.903 37.1173 132.046 36.5323 132.332 36.021C132.627 35.5097 133.026 35.111 133.528 34.825C134.031 34.539 134.612 34.396 135.27 34.396C136.094 34.396 136.787 34.6127 137.35 35.046C137.914 35.4707 138.273 36.06 138.429 36.814H136.674C136.588 36.502 136.414 36.2593 136.154 36.086C135.903 35.904 135.604 35.813 135.257 35.813C134.798 35.813 134.408 35.9863 134.087 36.333C133.767 36.6797 133.606 37.1607 133.606 37.776C133.606 38.3913 133.767 38.8723 134.087 39.219C134.408 39.5657 134.798 39.739 135.257 39.739C135.604 39.739 135.903 39.6523 136.154 39.479C136.414 39.3057 136.588 39.0587 136.674 38.738H138.429C138.273 39.466 137.914 40.051 137.35 40.493C136.787 40.935 136.094 41.156 135.27 41.156ZM139.646 41V31.64H141.31V41H139.646ZM143.647 33.551C143.344 33.551 143.093 33.46 142.893 33.278C142.703 33.096 142.607 32.8663 142.607 32.589C142.607 32.3117 142.703 32.0863 142.893 31.913C143.093 31.731 143.344 31.64 143.647 31.64C143.951 31.64 144.198 31.731 144.388 31.913C144.588 32.0863 144.687 32.3117 144.687 32.589C144.687 32.8663 144.588 33.096 144.388 33.278C144.198 33.46 143.951 33.551 143.647 33.551ZM142.815 41V34.552H144.479V41H142.815ZM149.089 41.156C148.439 41.156 147.863 41.0173 147.36 40.74C146.858 40.4627 146.463 40.0727 146.177 39.57C145.891 39.0673 145.748 38.4867 145.748 37.828C145.748 37.1607 145.887 36.567 146.164 36.047C146.45 35.527 146.84 35.124 147.334 34.838C147.837 34.5433 148.426 34.396 149.102 34.396C149.735 34.396 150.294 34.5347 150.779 34.812C151.265 35.0893 151.642 35.4707 151.91 35.956C152.188 36.4327 152.326 36.9657 152.326 37.555C152.326 37.6503 152.322 37.75 152.313 37.854C152.313 37.958 152.309 38.0663 152.3 38.179H147.399C147.434 38.6817 147.607 39.076 147.919 39.362C148.24 39.648 148.626 39.791 149.076 39.791C149.414 39.791 149.696 39.7173 149.921 39.57C150.155 39.414 150.329 39.2147 150.441 38.972H152.131C152.01 39.3793 151.806 39.752 151.52 40.09C151.243 40.4193 150.896 40.6793 150.48 40.87C150.073 41.0607 149.609 41.156 149.089 41.156ZM149.102 35.748C148.695 35.748 148.335 35.865 148.023 36.099C147.711 36.3243 147.512 36.671 147.425 37.139H150.636C150.61 36.7143 150.454 36.3763 150.168 36.125C149.882 35.8737 149.527 35.748 149.102 35.748ZM153.466 41V34.552H154.935L155.065 35.644C155.264 35.2627 155.55 34.9593 155.923 34.734C156.304 34.5087 156.75 34.396 157.262 34.396C158.059 34.396 158.679 34.6473 159.121 35.15C159.563 35.6527 159.784 36.3893 159.784 37.36V41H158.12V37.516C158.12 36.9613 158.007 36.5367 157.782 36.242C157.556 35.9473 157.205 35.8 156.729 35.8C156.261 35.8 155.875 35.9647 155.572 36.294C155.277 36.6233 155.13 37.0827 155.13 37.672V41H153.466ZM163.988 41C163.312 41 162.77 40.8353 162.363 40.506C161.956 40.1767 161.752 39.5917 161.752 38.751V35.943H160.647V34.552H161.752L161.947 32.823H163.416V34.552H165.158V35.943H163.416V38.764C163.416 39.076 163.481 39.2927 163.611 39.414C163.75 39.5267 163.984 39.583 164.313 39.583H165.119V41H163.988ZM169.295 41.156C168.645 41.156 168.068 41.0173 167.566 40.74C167.063 40.4627 166.669 40.0727 166.383 39.57C166.097 39.0673 165.954 38.4867 165.954 37.828C165.954 37.1607 166.092 36.567 166.37 36.047C166.656 35.527 167.046 35.124 167.54 34.838C168.042 34.5433 168.632 34.396 169.308 34.396C169.94 34.396 170.499 34.5347 170.985 34.812C171.47 35.0893 171.847 35.4707 172.116 35.956C172.393 36.4327 172.532 36.9657 172.532 37.555C172.532 37.6503 172.527 37.75 172.519 37.854C172.519 37.958 172.514 38.0663 172.506 38.179H167.605C167.639 38.6817 167.813 39.076 168.125 39.362C168.445 39.648 168.831 39.791 169.282 39.791C169.62 39.791 169.901 39.7173 170.127 39.57C170.361 39.414 170.534 39.2147 170.647 38.972H172.337C172.215 39.3793 172.012 39.752 171.726 40.09C171.448 40.4193 171.102 40.6793 170.686 40.87C170.278 41.0607 169.815 41.156 169.295 41.156ZM169.308 35.748C168.9 35.748 168.541 35.865 168.229 36.099C167.917 36.3243 167.717 36.671 167.631 37.139H170.842C170.816 36.7143 170.66 36.3763 170.374 36.125C170.088 35.8737 169.732 35.748 169.308 35.748ZM176.336 41.156C175.764 41.156 175.261 41.065 174.828 40.883C174.395 40.6923 174.048 40.4323 173.788 40.103C173.528 39.7737 173.372 39.3923 173.32 38.959H174.997C175.049 39.2103 175.188 39.427 175.413 39.609C175.647 39.7823 175.946 39.869 176.31 39.869C176.674 39.869 176.938 39.7953 177.103 39.648C177.276 39.5007 177.363 39.3317 177.363 39.141C177.363 38.8637 177.242 38.6773 176.999 38.582C176.756 38.478 176.418 38.3783 175.985 38.283C175.708 38.2223 175.426 38.1487 175.14 38.062C174.854 37.9753 174.59 37.867 174.347 37.737C174.113 37.5983 173.922 37.425 173.775 37.217C173.628 37.0003 173.554 36.736 173.554 36.424C173.554 35.852 173.779 35.371 174.23 34.981C174.689 34.591 175.331 34.396 176.154 34.396C176.917 34.396 177.523 34.5737 177.974 34.929C178.433 35.2843 178.706 35.774 178.793 36.398H177.22C177.125 35.9213 176.765 35.683 176.141 35.683C175.829 35.683 175.586 35.7437 175.413 35.865C175.248 35.9863 175.166 36.138 175.166 36.32C175.166 36.5107 175.292 36.6623 175.543 36.775C175.794 36.8877 176.128 36.9917 176.544 37.087C176.995 37.191 177.406 37.308 177.779 37.438C178.16 37.5593 178.464 37.7457 178.689 37.997C178.914 38.2397 179.027 38.5907 179.027 39.05C179.036 39.4487 178.932 39.8083 178.715 40.129C178.498 40.4497 178.186 40.701 177.779 40.883C177.372 41.065 176.891 41.156 176.336 41.156Z" fill="#A3AED0"/>
<path d="M92.008 62.3306V60.4046H95.392V57.2906H97.354V60.4046H100.72V62.3306H97.354V65.4446H95.392V62.3306H92.008ZM106.726 66.7946C105.898 66.7946 105.148 66.6506 104.476 66.3626C103.804 66.0626 103.264 65.6066 102.856 64.9946C102.448 64.3826 102.232 63.6146 102.208 62.6906H104.476C104.488 63.3026 104.686 63.8186 105.07 64.2386C105.466 64.6466 106.018 64.8506 106.726 64.8506C107.398 64.8506 107.914 64.6646 108.274 64.2926C108.634 63.9206 108.814 63.4526 108.814 62.8886C108.814 62.2286 108.574 61.7306 108.094 61.3946C107.626 61.0466 107.02 60.8726 106.276 60.8726H105.34V58.9826H106.294C106.906 58.9826 107.416 58.8386 107.824 58.5506C108.232 58.2626 108.436 57.8366 108.436 57.2726C108.436 56.8046 108.28 56.4326 107.968 56.1566C107.668 55.8686 107.248 55.7246 106.708 55.7246C106.12 55.7246 105.658 55.8986 105.322 56.2466C104.998 56.5946 104.818 57.0206 104.782 57.5246H102.532C102.58 56.3606 102.982 55.4426 103.738 54.7706C104.506 54.0986 105.496 53.7626 106.708 53.7626C107.572 53.7626 108.298 53.9186 108.886 54.2306C109.486 54.5306 109.936 54.9326 110.236 55.4366C110.548 55.9406 110.704 56.4986 110.704 57.1106C110.704 57.8186 110.506 58.4186 110.11 58.9106C109.726 59.3906 109.246 59.7146 108.67 59.8826C109.378 60.0266 109.954 60.3746 110.398 60.9266C110.842 61.4666 111.064 62.1506 111.064 62.9786C111.064 63.6746 110.896 64.3106 110.56 64.8866C110.224 65.4626 109.732 65.9246 109.084 66.2726C108.448 66.6206 107.662 66.7946 106.726 66.7946ZM112.661 66.5786V64.9046C113.429 64.2686 114.173 63.6386 114.893 63.0146C115.625 62.3906 116.273 61.7726 116.837 61.1606C117.413 60.5486 117.869 59.9546 118.205 59.3786C118.553 58.7906 118.727 58.2206 118.727 57.6686C118.727 57.1526 118.583 56.6966 118.295 56.3006C118.019 55.9046 117.557 55.7066 116.909 55.7066C116.249 55.7066 115.751 55.9226 115.415 56.3546C115.079 56.7866 114.911 57.3086 114.911 57.9206H112.679C112.703 56.9966 112.907 56.2286 113.291 55.6166C113.675 54.9926 114.185 54.5306 114.821 54.2306C115.457 53.9186 116.171 53.7626 116.963 53.7626C118.247 53.7626 119.243 54.1166 119.951 54.8246C120.671 55.5206 121.031 56.4266 121.031 57.5426C121.031 58.2386 120.869 58.9166 120.545 59.5766C120.233 60.2366 119.819 60.8726 119.303 61.4846C118.787 62.0966 118.229 62.6726 117.629 63.2126C117.029 63.7406 116.447 64.2326 115.883 64.6886H121.337V66.5786H112.661ZM124.258 66.5786V56.6066L122.188 57.0926V55.3286L125.23 53.9786H126.652V66.5786H124.258Z" fill="#1B2559"/>
<circle cx="45" cy="48" r="28" fill="url(#paint0_linear_19_1186)"/>
<g clip-path="url(#clip0_19_1186)">
<path fill-rule="evenodd" clip-rule="evenodd" d="M50.4482 49.3184C52.0466 50.4034 53.1666 51.8734 53.1666 53.8334V57.3334H56.6666C57.3082 57.3334 57.8332 56.8084 57.8332 56.1667V53.8334C57.8332 51.29 53.6682 49.785 50.4482 49.3184Z" fill="white"/>
<path d="M41.5002 48.0001C44.0775 48.0001 46.1668 45.9107 46.1668 43.3334C46.1668 40.7561 44.0775 38.6667 41.5002 38.6667C38.9228 38.6667 36.8335 40.7561 36.8335 43.3334C36.8335 45.9107 38.9228 48.0001 41.5002 48.0001Z" fill="white"/>
<path fill-rule="evenodd" clip-rule="evenodd" d="M48.4999 48.0001C51.0782 48.0001 53.1666 45.9117 53.1666 43.3334C53.1666 40.7551 51.0782 38.6667 48.4999 38.6667C47.9516 38.6667 47.4382 38.7834 46.9482 38.9467C47.9166 40.1484 48.4999 41.6767 48.4999 43.3334C48.4999 44.9901 47.9166 46.5184 46.9482 47.7201C47.4382 47.8834 47.9516 48.0001 48.4999 48.0001Z" fill="white"/>
<path fill-rule="evenodd" clip-rule="evenodd" d="M41.4998 49.1667C38.3848 49.1667 32.1665 50.7301 32.1665 53.8334V56.1667C32.1665 56.8084 32.6915 57.3334 33.3332 57.3334H49.6665C50.3082 57.3334 50.8332 56.8084 50.8332 56.1667V53.8334C50.8332 50.7301 44.6148 49.1667 41.4998 49.1667Z" fill="white"/>
</g>
<path d="M176 61.7041C176 61.7041 182.146 63.4949 188.292 61.7041C202.614 57.5305 198 31 209 38C222.178 46.3863 232.656 45.9388 234.5 34" stroke="url(#paint1_linear_19_1186)" stroke-width="3" stroke-linecap="round" stroke-linejoin="round"/>
<defs>
<linearGradient id="paint0_linear_19_1186" x1="17" y1="20" x2="73" y2="76" gradientUnits="userSpaceOnUse">
<stop stop-color="#868CFF"/>
<stop offset="1" stop-color="#4318FF"/>
</linearGradient>
<linearGradient id="paint1_linear_19_1186" x1="139" y1="70" x2="222.56" y2="19.134" gradientUnits="userSpaceOnUse">
<stop stop-color="#4F2CFF"/>
<stop offset="1" stop-color="#4F2CFF" stop-opacity="0"/>
</linearGradient>
<clipPath id="clip0_19_1186">
<rect width="28" height="28" fill="white" transform="translate(31 34)"/>
</clipPath>
</defs>
</svg>
