<svg width="257" height="97" viewBox="0 0 257 97" fill="none" xmlns="http://www.w3.org/2000/svg">
<rect width="257" height="97" rx="20" fill="url(#paint0_linear_19_1193)"/>
<path d="M28.3389 39.192C27.2296 39.192 26.2696 38.952 25.4589 38.472C24.6589 37.9813 24.0403 37.304 23.6029 36.44C23.1656 35.5653 22.9469 34.5573 22.9469 33.416C22.9469 32.264 23.1656 31.256 23.6029 30.392C24.0403 29.5173 24.6589 28.8347 25.4589 28.344C26.2696 27.8533 27.2296 27.608 28.3389 27.608C29.6509 27.608 30.7229 27.928 31.5549 28.568C32.3869 29.208 32.9149 30.104 33.1389 31.256H31.2509C31.1016 30.6053 30.7816 30.088 30.2909 29.704C29.8003 29.32 29.1443 29.128 28.3229 29.128C27.2029 29.128 26.3176 29.512 25.6669 30.28C25.0163 31.0373 24.6909 32.0827 24.6909 33.416C24.6909 34.7387 25.0163 35.7787 25.6669 36.536C26.3176 37.2933 27.2029 37.672 28.3229 37.672C29.1443 37.672 29.8003 37.4907 30.2909 37.128C30.7816 36.7653 31.1016 36.2693 31.2509 35.64H33.1389C32.9149 36.7493 32.3869 37.6187 31.5549 38.248C30.7229 38.8773 29.6509 39.192 28.3389 39.192ZM38.3312 39.192C37.5739 39.192 36.8912 39.0213 36.2832 38.68C35.6859 38.328 35.2112 37.8427 34.8592 37.224C34.5072 36.5947 34.3312 35.864 34.3312 35.032C34.3312 34.2 34.5072 33.4747 34.8592 32.856C35.2219 32.2267 35.7072 31.7413 36.3152 31.4C36.9232 31.048 37.6005 30.872 38.3472 30.872C39.1045 30.872 39.7819 31.048 40.3792 31.4C40.9872 31.7413 41.4672 32.2267 41.8192 32.856C42.1819 33.4747 42.3632 34.2 42.3632 35.032C42.3632 35.864 42.1819 36.5947 41.8192 37.224C41.4672 37.8427 40.9872 38.328 40.3792 38.68C39.7712 39.0213 39.0885 39.192 38.3312 39.192ZM38.3312 37.736C38.7365 37.736 39.1099 37.6347 39.4512 37.432C39.8032 37.2293 40.0859 36.9307 40.2992 36.536C40.5125 36.1307 40.6192 35.6293 40.6192 35.032C40.6192 34.4347 40.5125 33.9387 40.2992 33.544C40.0965 33.1387 39.8192 32.8347 39.4672 32.632C39.1259 32.4293 38.7525 32.328 38.3472 32.328C37.9419 32.328 37.5632 32.4293 37.2112 32.632C36.8699 32.8347 36.5925 33.1387 36.3792 33.544C36.1659 33.9387 36.0592 34.4347 36.0592 35.032C36.0592 35.6293 36.1659 36.1307 36.3792 36.536C36.5925 36.9307 36.8699 37.2293 37.2112 37.432C37.5525 37.6347 37.9259 37.736 38.3312 37.736ZM43.8773 39V31.064H45.3813L45.5093 32.456C45.7546 31.9653 46.112 31.5813 46.5813 31.304C47.0613 31.016 47.6106 30.872 48.2293 30.872C49.1893 30.872 49.9413 31.1707 50.4853 31.768C51.04 32.3653 51.3173 33.256 51.3173 34.44V39H49.6373V34.616C49.6373 33.08 49.008 32.312 47.7493 32.312C47.12 32.312 46.5973 32.536 46.1813 32.984C45.776 33.432 45.5733 34.072 45.5733 34.904V39H43.8773ZM56.3228 39C55.5441 39 54.9255 38.8133 54.4668 38.44C54.0081 38.056 53.7788 37.3787 53.7788 36.408V32.488H52.4188V31.064H53.7788L53.9868 29.048H55.4748V31.064H57.7148V32.488H55.4748V36.408C55.4748 36.8453 55.5655 37.1493 55.7468 37.32C55.9388 37.48 56.2641 37.56 56.7228 37.56H57.6348V39H56.3228ZM61.8316 39.192C61.1596 39.192 60.6049 39.08 60.1676 38.856C59.7302 38.632 59.4049 38.3387 59.1916 37.976C58.9782 37.6027 58.8716 37.1973 58.8716 36.76C58.8716 35.992 59.1702 35.384 59.7676 34.936C60.3649 34.488 61.2182 34.264 62.3276 34.264H64.4076V34.12C64.4076 33.5013 64.2369 33.0373 63.8956 32.728C63.5649 32.4187 63.1329 32.264 62.5996 32.264C62.1302 32.264 61.7196 32.3813 61.3676 32.616C61.0262 32.84 60.8182 33.176 60.7436 33.624H59.0476C59.1009 33.048 59.2929 32.5573 59.6236 32.152C59.9649 31.736 60.3916 31.4213 60.9036 31.208C61.4262 30.984 61.9969 30.872 62.6156 30.872C63.7249 30.872 64.5836 31.1653 65.1916 31.752C65.7996 32.328 66.1036 33.1173 66.1036 34.12V39H64.6316L64.4876 37.64C64.2636 38.0773 63.9382 38.4453 63.5116 38.744C63.0849 39.0427 62.5249 39.192 61.8316 39.192ZM62.1676 37.816C62.6262 37.816 63.0102 37.7093 63.3196 37.496C63.6396 37.272 63.8849 36.9787 64.0556 36.616C64.2369 36.2533 64.3489 35.8533 64.3916 35.416H62.5036C61.8316 35.416 61.3516 35.5333 61.0636 35.768C60.7862 36.0027 60.6476 36.296 60.6476 36.648C60.6476 37.0107 60.7809 37.2987 61.0476 37.512C61.3249 37.7147 61.6982 37.816 62.1676 37.816ZM74.1603 39.192C73.4883 39.192 72.9336 39.08 72.4963 38.856C72.059 38.632 71.7336 38.3387 71.5203 37.976C71.307 37.6027 71.2003 37.1973 71.2003 36.76C71.2003 35.992 71.499 35.384 72.0963 34.936C72.6936 34.488 73.547 34.264 74.6563 34.264H76.7363V34.12C76.7363 33.5013 76.5656 33.0373 76.2243 32.728C75.8936 32.4187 75.4616 32.264 74.9283 32.264C74.459 32.264 74.0483 32.3813 73.6963 32.616C73.355 32.84 73.147 33.176 73.0723 33.624H71.3763C71.4296 33.048 71.6216 32.5573 71.9523 32.152C72.2936 31.736 72.7203 31.4213 73.2323 31.208C73.755 30.984 74.3256 30.872 74.9443 30.872C76.0536 30.872 76.9123 31.1653 77.5203 31.752C78.1283 32.328 78.4323 33.1173 78.4323 34.12V39H76.9603L76.8163 37.64C76.5923 38.0773 76.267 38.4453 75.8403 38.744C75.4136 39.0427 74.8536 39.192 74.1603 39.192ZM74.4963 37.816C74.955 37.816 75.339 37.7093 75.6483 37.496C75.9683 37.272 76.2136 36.9787 76.3843 36.616C76.5656 36.2533 76.6776 35.8533 76.7203 35.416H74.8323C74.1603 35.416 73.6803 35.5333 73.3923 35.768C73.115 36.0027 72.9763 36.296 72.9763 36.648C72.9763 37.0107 73.1096 37.2987 73.3763 37.512C73.6536 37.7147 74.027 37.816 74.4963 37.816ZM83.2616 39C82.4829 39 81.8642 38.8133 81.4056 38.44C80.9469 38.056 80.7176 37.3787 80.7176 36.408V32.488H79.3576V31.064H80.7176L80.9256 29.048H82.4136V31.064H84.6536V32.488H82.4136V36.408C82.4136 36.8453 82.5042 37.1493 82.6856 37.32C82.8776 37.48 83.2029 37.56 83.6616 37.56H84.5736V39H83.2616ZM87.0423 29.56C86.7223 29.56 86.4556 29.464 86.2423 29.272C86.0396 29.0693 85.9383 28.8187 85.9383 28.52C85.9383 28.2213 86.0396 27.976 86.2423 27.784C86.4556 27.5813 86.7223 27.48 87.0423 27.48C87.3623 27.48 87.6236 27.5813 87.8263 27.784C88.0396 27.976 88.1463 28.2213 88.1463 28.52C88.1463 28.8187 88.0396 29.0693 87.8263 29.272C87.6236 29.464 87.3623 29.56 87.0423 29.56ZM86.1943 39V31.064H87.8903V39H86.1943ZM92.0332 39L89.0572 31.064H90.8332L93.0412 37.384L95.2492 31.064H97.0092L94.0492 39H92.0332ZM100.318 39.192C99.6458 39.192 99.0911 39.08 98.6538 38.856C98.2165 38.632 97.8911 38.3387 97.6778 37.976C97.4645 37.6027 97.3578 37.1973 97.3578 36.76C97.3578 35.992 97.6565 35.384 98.2538 34.936C98.8511 34.488 99.7045 34.264 100.814 34.264H102.894V34.12C102.894 33.5013 102.723 33.0373 102.382 32.728C102.051 32.4187 101.619 32.264 101.086 32.264C100.616 32.264 100.206 32.3813 99.8538 32.616C99.5125 32.84 99.3045 33.176 99.2298 33.624H97.5338C97.5871 33.048 97.7791 32.5573 98.1098 32.152C98.4511 31.736 98.8778 31.4213 99.3898 31.208C99.9125 30.984 100.483 30.872 101.102 30.872C102.211 30.872 103.07 31.1653 103.678 31.752C104.286 32.328 104.59 33.1173 104.59 34.12V39H103.118L102.974 37.64C102.75 38.0773 102.424 38.4453 101.998 38.744C101.571 39.0427 101.011 39.192 100.318 39.192ZM100.654 37.816C101.112 37.816 101.496 37.7093 101.806 37.496C102.126 37.272 102.371 36.9787 102.542 36.616C102.723 36.2533 102.835 35.8533 102.878 35.416H100.99C100.318 35.416 99.8378 35.5333 99.5498 35.768C99.2725 36.0027 99.1338 36.296 99.1338 36.648C99.1338 37.0107 99.2671 37.2987 99.5338 37.512C99.8111 37.7147 100.184 37.816 100.654 37.816Z" fill="#E9EDF7"/>
<path d="M23.36 68.5786V54.5786H28.5C29.62 54.5786 30.54 54.7719 31.26 55.1586C31.9933 55.5319 32.54 56.0453 32.9 56.6986C33.26 57.3386 33.44 58.0519 33.44 58.8386C33.44 59.6919 33.2133 60.4719 32.76 61.1786C32.32 61.8853 31.6267 62.3986 30.68 62.7186L33.58 68.5786H30.64L28.04 63.0586H25.92V68.5786H23.36ZM25.92 61.1786H28.34C29.1933 61.1786 29.82 60.9719 30.22 60.5586C30.62 60.1453 30.82 59.5986 30.82 58.9186C30.82 58.2519 30.62 57.7186 30.22 57.3186C29.8333 56.9186 29.2 56.7186 28.32 56.7186H25.92V61.1786ZM39.3409 70.3186V68.7786C38.0476 68.6319 36.9943 68.1786 36.1809 67.4186C35.3676 66.6586 34.9476 65.6386 34.9209 64.3586H37.6209C37.6476 64.8919 37.8076 65.3586 38.1009 65.7586C38.4076 66.1586 38.8209 66.4319 39.3409 66.5786V62.3586C39.2209 62.3186 39.0943 62.2786 38.9609 62.2386C38.8409 62.1986 38.7143 62.1586 38.5809 62.1186C37.5009 61.7453 36.6743 61.2653 36.1009 60.6786C35.5409 60.0919 35.2609 59.3119 35.2609 58.3386C35.2476 57.1919 35.6209 56.2719 36.3809 55.5786C37.1409 54.8719 38.1276 54.4653 39.3409 54.3586V52.7386H40.6809V54.3786C41.8809 54.4986 42.8476 54.9186 43.5809 55.6386C44.3276 56.3453 44.7209 57.2586 44.7609 58.3786H42.0209C42.0076 57.9919 41.8809 57.6386 41.6409 57.3186C41.4143 56.9853 41.0943 56.7519 40.6809 56.6186V60.3386C40.7876 60.3786 40.8943 60.4186 41.0009 60.4586C41.1076 60.4853 41.2143 60.5186 41.3209 60.5586C42.0143 60.7986 42.6476 61.0786 43.2209 61.3986C43.7943 61.7186 44.2543 62.1453 44.6009 62.6786C44.9476 63.1986 45.1209 63.8719 45.1209 64.6986C45.1209 65.3919 44.9476 66.0386 44.6009 66.6386C44.2676 67.2386 43.7676 67.7386 43.1009 68.1386C42.4476 68.5253 41.6409 68.7453 40.6809 68.7986V70.3186H39.3409ZM37.9409 58.1586C37.9409 58.5853 38.0676 58.9319 38.3209 59.1986C38.5743 59.4519 38.9143 59.6719 39.3409 59.8586V56.5386C38.9276 56.6186 38.5876 56.7986 38.3209 57.0786C38.0676 57.3586 37.9409 57.7186 37.9409 58.1586ZM42.4009 64.8786C42.4009 64.3453 42.2409 63.9253 41.9209 63.6186C41.6009 63.3119 41.1876 63.0519 40.6809 62.8386V66.6386C41.2143 66.5586 41.6343 66.3653 41.9409 66.0586C42.2476 65.7519 42.4009 65.3586 42.4009 64.8786ZM51.9745 68.8186C50.9479 68.8186 50.0612 68.6386 49.3145 68.2786C48.5812 67.9186 48.0012 67.4253 47.5745 66.7986C47.1612 66.1586 46.9212 65.4386 46.8545 64.6386H49.3545C49.4745 65.2119 49.7679 65.6919 50.2345 66.0786C50.7012 66.4519 51.2812 66.6386 51.9745 66.6386C52.7212 66.6386 53.3279 66.3653 53.7945 65.8186C54.2745 65.2719 54.5145 64.5919 54.5145 63.7786C54.5145 62.9386 54.2745 62.2719 53.7945 61.7786C53.3279 61.2853 52.7345 61.0386 52.0145 61.0386C51.4145 61.0386 50.8945 61.1853 50.4545 61.4786C50.0145 61.7719 49.7012 62.1386 49.5145 62.5786H47.0545L48.2545 54.5786H56.0145V56.8186H50.1745L49.5345 60.0586C49.8279 59.7386 50.2279 59.4786 50.7345 59.2786C51.2412 59.0653 51.8079 58.9586 52.4345 58.9586C53.4345 58.9586 54.2679 59.1853 54.9345 59.6386C55.6012 60.0786 56.1079 60.6653 56.4545 61.3986C56.8012 62.1186 56.9745 62.9053 56.9745 63.7586C56.9745 64.7319 56.7612 65.5986 56.3345 66.3586C55.9212 67.1186 55.3345 67.7186 54.5745 68.1586C53.8279 68.5986 52.9612 68.8186 51.9745 68.8186ZM65.3569 68.5786V65.9786H58.4569V63.9386L65.0169 54.5786H67.9169V63.7586H69.7569V65.9786H67.9169V68.5786H65.3569ZM61.1969 63.7586H65.5169V57.3986L61.1969 63.7586ZM77.1094 68.8186C75.816 68.8186 74.7094 68.5186 73.7894 67.9186C72.8694 67.3053 72.156 66.4586 71.6494 65.3786C71.156 64.2853 70.9094 63.0186 70.9094 61.5786C70.9094 60.1519 71.156 58.8919 71.6494 57.7986C72.156 56.7053 72.8694 55.8586 73.7894 55.2586C74.7094 54.6453 75.816 54.3386 77.1094 54.3386C78.4027 54.3386 79.5094 54.6453 80.4294 55.2586C81.3494 55.8586 82.056 56.7053 82.5494 57.7986C83.056 58.8919 83.3094 60.1519 83.3094 61.5786C83.3094 63.0186 83.056 64.2853 82.5494 65.3786C82.056 66.4586 81.3494 67.3053 80.4294 67.9186C79.5094 68.5186 78.4027 68.8186 77.1094 68.8186ZM77.1094 66.5186C78.1627 66.5186 79.0227 66.0786 79.6894 65.1986C80.356 64.3186 80.6894 63.1119 80.6894 61.5786C80.6894 60.0453 80.356 58.8386 79.6894 57.9586C79.0227 57.0786 78.1627 56.6386 77.1094 56.6386C76.0427 56.6386 75.176 57.0786 74.5094 57.9586C73.856 58.8386 73.5294 60.0453 73.5294 61.5786C73.5294 63.1119 73.856 64.3186 74.5094 65.1986C75.176 66.0786 76.0427 66.5186 77.1094 66.5186ZM83.4831 70.8986L84.6231 65.9186H87.1031L85.1631 70.8986H83.4831ZM93.812 68.8186C92.7854 68.8186 91.8987 68.6386 91.152 68.2786C90.4187 67.9186 89.8387 67.4253 89.412 66.7986C88.9987 66.1586 88.7587 65.4386 88.692 64.6386H91.192C91.312 65.2119 91.6054 65.6919 92.072 66.0786C92.5387 66.4519 93.1187 66.6386 93.812 66.6386C94.5587 66.6386 95.1654 66.3653 95.632 65.8186C96.112 65.2719 96.352 64.5919 96.352 63.7786C96.352 62.9386 96.112 62.2719 95.632 61.7786C95.1654 61.2853 94.572 61.0386 93.852 61.0386C93.252 61.0386 92.732 61.1853 92.292 61.4786C91.852 61.7719 91.5387 62.1386 91.352 62.5786H88.892L90.092 54.5786H97.852V56.8186H92.012L91.372 60.0586C91.6654 59.7386 92.0654 59.4786 92.572 59.2786C93.0787 59.0653 93.6454 58.9586 94.272 58.9586C95.272 58.9586 96.1054 59.1853 96.772 59.6386C97.4387 60.0786 97.9454 60.6653 98.292 61.3986C98.6387 62.1186 98.812 62.9053 98.812 63.7586C98.812 64.7319 98.5987 65.5986 98.172 66.3586C97.7587 67.1186 97.172 67.7186 96.412 68.1586C95.6654 68.5986 94.7987 68.8186 93.812 68.8186ZM106.534 68.8186C105.241 68.8186 104.134 68.5186 103.214 67.9186C102.294 67.3053 101.581 66.4586 101.074 65.3786C100.581 64.2853 100.334 63.0186 100.334 61.5786C100.334 60.1519 100.581 58.8919 101.074 57.7986C101.581 56.7053 102.294 55.8586 103.214 55.2586C104.134 54.6453 105.241 54.3386 106.534 54.3386C107.828 54.3386 108.934 54.6453 109.854 55.2586C110.774 55.8586 111.481 56.7053 111.974 57.7986C112.481 58.8919 112.734 60.1519 112.734 61.5786C112.734 63.0186 112.481 64.2853 111.974 65.3786C111.481 66.4586 110.774 67.3053 109.854 67.9186C108.934 68.5186 107.828 68.8186 106.534 68.8186ZM106.534 66.5186C107.588 66.5186 108.448 66.0786 109.114 65.1986C109.781 64.3186 110.114 63.1119 110.114 61.5786C110.114 60.0453 109.781 58.8386 109.114 57.9586C108.448 57.0786 107.588 56.6386 106.534 56.6386C105.468 56.6386 104.601 57.0786 103.934 57.9586C103.281 58.8386 102.954 60.0453 102.954 61.5786C102.954 63.1119 103.281 64.3186 103.934 65.1986C104.601 66.0786 105.468 66.5186 106.534 66.5186ZM120.334 68.8186C119.04 68.8186 117.934 68.5186 117.014 67.9186C116.094 67.3053 115.38 66.4586 114.874 65.3786C114.38 64.2853 114.134 63.0186 114.134 61.5786C114.134 60.1519 114.38 58.8919 114.874 57.7986C115.38 56.7053 116.094 55.8586 117.014 55.2586C117.934 54.6453 119.04 54.3386 120.334 54.3386C121.627 54.3386 122.734 54.6453 123.654 55.2586C124.574 55.8586 125.28 56.7053 125.774 57.7986C126.28 58.8919 126.534 60.1519 126.534 61.5786C126.534 63.0186 126.28 64.2853 125.774 65.3786C125.28 66.4586 124.574 67.3053 123.654 67.9186C122.734 68.5186 121.627 68.8186 120.334 68.8186ZM120.334 66.5186C121.387 66.5186 122.247 66.0786 122.914 65.1986C123.58 64.3186 123.914 63.1119 123.914 61.5786C123.914 60.0453 123.58 58.8386 122.914 57.9586C122.247 57.0786 121.387 56.6386 120.334 56.6386C119.267 56.6386 118.4 57.0786 117.734 57.9586C117.08 58.8386 116.754 60.0453 116.754 61.5786C116.754 63.1119 117.08 64.3186 117.734 65.1986C118.4 66.0786 119.267 66.5186 120.334 66.5186Z" fill="white"/>
<path d="M152.5 68.5C152.5 68.5 158.78 20.9946 174.5 43C190.22 65.0054 196.5 63.9946 202.5 47C209.917 25.9925 237.258 44.0806 240 29" stroke="url(#paint1_linear_19_1193)" stroke-width="4" stroke-linecap="round" stroke-linejoin="round"/>
<defs>
<linearGradient id="paint0_linear_19_1193" x1="0" y1="0" x2="64.0916" y2="169.81" gradientUnits="userSpaceOnUse">
<stop stop-color="#868CFF"/>
<stop offset="1" stop-color="#4318FF"/>
</linearGradient>
<linearGradient id="paint1_linear_19_1193" x1="149" y1="73.5" x2="221.078" y2="10.0856" gradientUnits="userSpaceOnUse">
<stop stop-color="white"/>
<stop offset="1" stop-color="white" stop-opacity="0"/>
</linearGradient>
</defs>
</svg>
