<svg width="257" height="97" viewBox="0 0 257 97" fill="none" xmlns="http://www.w3.org/2000/svg">
<rect width="257" height="97" rx="20" fill="white"/>
<path d="M94.5009 37V28.404H91.6029V27.2H98.8689V28.404H95.9849V37H94.5009ZM101.912 37.168C101.249 37.168 100.652 37.0187 100.12 36.72C99.5972 36.412 99.1819 35.9873 98.8739 35.446C98.5659 34.8953 98.4119 34.256 98.4119 33.528C98.4119 32.8 98.5659 32.1653 98.8739 31.624C99.1912 31.0733 99.6159 30.6487 100.148 30.35C100.68 30.042 101.273 29.888 101.926 29.888C102.589 29.888 103.181 30.042 103.704 30.35C104.236 30.6487 104.656 31.0733 104.964 31.624C105.281 32.1653 105.44 32.8 105.44 33.528C105.44 34.256 105.281 34.8953 104.964 35.446C104.656 35.9873 104.236 36.412 103.704 36.72C103.172 37.0187 102.575 37.168 101.912 37.168ZM101.912 35.894C102.267 35.894 102.593 35.8053 102.892 35.628C103.2 35.4507 103.447 35.1893 103.634 34.844C103.821 34.4893 103.914 34.0507 103.914 33.528C103.914 33.0053 103.821 32.5713 103.634 32.226C103.457 31.8713 103.214 31.6053 102.906 31.428C102.607 31.2507 102.281 31.162 101.926 31.162C101.571 31.162 101.24 31.2507 100.932 31.428C100.633 31.6053 100.391 31.8713 100.204 32.226C100.017 32.5713 99.9239 33.0053 99.9239 33.528C99.9239 34.0507 100.017 34.4893 100.204 34.844C100.391 35.1893 100.633 35.4507 100.932 35.628C101.231 35.8053 101.557 35.894 101.912 35.894ZM109.929 37.168C109.257 37.168 108.664 37.0093 108.151 36.692C107.637 36.3747 107.236 35.9407 106.947 35.39C106.657 34.8393 106.513 34.214 106.513 33.514C106.513 32.814 106.657 32.1933 106.947 31.652C107.236 31.1013 107.637 30.672 108.151 30.364C108.673 30.0467 109.271 29.888 109.943 29.888C110.493 29.888 110.974 29.9953 111.385 30.21C111.805 30.4247 112.131 30.728 112.365 31.12V26.92H113.849V37H112.519L112.365 35.922C112.141 36.2487 111.833 36.538 111.441 36.79C111.049 37.042 110.545 37.168 109.929 37.168ZM110.195 35.88C110.829 35.88 111.347 35.6607 111.749 35.222C112.159 34.7833 112.365 34.2187 112.365 33.528C112.365 32.828 112.159 32.2633 111.749 31.834C111.347 31.3953 110.829 31.176 110.195 31.176C109.56 31.176 109.037 31.3953 108.627 31.834C108.216 32.2633 108.011 32.828 108.011 33.528C108.011 33.9853 108.104 34.3913 108.291 34.746C108.477 35.1007 108.734 35.3807 109.061 35.586C109.397 35.782 109.775 35.88 110.195 35.88ZM118.688 37.168C118.025 37.168 117.428 37.0187 116.896 36.72C116.373 36.412 115.958 35.9873 115.65 35.446C115.342 34.8953 115.188 34.256 115.188 33.528C115.188 32.8 115.342 32.1653 115.65 31.624C115.967 31.0733 116.392 30.6487 116.924 30.35C117.456 30.042 118.048 29.888 118.702 29.888C119.364 29.888 119.957 30.042 120.48 30.35C121.012 30.6487 121.432 31.0733 121.74 31.624C122.057 32.1653 122.216 32.8 122.216 33.528C122.216 34.256 122.057 34.8953 121.74 35.446C121.432 35.9873 121.012 36.412 120.48 36.72C119.948 37.0187 119.35 37.168 118.688 37.168ZM118.688 35.894C119.042 35.894 119.369 35.8053 119.668 35.628C119.976 35.4507 120.223 35.1893 120.41 34.844C120.596 34.4893 120.69 34.0507 120.69 33.528C120.69 33.0053 120.596 32.5713 120.41 32.226C120.232 31.8713 119.99 31.6053 119.682 31.428C119.383 31.2507 119.056 31.162 118.702 31.162C118.347 31.162 118.016 31.2507 117.708 31.428C117.409 31.6053 117.166 31.8713 116.98 32.226C116.793 32.5713 116.7 33.0053 116.7 33.528C116.7 34.0507 116.793 34.4893 116.98 34.844C117.166 35.1893 117.409 35.4507 117.708 35.628C118.006 35.8053 118.333 35.894 118.688 35.894ZM126.313 37.168C125.435 37.168 124.712 36.9533 124.143 36.524C123.573 36.0947 123.247 35.5253 123.163 34.816H124.661C124.735 35.1333 124.913 35.4087 125.193 35.642C125.473 35.866 125.841 35.978 126.299 35.978C126.747 35.978 127.073 35.8847 127.279 35.698C127.484 35.5113 127.587 35.2967 127.587 35.054C127.587 34.6993 127.442 34.4613 127.153 34.34C126.873 34.2093 126.481 34.0927 125.977 33.99C125.585 33.906 125.193 33.794 124.801 33.654C124.418 33.514 124.096 33.318 123.835 33.066C123.583 32.8047 123.457 32.4547 123.457 32.016C123.457 31.4093 123.69 30.9053 124.157 30.504C124.623 30.0933 125.277 29.888 126.117 29.888C126.891 29.888 127.517 30.0747 127.993 30.448C128.478 30.8213 128.763 31.3487 128.847 32.03H127.419C127.372 31.7313 127.232 31.498 126.999 31.33C126.775 31.162 126.471 31.078 126.089 31.078C125.715 31.078 125.426 31.1573 125.221 31.316C125.015 31.4653 124.913 31.6613 124.913 31.904C124.913 32.1467 125.053 32.338 125.333 32.478C125.622 32.618 126 32.744 126.467 32.856C126.933 32.9587 127.363 33.08 127.755 33.22C128.156 33.3507 128.478 33.5467 128.721 33.808C128.963 34.0693 129.085 34.452 129.085 34.956C129.094 35.5907 128.847 36.118 128.343 36.538C127.848 36.958 127.171 37.168 126.313 37.168ZM136.92 37.168C136.257 37.168 135.66 37.0187 135.128 36.72C134.605 36.412 134.19 35.9873 133.882 35.446C133.574 34.8953 133.42 34.256 133.42 33.528C133.42 32.8 133.574 32.1653 133.882 31.624C134.199 31.0733 134.624 30.6487 135.156 30.35C135.688 30.042 136.281 29.888 136.934 29.888C137.597 29.888 138.189 30.042 138.712 30.35C139.244 30.6487 139.664 31.0733 139.972 31.624C140.289 32.1653 140.448 32.8 140.448 33.528C140.448 34.256 140.289 34.8953 139.972 35.446C139.664 35.9873 139.244 36.412 138.712 36.72C138.18 37.0187 137.583 37.168 136.92 37.168ZM136.92 35.894C137.275 35.894 137.601 35.8053 137.9 35.628C138.208 35.4507 138.455 35.1893 138.642 34.844C138.829 34.4893 138.922 34.0507 138.922 33.528C138.922 33.0053 138.829 32.5713 138.642 32.226C138.465 31.8713 138.222 31.6053 137.914 31.428C137.615 31.2507 137.289 31.162 136.934 31.162C136.579 31.162 136.248 31.2507 135.94 31.428C135.641 31.6053 135.399 31.8713 135.212 32.226C135.025 32.5713 134.932 33.0053 134.932 33.528C134.932 34.0507 135.025 34.4893 135.212 34.844C135.399 35.1893 135.641 35.4507 135.94 35.628C136.239 35.8053 136.565 35.894 136.92 35.894ZM144.545 37.168C143.668 37.168 142.944 36.9533 142.375 36.524C141.806 36.0947 141.479 35.5253 141.395 34.816H142.893C142.968 35.1333 143.145 35.4087 143.425 35.642C143.705 35.866 144.074 35.978 144.531 35.978C144.979 35.978 145.306 35.8847 145.511 35.698C145.716 35.5113 145.819 35.2967 145.819 35.054C145.819 34.6993 145.674 34.4613 145.385 34.34C145.105 34.2093 144.713 34.0927 144.209 33.99C143.817 33.906 143.425 33.794 143.033 33.654C142.65 33.514 142.328 33.318 142.067 33.066C141.815 32.8047 141.689 32.4547 141.689 32.016C141.689 31.4093 141.922 30.9053 142.389 30.504C142.856 30.0933 143.509 29.888 144.349 29.888C145.124 29.888 145.749 30.0747 146.225 30.448C146.71 30.8213 146.995 31.3487 147.079 32.03H145.651C145.604 31.7313 145.464 31.498 145.231 31.33C145.007 31.162 144.704 31.078 144.321 31.078C143.948 31.078 143.658 31.1573 143.453 31.316C143.248 31.4653 143.145 31.6613 143.145 31.904C143.145 32.1467 143.285 32.338 143.565 32.478C143.854 32.618 144.232 32.744 144.699 32.856C145.166 32.9587 145.595 33.08 145.987 33.22C146.388 33.3507 146.71 33.5467 146.953 33.808C147.196 34.0693 147.317 34.452 147.317 34.956C147.326 35.5907 147.079 36.118 146.575 36.538C146.08 36.958 145.404 37.168 144.545 37.168ZM154.746 34.872C154.382 34.872 154.046 34.83 153.738 34.746L153.136 35.334C153.239 35.3993 153.365 35.4553 153.514 35.502C153.664 35.5487 153.874 35.5907 154.144 35.628C154.415 35.6653 154.784 35.7027 155.25 35.74C156.174 35.824 156.842 36.048 157.252 36.412C157.663 36.7667 157.868 37.2427 157.868 37.84C157.868 38.2507 157.756 38.638 157.532 39.002C157.318 39.3753 156.977 39.674 156.51 39.898C156.053 40.1313 155.465 40.248 154.746 40.248C153.776 40.248 152.987 40.0613 152.38 39.688C151.783 39.324 151.484 38.7687 151.484 38.022C151.484 37.7327 151.559 37.4433 151.708 37.154C151.867 36.874 152.114 36.608 152.45 36.356C152.254 36.272 152.082 36.1833 151.932 36.09C151.792 35.9873 151.666 35.8847 151.554 35.782V35.446L152.758 34.214C152.217 33.7473 151.946 33.136 151.946 32.38C151.946 31.9227 152.054 31.5073 152.268 31.134C152.492 30.7513 152.814 30.448 153.234 30.224C153.654 30 154.158 29.888 154.746 29.888C155.138 29.888 155.502 29.944 155.838 30.056H158.428V31.036L157.196 31.106C157.42 31.4887 157.532 31.9133 157.532 32.38C157.532 32.8467 157.42 33.2667 157.196 33.64C156.982 34.0133 156.664 34.312 156.244 34.536C155.834 34.76 155.334 34.872 154.746 34.872ZM154.746 33.71C155.176 33.71 155.521 33.598 155.782 33.374C156.053 33.1407 156.188 32.814 156.188 32.394C156.188 31.9647 156.053 31.638 155.782 31.414C155.521 31.19 155.176 31.078 154.746 31.078C154.308 31.078 153.953 31.19 153.682 31.414C153.421 31.638 153.29 31.9647 153.29 32.394C153.29 32.814 153.421 33.1407 153.682 33.374C153.953 33.598 154.308 33.71 154.746 33.71ZM152.884 37.882C152.884 38.2833 153.062 38.582 153.416 38.778C153.771 38.9833 154.214 39.086 154.746 39.086C155.26 39.086 155.675 38.974 155.992 38.75C156.31 38.5353 156.468 38.246 156.468 37.882C156.468 37.6113 156.361 37.378 156.146 37.182C155.932 36.9953 155.526 36.8787 154.928 36.832C154.48 36.804 154.084 36.762 153.738 36.706C153.412 36.8833 153.188 37.0747 153.066 37.28C152.945 37.4853 152.884 37.686 152.884 37.882ZM161.824 37.168C161.236 37.168 160.751 37.07 160.368 36.874C159.985 36.678 159.701 36.4213 159.514 36.104C159.327 35.7773 159.234 35.4227 159.234 35.04C159.234 34.368 159.495 33.836 160.018 33.444C160.541 33.052 161.287 32.856 162.258 32.856H164.078V32.73C164.078 32.1887 163.929 31.7827 163.63 31.512C163.341 31.2413 162.963 31.106 162.496 31.106C162.085 31.106 161.726 31.2087 161.418 31.414C161.119 31.61 160.937 31.904 160.872 32.296H159.388C159.435 31.792 159.603 31.3627 159.892 31.008C160.191 30.644 160.564 30.3687 161.012 30.182C161.469 29.986 161.969 29.888 162.51 29.888C163.481 29.888 164.232 30.1447 164.764 30.658C165.296 31.162 165.562 31.8527 165.562 32.73V37H164.274L164.148 35.81C163.952 36.1927 163.667 36.5147 163.294 36.776C162.921 37.0373 162.431 37.168 161.824 37.168ZM162.118 35.964C162.519 35.964 162.855 35.8707 163.126 35.684C163.406 35.488 163.621 35.2313 163.77 34.914C163.929 34.5967 164.027 34.2467 164.064 33.864H162.412C161.824 33.864 161.404 33.9667 161.152 34.172C160.909 34.3773 160.788 34.634 160.788 34.942C160.788 35.2593 160.905 35.5113 161.138 35.698C161.381 35.8753 161.707 35.964 162.118 35.964ZM167.012 37V30.056H168.328L168.44 31.274C168.655 30.8447 168.968 30.5087 169.378 30.266C169.798 30.014 170.279 29.888 170.82 29.888C171.66 29.888 172.318 30.1493 172.794 30.672C173.28 31.1947 173.522 31.974 173.522 33.01V37H172.052V33.164C172.052 31.82 171.502 31.148 170.4 31.148C169.85 31.148 169.392 31.344 169.028 31.736C168.674 32.128 168.496 32.688 168.496 33.416V37H167.012ZM174.99 37V26.92H176.474V31.176C176.707 30.7747 177.029 30.462 177.44 30.238C177.86 30.0047 178.322 29.888 178.826 29.888C179.657 29.888 180.31 30.1493 180.786 30.672C181.262 31.1947 181.5 31.974 181.5 33.01V37H180.03V33.164C180.03 31.82 179.493 31.148 178.42 31.148C177.86 31.148 177.393 31.344 177.02 31.736C176.656 32.128 176.474 32.688 176.474 33.416V37H174.99ZM186.216 37.168C185.553 37.168 184.956 37.0187 184.424 36.72C183.901 36.412 183.486 35.9873 183.178 35.446C182.87 34.8953 182.716 34.256 182.716 33.528C182.716 32.8 182.87 32.1653 183.178 31.624C183.495 31.0733 183.92 30.6487 184.452 30.35C184.984 30.042 185.577 29.888 186.23 29.888C186.893 29.888 187.485 30.042 188.008 30.35C188.54 30.6487 188.96 31.0733 189.268 31.624C189.585 32.1653 189.744 32.8 189.744 33.528C189.744 34.256 189.585 34.8953 189.268 35.446C188.96 35.9873 188.54 36.412 188.008 36.72C187.476 37.0187 186.879 37.168 186.216 37.168ZM186.216 35.894C186.571 35.894 186.897 35.8053 187.196 35.628C187.504 35.4507 187.751 35.1893 187.938 34.844C188.125 34.4893 188.218 34.0507 188.218 33.528C188.218 33.0053 188.125 32.5713 187.938 32.226C187.761 31.8713 187.518 31.6053 187.21 31.428C186.911 31.2507 186.585 31.162 186.23 31.162C185.875 31.162 185.544 31.2507 185.236 31.428C184.937 31.6053 184.695 31.8713 184.508 32.226C184.321 32.5713 184.228 33.0053 184.228 33.528C184.228 34.0507 184.321 34.4893 184.508 34.844C184.695 35.1893 184.937 35.4507 185.236 35.628C185.535 35.8053 185.861 35.894 186.216 35.894ZM193.841 37.168C192.963 37.168 192.24 36.9533 191.671 36.524C191.101 36.0947 190.775 35.5253 190.691 34.816H192.189C192.263 35.1333 192.441 35.4087 192.721 35.642C193.001 35.866 193.369 35.978 193.827 35.978C194.275 35.978 194.601 35.8847 194.807 35.698C195.012 35.5113 195.115 35.2967 195.115 35.054C195.115 34.6993 194.97 34.4613 194.681 34.34C194.401 34.2093 194.009 34.0927 193.505 33.99C193.113 33.906 192.721 33.794 192.329 33.654C191.946 33.514 191.624 33.318 191.363 33.066C191.111 32.8047 190.985 32.4547 190.985 32.016C190.985 31.4093 191.218 30.9053 191.685 30.504C192.151 30.0933 192.805 29.888 193.645 29.888C194.419 29.888 195.045 30.0747 195.521 30.448C196.006 30.8213 196.291 31.3487 196.375 32.03H194.947C194.9 31.7313 194.76 31.498 194.527 31.33C194.303 31.162 193.999 31.078 193.617 31.078C193.243 31.078 192.954 31.1573 192.749 31.316C192.543 31.4653 192.441 31.6613 192.441 31.904C192.441 32.1467 192.581 32.338 192.861 32.478C193.15 32.618 193.528 32.744 193.995 32.856C194.461 32.9587 194.891 33.08 195.283 33.22C195.684 33.3507 196.006 33.5467 196.249 33.808C196.491 34.0693 196.613 34.452 196.613 34.956C196.622 35.5907 196.375 36.118 195.871 36.538C195.376 36.958 194.699 37.168 193.841 37.168Z" fill="#A3AED0"/>
<path d="M92.8429 67V50.2H99.0109C100.355 50.2 101.459 50.432 102.323 50.896C103.203 51.344 103.859 51.96 104.291 52.744C104.723 53.512 104.939 54.368 104.939 55.312C104.939 56.336 104.667 57.272 104.123 58.12C103.595 58.968 102.763 59.584 101.627 59.968L105.107 67H101.579L98.4589 60.376H95.9149V67H92.8429ZM95.9149 58.12H98.8189C99.8429 58.12 100.595 57.872 101.075 57.376C101.555 56.88 101.795 56.224 101.795 55.408C101.795 54.608 101.555 53.968 101.075 53.488C100.611 53.008 99.8509 52.768 98.7949 52.768H95.9149V58.12ZM112.02 69.088V67.24C110.468 67.064 109.204 66.52 108.228 65.608C107.252 64.696 106.748 63.472 106.716 61.936H109.956C109.988 62.576 110.18 63.136 110.532 63.616C110.9 64.096 111.396 64.424 112.02 64.6V59.536C111.876 59.488 111.724 59.44 111.564 59.392C111.42 59.344 111.268 59.296 111.108 59.248C109.812 58.8 108.82 58.224 108.132 57.52C107.46 56.816 107.124 55.88 107.124 54.712C107.108 53.336 107.556 52.232 108.468 51.4C109.38 50.552 110.564 50.064 112.02 49.936V47.992H113.628V49.96C115.068 50.104 116.228 50.608 117.108 51.472C118.004 52.32 118.476 53.416 118.524 54.76H115.236C115.22 54.296 115.068 53.872 114.78 53.488C114.508 53.088 114.124 52.808 113.628 52.648V57.112C113.756 57.16 113.884 57.208 114.012 57.256C114.14 57.288 114.268 57.328 114.396 57.376C115.228 57.664 115.988 58 116.676 58.384C117.364 58.768 117.916 59.28 118.332 59.92C118.748 60.544 118.956 61.352 118.956 62.344C118.956 63.176 118.748 63.952 118.332 64.672C117.932 65.392 117.332 65.992 116.532 66.472C115.748 66.936 114.78 67.2 113.628 67.264V69.088H112.02ZM110.34 54.496C110.34 55.008 110.492 55.424 110.796 55.744C111.1 56.048 111.508 56.312 112.02 56.536V52.552C111.524 52.648 111.116 52.864 110.796 53.2C110.492 53.536 110.34 53.968 110.34 54.496ZM115.692 62.56C115.692 61.92 115.5 61.416 115.116 61.048C114.732 60.68 114.236 60.368 113.628 60.112V64.672C114.268 64.576 114.772 64.344 115.14 63.976C115.508 63.608 115.692 63.136 115.692 62.56ZM127.18 67.288C125.948 67.288 124.884 67.072 123.988 66.64C123.108 66.208 122.412 65.616 121.9 64.864C121.404 64.096 121.116 63.232 121.036 62.272H124.036C124.18 62.96 124.532 63.536 125.092 64C125.652 64.448 126.348 64.672 127.18 64.672C128.076 64.672 128.804 64.344 129.364 63.688C129.94 63.032 130.228 62.216 130.228 61.24C130.228 60.232 129.94 59.432 129.364 58.84C128.804 58.248 128.092 57.952 127.228 57.952C126.508 57.952 125.884 58.128 125.356 58.48C124.828 58.832 124.452 59.272 124.228 59.8H121.276L122.716 50.2H132.028V52.888H125.02L124.252 56.776C124.604 56.392 125.084 56.08 125.692 55.84C126.3 55.584 126.98 55.456 127.732 55.456C128.932 55.456 129.932 55.728 130.732 56.272C131.532 56.8 132.14 57.504 132.556 58.384C132.972 59.248 133.18 60.192 133.18 61.216C133.18 62.384 132.924 63.424 132.412 64.336C131.916 65.248 131.212 65.968 130.3 66.496C129.404 67.024 128.364 67.288 127.18 67.288ZM136.308 67L142.644 52.816H134.364V50.2H145.812V52.384L139.5 67H136.308ZM154.08 67V63.88H145.8V61.432L153.672 50.2H157.152V61.216H159.36V63.88H157.152V67H154.08ZM149.088 61.216H154.272V53.584L149.088 61.216ZM162.542 67.168C161.982 67.168 161.518 66.992 161.15 66.64C160.798 66.288 160.622 65.864 160.622 65.368C160.622 64.856 160.798 64.424 161.15 64.072C161.518 63.72 161.982 63.544 162.542 63.544C163.102 63.544 163.558 63.72 163.91 64.072C164.278 64.424 164.462 64.856 164.462 65.368C164.462 65.864 164.278 66.288 163.91 66.64C163.558 66.992 163.102 67.168 162.542 67.168ZM172.076 67.288C170.972 67.288 169.972 67.096 169.076 66.712C168.18 66.312 167.46 65.704 166.916 64.888C166.372 64.072 166.084 63.048 166.052 61.816H169.076C169.092 62.632 169.356 63.32 169.868 63.88C170.396 64.424 171.132 64.696 172.076 64.696C172.972 64.696 173.66 64.448 174.14 63.952C174.62 63.456 174.86 62.832 174.86 62.08C174.86 61.2 174.54 60.536 173.9 60.088C173.276 59.624 172.468 59.392 171.476 59.392H170.228V56.872H171.5C172.316 56.872 172.996 56.68 173.54 56.296C174.084 55.912 174.356 55.344 174.356 54.592C174.356 53.968 174.148 53.472 173.732 53.104C173.332 52.72 172.772 52.528 172.052 52.528C171.268 52.528 170.652 52.76 170.204 53.224C169.772 53.688 169.532 54.256 169.484 54.928H166.484C166.548 53.376 167.084 52.152 168.092 51.256C169.116 50.36 170.436 49.912 172.052 49.912C173.204 49.912 174.172 50.12 174.956 50.536C175.756 50.936 176.356 51.472 176.756 52.144C177.172 52.816 177.38 53.56 177.38 54.376C177.38 55.32 177.116 56.12 176.588 56.776C176.076 57.416 175.436 57.848 174.668 58.072C175.612 58.264 176.38 58.728 176.972 59.464C177.564 60.184 177.86 61.096 177.86 62.2C177.86 63.128 177.636 63.976 177.188 64.744C176.74 65.512 176.084 66.128 175.22 66.592C174.372 67.056 173.324 67.288 172.076 67.288ZM188.077 67V63.88H179.797V61.432L187.669 50.2H191.149V61.216H193.357V63.88H191.149V67H188.077ZM183.085 61.216H188.269V53.584L183.085 61.216ZM202.972 67V63.88H194.692V61.432L202.564 50.2H206.044V61.216H208.252V63.88H206.044V67H202.972ZM197.98 61.216H203.164V53.584L197.98 61.216Z" fill="#1B2559"/>
<circle cx="45" cy="48" r="28" fill="#F4F7FE"/>
<g clip-path="url(#clip0_19_1174)">
<path d="M58.6312 44.0399H52.0766L46.083 35.0631C45.823 34.68 45.3851 34.4884 44.9472 34.4884C44.5093 34.4884 44.0714 34.68 43.8114 35.0768L37.8178 44.0399H31.2632C30.5106 44.0399 29.8948 44.6556 29.8948 45.4083C29.8948 45.5314 29.9085 45.6546 29.9495 45.7777L33.4253 58.4628C33.74 59.6123 34.7937 60.4607 36.0526 60.4607H53.8418C55.1008 60.4607 56.1544 59.6123 56.4828 58.4628L59.9586 45.7777L59.9996 45.4083C59.9996 44.6556 59.3839 44.0399 58.6312 44.0399ZM44.9472 38.2926L48.7787 44.0399H41.1157L44.9472 38.2926ZM53.8418 57.7239L36.0663 57.7376L33.0558 46.7767H56.8523L53.8418 57.7239ZM44.9472 49.5135C43.442 49.5135 42.2104 50.745 42.2104 52.2503C42.2104 53.7555 43.442 54.9871 44.9472 54.9871C46.4524 54.9871 47.684 53.7555 47.684 52.2503C47.684 50.745 46.4524 49.5135 44.9472 49.5135Z" fill="#4318FF"/>
</g>
<defs>
<clipPath id="clip0_19_1174">
<rect width="32.8417" height="32.8417" fill="white" transform="translate(28.5264 31.7242)"/>
</clipPath>
</defs>
</svg>
