<svg width="259" height="97" viewBox="0 0 259 97" fill="none" xmlns="http://www.w3.org/2000/svg">
<rect width="259" height="97" rx="20" fill="white"/>
<path d="M27.9206 35.4734V26.8774H25.0226V25.6734H32.2886V26.8774H29.4046V35.4734H27.9206ZM35.3315 35.6414C34.6689 35.6414 34.0715 35.4921 33.5395 35.1934C33.0169 34.8854 32.6015 34.4607 32.2935 33.9194C31.9855 33.3687 31.8315 32.7294 31.8315 32.0014C31.8315 31.2734 31.9855 30.6387 32.2935 30.0974C32.6109 29.5467 33.0355 29.1221 33.5675 28.8234C34.0995 28.5154 34.6922 28.3614 35.3455 28.3614C36.0082 28.3614 36.6009 28.5154 37.1235 28.8234C37.6555 29.1221 38.0755 29.5467 38.3835 30.0974C38.7009 30.6387 38.8595 31.2734 38.8595 32.0014C38.8595 32.7294 38.7009 33.3687 38.3835 33.9194C38.0755 34.4607 37.6555 34.8854 37.1235 35.1934C36.5915 35.4921 35.9942 35.6414 35.3315 35.6414ZM35.3315 34.3674C35.6862 34.3674 36.0129 34.2787 36.3115 34.1014C36.6195 33.9241 36.8669 33.6627 37.0535 33.3174C37.2402 32.9627 37.3335 32.5241 37.3335 32.0014C37.3335 31.4787 37.2402 31.0447 37.0535 30.6994C36.8762 30.3447 36.6335 30.0787 36.3255 29.9014C36.0269 29.7241 35.7002 29.6354 35.3455 29.6354C34.9909 29.6354 34.6595 29.7241 34.3515 29.9014C34.0529 30.0787 33.8102 30.3447 33.6235 30.6994C33.4369 31.0447 33.3435 31.4787 33.3435 32.0014C33.3435 32.5241 33.4369 32.9627 33.6235 33.3174C33.8102 33.6627 34.0529 33.9241 34.3515 34.1014C34.6502 34.2787 34.9769 34.3674 35.3315 34.3674ZM42.823 35.4734C42.1416 35.4734 41.6003 35.3101 41.199 34.9834C40.7976 34.6474 40.597 34.0547 40.597 33.2054V29.7754H39.407V28.5294H40.597L40.779 26.7654H42.081V28.5294H44.041V29.7754H42.081V33.2054C42.081 33.5881 42.1603 33.8541 42.319 34.0034C42.487 34.1434 42.7716 34.2134 43.173 34.2134H43.971V35.4734H42.823ZM47.6431 35.6414C47.0551 35.6414 46.5698 35.5434 46.1871 35.3474C45.8044 35.1514 45.5198 34.8947 45.3331 34.5774C45.1464 34.2507 45.0531 33.8961 45.0531 33.5134C45.0531 32.8414 45.3144 32.3094 45.8371 31.9174C46.3598 31.5254 47.1064 31.3294 48.0771 31.3294H49.8971V31.2034C49.8971 30.6621 49.7478 30.2561 49.4491 29.9854C49.1598 29.7147 48.7818 29.5794 48.3151 29.5794C47.9044 29.5794 47.5451 29.6821 47.2371 29.8874C46.9384 30.0834 46.7564 30.3774 46.6911 30.7694H45.2071C45.2538 30.2654 45.4218 29.8361 45.7111 29.4814C46.0098 29.1174 46.3831 28.8421 46.8311 28.6554C47.2884 28.4594 47.7878 28.3614 48.3291 28.3614C49.2998 28.3614 50.0511 28.6181 50.5831 29.1314C51.1151 29.6354 51.3811 30.3261 51.3811 31.2034V35.4734H50.0931L49.9671 34.2834C49.7711 34.6661 49.4864 34.9881 49.1131 35.2494C48.7398 35.5107 48.2498 35.6414 47.6431 35.6414ZM47.9371 34.4374C48.3384 34.4374 48.6744 34.3441 48.9451 34.1574C49.2251 33.9614 49.4398 33.7047 49.5891 33.3874C49.7478 33.0701 49.8458 32.7201 49.8831 32.3374H48.2311C47.6431 32.3374 47.2231 32.4401 46.9711 32.6454C46.7284 32.8507 46.6071 33.1074 46.6071 33.4154C46.6071 33.7327 46.7238 33.9847 46.9571 34.1714C47.1998 34.3487 47.5264 34.4374 47.9371 34.4374ZM52.8314 35.4734V25.3934H54.3154V35.4734H52.8314ZM59.1621 35.4734V28.5294H60.4781L60.5901 29.7474C60.8047 29.3181 61.1174 28.9821 61.5281 28.7394C61.9481 28.4874 62.4287 28.3614 62.9701 28.3614C63.8101 28.3614 64.4681 28.6227 64.9441 29.1454C65.4294 29.6681 65.6721 30.4474 65.6721 31.4834V35.4734H64.2021V31.6374C64.2021 30.2934 63.6514 29.6214 62.5501 29.6214C61.9994 29.6214 61.5421 29.8174 61.1781 30.2094C60.8234 30.6014 60.6461 31.1614 60.6461 31.8894V35.4734H59.1621ZM70.3879 35.6414C69.7065 35.6414 69.0999 35.4921 68.5679 35.1934C68.0452 34.8854 67.6345 34.4607 67.3359 33.9194C67.0372 33.3781 66.8879 32.7481 66.8879 32.0294C66.8879 31.3014 67.0325 30.6621 67.3219 30.1114C67.6205 29.5607 68.0312 29.1314 68.5539 28.8234C69.0859 28.5154 69.7019 28.3614 70.4019 28.3614C71.0832 28.3614 71.6759 28.5154 72.1799 28.8234C72.6839 29.1221 73.0759 29.5234 73.3559 30.0274C73.6359 30.5314 73.7759 31.0867 73.7759 31.6934C73.7759 31.7867 73.7712 31.8894 73.7619 32.0014C73.7619 32.1041 73.7572 32.2207 73.7479 32.3514H68.3439C68.3905 33.0234 68.6099 33.5367 69.0019 33.8914C69.4032 34.2367 69.8652 34.4094 70.3879 34.4094C70.8079 34.4094 71.1579 34.3161 71.4379 34.1294C71.7272 33.9334 71.9419 33.6721 72.0819 33.3454H73.5659C73.3792 33.9987 73.0059 34.5447 72.4459 34.9834C71.8952 35.4221 71.2092 35.6414 70.3879 35.6414ZM70.3879 29.5794C69.8932 29.5794 69.4545 29.7287 69.0719 30.0274C68.6892 30.3167 68.4559 30.7554 68.3719 31.3434H72.2919C72.2639 30.8021 72.0725 30.3727 71.7179 30.0554C71.3632 29.7381 70.9199 29.5794 70.3879 29.5794ZM77.8076 35.6414C76.9303 35.6414 76.207 35.4267 75.6376 34.9974C75.0683 34.5681 74.7416 33.9987 74.6576 33.2894H76.1556C76.2303 33.6067 76.4076 33.8821 76.6876 34.1154C76.9676 34.3394 77.3363 34.4514 77.7936 34.4514C78.2416 34.4514 78.5683 34.3581 78.7736 34.1714C78.979 33.9847 79.0816 33.7701 79.0816 33.5274C79.0816 33.1727 78.937 32.9347 78.6476 32.8134C78.3676 32.6827 77.9756 32.5661 77.4716 32.4634C77.0796 32.3794 76.6876 32.2674 76.2956 32.1274C75.913 31.9874 75.591 31.7914 75.3296 31.5394C75.0776 31.2781 74.9516 30.9281 74.9516 30.4894C74.9516 29.8827 75.185 29.3787 75.6516 28.9774C76.1183 28.5667 76.7716 28.3614 77.6116 28.3614C78.3863 28.3614 79.0116 28.5481 79.4876 28.9214C79.973 29.2947 80.2576 29.8221 80.3416 30.5034H78.9136C78.867 30.2047 78.727 29.9714 78.4936 29.8034C78.2696 29.6354 77.9663 29.5514 77.5836 29.5514C77.2103 29.5514 76.921 29.6307 76.7156 29.7894C76.5103 29.9387 76.4076 30.1347 76.4076 30.3774C76.4076 30.6201 76.5476 30.8114 76.8276 30.9514C77.117 31.0914 77.495 31.2174 77.9616 31.3294C78.4283 31.4321 78.8576 31.5534 79.2496 31.6934C79.651 31.8241 79.973 32.0201 80.2156 32.2814C80.4583 32.5427 80.5796 32.9254 80.5796 33.4294C80.589 34.0641 80.3416 34.5914 79.8376 35.0114C79.343 35.4314 78.6663 35.6414 77.8076 35.6414ZM84.6917 35.6414C83.8144 35.6414 83.091 35.4267 82.5217 34.9974C81.9524 34.5681 81.6257 33.9987 81.5417 33.2894H83.0397C83.1144 33.6067 83.2917 33.8821 83.5717 34.1154C83.8517 34.3394 84.2204 34.4514 84.6777 34.4514C85.1257 34.4514 85.4524 34.3581 85.6577 34.1714C85.863 33.9847 85.9657 33.7701 85.9657 33.5274C85.9657 33.1727 85.821 32.9347 85.5317 32.8134C85.2517 32.6827 84.8597 32.5661 84.3557 32.4634C83.9637 32.3794 83.5717 32.2674 83.1797 32.1274C82.797 31.9874 82.475 31.7914 82.2137 31.5394C81.9617 31.2781 81.8357 30.9281 81.8357 30.4894C81.8357 29.8827 82.069 29.3787 82.5357 28.9774C83.0024 28.5667 83.6557 28.3614 84.4957 28.3614C85.2704 28.3614 85.8957 28.5481 86.3717 28.9214C86.857 29.2947 87.1417 29.8221 87.2257 30.5034H85.7977C85.751 30.2047 85.611 29.9714 85.3777 29.8034C85.1537 29.6354 84.8504 29.5514 84.4677 29.5514C84.0944 29.5514 83.805 29.6307 83.5997 29.7894C83.3944 29.9387 83.2917 30.1347 83.2917 30.3774C83.2917 30.6201 83.4317 30.8114 83.7117 30.9514C84.001 31.0914 84.379 31.2174 84.8457 31.3294C85.3124 31.4321 85.7417 31.5534 86.1337 31.6934C86.535 31.8241 86.857 32.0201 87.0997 32.2814C87.3424 32.5427 87.4637 32.9254 87.4637 33.4294C87.473 34.0641 87.2257 34.5914 86.7217 35.0114C86.227 35.4314 85.5504 35.6414 84.6917 35.6414ZM92.0518 35.6414C91.3704 35.6414 90.7638 35.4921 90.2318 35.1934C89.7091 34.8854 89.2984 34.4607 88.9998 33.9194C88.7011 33.3781 88.5518 32.7481 88.5518 32.0294C88.5518 31.3014 88.6964 30.6621 88.9858 30.1114C89.2844 29.5607 89.6951 29.1314 90.2178 28.8234C90.7498 28.5154 91.3658 28.3614 92.0658 28.3614C92.7471 28.3614 93.3398 28.5154 93.8438 28.8234C94.3478 29.1221 94.7398 29.5234 95.0198 30.0274C95.2998 30.5314 95.4398 31.0867 95.4398 31.6934C95.4398 31.7867 95.4351 31.8894 95.4258 32.0014C95.4258 32.1041 95.4211 32.2207 95.4118 32.3514H90.0078C90.0544 33.0234 90.2738 33.5367 90.6658 33.8914C91.0671 34.2367 91.5291 34.4094 92.0518 34.4094C92.4718 34.4094 92.8218 34.3161 93.1018 34.1294C93.3911 33.9334 93.6058 33.6721 93.7458 33.3454H95.2298C95.0431 33.9987 94.6698 34.5447 94.1098 34.9834C93.5591 35.4221 92.8731 35.6414 92.0518 35.6414ZM92.0518 29.5794C91.5571 29.5794 91.1184 29.7287 90.7358 30.0274C90.3531 30.3167 90.1198 30.7554 90.0358 31.3434H93.9558C93.9278 30.8021 93.7364 30.3727 93.3818 30.0554C93.0271 29.7381 92.5838 29.5794 92.0518 29.5794ZM99.9469 35.4734V28.5294H101.263L101.389 29.5094C101.613 29.1547 101.907 28.8747 102.271 28.6694C102.644 28.4641 103.074 28.3614 103.559 28.3614C104.66 28.3614 105.426 28.7954 105.855 29.6634C106.107 29.2621 106.443 28.9447 106.863 28.7114C107.292 28.4781 107.754 28.3614 108.249 28.3614C109.117 28.3614 109.798 28.6227 110.293 29.1454C110.788 29.6681 111.035 30.4474 111.035 31.4834V35.4734H109.551V31.6374C109.551 30.2934 109.038 29.6214 108.011 29.6214C107.488 29.6214 107.059 29.8174 106.723 30.2094C106.396 30.6014 106.233 31.1614 106.233 31.8894V35.4734H104.749V31.6374C104.749 30.2934 104.231 29.6214 103.195 29.6214C102.682 29.6214 102.257 29.8174 101.921 30.2094C101.594 30.6014 101.431 31.1614 101.431 31.8894V35.4734H99.9469ZM115.739 35.6414C115.058 35.6414 114.451 35.4921 113.919 35.1934C113.396 34.8854 112.986 34.4607 112.687 33.9194C112.388 33.3781 112.239 32.7481 112.239 32.0294C112.239 31.3014 112.384 30.6621 112.673 30.1114C112.972 29.5607 113.382 29.1314 113.905 28.8234C114.437 28.5154 115.053 28.3614 115.753 28.3614C116.434 28.3614 117.027 28.5154 117.531 28.8234C118.035 29.1221 118.427 29.5234 118.707 30.0274C118.987 30.5314 119.127 31.0867 119.127 31.6934C119.127 31.7867 119.122 31.8894 119.113 32.0014C119.113 32.1041 119.108 32.2207 119.099 32.3514H113.695C113.742 33.0234 113.961 33.5367 114.353 33.8914C114.754 34.2367 115.216 34.4094 115.739 34.4094C116.159 34.4094 116.509 34.3161 116.789 34.1294C117.078 33.9334 117.293 33.6721 117.433 33.3454H118.917C118.73 33.9987 118.357 34.5447 117.797 34.9834C117.246 35.4221 116.56 35.6414 115.739 35.6414ZM115.739 29.5794C115.244 29.5794 114.806 29.7287 114.423 30.0274C114.04 30.3167 113.807 30.7554 113.723 31.3434H117.643C117.615 30.8021 117.424 30.3727 117.069 30.0554C116.714 29.7381 116.271 29.5794 115.739 29.5794ZM113.751 27.8154V26.7094L115.725 25.5754L117.713 26.7094V27.8154L115.725 26.6534L113.751 27.8154ZM123.159 35.6414C122.282 35.6414 121.558 35.4267 120.989 34.9974C120.42 34.5681 120.093 33.9987 120.009 33.2894H121.507C121.582 33.6067 121.759 33.8821 122.039 34.1154C122.319 34.3394 122.688 34.4514 123.145 34.4514C123.593 34.4514 123.92 34.3581 124.125 34.1714C124.33 33.9847 124.433 33.7701 124.433 33.5274C124.433 33.1727 124.288 32.9347 123.999 32.8134C123.719 32.6827 123.327 32.5661 122.823 32.4634C122.431 32.3794 122.039 32.2674 121.647 32.1274C121.264 31.9874 120.942 31.7914 120.681 31.5394C120.429 31.2781 120.303 30.9281 120.303 30.4894C120.303 29.8827 120.536 29.3787 121.003 28.9774C121.47 28.5667 122.123 28.3614 122.963 28.3614C123.738 28.3614 124.363 28.5481 124.839 28.9214C125.324 29.2947 125.609 29.8221 125.693 30.5034H124.265C124.218 30.2047 124.078 29.9714 123.845 29.8034C123.621 29.6354 123.318 29.5514 122.935 29.5514C122.562 29.5514 122.272 29.6307 122.067 29.7894C121.862 29.9387 121.759 30.1347 121.759 30.3774C121.759 30.6201 121.899 30.8114 122.179 30.9514C122.468 31.0914 122.846 31.2174 123.313 31.3294C123.78 31.4321 124.209 31.5534 124.601 31.6934C125.002 31.8241 125.324 32.0201 125.567 32.2814C125.81 32.5427 125.931 32.9254 125.931 33.4294C125.94 34.0641 125.693 34.5914 125.189 35.0114C124.694 35.4314 124.018 35.6414 123.159 35.6414Z" fill="#A3AED0"/>
<path d="M26.36 67V53H31.5C32.62 53 33.54 53.1933 34.26 53.58C34.9933 53.9533 35.54 54.4667 35.9 55.12C36.26 55.76 36.44 56.4733 36.44 57.26C36.44 58.1133 36.2133 58.8933 35.76 59.6C35.32 60.3067 34.6267 60.82 33.68 61.14L36.58 67H33.64L31.04 61.48H28.92V67H26.36ZM28.92 59.6H31.34C32.1933 59.6 32.82 59.3933 33.22 58.98C33.62 58.5667 33.82 58.02 33.82 57.34C33.82 56.6733 33.62 56.14 33.22 55.74C32.8333 55.34 32.2 55.14 31.32 55.14H28.92V59.6ZM42.3409 68.74V67.2C41.0476 67.0533 39.9943 66.6 39.1809 65.84C38.3676 65.08 37.9476 64.06 37.9209 62.78H40.6209C40.6476 63.3133 40.8076 63.78 41.1009 64.18C41.4076 64.58 41.8209 64.8533 42.3409 65V60.78C42.2209 60.74 42.0943 60.7 41.9609 60.66C41.8409 60.62 41.7143 60.58 41.5809 60.54C40.5009 60.1667 39.6743 59.6867 39.1009 59.1C38.5409 58.5133 38.2609 57.7333 38.2609 56.76C38.2476 55.6133 38.6209 54.6933 39.3809 54C40.1409 53.2933 41.1276 52.8867 42.3409 52.78V51.16H43.6809V52.8C44.8809 52.92 45.8476 53.34 46.5809 54.06C47.3276 54.7667 47.7209 55.68 47.7609 56.8H45.0209C45.0076 56.4133 44.8809 56.06 44.6409 55.74C44.4143 55.4067 44.0943 55.1733 43.6809 55.04V58.76C43.7876 58.8 43.8943 58.84 44.0009 58.88C44.1076 58.9067 44.2143 58.94 44.3209 58.98C45.0143 59.22 45.6476 59.5 46.2209 59.82C46.7943 60.14 47.2543 60.5667 47.6009 61.1C47.9476 61.62 48.1209 62.2933 48.1209 63.12C48.1209 63.8133 47.9476 64.46 47.6009 65.06C47.2676 65.66 46.7676 66.16 46.1009 66.56C45.4476 66.9467 44.6409 67.1667 43.6809 67.22V68.74H42.3409ZM40.9409 56.58C40.9409 57.0067 41.0676 57.3533 41.3209 57.62C41.5743 57.8733 41.9143 58.0933 42.3409 58.28V54.96C41.9276 55.04 41.5876 55.22 41.3209 55.5C41.0676 55.78 40.9409 56.14 40.9409 56.58ZM45.4009 63.3C45.4009 62.7667 45.2409 62.3467 44.9209 62.04C44.6009 61.7333 44.1876 61.4733 43.6809 61.26V65.06C44.2143 64.98 44.6343 64.7867 44.9409 64.48C45.2476 64.1733 45.4009 63.78 45.4009 63.3ZM55.2145 67.24C54.1612 67.24 53.2745 67.0467 52.5545 66.66C51.8345 66.2733 51.2545 65.7533 50.8145 65.1C50.3745 64.4467 50.0545 63.72 49.8545 62.92C49.6679 62.12 49.5745 61.3 49.5745 60.46C49.5745 58.9 49.7945 57.5467 50.2345 56.4C50.6745 55.24 51.3079 54.3467 52.1345 53.72C52.9612 53.08 53.9612 52.76 55.1345 52.76C56.0945 52.76 56.9079 52.9533 57.5745 53.34C58.2545 53.7133 58.7812 54.2067 59.1545 54.82C59.5279 55.4333 59.7479 56.0933 59.8145 56.8H57.4345C57.3145 56.1867 57.0545 55.7133 56.6545 55.38C56.2545 55.0467 55.7412 54.88 55.1145 54.88C54.2212 54.88 53.5012 55.2933 52.9545 56.12C52.4079 56.9333 52.1145 58.18 52.0745 59.86C52.3945 59.3133 52.8745 58.86 53.5145 58.5C54.1545 58.14 54.8679 57.96 55.6545 57.96C56.4279 57.96 57.1545 58.1467 57.8345 58.52C58.5145 58.8933 59.0612 59.42 59.4745 60.1C59.9012 60.78 60.1145 61.58 60.1145 62.5C60.1145 63.34 59.9079 64.12 59.4945 64.84C59.0945 65.56 58.5212 66.14 57.7745 66.58C57.0412 67.02 56.1879 67.24 55.2145 67.24ZM55.0745 65.04C55.8212 65.04 56.4345 64.8133 56.9145 64.36C57.4079 63.8933 57.6545 63.3067 57.6545 62.6C57.6545 61.8533 57.4079 61.2533 56.9145 60.8C56.4212 60.3467 55.7945 60.12 55.0345 60.12C54.5412 60.12 54.0945 60.2333 53.6945 60.46C53.3079 60.6733 53.0012 60.9667 52.7745 61.34C52.5479 61.7 52.4345 62.1067 52.4345 62.56C52.4345 63.28 52.6812 63.8733 53.1745 64.34C53.6812 64.8067 54.3145 65.04 55.0745 65.04ZM67.1703 67.24C66.2103 67.24 65.3436 67.0733 64.5703 66.74C63.797 66.3933 63.177 65.9067 62.7103 65.28C62.257 64.6533 62.0303 63.9267 62.0303 63.1C62.0303 62.2467 62.2503 61.5 62.6903 60.86C63.1436 60.22 63.737 59.76 64.4703 59.48C63.8303 59.2 63.3236 58.8 62.9503 58.28C62.577 57.7467 62.3903 57.1533 62.3903 56.5C62.3903 55.8333 62.5703 55.22 62.9303 54.66C63.2903 54.0867 63.8236 53.6267 64.5303 53.28C65.2503 52.9333 66.1303 52.76 67.1703 52.76C68.2103 52.76 69.0836 52.9333 69.7903 53.28C70.497 53.6267 71.0303 54.0867 71.3903 54.66C71.7503 55.22 71.9303 55.8333 71.9303 56.5C71.9303 57.14 71.737 57.7333 71.3503 58.28C70.977 58.8133 70.477 59.2133 69.8503 59.48C70.597 59.76 71.1903 60.22 71.6303 60.86C72.0703 61.5 72.2903 62.2467 72.2903 63.1C72.2903 63.9267 72.0636 64.6533 71.6103 65.28C71.157 65.9067 70.537 66.3933 69.7503 66.74C68.977 67.0733 68.117 67.24 67.1703 67.24ZM67.1703 58.72C67.8636 58.72 68.4103 58.54 68.8103 58.18C69.2103 57.82 69.4103 57.36 69.4103 56.8C69.4103 56.1867 69.2103 55.7067 68.8103 55.36C68.4236 55.0133 67.877 54.84 67.1703 54.84C66.4503 54.84 65.897 55.0133 65.5103 55.36C65.1236 55.7067 64.9303 56.1867 64.9303 56.8C64.9303 57.3733 65.1236 57.84 65.5103 58.2C65.9103 58.5467 66.4636 58.72 67.1703 58.72ZM67.1703 65.1C68.0236 65.1 68.6703 64.8933 69.1103 64.48C69.5503 64.0533 69.7703 63.52 69.7703 62.88C69.7703 62.1733 69.537 61.62 69.0703 61.22C68.617 60.82 67.9836 60.62 67.1703 60.62C66.357 60.62 65.7103 60.82 65.2303 61.22C64.7636 61.62 64.5303 62.1733 64.5303 62.88C64.5303 63.52 64.7503 64.0533 65.1903 64.48C65.6436 64.8933 66.3036 65.1 67.1703 65.1ZM73.8927 67V65.14C74.746 64.4333 75.5727 63.7333 76.3727 63.04C77.186 62.3467 77.906 61.66 78.5327 60.98C79.1727 60.3 79.6793 59.64 80.0527 59C80.4393 58.3467 80.6327 57.7133 80.6327 57.1C80.6327 56.5267 80.4727 56.02 80.1527 55.58C79.846 55.14 79.3327 54.92 78.6127 54.92C77.8793 54.92 77.326 55.16 76.9527 55.64C76.5793 56.12 76.3927 56.7 76.3927 57.38H73.9127C73.9393 56.3533 74.166 55.5 74.5927 54.82C75.0193 54.1267 75.586 53.6133 76.2927 53.28C76.9993 52.9333 77.7927 52.76 78.6727 52.76C80.0993 52.76 81.206 53.1533 81.9927 53.94C82.7927 54.7133 83.1927 55.72 83.1927 56.96C83.1927 57.7333 83.0127 58.4867 82.6527 59.22C82.306 59.9533 81.846 60.66 81.2727 61.34C80.6993 62.02 80.0793 62.66 79.4127 63.26C78.746 63.8467 78.0993 64.3933 77.4727 64.9H83.5327V67H73.8927ZM86.2984 67.14C85.8318 67.14 85.4451 66.9933 85.1384 66.7C84.8451 66.4067 84.6984 66.0533 84.6984 65.64C84.6984 65.2133 84.8451 64.8533 85.1384 64.56C85.4451 64.2667 85.8318 64.12 86.2984 64.12C86.7651 64.12 87.1451 64.2667 87.4384 64.56C87.7451 64.8533 87.8984 65.2133 87.8984 65.64C87.8984 66.0533 87.7451 66.4067 87.4384 66.7C87.1451 66.9933 86.7651 67.14 86.2984 67.14ZM94.6831 67.24C93.6565 67.24 92.7698 67.06 92.0231 66.7C91.2898 66.34 90.7098 65.8467 90.2831 65.22C89.8698 64.58 89.6298 63.86 89.5631 63.06H92.0631C92.1831 63.6333 92.4765 64.1133 92.9431 64.5C93.4098 64.8733 93.9898 65.06 94.6831 65.06C95.4298 65.06 96.0365 64.7867 96.5031 64.24C96.9831 63.6933 97.2231 63.0133 97.2231 62.2C97.2231 61.36 96.9831 60.6933 96.5031 60.2C96.0365 59.7067 95.4431 59.46 94.7231 59.46C94.1231 59.46 93.6031 59.6067 93.1631 59.9C92.7231 60.1933 92.4098 60.56 92.2231 61H89.7631L90.9631 53H98.7231V55.24H92.8831L92.2431 58.48C92.5365 58.16 92.9365 57.9 93.4431 57.7C93.9498 57.4867 94.5165 57.38 95.1431 57.38C96.1431 57.38 96.9765 57.6067 97.6431 58.06C98.3098 58.5 98.8165 59.0867 99.1631 59.82C99.5098 60.54 99.6831 61.3267 99.6831 62.18C99.6831 63.1533 99.4698 64.02 99.0431 64.78C98.6298 65.54 98.0431 66.14 97.2831 66.58C96.5365 67.02 95.6698 67.24 94.6831 67.24ZM107.405 67.24C106.112 67.24 105.005 66.94 104.085 66.34C103.165 65.7267 102.452 64.88 101.945 63.8C101.452 62.7067 101.205 61.44 101.205 60C101.205 58.5733 101.452 57.3133 101.945 56.22C102.452 55.1267 103.165 54.28 104.085 53.68C105.005 53.0667 106.112 52.76 107.405 52.76C108.699 52.76 109.805 53.0667 110.725 53.68C111.645 54.28 112.352 55.1267 112.845 56.22C113.352 57.3133 113.605 58.5733 113.605 60C113.605 61.44 113.352 62.7067 112.845 63.8C112.352 64.88 111.645 65.7267 110.725 66.34C109.805 66.94 108.699 67.24 107.405 67.24ZM107.405 64.94C108.459 64.94 109.319 64.5 109.985 63.62C110.652 62.74 110.985 61.5333 110.985 60C110.985 58.4667 110.652 57.26 109.985 56.38C109.319 55.5 108.459 55.06 107.405 55.06C106.339 55.06 105.472 55.5 104.805 56.38C104.152 57.26 103.825 58.4667 103.825 60C103.825 61.5333 104.152 62.74 104.805 63.62C105.472 64.5 106.339 64.94 107.405 64.94ZM121.205 67.24C119.911 67.24 118.805 66.94 117.885 66.34C116.965 65.7267 116.251 64.88 115.745 63.8C115.251 62.7067 115.005 61.44 115.005 60C115.005 58.5733 115.251 57.3133 115.745 56.22C116.251 55.1267 116.965 54.28 117.885 53.68C118.805 53.0667 119.911 52.76 121.205 52.76C122.498 52.76 123.605 53.0667 124.525 53.68C125.445 54.28 126.151 55.1267 126.645 56.22C127.151 57.3133 127.405 58.5733 127.405 60C127.405 61.44 127.151 62.7067 126.645 63.8C126.151 64.88 125.445 65.7267 124.525 66.34C123.605 66.94 122.498 67.24 121.205 67.24ZM121.205 64.94C122.258 64.94 123.118 64.5 123.785 63.62C124.451 62.74 124.785 61.5333 124.785 60C124.785 58.4667 124.451 57.26 123.785 56.38C123.118 55.5 122.258 55.06 121.205 55.06C120.138 55.06 119.271 55.5 118.605 56.38C117.951 57.26 117.625 58.4667 117.625 60C117.625 61.5333 117.951 62.74 118.605 63.62C119.271 64.5 120.138 64.94 121.205 64.94Z" fill="#1B2559"/>
<rect x="224.074" y="70.5704" width="45.5705" height="5.33286" rx="2.66643" transform="rotate(-90 224.074 70.5704)" fill="#E9EDF7"/>
<rect x="224.074" y="70.5704" width="10.8668" height="5.33286" rx="2.66643" transform="rotate(-90 224.074 70.5704)" fill="#4318FF"/>
<rect x="209.555" y="70.5704" width="45.5705" height="5.33281" rx="2.66641" transform="rotate(-90 209.555 70.5704)" fill="#E9EDF7"/>
<rect x="209.555" y="70.5704" width="41.364" height="5.33287" rx="2.66643" transform="rotate(-90 209.555 70.5704)" fill="#4318FF"/>
<rect x="195.037" y="70.5704" width="45.5705" height="5.33286" rx="2.66643" transform="rotate(-90 195.037 70.5704)" fill="#E9EDF7"/>
<rect x="195.037" y="70.5704" width="31.5488" height="5.33287" rx="2.66643" transform="rotate(-90 195.037 70.5704)" fill="#4318FF"/>
<rect x="180.519" y="70.5704" width="45.5705" height="5.33287" rx="2.66644" transform="rotate(-90 180.519 70.5704)" fill="#E9EDF7"/>
<rect x="180.519" y="70.5704" width="23.4863" height="5.33287" rx="2.66643" transform="rotate(-90 180.519 70.5704)" fill="#4318FF"/>
<rect x="166" y="70.5704" width="45.5705" height="5.33287" rx="2.66644" transform="rotate(-90 166 70.5704)" fill="#E9EDF7"/>
<rect x="166" y="70.5704" width="37.508" height="5.33288" rx="2.66644" transform="rotate(-90 166 70.5704)" fill="#4318FF"/>
</svg>
