<svg width="250" height="251" viewBox="0 0 250 251" fill="none" xmlns="http://www.w3.org/2000/svg">
<path d="M162 197.09V116H163.775L212.695 161.814V118.551H230V200.085H228.336L179.305 154.271V197.09H162Z" fill="#393ED0"/>
<circle cx="125" cy="133" r="14" fill="#393ED0"/>
<circle cx="110" cy="77" r="12" fill="#393ED0"/>
<circle cx="176" cy="95" r="9" fill="#393ED0"/>
<circle cx="217" cy="91" r="9" fill="#393ED0"/>
<circle cx="230" cy="64" r="9" fill="#393ED0"/>
<circle cx="196" cy="44" r="9" fill="#393ED0"/>
<circle cx="196" cy="44" r="9" fill="#393ED0"/>
<circle cx="193.5" cy="23.5" r="6.5" fill="#393ED0"/>
<circle cx="157.5" cy="15.5" r="6.5" fill="#393ED0"/>
<circle cx="243.5" cy="112.5" r="6.5" fill="#393ED0"/>
<circle cx="202" cy="216" r="8" fill="#393ED0"/>
<circle cx="128" cy="233" r="8" fill="#393ED0"/>
<circle cx="92" cy="229" r="8" fill="#393ED0"/>
<circle cx="54" cy="206" r="8" fill="#393ED0"/>
<circle cx="29" cy="198" r="9" fill="#393ED0"/>
<circle cx="52" cy="141" r="10" fill="#393ED0"/>
<circle cx="75.5" cy="59.5" r="9.5" fill="#393ED0"/>
<circle cx="70.5" cy="35.5" r="8.5" fill="#393ED0"/>
<circle cx="78.5" cy="9.5" r="7.5" fill="#393ED0"/>
<circle cx="106.5" cy="32.5" r="5.5" fill="#393ED0"/>
<circle cx="106.5" cy="32.5" r="5.5" fill="#393ED0"/>
<circle cx="111.5" cy="15.5" r="5.5" fill="#393ED0"/>
<circle cx="149.5" cy="3.5" r="3.5" fill="#393ED0"/>
<circle cx="5" cy="99" r="5" fill="#393ED0"/>
<circle cx="25" cy="52" r="5" fill="#393ED0"/>
<circle cx="25" cy="160" r="5" fill="#393ED0"/>
<circle cx="148" cy="242" r="5" fill="#393ED0"/>
<circle cx="104" cy="245" r="6" fill="#393ED0"/>
<circle cx="64.5" cy="233.5" r="9.5" fill="#393ED0"/>
<circle cx="166.5" cy="217.5" r="9.5" fill="#393ED0"/>
<circle cx="44.5" cy="85.5" r="6.5" fill="#393ED0"/>
<circle cx="28.5" cy="71.5" r="6.5" fill="#393ED0"/>
<circle cx="13.5" cy="112.5" r="6.5" fill="#393ED0"/>
<circle cx="6.5" cy="153.5" r="6.5" fill="#393ED0"/>
<circle cx="110.5" cy="192.5" r="12.5" fill="#393ED0"/>
<circle cx="151" cy="35" r="10" fill="#393ED0"/>
<line x1="28.6834" y1="49.613" x2="72.6834" y2="13.613" stroke="#393ED0"/>
<line x1="84.9611" y1="8.50152" x2="148.961" y2="3.50152" stroke="#393ED0"/>
<line x1="114.834" y1="15.5285" x2="148.834" y2="3.52851" stroke="#393ED0"/>
<line x1="85.14" y1="9.52" x2="109.14" y2="16.52" stroke="#393ED0"/>
<line x1="72.8271" y1="31.5308" x2="110.827" y2="17.5308" stroke="#393ED0"/>
<line x1="72.5133" y1="31.8855" x2="76.5133" y2="14.8855" stroke="#393ED0"/>
<line x1="75.9656" y1="34.5012" x2="104.966" y2="32.5012" stroke="#393ED0"/>
<line x1="106.529" y1="29.8318" x2="111.529" y2="15.8318" stroke="#393ED0"/>
<line x1="107.023" y1="32.5005" x2="151.023" y2="34.5005" stroke="#393ED0"/>
<line x1="112.224" y1="15.5528" x2="148.224" y2="33.5528" stroke="#393ED0"/>
<line x1="110.99" y1="16.5001" x2="158.99" y2="15.5001" stroke="#393ED0"/>
<line x1="150.374" y1="3.66782" x2="158.374" y2="12.6678" stroke="#393ED0"/>
<line x1="161.098" y1="16.5097" x2="191.098" y2="22.5097" stroke="#393ED0"/>
<line x1="151.211" y1="3.54664" x2="194.211" y2="23.5466" stroke="#393ED0"/>
<line x1="159.308" y1="16.606" x2="191.308" y2="41.606" stroke="#393ED0"/>
<line x1="151.11" y1="34.5122" x2="191.11" y2="43.5122" stroke="#393ED0"/>
<line x1="153.468" y1="37.8235" x2="173.468" y2="90.8235" stroke="#393ED0"/>
<line x1="176.54" y1="88.8044" x2="193.54" y2="48.8044" stroke="#393ED0"/>
<line x1="117.14" y1="78.5199" x2="172.14" y2="94.5199" stroke="#393ED0"/>
<line x1="116.635" y1="71.6584" x2="145.635" y2="40.6584" stroke="#393ED0"/>
<line x1="111.505" y1="69.067" x2="106.505" y2="32.067" stroke="#393ED0"/>
<line x1="81.2069" y1="64.5448" x2="103.207" y2="74.5448" stroke="#393ED0"/>
<line x1="78.7024" y1="54.5982" x2="105.702" y2="34.5982" stroke="#393ED0"/>
<line x1="71.4956" y1="40.9339" x2="73.4956" y2="55.9339" stroke="#393ED0"/>
<line x1="31.8876" y1="69.5128" x2="70.8876" y2="60.5128" stroke="#393ED0"/>
<line x1="31.6685" y1="69.6257" x2="66.6685" y2="38.6257" stroke="#393ED0"/>
<line x1="28.8002" y1="51.5417" x2="67.8002" y2="34.5417" stroke="#393ED0"/>
<line x1="25.4881" y1="52.8915" x2="29.4881" y2="70.8915" stroke="#393ED0"/>
<line x1="6.53438" y1="98.8178" x2="24.5344" y2="52.8178" stroke="#393ED0"/>
<line x1="4.63901" y1="97.654" x2="27.639" y2="73.654" stroke="#393ED0"/>
<line x1="30.3536" y1="73.6464" x2="43.3536" y2="86.6464" stroke="#393ED0"/>
<line x1="42.6951" y1="82.6037" x2="68.6951" y2="62.6037" stroke="#393ED0"/>
<line x1="47.9717" y1="82.5008" x2="100.972" y2="79.5008" stroke="#393ED0"/>
<line x1="43.4958" y1="88.9353" x2="49.4958" y2="134.935" stroke="#393ED0"/>
<line x1="55.6396" y1="134.653" x2="105.64" y2="82.6534" stroke="#393ED0"/>
<line x1="112.484" y1="83.8761" x2="123.484" y2="126.876" stroke="#393ED0"/>
<line x1="134.698" y1="126.601" x2="171.698" y2="98.6013" stroke="#393ED0"/>
<line x1="58.9477" y1="140.503" x2="115.948" y2="134.503" stroke="#393ED0"/>
<line x1="13.5588" y1="105.765" x2="29.5588" y2="75.7647" stroke="#393ED0"/>
<line x1="13.6978" y1="108.602" x2="42.6978" y2="86.6017" stroke="#393ED0"/>
<line x1="16.3153" y1="112.612" x2="48.3153" y2="138.612" stroke="#393ED0"/>
<line x1="56.3341" y1="143.628" x2="105.334" y2="187.628" stroke="#393ED0"/>
<line x1="113.51" y1="183.9" x2="122.51" y2="139.9" stroke="#393ED0"/>
<line x1="16.4899" y1="115.9" x2="25.4899" y2="159.9" stroke="#393ED0"/>
<line x1="14.4929" y1="113.084" x2="7.49287" y2="154.084" stroke="#393ED0"/>
<line x1="4.5" y1="150" x2="4.5" y2="100" stroke="#393ED0"/>
<line x1="7.45957" y1="154.803" x2="25.4596" y2="196.803" stroke="#393ED0"/>
<line x1="10.2704" y1="152.579" x2="24.2704" y2="161.579" stroke="#393ED0"/>
<line x1="27.697" y1="159.602" x2="48.697" y2="143.602" stroke="#393ED0"/>
<line x1="51.4997" y1="145.983" x2="53.4997" y2="204.983" stroke="#393ED0"/>
<line x1="25.4323" y1="159.749" x2="50.4323" y2="202.749" stroke="#393ED0"/>
<line x1="24.4944" y1="161.925" x2="29.4944" y2="194.925" stroke="#393ED0"/>
<line x1="35.1288" y1="200.517" x2="50.1288" y2="204.517" stroke="#393ED0"/>
<line x1="52.4545" y1="207.792" x2="63.4545" y2="231.792" stroke="#393ED0"/>
<line x1="32.3416" y1="202.635" x2="63.3416" y2="231.635" stroke="#393ED0"/>
<line x1="56.2957" y1="207.597" x2="86.2957" y2="229.597" stroke="#393ED0"/>
<line x1="56.8738" y1="206.516" x2="102.874" y2="194.516" stroke="#393ED0"/>
<line x1="107.444" y1="200.231" x2="94.4436" y2="225.231" stroke="#393ED0"/>
<line x1="70.9526" y1="231.502" x2="91.9526" y2="229.502" stroke="#393ED0"/>
<line x1="71.1721" y1="233.531" x2="101.172" y2="244.531" stroke="#393ED0"/>
<line x1="94.3716" y1="232.666" x2="103.372" y2="242.666" stroke="#393ED0"/>
<line x1="98.0661" y1="229.504" x2="128.066" y2="233.504" stroke="#393ED0"/>
<line x1="116.468" y1="199.824" x2="128.468" y2="231.824" stroke="#393ED0"/>
<line x1="106.806" y1="242.539" x2="125.806" y2="234.539" stroke="#393ED0"/>
<line x1="106.988" y1="244.5" x2="147.988" y2="243.5" stroke="#393ED0"/>
<line x1="147.834" y1="241.471" x2="130.834" y2="235.471" stroke="#393ED0"/>
<line x1="132.783" y1="232.55" x2="161.783" y2="218.55" stroke="#393ED0"/>
<line x1="165.381" y1="222.324" x2="148.381" y2="242.324" stroke="#393ED0"/>
<line x1="120.219" y1="194.551" x2="161.219" y2="214.551" stroke="#393ED0"/>
<line x1="172.981" y1="217.5" x2="198.981" y2="216.5" stroke="#393ED0"/>
<line x1="149.791" y1="241.546" x2="199.791" y2="218.546" stroke="#393ED0"/>
<line x1="180.975" y1="93.5006" x2="220.975" y2="91.5006" stroke="#393ED0"/>
<line x1="198.467" y1="46.822" x2="214.467" y2="88.822" stroke="#393ED0"/>
<line x1="220.558" y1="85.7661" x2="229.558" y2="68.7661" stroke="#393ED0"/>
<line x1="230.471" y1="67.8331" x2="247.471" y2="115.833" stroke="#393ED0"/>
<line x1="241.709" y1="109.407" x2="220.709" y2="94.4069" stroke="#393ED0"/>
<line x1="203.315" y1="44.6114" x2="224.315" y2="61.6114" stroke="#393ED0"/>
<line x1="223.634" y1="57.3412" x2="195.634" y2="27.3412" stroke="#393ED0"/>
<line x1="194.493" y1="28.9178" x2="196.493" y2="40.9178" stroke="#393ED0"/>
</svg>
