<svg width="500" height="500" viewBox="0 0 500 500" fill="none" xmlns="http://www.w3.org/2000/svg">
<path d="M500 382.4H0V382.65H500V382.4Z" fill="#EBEBEB"/>
<path d="M449.9 398.49H416.78V398.74H449.9V398.49Z" fill="#EBEBEB"/>
<path d="M331.22 401.21H322.53V401.46H331.22V401.21Z" fill="#EBEBEB"/>
<path d="M415.78 389.21H396.59V389.46H415.78V389.21Z" fill="#EBEBEB"/>
<path d="M95.65 390.89H52.46V391.14H95.65V390.89Z" fill="#EBEBEB"/>
<path d="M110.89 390.89H104.56V391.14H110.89V390.89Z" fill="#EBEBEB"/>
<path d="M225.15 395.11H131.47V395.36H225.15V395.11Z" fill="#EBEBEB"/>
<path d="M237 337.8H43.91C42.3973 337.797 40.9475 337.195 39.8788 336.124C38.8102 335.054 38.21 333.603 38.21 332.09V60.66C38.2231 59.156 38.8292 57.718 39.8964 56.6582C40.9637 55.5985 42.4059 55.0026 43.91 55H237C238.514 55 239.967 55.6016 241.038 56.6724C242.108 57.7433 242.71 59.1956 242.71 60.71V332.09C242.71 333.604 242.108 335.057 241.038 336.128C239.967 337.198 238.514 337.8 237 337.8ZM43.91 55.2C42.4636 55.2026 41.0774 55.7791 40.0556 56.8027C39.0338 57.8264 38.46 59.2136 38.46 60.66V332.09C38.46 333.536 39.0338 334.924 40.0556 335.947C41.0774 336.971 42.4636 337.547 43.91 337.55H237C238.447 337.547 239.834 336.971 240.858 335.948C241.881 334.924 242.457 333.537 242.46 332.09V60.66C242.457 59.2127 241.881 57.8255 240.858 56.8021C239.834 55.7787 238.447 55.2026 237 55.2H43.91Z" fill="#EBEBEB"/>
<path d="M453.31 337.8H260.21C258.696 337.797 257.246 337.195 256.175 336.125C255.105 335.054 254.503 333.604 254.5 332.09V60.66C254.516 59.1551 255.124 57.7171 256.193 56.6576C257.262 55.5981 258.705 55.0025 260.21 55H453.31C454.812 55.0052 456.252 55.6022 457.317 56.6617C458.382 57.7212 458.987 59.1578 459 60.66V332.09C459 333.601 458.401 335.05 457.335 336.121C456.268 337.191 454.821 337.795 453.31 337.8ZM260.21 55.2C258.763 55.2026 257.375 55.7787 256.352 56.8021C255.329 57.8255 254.753 59.2127 254.75 60.66V332.09C254.753 333.537 255.329 334.924 256.352 335.948C257.375 336.971 258.763 337.547 260.21 337.55H453.31C454.757 337.547 456.145 336.971 457.168 335.948C458.191 334.924 458.767 333.537 458.77 332.09V60.66C458.767 59.2127 458.191 57.8255 457.168 56.8021C456.145 55.7787 454.757 55.2026 453.31 55.2H260.21Z" fill="#EBEBEB"/>
<path d="M237.13 113.69C236.154 113.691 235.193 113.93 234.33 114.387C233.468 114.844 232.73 115.504 232.18 116.31L219 109.46C219.259 108.786 219.395 108.072 219.4 107.35C219.397 106.628 219.262 105.913 219 105.24L232.18 98.38C232.975 99.5781 234.173 100.451 235.557 100.84C236.942 101.228 238.419 101.107 239.722 100.498C241.024 99.8889 242.064 98.8323 242.653 97.5207C243.242 96.2091 243.341 94.7296 242.93 93.3516C242.52 91.9736 241.629 90.7887 240.419 90.0125C239.208 89.2364 237.76 88.9206 236.336 89.1227C234.913 89.3248 233.609 90.0314 232.663 91.1137C231.716 92.1961 231.19 93.5823 231.18 95.02C231.182 95.7419 231.318 96.4572 231.58 97.13L218.37 104C217.651 102.936 216.609 102.131 215.398 101.703C214.187 101.275 212.87 101.247 211.642 101.623C210.414 101.999 209.339 102.76 208.575 103.792C207.811 104.825 207.399 106.076 207.399 107.36C207.399 108.644 207.811 109.895 208.575 110.928C209.339 111.96 210.414 112.721 211.642 113.097C212.87 113.473 214.187 113.445 215.398 113.017C216.609 112.589 217.651 111.784 218.37 110.72L231.55 117.57C231.095 118.767 231.036 120.079 231.38 121.313C231.724 122.546 232.454 123.637 233.463 124.426C234.472 125.215 235.707 125.661 236.987 125.697C238.268 125.734 239.526 125.36 240.578 124.63C241.631 123.9 242.422 122.853 242.837 121.641C243.251 120.429 243.266 119.116 242.881 117.895C242.496 116.673 241.73 115.607 240.695 114.852C239.66 114.098 238.411 113.694 237.13 113.7V113.69Z" fill="#EBEBEB"/>
<path d="M277.58 383.29H231.34C231.146 383.29 230.959 383.213 230.82 383.077C230.682 382.94 230.603 382.755 230.6 382.56V342C230.6 341.804 230.678 341.616 230.817 341.477C230.956 341.338 231.144 341.26 231.34 341.26C231.437 341.26 231.533 341.279 231.622 341.316C231.711 341.354 231.792 341.408 231.86 341.477C231.928 341.546 231.981 341.628 232.017 341.718C232.054 341.807 232.071 341.903 232.07 342V381.85H277.58C277.684 381.838 277.789 381.848 277.889 381.879C277.988 381.911 278.08 381.963 278.158 382.032C278.236 382.102 278.298 382.187 278.341 382.282C278.384 382.377 278.406 382.481 278.406 382.585C278.406 382.689 278.384 382.793 278.341 382.888C278.298 382.983 278.236 383.068 278.158 383.138C278.08 383.207 277.988 383.259 277.889 383.291C277.789 383.322 277.684 383.332 277.58 383.32V383.29Z" fill="#EBEBEB"/>
<path d="M231.49 377.72L231.18 374.79C231.45 374.79 258.49 371.66 270.37 353.79L272.82 355.43C260.17 374.46 232.66 377.6 231.49 377.72Z" fill="#EBEBEB"/>
<path d="M273.26 352.16L267.65 354.47L273.27 358.22L273.26 352.16Z" fill="#EBEBEB"/>
<path d="M429.88 292.65H404.8C404.694 292.65 404.592 292.608 404.517 292.533C404.442 292.458 404.4 292.356 404.4 292.25V270.25C404.4 270.144 404.442 270.042 404.517 269.967C404.592 269.892 404.694 269.85 404.8 269.85C404.906 269.85 405.008 269.892 405.083 269.967C405.158 270.042 405.2 270.144 405.2 270.25V291.86H429.88C429.986 291.86 430.088 291.902 430.163 291.977C430.238 292.052 430.28 292.154 430.28 292.26C430.28 292.366 430.238 292.468 430.163 292.543C430.088 292.618 429.986 292.66 429.88 292.66V292.65Z" fill="#EBEBEB"/>
<path d="M404.89 289.63L404.72 288.04C404.86 288.04 419.53 286.34 425.97 276.66L427.3 277.55C420.44 287.86 405.52 289.56 404.89 289.63Z" fill="#EBEBEB"/>
<path d="M427.54 275.76L424.5 277.01L427.54 279.05V275.76Z" fill="#EBEBEB"/>
<path d="M73.5201 225.24V241.18C73.5201 242.67 76.1401 243.88 79.3201 243.88H94.0001C94.7958 243.88 95.5588 243.564 96.1215 243.001C96.6841 242.439 97.0001 241.676 97.0001 240.88V236.88C97.0007 235.701 97.3184 234.544 97.9201 233.53C98.5254 232.514 98.8434 231.353 98.8401 230.17V226.31C98.8401 225.514 98.5241 224.751 97.9615 224.189C97.3988 223.626 96.6358 223.31 95.8401 223.31H84.0001V213.25C84.0001 210.91 83.3401 207.76 80.5501 207.76C80.5501 207.76 79.7701 218 74.5501 222.16C74.1661 222.569 73.8752 223.055 73.6974 223.587C73.5196 224.119 73.4591 224.683 73.5201 225.24Z" fill="#EBEBEB"/>
<path d="M72.2801 225.04H67.3301V241.8H72.2801V225.04Z" fill="#EBEBEB"/>
<path d="M340.94 163.83V173.76C340.94 174.69 342.57 175.44 344.55 175.44H353.67C354.161 175.44 354.631 175.245 354.978 174.898C355.325 174.551 355.52 174.081 355.52 173.59V171.1C355.517 170.363 355.718 169.64 356.1 169.01C356.472 168.372 356.668 167.648 356.67 166.91V164.51C356.67 164.019 356.475 163.549 356.128 163.202C355.781 162.855 355.311 162.66 354.82 162.66H347.47V156.37C347.47 154.91 347.05 152.95 345.32 152.95C345.32 152.95 344.83 159.32 341.61 161.95C341.37 162.197 341.186 162.493 341.07 162.817C340.955 163.141 340.91 163.487 340.94 163.83Z" fill="#EBEBEB"/>
<path d="M340.16 163.71H337.08V174.14H340.16V163.71Z" fill="#EBEBEB"/>
<path d="M151.686 106.046C156.755 100.977 156.755 92.7584 151.686 87.6894C146.617 82.6204 138.398 82.6204 133.329 87.6894C128.26 92.7584 128.26 100.977 133.329 106.046C138.398 111.115 146.617 111.115 151.686 106.046Z" fill="#EBEBEB"/>
<path d="M142.51 108.18C148.757 108.18 153.82 103.116 153.82 96.87C153.82 90.6237 148.757 85.56 142.51 85.56C136.264 85.56 131.2 90.6237 131.2 96.87C131.2 103.116 136.264 108.18 142.51 108.18Z" fill="#E0E0E0"/>
<path d="M143.2 102V103.62H142V102.02C140.727 101.983 139.493 101.565 138.46 100.82L139.11 99.36C139.949 99.994 140.952 100.376 142 100.46V97.61C140.4 97.22 138.68 96.7 138.68 94.69C138.68 93.22 139.75 91.93 142 91.69V90.08H143.19V91.69C144.226 91.7252 145.236 92.0284 146.12 92.57L145.54 94C144.824 93.5778 144.026 93.312 143.2 93.22V96.13C144.8 96.52 146.55 97.03 146.55 99.04C146.55 100.54 145.46 101.81 143.2 102ZM142 95.86V93.29C141 93.45 140.54 93.97 140.54 94.6C140.54 95.23 141.17 95.61 142 95.86ZM144.69 99.2C144.69 98.49 144.05 98.2 143.19 97.91V100.47C144.25 100.31 144.7 99.82 144.7 99.2H144.69Z" fill="#EBEBEB"/>
<path d="M409.074 123.989C410.551 117.732 406.676 111.463 400.419 109.986C394.162 108.509 387.893 112.384 386.417 118.641C384.94 124.898 388.815 131.167 395.071 132.644C401.328 134.12 407.597 130.245 409.074 123.989Z" fill="#EBEBEB"/>
<path d="M397.76 131.46C403.36 131.46 407.9 126.92 407.9 121.32C407.9 115.72 403.36 111.18 397.76 111.18C392.16 111.18 387.62 115.72 387.62 121.32C387.62 126.92 392.16 131.46 397.76 131.46Z" fill="#E0E0E0"/>
<path d="M398.38 126V127.45H397.31V126C396.169 125.974 395.063 125.601 394.14 124.93L394.72 123.62C395.472 124.191 396.37 124.538 397.31 124.62V122C395.87 121.65 394.31 121.19 394.31 119.39C394.31 118.07 395.31 116.91 397.31 116.72V115.25H398.38V116.69C399.305 116.736 400.204 117.007 401 117.48L400.47 118.79C399.829 118.415 399.118 118.177 398.38 118.09V120.71C399.81 121.06 401.38 121.51 401.38 123.31C401.38 124.61 400.41 125.75 398.38 126ZM397.31 120.46V118.15C396.39 118.29 396 118.76 396 119.33C396 119.9 396.56 120.2 397.31 120.42V120.46ZM399.72 123.46C399.72 122.82 399.15 122.53 398.38 122.31V124.6C399.32 124.41 399.72 124 399.72 123.41V123.46Z" fill="#EBEBEB"/>
<path d="M318.789 345.539C320.266 339.282 316.391 333.013 310.134 331.536C303.877 330.06 297.608 333.934 296.131 340.191C294.655 346.448 298.53 352.717 304.786 354.194C311.043 355.67 317.312 351.795 318.789 345.539Z" fill="#EBEBEB"/>
<path d="M307.47 353.02C313.07 353.02 317.61 348.48 317.61 342.88C317.61 337.28 313.07 332.74 307.47 332.74C301.87 332.74 297.33 337.28 297.33 342.88C297.33 348.48 301.87 353.02 307.47 353.02Z" fill="#E0E0E0"/>
<path d="M308.08 347.52V349H307V347.56C305.859 347.534 304.753 347.161 303.83 346.49L304.41 345.18C305.162 345.751 306.06 346.098 307 346.18V343.59C305.56 343.24 304 342.78 304 340.98C304 339.66 305 338.5 307 338.31V336.84H308.06V338.28C308.989 338.32 309.893 338.591 310.69 339.07L310.16 340.38C309.516 340.004 308.801 339.765 308.06 339.68V342.3C309.5 342.65 311.06 343.1 311.06 344.9C311.09 346.17 310.12 347.31 308.08 347.52ZM307 342V339.69C306.08 339.83 305.69 340.3 305.69 340.87C305.69 341.44 306.27 341.76 307 342ZM309.41 345C309.41 344.36 308.84 344.07 308.06 343.85V346.14C309 346 309.43 345.53 309.43 345H309.41Z" fill="#EBEBEB"/>
<path d="M112.997 358.814C114.474 352.557 110.599 346.288 104.342 344.811C98.0857 343.334 91.8166 347.209 90.3398 353.466C88.8631 359.723 92.738 365.992 98.9947 367.468C105.251 368.945 111.521 365.07 112.997 358.814Z" fill="#EBEBEB"/>
<path d="M101.66 366.29C107.26 366.29 111.8 361.75 111.8 356.15C111.8 350.55 107.26 346.01 101.66 346.01C96.0599 346.01 91.52 350.55 91.52 356.15C91.52 361.75 96.0599 366.29 101.66 366.29Z" fill="#E0E0E0"/>
<path d="M102.28 360.78V362.24H101.22V360.8C100.062 360.772 98.9401 360.396 98 359.72L98.59 358.41C99.3394 358.985 100.239 359.332 101.18 359.41V356.82C99.74 356.47 98.18 356 98.18 354.2C98.18 352.88 99.18 351.73 101.18 351.53V350.07H102.24V351.51C103.17 351.545 104.075 351.817 104.87 352.3L104.34 353.6C103.695 353.225 102.981 352.987 102.24 352.9V355.52C103.68 355.87 105.24 356.32 105.24 358.12C105.29 359.44 104.31 360.58 102.28 360.78ZM101.22 355.24V352.93C100.3 353.08 99.91 353.54 99.91 354.11C99.91 354.68 100.47 355 101.22 355.24ZM103.63 358.24C103.63 357.61 103.06 357.31 102.28 357.09V359.38C103.23 359.23 103.63 358.79 103.63 358.23V358.24Z" fill="#EBEBEB"/>
<path d="M163.79 154.08L171.79 131.99C174.786 133.079 177.529 134.767 179.851 136.951C182.174 139.134 184.028 141.767 185.3 144.69L163.79 154.08Z" fill="#F5F5F5"/>
<path d="M163.79 154.08L170.64 176.57C168.419 177.241 166.11 177.578 163.79 177.57C160.622 177.701 157.461 177.19 154.496 176.068C151.531 174.946 148.823 173.236 146.536 171.041C144.248 168.845 142.428 166.211 141.185 163.294C139.941 160.378 139.3 157.24 139.3 154.07C139.3 150.9 139.941 147.762 141.185 144.846C142.428 141.929 144.248 139.294 146.536 137.099C148.823 134.904 151.531 133.194 154.496 132.072C157.461 130.95 160.622 130.439 163.79 130.57C166.493 130.566 169.177 131.033 171.72 131.95L163.79 154.08Z" fill="#E0E0E0"/>
<path d="M163.79 154.08L185.39 144.79C186.691 147.821 187.341 151.092 187.297 154.39C187.252 157.688 186.515 160.94 185.133 163.935C183.75 166.929 181.754 169.6 179.272 171.773C176.791 173.947 173.881 175.574 170.73 176.55L163.79 154.08Z" fill="#EBEBEB"/>
<path d="M378.29 270.47L382.66 258.47C384.29 259.06 385.78 259.979 387.04 261.17C388.315 262.352 389.336 263.781 390.04 265.37L378.29 270.47Z" fill="#F5F5F5"/>
<path d="M378.29 270.47L382 282.69C380.064 283.282 378.016 283.406 376.023 283.051C374.031 282.697 372.151 281.874 370.539 280.651C368.926 279.427 367.627 277.839 366.749 276.016C365.871 274.192 365.438 272.186 365.486 270.163C365.534 268.14 366.063 266.157 367.027 264.378C367.992 262.599 369.365 261.074 371.034 259.929C372.703 258.785 374.62 258.053 376.628 257.794C378.635 257.535 380.675 257.756 382.58 258.44L378.29 270.47Z" fill="#E0E0E0"/>
<path d="M378.29 270.47L390 265.42C390.675 267.017 391.016 268.736 391 270.47C390.996 273.198 390.12 275.854 388.502 278.05C386.883 280.247 384.605 281.869 382 282.68L378.29 270.47Z" fill="#EBEBEB"/>
<path d="M335.53 225.09C333.484 215.305 329.613 205.992 324.12 197.64L333.94 185.77L312.94 164.77L301.07 174.6C292.721 169.1 283.407 165.229 273.62 163.19L272.18 147.89H242.45L241 163.17C231.213 165.211 221.9 169.082 213.55 174.58L201.68 164.75L180.68 185.75L190.51 197.62C185.008 205.968 181.137 215.282 179.1 225.07L163.8 226.51V256.23L179.1 257.67C181.139 267.458 185.01 276.771 190.51 285.12L180.67 297L201.67 318L213.54 308.17C221.891 313.679 231.207 317.561 241 319.61L242.44 334.91H272.16L273.6 319.61C283.387 317.571 292.701 313.7 301.05 308.2L312.93 318L333.93 297L324.11 285.13C329.602 276.777 333.472 267.465 335.52 257.68L350.82 256.24V226.53L335.53 225.09ZM297.53 241.39C297.53 249.347 295.17 257.125 290.75 263.741C286.329 270.356 280.046 275.513 272.695 278.558C265.344 281.603 257.255 282.399 249.451 280.847C241.647 279.295 234.479 275.463 228.853 269.837C223.227 264.211 219.395 257.042 217.843 249.238C216.291 241.435 217.087 233.346 220.132 225.995C223.177 218.644 228.333 212.361 234.949 207.94C241.565 203.519 249.343 201.16 257.3 201.16C262.584 201.159 267.816 202.198 272.698 204.219C277.58 206.241 282.016 209.204 285.753 212.94C289.49 216.675 292.454 221.111 294.477 225.992C296.499 230.874 297.54 236.106 297.54 241.39H297.53Z" fill="#F0F0F0"/>
<path d="M430.73 179.55C430.329 177.603 429.562 175.751 428.47 174.09L430.42 171.73L426.24 167.55L423.88 169.5C422.217 168.411 420.365 167.641 418.42 167.23L418.14 164.23H412.23L411.94 167.23C409.996 167.643 408.144 168.413 406.48 169.5L404.12 167.55L400 171.73L401.95 174.09C400.855 175.75 400.085 177.603 399.68 179.55L396.68 179.83V185.74L399.68 186.03C400.087 187.973 400.857 189.823 401.95 191.48L400 193.84L404.17 198.02L406.53 196.02C408.192 197.112 410.044 197.882 411.99 198.29L412.28 201.29H418.19L418.47 198.29C420.417 197.883 422.269 197.113 423.93 196.02L426.29 198.02L430.47 193.84L428.52 191.48C429.61 189.822 430.377 187.973 430.78 186.03L433.78 185.74V179.83L430.73 179.55ZM423.18 182.79C423.18 184.372 422.711 185.919 421.832 187.235C420.953 188.55 419.703 189.576 418.242 190.181C416.78 190.787 415.171 190.945 413.619 190.636C412.068 190.328 410.642 189.566 409.523 188.447C408.404 187.328 407.643 185.903 407.334 184.351C407.025 182.799 407.184 181.19 407.789 179.729C408.395 178.267 409.42 177.017 410.736 176.138C412.051 175.259 413.598 174.79 415.18 174.79C417.302 174.79 419.337 175.633 420.837 177.133C422.337 178.633 423.18 180.668 423.18 182.79Z" fill="#F0F0F0"/>
<path d="M151.39 278C150.977 276.055 150.208 274.204 149.12 272.54L151.07 270.18L146.89 266L144.53 268C142.87 266.905 141.017 266.135 139.07 265.73L138.79 262.73H132.88L132.59 265.73C130.647 266.137 128.798 266.907 127.14 268L124.78 266L120.6 270.17L122.6 272.53C121.508 274.192 120.738 276.044 120.33 277.99L117.33 278.28V284.19L120.33 284.47C120.737 286.417 121.507 288.269 122.6 289.93L120.6 292.29L124.78 296.47L127.14 294.47C128.795 295.567 130.645 296.338 132.59 296.74L132.88 299.74H138.79L139.07 296.74C141.019 296.34 142.872 295.569 144.53 294.47L146.89 296.47L151.07 292.29L149.12 289.93C150.209 288.267 150.979 286.415 151.39 284.47L154.39 284.19V278.28L151.39 278ZM143.83 281.24C143.83 282.822 143.361 284.369 142.482 285.685C141.603 287 140.353 288.026 138.892 288.631C137.43 289.237 135.821 289.395 134.269 289.086C132.718 288.778 131.292 288.016 130.173 286.897C129.054 285.778 128.292 284.353 127.984 282.801C127.675 281.249 127.834 279.64 128.439 278.178C129.045 276.717 130.07 275.467 131.386 274.588C132.701 273.709 134.248 273.24 135.83 273.24C137.952 273.24 139.987 274.083 141.487 275.583C142.987 277.083 143.83 279.118 143.83 281.24Z" fill="#F0F0F0"/>
<path d="M202.86 343.78C202.456 341.833 201.685 339.98 200.59 338.32L202.59 335.96L198.41 331.78L196.05 333.78C194.388 332.688 192.536 331.918 190.59 331.51L190.3 328.51H184.4L184.11 331.51C182.164 331.918 180.312 332.688 178.65 333.78L176.29 331.78L172.07 336L174.07 338.36C172.974 340.02 172.204 341.873 171.8 343.82L168.8 344.11V350L171.8 350.28C172.204 352.227 172.974 354.08 174.07 355.74L172.07 358.1L176.25 362.28L178.61 360.28C180.27 361.376 182.122 362.146 184.07 362.55L184.36 365.6H190.26L190.55 362.55C192.492 362.151 194.342 361.387 196 360.3L198.36 362.3L202.54 358.12L200.54 355.76C201.635 354.1 202.406 352.247 202.81 350.3L205.81 350.02V344.11L202.86 343.78ZM195.31 347C195.31 348.582 194.841 350.129 193.962 351.445C193.083 352.76 191.833 353.786 190.371 354.391C188.909 354.997 187.301 355.155 185.749 354.846C184.197 354.538 182.772 353.776 181.653 352.657C180.534 351.538 179.772 350.113 179.464 348.561C179.155 347.009 179.313 345.4 179.919 343.939C180.524 342.477 181.55 341.227 182.865 340.348C184.181 339.469 185.728 339 187.31 339C189.432 339 191.466 339.843 192.967 341.343C194.467 342.843 195.31 344.878 195.31 347Z" fill="#F0F0F0"/>
<path d="M96.8401 157.57C96.5729 156.289 96.0638 155.07 95.3401 153.98L96.6301 152.42L93.8801 149.67L92.3201 151C91.2297 150.276 90.0113 149.767 88.7301 149.5L88.5401 147.5H84.6501L84.4601 149.5C83.1764 149.769 81.955 150.278 80.8601 151L79.3101 149.71L76.5601 152.46L77.8501 154C77.1264 155.09 76.6173 156.309 76.3501 157.59L74.3501 157.78V161.67L76.3501 161.86C76.6172 163.144 77.1263 164.366 77.8501 165.46L76.5601 167L79.3101 169.75L80.8601 168.47C81.9577 169.185 83.1783 169.69 84.4601 169.96L84.6501 171.96H88.5401L88.7301 169.96C90.0093 169.692 91.2269 169.186 92.3201 168.47L93.8801 169.75L96.6301 167L95.3401 165.45C96.0639 164.356 96.573 163.134 96.8401 161.85L98.8401 161.66V157.77L96.8401 157.57ZM91.8401 159.71C91.8401 160.752 91.531 161.771 90.9519 162.638C90.3729 163.504 89.5498 164.18 88.5868 164.579C87.6239 164.978 86.5643 165.082 85.542 164.879C84.5197 164.675 83.5807 164.173 82.8436 163.436C82.1066 162.699 81.6047 161.76 81.4014 160.738C81.198 159.716 81.3024 158.656 81.7013 157.693C82.1001 156.73 82.7756 155.907 83.6422 155.328C84.5089 154.749 85.5278 154.44 86.5701 154.44C87.2638 154.437 87.9513 154.572 88.593 154.835C89.2347 155.099 89.818 155.487 90.3095 155.976C90.801 156.466 91.1909 157.048 91.457 157.689C91.7231 158.329 91.8601 159.016 91.8601 159.71H91.8401Z" fill="#F0F0F0"/>
<path d="M112.06 143.63C111.874 142.695 111.515 141.802 111 141L111.94 139.86L109.94 137.86L108.8 138.81C107.997 138.28 107.101 137.907 106.16 137.71L106.02 136.24H103.17L103.03 137.71C102.088 137.907 101.192 138.28 100.39 138.81L99.2498 137.86L97.2498 139.86L98.1898 141C97.6329 141.795 97.2294 142.687 96.9998 143.63L95.5298 143.77V146.63L96.9998 146.76C97.1975 147.7 97.5671 148.595 98.0898 149.4L97.1498 150.54L99.1498 152.54L100.29 151.6C101.092 152.13 101.988 152.503 102.93 152.7L103.07 154.17H106L106.14 152.7C107.081 152.503 107.977 152.13 108.78 151.6L109.92 152.54L111.92 150.54L111 149.4C111.526 148.597 111.896 147.701 112.09 146.76L113.56 146.63V143.77L112.06 143.63ZM108.41 145.2C108.41 145.966 108.183 146.714 107.757 147.351C107.331 147.988 106.726 148.484 106.018 148.776C105.311 149.069 104.532 149.145 103.781 148.995C103.03 148.845 102.341 148.475 101.8 147.933C101.259 147.391 100.891 146.7 100.743 145.949C100.595 145.197 100.673 144.419 100.967 143.712C101.262 143.005 101.759 142.401 102.397 141.977C103.035 141.553 103.784 141.328 104.55 141.33C105.058 141.33 105.56 141.43 106.029 141.625C106.498 141.819 106.924 142.105 107.283 142.464C107.641 142.824 107.925 143.25 108.119 143.72C108.312 144.189 108.411 144.692 108.41 145.2Z" fill="#F0F0F0"/>
<path d="M371.7 378.1C363.863 377.957 356.396 374.743 350.905 369.15C345.414 363.558 342.337 356.033 342.337 348.195C342.337 340.357 345.414 332.832 350.905 327.24C356.396 321.647 363.863 318.433 371.7 318.29H371.94C379.777 318.425 387.248 321.631 392.745 327.219C398.242 332.806 401.326 340.328 401.334 348.166C401.342 356.004 398.273 363.532 392.787 369.13C387.301 374.728 379.837 377.949 372 378.1H371.7ZM373 375.76L374.24 375.46C378.51 374.46 382.34 370.77 385.03 365.15L385.56 364.03L384.35 363.75C380.949 362.992 377.483 362.563 374 362.47H373V375.76ZM369.62 362.47C366.15 362.566 362.698 362.994 359.31 363.75L358.09 364.03L358.63 365.15C361.31 370.77 365.15 374.44 369.42 375.46L370.65 375.76V362.43L369.62 362.47ZM387.42 365.47C386.653 367.172 385.729 368.799 384.66 370.33L385.99 371.76C387.95 370.58 389.757 369.163 391.37 367.54L392.37 366.54L391.08 365.93C390.33 365.58 389.52 365.25 388.66 364.93L387.8 364.62L387.42 365.47ZM355 365C354.15 365.31 353.34 365.64 352.59 366L351.3 366.6L352.3 367.6C353.913 369.223 355.72 370.64 357.68 371.82L359.02 370.39C357.944 368.862 357.016 367.235 356.25 365.53L355.87 364.7L355 365ZM344.39 350.46C344.786 355.33 346.477 360.005 349.29 364L349.8 364.72L350.58 364.31C351.715 363.716 352.892 363.205 354.1 362.78L355.01 362.45L354.71 361.53C353.555 357.887 352.883 354.108 352.71 350.29L352.66 349.29H344.24L344.39 350.46ZM390.93 350.34C390.762 354.159 390.09 357.938 388.93 361.58L388.64 362.5L389.55 362.83C390.757 363.259 391.933 363.77 393.07 364.36L393.84 364.76L394.35 364.05C397.183 360.044 398.886 355.35 399.28 350.46L399.37 349.38H391L390.93 350.34ZM355.13 350.43C355.289 354 355.917 357.534 357 360.94L357.28 361.83L358.18 361.61C361.963 360.721 365.826 360.219 369.71 360.11H370.71V349.37H355.11L355.13 350.43ZM373 360.08H374C377.884 360.188 381.747 360.69 385.53 361.58L386.43 361.8L386.72 360.91C387.791 357.498 388.416 353.962 388.58 350.39L388.63 349.34H373V360.08ZM393.08 332.08C391.942 332.668 390.766 333.179 389.56 333.61L388.65 333.94L388.94 334.86C390.101 338.502 390.773 342.281 390.94 346.1V347.05H399.36L399.27 345.97C398.862 341.087 397.164 336.401 394.35 332.39L393.85 331.67L393.08 332.08ZM385.5 334.82C381.727 335.699 377.873 336.188 374 336.28H373V347H388.6L388.55 346C388.389 342.428 387.764 338.891 386.69 335.48L386.4 334.6L385.5 334.82ZM356.97 335.49C355.891 338.896 355.265 342.43 355.11 346L355.05 347H370.65V336.31H369.65C365.766 336.205 361.903 335.706 358.12 334.82L357.22 334.6L356.97 335.49ZM349.29 332.39C346.475 336.399 344.78 341.087 344.38 345.97L344.29 347.05H352.7L352.75 346.1C352.922 342.282 353.594 338.503 354.75 334.86L355.05 333.94L354.14 333.61C352.933 333.181 351.757 332.669 350.62 332.08L349.84 331.67L349.29 332.39ZM373 334H374C377.469 333.894 380.921 333.466 384.31 332.72L385.52 332.44L384.99 331.31C382.3 325.69 378.47 322.03 374.2 321L372.96 320.71L373 334ZM369.42 321C365.15 322 361.31 325.69 358.63 331.31L358.09 332.44L359.31 332.72C362.699 333.467 366.151 333.896 369.62 334H370.62V320.64L369.42 321ZM357.71 324.59C355.722 325.78 353.894 327.218 352.27 328.87L351.27 329.87L352.55 330.47C353.31 330.82 354.13 331.16 354.98 331.47L355.85 331.78L356.23 330.95C356.991 329.214 357.918 327.556 359 326L357.71 324.59ZM384.61 326.02C385.7 327.568 386.641 329.215 387.42 330.94L387.81 331.78L388.67 331.47C389.52 331.17 390.34 330.83 391.1 330.47L392.38 329.87L391.38 328.87C389.752 327.218 387.921 325.78 385.93 324.59L384.61 326.02Z" fill="#EBEBEB"/>
<path d="M294.41 141.29C289.784 141.18 285.385 139.265 282.153 135.955C278.92 132.645 277.111 128.202 277.111 123.575C277.111 118.948 278.92 114.505 282.153 111.195C285.385 107.885 289.784 105.97 294.41 105.86H294.55C299.175 105.97 303.574 107.885 306.807 111.195C310.039 114.505 311.849 118.948 311.849 123.575C311.849 128.202 310.039 132.645 306.807 135.955C303.574 139.265 299.175 141.18 294.55 141.29H294.37H294.41ZM295.18 139.9L295.91 139.73C298.44 139.12 300.71 136.95 302.3 133.62L302.62 132.95L301.9 132.79C299.892 132.342 297.846 132.088 295.79 132.03H295.18V139.9ZM293.18 132.03C291.127 132.088 289.084 132.342 287.08 132.79L286.35 132.95L286.67 133.62C288.27 136.95 290.54 139.12 293.07 139.73L293.8 139.9V132L293.18 132.03ZM303.74 133.84C303.28 134.847 302.731 135.811 302.1 136.72L302.89 137.57C304.047 136.868 305.115 136.029 306.07 135.07L306.67 134.47L305.91 134.11C305.46 133.9 304.98 133.71 304.47 133.53L303.96 133.34L303.74 133.84ZM284.51 133.52C284.01 133.7 283.51 133.9 283.08 134.11L282.32 134.47L282.91 135.07C283.871 136.023 284.942 136.859 286.1 137.56L286.89 136.72C286.259 135.811 285.71 134.847 285.25 133.84L285.03 133.34L284.51 133.52ZM278.22 124.91C278.461 127.805 279.469 130.584 281.14 132.96L281.44 133.38L281.9 133.14C282.576 132.792 283.274 132.488 283.99 132.23L284.53 132.04L284.35 131.5C283.678 129.339 283.288 127.101 283.19 124.84V124.27H278.19L278.22 124.91ZM305.8 124.84C305.704 127.102 305.31 129.341 304.63 131.5L304.46 132.04L305 132.24C305.717 132.491 306.415 132.791 307.09 133.14L307.54 133.38L307.84 132.96C309.519 130.588 310.528 127.807 310.76 124.91L310.82 124.27H305.82L305.8 124.84ZM284.59 124.84C284.686 126.955 285.056 129.049 285.69 131.07L285.86 131.6L286.39 131.47C288.631 130.946 290.919 130.648 293.22 130.58H293.8V124.23H284.56L284.59 124.84ZM295.19 130.57H295.76C298.064 130.637 300.355 130.936 302.6 131.46L303.13 131.59L303.3 131.06C303.934 129.039 304.304 126.945 304.4 124.83V124.21H295.16L295.19 130.57ZM307.08 114C306.405 114.352 305.707 114.656 304.99 114.91L304.45 115.11L304.62 115.65C305.3 117.809 305.694 120.048 305.79 122.31V122.88H310.79L310.74 122.24C310.491 119.364 309.487 116.604 307.83 114.24L307.53 113.81L307.08 114ZM302.59 115.63C300.347 116.161 298.054 116.456 295.75 116.51H295.18V122.86H304.42V122.23C304.322 120.115 303.952 118.021 303.32 116L303.15 115.48L302.59 115.63ZM285.68 116.02C285.048 118.041 284.678 120.135 284.58 122.25V122.88H293.82V116.53H293.24C290.939 116.47 288.651 116.175 286.41 115.65L285.88 115.52L285.68 116.02ZM281.13 114.19C279.473 116.554 278.469 119.314 278.22 122.19L278.17 122.83H283.17V122.26C283.268 119.999 283.658 117.761 284.33 115.6L284.51 115.06L283.97 114.86C283.253 114.606 282.554 114.302 281.88 113.95L281.42 113.71L281.13 114.19ZM295.18 115.19H295.79C297.846 115.128 299.891 114.873 301.9 114.43L302.62 114.27L302.3 113.6C300.71 110.27 298.44 108.1 295.91 107.49L295.18 107.31V115.19ZM293.06 107.47C290.53 108.08 288.26 110.25 286.66 113.58L286.34 114.25L287.07 114.41C289.075 114.853 291.117 115.107 293.17 115.17H293.79V107.27L293.06 107.47ZM286.12 109.59C284.941 110.298 283.856 111.152 282.89 112.13L282.3 112.73L283.06 113.08C283.51 113.29 284 113.49 284.5 113.67L285.02 113.86L285.24 113.36C285.705 112.34 286.264 111.366 286.91 110.45L286.12 109.59ZM302.06 110.44C302.703 111.361 303.262 112.338 303.73 113.36L303.95 113.85L304.46 113.67C304.97 113.49 305.46 113.29 305.9 113.08L306.66 112.73L306.07 112.13C305.11 111.149 304.028 110.295 302.85 109.59L302.06 110.44Z" fill="#EBEBEB"/>
<path d="M250 427.56C357.082 427.56 443.89 422.492 443.89 416.24C443.89 409.988 357.082 404.92 250 404.92C142.917 404.92 56.1099 409.988 56.1099 416.24C56.1099 422.492 142.917 427.56 250 427.56Z" fill="#F5F5F5"/>
<path d="M343.29 309.83V165.87H156.19V309.83H182.57V406.58L175.46 409.11V411.73H197.93V409.11L190.81 406.58V309.83H312.58V406.58L305.47 409.11V411.73H327.93V409.11L320.82 406.58V309.83H343.29Z" fill="#263238"/>
<path d="M340.83 167.87H158.66V305.24H340.83V167.87Z" fill="#393ED0"/>
<path opacity="0.9" d="M340.83 167.87H158.66V305.24H340.83V167.87Z" fill="white"/>
<path d="M290.42 250.98H284.68V256.72H290.42V250.98Z" fill="#263238"/>
<path d="M290.42 267.49H284.68V273.23H290.42V267.49Z" fill="#263238"/>
<path d="M290.42 284H284.68V289.74H290.42V284Z" fill="#393ED0"/>
<path opacity="0.7" d="M290.42 267.49H284.68V273.23H290.42V267.49Z" fill="white"/>
<path opacity="0.1" d="M271.66 191.09C271.726 191.09 271.79 191.064 271.837 191.017C271.884 190.97 271.91 190.906 271.91 190.84C271.91 190.774 271.884 190.71 271.837 190.663C271.79 190.616 271.726 190.59 271.66 190.59H269.36V181.21H271.66C271.726 181.21 271.79 181.184 271.837 181.137C271.884 181.09 271.91 181.026 271.91 180.96C271.91 180.894 271.884 180.83 271.837 180.783C271.79 180.736 271.726 180.71 271.66 180.71H269.36V178.14C269.36 178.074 269.334 178.01 269.287 177.963C269.24 177.916 269.176 177.89 269.11 177.89C269.044 177.89 268.98 177.916 268.933 177.963C268.886 178.01 268.86 178.074 268.86 178.14V180.71H258.63V178.14C258.63 178.074 258.604 178.01 258.557 177.963C258.51 177.916 258.446 177.89 258.38 177.89C258.314 177.89 258.25 177.916 258.203 177.963C258.156 178.01 258.13 178.074 258.13 178.14V180.71H247.91V178.14C247.91 178.074 247.884 178.01 247.837 177.963C247.79 177.916 247.726 177.89 247.66 177.89C247.594 177.89 247.53 177.916 247.483 177.963C247.436 178.01 247.41 178.074 247.41 178.14V180.71H237.18V178.14C237.18 178.074 237.154 178.01 237.107 177.963C237.06 177.916 236.996 177.89 236.93 177.89C236.864 177.89 236.8 177.916 236.753 177.963C236.706 178.01 236.68 178.074 236.68 178.14V180.71H226.46V178.14C226.46 178.074 226.434 178.01 226.387 177.963C226.34 177.916 226.276 177.89 226.21 177.89C226.144 177.89 226.08 177.916 226.033 177.963C225.986 178.01 225.96 178.074 225.96 178.14V180.71H215.74V178.14C215.74 178.074 215.714 178.01 215.667 177.963C215.62 177.916 215.556 177.89 215.49 177.89C215.424 177.89 215.36 177.916 215.313 177.963C215.266 178.01 215.24 178.074 215.24 178.14V180.71H205V178.14C205 178.074 204.974 178.01 204.927 177.963C204.88 177.916 204.816 177.89 204.75 177.89C204.684 177.89 204.62 177.916 204.573 177.963C204.526 178.01 204.5 178.074 204.5 178.14V180.71H194.29V178.14C194.29 178.074 194.264 178.01 194.217 177.963C194.17 177.916 194.106 177.89 194.04 177.89C193.974 177.89 193.91 177.916 193.863 177.963C193.816 178.01 193.79 178.074 193.79 178.14V180.71H183.57V178.14C183.57 178.074 183.544 178.01 183.497 177.963C183.45 177.916 183.386 177.89 183.32 177.89C183.254 177.89 183.19 177.916 183.143 177.963C183.096 178.01 183.07 178.074 183.07 178.14V180.71H173V181.21H183.09V190.59H173V191.09H183.09V200.48H173V200.98H183.09V210.36H173V210.86H183.09V220.25H173V220.75H183.09V230.83C183.09 230.896 183.116 230.96 183.163 231.007C183.21 231.054 183.274 231.08 183.34 231.08C183.406 231.08 183.47 231.054 183.517 231.007C183.564 230.96 183.59 230.896 183.59 230.83V220.75H193.81V230.83C193.81 230.896 193.836 230.96 193.883 231.007C193.93 231.054 193.994 231.08 194.06 231.08C194.126 231.08 194.19 231.054 194.237 231.007C194.284 230.96 194.31 230.896 194.31 230.83V220.75H204.54V230.83C204.54 230.896 204.566 230.96 204.613 231.007C204.66 231.054 204.724 231.08 204.79 231.08C204.856 231.08 204.92 231.054 204.967 231.007C205.014 230.96 205.04 230.896 205.04 230.83V220.75H215.26V230.83C215.26 230.896 215.286 230.96 215.333 231.007C215.38 231.054 215.444 231.08 215.51 231.08C215.576 231.08 215.64 231.054 215.687 231.007C215.734 230.96 215.76 230.896 215.76 230.83V220.75H226V230.83C226 230.896 226.026 230.96 226.073 231.007C226.12 231.054 226.184 231.08 226.25 231.08C226.316 231.08 226.38 231.054 226.427 231.007C226.474 230.96 226.5 230.896 226.5 230.83V220.75H236.72V230.83C236.72 230.896 236.746 230.96 236.793 231.007C236.84 231.054 236.904 231.08 236.97 231.08C237.036 231.08 237.1 231.054 237.147 231.007C237.194 230.96 237.22 230.896 237.22 230.83V220.75H247.45V230.83C247.45 230.896 247.476 230.96 247.523 231.007C247.57 231.054 247.634 231.08 247.7 231.08C247.766 231.08 247.83 231.054 247.877 231.007C247.924 230.96 247.95 230.896 247.95 230.83V220.75H258.17V230.83C258.17 230.896 258.196 230.96 258.243 231.007C258.29 231.054 258.354 231.08 258.42 231.08C258.486 231.08 258.55 231.054 258.597 231.007C258.644 230.96 258.67 230.896 258.67 230.83V220.75H268.9V230.83C268.9 230.896 268.926 230.96 268.973 231.007C269.02 231.054 269.084 231.08 269.15 231.08C269.216 231.08 269.28 231.054 269.327 231.007C269.374 230.96 269.4 230.896 269.4 230.83V220.75H271.7C271.766 220.75 271.83 220.724 271.877 220.677C271.924 220.63 271.95 220.566 271.95 220.5C271.95 220.434 271.924 220.37 271.877 220.323C271.83 220.276 271.766 220.25 271.7 220.25H269.4V210.86H271.7C271.766 210.86 271.83 210.834 271.877 210.787C271.924 210.74 271.95 210.676 271.95 210.61C271.95 210.544 271.924 210.48 271.877 210.433C271.83 210.386 271.766 210.36 271.7 210.36H269.4V201H271.7C271.766 201 271.83 200.974 271.877 200.927C271.924 200.88 271.95 200.816 271.95 200.75C271.95 200.684 271.924 200.62 271.877 200.573C271.83 200.526 271.766 200.5 271.7 200.5H269.4V191.11L271.66 191.09ZM193.79 220.25H183.57V210.86H193.79V220.25ZM193.79 210.36H183.57V201H193.79V210.36ZM193.79 200.48H183.57V191.09H193.79V200.48ZM193.79 190.59H183.57V181.21H193.79V190.59ZM204.52 220.25H194.29V210.86H204.52V220.25ZM204.52 210.36H194.29V201H204.52V210.36ZM204.52 200.48H194.29V191.09H204.52V200.48ZM204.52 190.59H194.29V181.21H204.52V190.59ZM215.24 220.25H205V210.86H215.22L215.24 220.25ZM215.24 210.36H205V201H215.22L215.24 210.36ZM215.24 200.48H205V191.09H215.22L215.24 200.48ZM215.24 190.59H205V181.21H215.22L215.24 190.59ZM226 220.25H215.74V210.86H226V220.25ZM226 210.36H215.74V201H226V210.36ZM226 200.48H215.74V191.09H226V200.48ZM226 190.59H215.74V181.21H226V190.59ZM236.72 220.25H226.46V210.86H236.68L236.72 220.25ZM236.72 210.36H226.46V201H236.68L236.72 210.36ZM236.72 200.48H226.46V191.09H236.68L236.72 200.48ZM236.72 190.59H226.46V181.21H236.68L236.72 190.59ZM247.45 220.25H237.18V210.86H247.41L247.45 220.25ZM247.45 210.36H237.18V201H247.41L247.45 210.36ZM247.45 200.48H237.18V191.09H247.41L247.45 200.48ZM247.45 190.59H237.18V181.21H247.41L247.45 190.59ZM258.17 220.25H247.91V210.86H258.13L258.17 220.25ZM258.17 210.36H247.91V201H258.13L258.17 210.36ZM258.17 200.48H247.91V191.09H258.13L258.17 200.48ZM258.17 190.59H247.91V181.21H258.13L258.17 190.59ZM268.9 220.25H258.63V210.86H268.86L268.9 220.25ZM268.9 210.36H258.63V201H268.86L268.9 210.36ZM268.9 200.48H258.63V191.09H268.86L268.9 200.48ZM268.9 190.59H258.63V181.21H268.86L268.9 190.59Z" fill="black"/>
<path d="M189.23 215.28H183.02V230.56H189.23V215.28Z" fill="#393ED0"/>
<path opacity="0.2" d="M189.24 215.28H187.28V230.56H189.24V215.28Z" fill="white"/>
<path d="M205.86 208.76H199.65V230.56H205.86V208.76Z" fill="#393ED0"/>
<path opacity="0.2" d="M205.86 208.76H203.9V230.56H205.86V208.76Z" fill="white"/>
<path d="M222.48 212.4H216.27V230.55H222.48V212.4Z" fill="#393ED0"/>
<path opacity="0.2" d="M222.49 212.4H220.53V230.55H222.49V212.4Z" fill="white"/>
<path d="M239.11 205.39H232.9V230.56H239.11V205.39Z" fill="#393ED0"/>
<path opacity="0.2" d="M239.11 205.39H237.15V230.56H239.11V205.39Z" fill="white"/>
<path d="M255.74 192.55H249.53V230.56H255.74V192.55Z" fill="#393ED0"/>
<path opacity="0.2" d="M255.74 192.55H253.78V230.56H255.74V192.55Z" fill="white"/>
<path d="M275.93 231.33H173.05C172.917 231.33 172.79 231.277 172.696 231.184C172.602 231.09 172.55 230.963 172.55 230.83V176.46C172.55 176.327 172.602 176.2 172.696 176.106C172.79 176.013 172.917 175.96 173.05 175.96C173.182 175.96 173.31 176.013 173.403 176.106C173.497 176.2 173.55 176.327 173.55 176.46V230.33H275.93C276.062 230.33 276.19 230.383 276.283 230.476C276.377 230.57 276.43 230.697 276.43 230.83C276.43 230.963 276.377 231.09 276.283 231.184C276.19 231.277 276.062 231.33 275.93 231.33Z" fill="#263238"/>
<path d="M175.7 218C175.613 218.001 175.529 217.979 175.453 217.937C175.378 217.895 175.315 217.834 175.27 217.76C175.204 217.644 175.186 217.507 175.219 217.378C175.253 217.249 175.336 217.139 175.45 217.07L185.87 210.87L201.69 204.32C201.784 204.29 201.885 204.29 201.98 204.32L219.33 207.93L235.74 201L261.2 181.5C261.307 181.423 261.439 181.39 261.57 181.409C261.7 181.428 261.819 181.496 261.9 181.6C261.98 181.705 262.016 181.837 261.999 181.969C261.982 182.1 261.914 182.219 261.81 182.3L236.3 201.79C236.265 201.814 236.228 201.834 236.19 201.85L219.57 208.85C219.475 208.88 219.374 208.88 219.28 208.85L201.93 205.24L186.32 211.7L176 217.91C175.913 217.973 175.807 218.004 175.7 218Z" fill="#263238"/>
<g opacity="0.5">
<path d="M275.93 231.33H173.05C172.917 231.33 172.79 231.277 172.696 231.184C172.602 231.09 172.55 230.963 172.55 230.83V176.46C172.55 176.327 172.602 176.2 172.696 176.106C172.79 176.013 172.917 175.96 173.05 175.96C173.182 175.96 173.31 176.013 173.403 176.106C173.497 176.2 173.55 176.327 173.55 176.46V230.33H275.93C276.062 230.33 276.19 230.383 276.283 230.476C276.377 230.57 276.43 230.697 276.43 230.83C276.43 230.963 276.377 231.09 276.283 231.184C276.19 231.277 276.062 231.33 275.93 231.33Z" fill="white"/>
</g>
<path d="M263.31 180.49L258.47 182.24L260.38 184.72L263.31 180.49Z" fill="#263238"/>
<path d="M304.41 205.28L310.62 225.67C307.391 226.653 303.974 226.855 300.652 226.26C297.329 225.665 294.195 224.29 291.508 222.247C288.821 220.204 286.657 217.552 285.195 214.51C283.733 211.468 283.014 208.122 283.097 204.747C283.181 201.373 284.064 198.067 285.675 195.1C287.286 192.134 289.578 189.592 292.363 187.685C295.147 185.777 298.345 184.558 301.693 184.128C305.041 183.698 308.443 184.069 311.62 185.21L304.41 205.28Z" fill="#393ED0"/>
<path d="M304.41 205.28L311.7 185.28C314.422 186.258 316.917 187.78 319.032 189.754C321.146 191.728 322.837 194.112 324 196.76L304.41 205.28Z" fill="#393ED0"/>
<path d="M304.41 205.28L324 196.85C325.185 199.598 325.777 202.564 325.739 205.556C325.701 208.548 325.034 211.498 323.78 214.215C322.527 216.932 320.715 219.354 318.463 221.324C316.211 223.294 313.569 224.768 310.71 225.65L304.41 205.28Z" fill="#393ED0"/>
<path opacity="0.7" d="M304.41 205.28L310.62 225.67C307.391 226.653 303.974 226.855 300.652 226.26C297.329 225.665 294.195 224.29 291.508 222.247C288.821 220.204 286.657 217.552 285.195 214.51C283.733 211.468 283.014 208.122 283.097 204.747C283.181 201.373 284.064 198.067 285.675 195.1C287.286 192.134 289.578 189.592 292.363 187.685C295.147 185.777 298.345 184.558 301.693 184.128C305.041 183.698 308.443 184.069 311.62 185.21L304.41 205.28Z" fill="white"/>
<path opacity="0.4" d="M304.41 205.28L324 196.85C325.185 199.598 325.777 202.564 325.739 205.556C325.701 208.548 325.034 211.498 323.78 214.215C322.527 216.932 320.715 219.354 318.463 221.324C316.211 223.294 313.569 224.768 310.71 225.65L304.41 205.28Z" fill="white"/>
<path opacity="0.1" d="M271.66 257.1C271.726 257.1 271.79 257.074 271.837 257.027C271.884 256.98 271.91 256.916 271.91 256.85C271.91 256.784 271.884 256.72 271.837 256.673C271.79 256.626 271.726 256.6 271.66 256.6H269.36V247.21H271.66C271.726 247.21 271.79 247.184 271.837 247.137C271.884 247.09 271.91 247.026 271.91 246.96C271.91 246.894 271.884 246.83 271.837 246.783C271.79 246.736 271.726 246.71 271.66 246.71H269.36V244.14C269.36 244.074 269.334 244.01 269.287 243.963C269.24 243.916 269.176 243.89 269.11 243.89C269.044 243.89 268.98 243.916 268.933 243.963C268.886 244.01 268.86 244.074 268.86 244.14V246.71H258.63V244.14C258.63 244.074 258.604 244.01 258.557 243.963C258.51 243.916 258.446 243.89 258.38 243.89C258.314 243.89 258.25 243.916 258.203 243.963C258.156 244.01 258.13 244.074 258.13 244.14V246.71H247.91V244.14C247.91 244.074 247.884 244.01 247.837 243.963C247.79 243.916 247.726 243.89 247.66 243.89C247.594 243.89 247.53 243.916 247.483 243.963C247.436 244.01 247.41 244.074 247.41 244.14V246.71H237.18V244.14C237.18 244.074 237.154 244.01 237.107 243.963C237.06 243.916 236.996 243.89 236.93 243.89C236.864 243.89 236.8 243.916 236.753 243.963C236.706 244.01 236.68 244.074 236.68 244.14V246.71H226.46V244.14C226.46 244.074 226.434 244.01 226.387 243.963C226.34 243.916 226.276 243.89 226.21 243.89C226.144 243.89 226.08 243.916 226.033 243.963C225.986 244.01 225.96 244.074 225.96 244.14V246.71H215.74V244.14C215.74 244.074 215.714 244.01 215.667 243.963C215.62 243.916 215.556 243.89 215.49 243.89C215.424 243.89 215.36 243.916 215.313 243.963C215.266 244.01 215.24 244.074 215.24 244.14V246.71H205V244.14C205 244.074 204.974 244.01 204.927 243.963C204.88 243.916 204.816 243.89 204.75 243.89C204.684 243.89 204.62 243.916 204.573 243.963C204.526 244.01 204.5 244.074 204.5 244.14V246.71H194.29V244.14C194.29 244.074 194.264 244.01 194.217 243.963C194.17 243.916 194.106 243.89 194.04 243.89C193.974 243.89 193.91 243.916 193.863 243.963C193.816 244.01 193.79 244.074 193.79 244.14V246.71H183.57V244.14C183.57 244.074 183.544 244.01 183.497 243.963C183.45 243.916 183.386 243.89 183.32 243.89C183.254 243.89 183.19 243.916 183.143 243.963C183.096 244.01 183.07 244.074 183.07 244.14V246.71H173V247.21H183.09V256.6H173V257.1H183.09V266.48H173V266.98H183.09V276.37H173V276.87H183.09V286.25H173V286.75H183.09V296.84C183.09 296.906 183.116 296.97 183.163 297.017C183.21 297.064 183.274 297.09 183.34 297.09C183.406 297.09 183.47 297.064 183.517 297.017C183.564 296.97 183.59 296.906 183.59 296.84V286.75H193.81V296.84C193.81 296.906 193.836 296.97 193.883 297.017C193.93 297.064 193.994 297.09 194.06 297.09C194.126 297.09 194.19 297.064 194.237 297.017C194.284 296.97 194.31 296.906 194.31 296.84V286.75H204.54V296.84C204.54 296.906 204.566 296.97 204.613 297.017C204.66 297.064 204.724 297.09 204.79 297.09C204.856 297.09 204.92 297.064 204.967 297.017C205.014 296.97 205.04 296.906 205.04 296.84V286.75H215.26V296.84C215.26 296.906 215.286 296.97 215.333 297.017C215.38 297.064 215.444 297.09 215.51 297.09C215.576 297.09 215.64 297.064 215.687 297.017C215.734 296.97 215.76 296.906 215.76 296.84V286.75H226V296.84C226 296.906 226.026 296.97 226.073 297.017C226.12 297.064 226.184 297.09 226.25 297.09C226.316 297.09 226.38 297.064 226.427 297.017C226.474 296.97 226.5 296.906 226.5 296.84V286.75H236.72V296.84C236.72 296.906 236.746 296.97 236.793 297.017C236.84 297.064 236.904 297.09 236.97 297.09C237.036 297.09 237.1 297.064 237.147 297.017C237.194 296.97 237.22 296.906 237.22 296.84V286.75H247.45V296.84C247.45 296.906 247.476 296.97 247.523 297.017C247.57 297.064 247.634 297.09 247.7 297.09C247.766 297.09 247.83 297.064 247.877 297.017C247.924 296.97 247.95 296.906 247.95 296.84V286.75H258.17V296.84C258.17 296.906 258.196 296.97 258.243 297.017C258.29 297.064 258.354 297.09 258.42 297.09C258.486 297.09 258.55 297.064 258.597 297.017C258.644 296.97 258.67 296.906 258.67 296.84V286.75H268.9V296.84C268.9 296.906 268.926 296.97 268.973 297.017C269.02 297.064 269.084 297.09 269.15 297.09C269.216 297.09 269.28 297.064 269.327 297.017C269.374 296.97 269.4 296.906 269.4 296.84V286.75H271.7C271.766 286.75 271.83 286.724 271.877 286.677C271.924 286.63 271.95 286.566 271.95 286.5C271.95 286.434 271.924 286.37 271.877 286.323C271.83 286.276 271.766 286.25 271.7 286.25H269.4V276.87H271.7C271.766 276.87 271.83 276.844 271.877 276.797C271.924 276.75 271.95 276.686 271.95 276.62C271.95 276.554 271.924 276.49 271.877 276.443C271.83 276.396 271.766 276.37 271.7 276.37H269.4V267H271.7C271.766 267 271.83 266.974 271.877 266.927C271.924 266.88 271.95 266.816 271.95 266.75C271.95 266.684 271.924 266.62 271.877 266.573C271.83 266.526 271.766 266.5 271.7 266.5H269.4V257.1H271.66ZM193.79 286.25H183.57V276.87H193.79V286.25ZM193.79 276.37H183.57V267H193.79V276.37ZM193.79 266.48H183.57V257.1H193.79V266.48ZM193.79 256.6H183.57V247.21H193.79V256.6ZM204.52 286.25H194.29V276.87H204.52V286.25ZM204.52 276.37H194.29V267H204.52V276.37ZM204.52 266.48H194.29V257.1H204.52V266.48ZM204.52 256.6H194.29V247.21H204.52V256.6ZM215.24 286.25H205V276.87H215.22L215.24 286.25ZM215.24 276.37H205V267H215.22L215.24 276.37ZM215.24 266.48H205V257.1H215.22L215.24 266.48ZM215.24 256.6H205V247.21H215.22L215.24 256.6ZM226 286.25H215.74V276.87H226V286.25ZM226 276.37H215.74V267H226V276.37ZM226 266.48H215.74V257.1H226V266.48ZM226 256.6H215.74V247.21H226V256.6ZM236.72 286.25H226.46V276.87H236.68L236.72 286.25ZM236.72 276.37H226.46V267H236.68L236.72 276.37ZM236.72 266.48H226.46V257.1H236.68L236.72 266.48ZM236.72 256.6H226.46V247.21H236.68L236.72 256.6ZM247.45 286.25H237.18V276.87H247.41L247.45 286.25ZM247.45 276.37H237.18V267H247.41L247.45 276.37ZM247.45 266.48H237.18V257.1H247.41L247.45 266.48ZM247.45 256.6H237.18V247.21H247.41L247.45 256.6ZM258.17 286.25H247.91V276.87H258.13L258.17 286.25ZM258.17 276.37H247.91V267H258.13L258.17 276.37ZM258.17 266.48H247.91V257.1H258.13L258.17 266.48ZM258.17 256.6H247.91V247.21H258.13L258.17 256.6ZM268.9 286.25H258.63V276.87H268.86L268.9 286.25ZM268.9 276.37H258.63V267H268.86L268.9 276.37ZM268.9 266.48H258.63V257.1H268.86L268.9 266.48ZM268.9 256.6H258.63V247.21H268.86L268.9 256.6Z" fill="black"/>
<path d="M173 286.25C173 286.25 179.53 276.37 183.59 276.37C187.87 276.37 190.14 281.88 193.81 281.88C197.48 281.88 200.1 269.75 204.54 269.75C208.98 269.75 211.31 284.83 215.76 284.83C220.21 284.83 224.44 266.48 229.14 266.48C233.84 266.48 234.34 272.25 236.7 272.25C239.53 272.25 241.7 256.6 247.93 256.6C253.93 256.6 253.93 266.48 258.65 266.48C263.37 266.48 262.37 250.98 269.38 250.98V297.09H173.05L173 286.25Z" fill="#393ED0"/>
<path opacity="0.4" d="M173 286.25C173 286.25 179.53 276.37 183.59 276.37C187.87 276.37 190.14 281.88 193.81 281.88C197.48 281.88 200.1 269.75 204.54 269.75C208.98 269.75 211.31 284.83 215.76 284.83C220.21 284.83 224.44 266.48 229.14 266.48C233.84 266.48 234.34 272.25 236.7 272.25C239.53 272.25 241.7 256.6 247.93 256.6C253.93 256.6 253.93 266.48 258.65 266.48C263.37 266.48 262.37 250.98 269.38 250.98V297.09H173.05L173 286.25Z" fill="white"/>
<path d="M173.4 286.53L172.56 285.98C172.83 285.56 179.29 275.87 183.56 275.87C185.97 275.87 187.72 277.41 189.41 278.87C190.85 280.14 192.2 281.34 193.78 281.34C195.36 281.34 196.78 278.61 198.18 275.97C200 272.65 201.88 269.21 204.51 269.21C207.14 269.21 208.76 273.01 210.57 277.04C212.09 280.44 213.83 284.29 215.73 284.29C217.63 284.29 219.83 279.67 221.73 275.59C224.11 270.59 226.36 265.94 229.06 265.94C232.06 265.94 233.5 268.07 234.63 269.78C235.32 270.78 235.91 271.71 236.63 271.71C237.35 271.71 238.63 268.81 239.54 266.48C241.42 261.84 243.76 256.06 247.85 256.06C251.32 256.06 252.94 259.06 254.37 261.71C255.6 263.98 256.66 265.94 258.57 265.94C260.32 265.94 261.25 262.94 262.24 259.69C263.57 255.36 265.08 250.44 269.3 250.44V251.44C265.82 251.44 264.48 255.79 263.19 259.99C262.1 263.56 261.06 266.99 258.57 266.99C256.08 266.99 254.75 264.57 253.49 262.23C252.13 259.71 250.72 257.11 247.85 257.11C244.43 257.11 242.23 262.54 240.46 266.91C239.09 270.3 238.1 272.76 236.63 272.76C235.37 272.76 234.63 271.6 233.79 270.38C232.79 268.79 231.55 266.99 229.06 266.99C226.99 266.99 224.68 271.82 222.63 276.08C220.35 280.84 218.19 285.34 215.68 285.34C213.17 285.34 211.42 281.53 209.6 277.5C208.08 274.11 206.35 270.26 204.46 270.26C202.57 270.26 200.61 273.57 199.01 276.5C197.41 279.43 195.78 282.39 193.73 282.39C191.68 282.39 190.21 281.01 188.73 279.67C187.25 278.33 185.58 276.88 183.55 276.88C180.46 276.87 175.17 283.84 173.4 286.53Z" fill="#393ED0"/>
<path d="M193 289.55C192.893 289.56 192.786 289.56 192.68 289.55C190.33 289.27 189.04 286.45 187.99 284.18C187.677 283.447 187.316 282.735 186.91 282.05C185.85 280.45 184.66 279.71 183.37 279.86C181.37 280.1 179.64 281.76 178.09 283.22L177.42 283.85C176.02 285.14 174.65 286.5 173.37 287.91L172.63 287.24C173.94 285.81 175.32 284.42 176.74 283.11C176.96 282.92 177.17 282.71 177.4 282.5C178.98 281 180.95 279.14 183.26 278.87C184.92 278.66 186.48 279.58 187.74 281.5C188.181 282.224 188.569 282.979 188.9 283.76C189.84 285.76 191.01 288.34 192.8 288.56C194.59 288.78 196.6 285.44 197.73 283.44C197.94 283.05 198.14 282.71 198.31 282.44C198.98 281.34 199.63 280.23 200.31 279.12C201.42 277.22 202.58 275.24 203.82 273.37C204.797 271.879 205.869 270.453 207.03 269.1C208.7 267.17 210.3 266.19 211.8 266.18C212.399 266.192 212.988 266.338 213.522 266.609C214.057 266.879 214.525 267.265 214.89 267.74C216.447 269.69 217.668 271.887 218.5 274.24C219.093 275.763 219.799 277.241 220.61 278.66C220.923 279.257 221.389 279.761 221.96 280.12C222.89 280.59 223.96 279.8 224.66 279.04C226.281 277.228 227.712 275.254 228.93 273.15L229.25 272.64C229.39 272.41 229.54 272.16 229.69 271.89C230.69 270.18 232.09 267.82 234.33 267.76C235.76 267.76 236.82 269.03 237.81 270.3C238.95 271.75 239.71 272.6 240.63 272.3C241.026 272.114 241.37 271.832 241.63 271.48C243.289 269.349 244.636 266.992 245.63 264.48C246 263.66 246.36 262.84 246.74 262.04C246.969 261.518 247.268 261.03 247.63 260.59C247.897 260.237 248.251 259.959 248.658 259.784C249.065 259.609 249.51 259.542 249.95 259.59C251.95 259.92 253.46 263.2 254.33 265.17C254.45 265.43 254.55 265.66 254.64 265.84L254.77 266.12C255.66 267.98 256.58 269.91 258.06 270.43C258.497 270.552 258.953 270.586 259.403 270.529C259.853 270.472 260.287 270.326 260.68 270.1L261.56 269.67C264.11 268.42 266.31 267.34 269.47 267.34V268.34C266.54 268.34 264.53 269.34 262 270.56L261.11 271C260.601 271.288 260.039 271.47 259.458 271.533C258.877 271.597 258.289 271.541 257.73 271.37C255.85 270.71 254.8 268.5 253.87 266.55L253.74 266.27C253.65 266.08 253.54 265.85 253.42 265.57C252.73 264.03 251.31 260.82 249.79 260.57C249.514 260.555 249.239 260.611 248.991 260.732C248.742 260.852 248.529 261.034 248.37 261.26C248.074 261.631 247.832 262.042 247.65 262.48C247.26 263.27 246.91 264.08 246.55 264.88C245.534 267.479 244.154 269.92 242.45 272.13C242.083 272.615 241.598 272.998 241.04 273.24C239.36 273.86 238.16 272.33 237.04 270.97C236.2 269.91 235.34 268.81 234.39 268.81C232.71 268.81 231.54 270.81 230.6 272.45C230.43 272.73 230.28 272.99 230.13 273.22L229.82 273.73C228.562 275.894 227.088 277.924 225.42 279.79C224.06 281.22 222.71 281.66 221.55 281.07C220.808 280.629 220.203 279.993 219.8 279.23C218.961 277.77 218.232 276.249 217.62 274.68C216.832 272.427 215.669 270.324 214.18 268.46C213.908 268.099 213.56 267.802 213.161 267.589C212.762 267.377 212.321 267.254 211.87 267.23C210.67 267.23 209.32 268.11 207.87 269.8C206.742 271.122 205.7 272.515 204.75 273.97C203.51 275.82 202.37 277.78 201.26 279.68C200.61 280.79 199.95 281.91 199.26 283.01C199.1 283.28 198.91 283.62 198.7 284.01C197.3 286.18 195.4 289.55 193 289.55Z" fill="#263238"/>
<path opacity="0.7" d="M193 289.55C192.893 289.56 192.786 289.56 192.68 289.55C190.33 289.27 189.04 286.45 187.99 284.18C187.677 283.447 187.316 282.735 186.91 282.05C185.85 280.45 184.66 279.71 183.37 279.86C181.37 280.1 179.64 281.76 178.09 283.22L177.42 283.85C176.02 285.14 174.65 286.5 173.37 287.91L172.63 287.24C173.94 285.81 175.32 284.42 176.74 283.11C176.96 282.92 177.17 282.71 177.4 282.5C178.98 281 180.95 279.14 183.26 278.87C184.92 278.66 186.48 279.58 187.74 281.5C188.181 282.224 188.569 282.979 188.9 283.76C189.84 285.76 191.01 288.34 192.8 288.56C194.59 288.78 196.6 285.44 197.73 283.44C197.94 283.05 198.14 282.71 198.31 282.44C198.98 281.34 199.63 280.23 200.31 279.12C201.42 277.22 202.58 275.24 203.82 273.37C204.797 271.879 205.869 270.453 207.03 269.1C208.7 267.17 210.3 266.19 211.8 266.18C212.399 266.192 212.988 266.338 213.522 266.609C214.057 266.879 214.525 267.265 214.89 267.74C216.447 269.69 217.668 271.887 218.5 274.24C219.093 275.763 219.799 277.241 220.61 278.66C220.923 279.257 221.389 279.761 221.96 280.12C222.89 280.59 223.96 279.8 224.66 279.04C226.281 277.228 227.712 275.254 228.93 273.15L229.25 272.64C229.39 272.41 229.54 272.16 229.69 271.89C230.69 270.18 232.09 267.82 234.33 267.76C235.76 267.76 236.82 269.03 237.81 270.3C238.95 271.75 239.71 272.6 240.63 272.3C241.026 272.114 241.37 271.832 241.63 271.48C243.289 269.349 244.636 266.992 245.63 264.48C246 263.66 246.36 262.84 246.74 262.04C246.969 261.518 247.268 261.03 247.63 260.59C247.897 260.237 248.251 259.959 248.658 259.784C249.065 259.609 249.51 259.542 249.95 259.59C251.95 259.92 253.46 263.2 254.33 265.17C254.45 265.43 254.55 265.66 254.64 265.84L254.77 266.12C255.66 267.98 256.58 269.91 258.06 270.43C258.497 270.552 258.953 270.586 259.403 270.529C259.853 270.472 260.287 270.326 260.68 270.1L261.56 269.67C264.11 268.42 266.31 267.34 269.47 267.34V268.34C266.54 268.34 264.53 269.34 262 270.56L261.11 271C260.601 271.288 260.039 271.47 259.458 271.533C258.877 271.597 258.289 271.541 257.73 271.37C255.85 270.71 254.8 268.5 253.87 266.55L253.74 266.27C253.65 266.08 253.54 265.85 253.42 265.57C252.73 264.03 251.31 260.82 249.79 260.57C249.514 260.555 249.239 260.611 248.991 260.732C248.742 260.852 248.529 261.034 248.37 261.26C248.074 261.631 247.832 262.042 247.65 262.48C247.26 263.27 246.91 264.08 246.55 264.88C245.534 267.479 244.154 269.92 242.45 272.13C242.083 272.615 241.598 272.998 241.04 273.24C239.36 273.86 238.16 272.33 237.04 270.97C236.2 269.91 235.34 268.81 234.39 268.81C232.71 268.81 231.54 270.81 230.6 272.45C230.43 272.73 230.28 272.99 230.13 273.22L229.82 273.73C228.562 275.894 227.088 277.924 225.42 279.79C224.06 281.22 222.71 281.66 221.55 281.07C220.808 280.629 220.203 279.993 219.8 279.23C218.961 277.77 218.232 276.249 217.62 274.68C216.832 272.427 215.669 270.324 214.18 268.46C213.908 268.099 213.56 267.802 213.161 267.589C212.762 267.377 212.321 267.254 211.87 267.23C210.67 267.23 209.32 268.11 207.87 269.8C206.742 271.122 205.7 272.515 204.75 273.97C203.51 275.82 202.37 277.78 201.26 279.68C200.61 280.79 199.95 281.91 199.26 283.01C199.1 283.28 198.91 283.62 198.7 284.01C197.3 286.18 195.4 289.55 193 289.55Z" fill="white"/>
<path d="M173.31 286.63L172.65 285.88C172.87 285.68 178.11 281.06 183 281.06C185.023 281.086 187.021 281.511 188.88 282.31C190.429 282.995 192.097 283.369 193.79 283.41C195.79 283.41 197.6 280.8 199.35 278.27C201.1 275.74 202.64 273.53 204.52 273.53C206.4 273.53 207.95 275.29 209.64 277.15C211.33 279.01 213.2 281.06 215.24 281.06C217.28 281.06 220.03 277.88 222.52 275.06C225.22 272.06 227.76 269.15 229.89 269.15C230.857 269.184 231.808 269.413 232.684 269.824C233.56 270.235 234.345 270.818 234.99 271.54C235.74 272.22 236.33 272.76 236.99 272.76C237.51 272.5 238.75 269.23 239.74 266.6C242.06 260.5 244.68 253.6 247.95 253.6C250.85 253.6 252.95 257.93 254.95 262.13C256.37 265.04 257.95 268.35 259.26 268.35C260.57 268.35 261.87 266.42 263.19 264.35C264.81 261.85 266.64 259.03 269.3 259.03H269.37V260.03C267.23 260.03 265.6 262.48 264.04 264.89C262.48 267.3 261.17 269.31 259.27 269.31C257.37 269.31 255.83 266.17 254.06 262.52C252.29 258.87 250.2 254.52 247.93 254.52C245.35 254.52 242.53 261.97 240.66 266.9C238.79 271.83 237.99 273.7 236.97 273.7C235.941 273.548 235.004 273.021 234.34 272.22C233.783 271.585 233.103 271.07 232.342 270.704C231.581 270.338 230.754 270.129 229.91 270.09C228.23 270.09 225.72 272.92 223.29 275.67C220.4 278.92 217.67 282 215.29 282C212.91 282 210.85 279.84 208.95 277.76C207.41 276.07 205.95 274.47 204.57 274.47C203.19 274.47 201.69 276.67 200.22 278.78C198.32 281.52 196.36 284.35 193.84 284.35C192.028 284.309 190.241 283.915 188.58 283.19C186.832 282.435 184.953 282.031 183.05 282C178.49 282.06 173.36 286.58 173.31 286.63Z" fill="#263238"/>
<path d="M275.93 297.34H173.05C172.917 297.34 172.79 297.287 172.696 297.194C172.602 297.1 172.55 296.973 172.55 296.84V242.46C172.55 242.327 172.602 242.2 172.696 242.106C172.79 242.013 172.917 241.96 173.05 241.96C173.182 241.96 173.31 242.013 173.403 242.106C173.497 242.2 173.55 242.327 173.55 242.46V296.34H275.93C276.062 296.34 276.19 296.393 276.283 296.486C276.377 296.58 276.43 296.707 276.43 296.84C276.43 296.973 276.377 297.1 276.283 297.194C276.19 297.287 276.062 297.34 275.93 297.34Z" fill="#263238"/>
<g opacity="0.5">
<path d="M275.93 297.34H173.05C172.917 297.34 172.79 297.287 172.696 297.194C172.602 297.1 172.55 296.973 172.55 296.84V242.46C172.55 242.327 172.602 242.2 172.696 242.106C172.79 242.013 172.917 241.96 173.05 241.96C173.182 241.96 173.31 242.013 173.403 242.106C173.497 242.2 173.55 242.327 173.55 242.46V296.34H275.93C276.062 296.34 276.19 296.393 276.283 296.486C276.377 296.58 276.43 296.707 276.43 296.84C276.43 296.973 276.377 297.1 276.283 297.194C276.19 297.287 276.062 297.34 275.93 297.34Z" fill="white"/>
</g>
<g opacity="0.3">
<path d="M323.11 250.48H298.47V251.48H323.11V250.48Z" fill="black"/>
<path d="M323.11 253.32H298.47V254.32H323.11V253.32Z" fill="black"/>
<path d="M323.11 256.15H298.47V257.15H323.11V256.15Z" fill="black"/>
<path d="M313.11 258.99H298.47V259.99H313.11V258.99Z" fill="black"/>
</g>
<g opacity="0.3">
<path d="M323.11 266.99H298.47V267.99H323.11V266.99Z" fill="black"/>
<path d="M323.11 269.82H298.47V270.82H323.11V269.82Z" fill="black"/>
<path d="M323.11 272.66H298.47V273.66H323.11V272.66Z" fill="black"/>
<path d="M306.11 275.5H298.47V276.5H306.11V275.5Z" fill="black"/>
</g>
<g opacity="0.3">
<path d="M323.11 283.5H298.47V284.5H323.11V283.5Z" fill="black"/>
<path d="M323.11 286.33H298.47V287.33H323.11V286.33Z" fill="black"/>
<path d="M323.11 289.17H298.47V290.17H323.11V289.17Z" fill="black"/>
<path d="M318.11 292H298.47V293H318.11V292Z" fill="black"/>
</g>
<path d="M364.57 88.86H333C330.119 88.8626 327.357 90.009 325.32 92.0472C323.284 94.0855 322.14 96.8488 322.14 99.73V130.44C322.14 133.32 323.284 136.083 325.321 138.119C327.358 140.156 330.12 141.3 333 141.3H350.59L355.94 152.77L357.94 141.3H364.64C367.521 141.3 370.285 140.156 372.323 138.12C374.361 136.083 375.507 133.321 375.51 130.44V99.73C375.51 98.2966 375.227 96.8774 374.676 95.554C374.125 94.2306 373.318 93.0292 372.302 92.0189C371.285 91.0086 370.078 90.2094 368.751 89.6672C367.425 89.1251 366.003 88.8507 364.57 88.86Z" fill="#393ED0"/>
<path d="M356.34 116.38C357.6 113.11 360.68 111.25 363.24 112.23C365.8 113.21 366.84 116.66 365.59 119.93C364.34 123.2 361.24 125.05 358.69 124.07C356.14 123.09 355.08 119.65 356.34 116.38Z" fill="#393ED0"/>
<path d="M335.6 108.54L339.88 97C339.88 97 345.2 105.14 351.51 107.56L349.31 113.29L348.96 114.19L346.76 119.93C340.45 117.5 331.05 119.93 331.05 119.93L335.6 108.54Z" fill="#393ED0"/>
<path opacity="0.8" d="M356.34 116.38C357.6 113.11 360.68 111.25 363.24 112.23C365.8 113.21 366.84 116.66 365.59 119.93C364.34 123.2 361.24 125.05 358.69 124.07C356.14 123.09 355.08 119.65 356.34 116.38Z" fill="white"/>
<path opacity="0.8" d="M335.6 108.54L339.88 97C339.88 97 345.2 105.14 351.51 107.56L349.31 113.29L348.96 114.19L346.76 119.93C340.45 117.5 331.05 119.93 331.05 119.93L335.6 108.54Z" fill="white"/>
<path d="M357.64 122.59C357.64 122.59 354.31 129.28 350.7 132.07C350.582 132.172 350.431 132.228 350.275 132.228C350.119 132.228 349.968 132.172 349.85 132.07L345.85 128.4C345.784 128.331 345.733 128.249 345.702 128.158C345.671 128.068 345.66 127.972 345.669 127.877C345.679 127.782 345.709 127.69 345.757 127.608C345.806 127.525 345.872 127.454 345.95 127.4C347.5 126.4 351.09 123.99 352.95 121.04C355.39 117.11 357.64 122.59 357.64 122.59Z" fill="#263238"/>
<path d="M331.15 120.28C332.6 120.84 335.79 116.04 338.27 109.57C340.75 103.1 341.6 97.41 340.15 96.85C338.7 96.29 335.52 101.09 333.03 107.56C330.54 114.03 329.71 119.72 331.15 120.28Z" fill="white"/>
<path opacity="0.4" d="M339.85 99.62C339.575 102.457 338.902 105.241 337.85 107.89L337.44 108.98C337.32 109.28 337.21 109.59 337.08 109.88C336.087 112.528 334.741 115.031 333.08 117.32C332.39 118.18 331.8 118.6 331.4 118.44C330.24 118 331.07 113.04 333.25 107.37C335.43 101.7 338.13 97.46 339.25 97.9C339.7 98 339.87 98.66 339.85 99.62Z" fill="black"/>
<path opacity="0.2" d="M339.85 99.62C339.575 102.457 338.902 105.241 337.85 107.89L337.44 108.98C337.32 109.28 337.21 109.59 337.08 109.88C336.087 112.528 334.741 115.031 333.08 117.32C333.413 114.109 334.229 110.967 335.5 108C336.542 105.013 338.007 102.191 339.85 99.62Z" fill="black"/>
<path d="M359.39 125.11C359.39 125.11 360.68 123.88 362.62 118.84C364.71 113.39 364.43 111.99 364.43 111.99L350.34 106.58C350.34 106.58 350.44 108.43 348.48 113.58C346.52 118.73 345.3 119.73 345.3 119.73L359.39 125.11Z" fill="#263238"/>
<path d="M337.11 109.88C337.24 109.58 337.35 109.28 337.47 108.97C337.59 108.66 337.75 108.24 337.88 107.88L336.47 107.65C336.32 107.63 336.168 107.664 336.041 107.747C335.915 107.829 335.822 107.955 335.78 108.1L335.7 108.31C335.633 108.445 335.618 108.599 335.657 108.744C335.695 108.89 335.785 109.016 335.91 109.1L337.11 109.88Z" fill="white"/>
<path opacity="0.2" d="M337.11 109.88C337.24 109.58 337.35 109.28 337.47 108.97C337.59 108.66 337.75 108.24 337.88 107.88L336.47 107.65C336.32 107.63 336.168 107.664 336.041 107.747C335.915 107.829 335.822 107.955 335.78 108.1L335.7 108.31C335.633 108.445 335.618 108.599 335.657 108.744C335.695 108.89 335.785 109.016 335.91 109.1L337.11 109.88Z" fill="black"/>
<path opacity="0.2" d="M359.39 125.11C359.39 125.11 360.68 123.88 362.62 118.84C364.71 113.39 364.43 111.99 364.43 111.99L350.34 106.58C350.34 106.58 350.44 108.43 348.48 113.58C346.52 118.73 345.3 119.73 345.3 119.73L359.39 125.11Z" fill="white"/>
<path d="M372.02 410.29H364.87L364.58 393.73H371.73L372.02 410.29Z" fill="#E4897B"/>
<path d="M364.94 409.46H372.75C372.891 409.46 373.028 409.508 373.138 409.598C373.247 409.687 373.322 409.811 373.35 409.95L374.6 416.31C374.629 416.465 374.624 416.625 374.584 416.779C374.545 416.932 374.471 417.074 374.37 417.196C374.269 417.317 374.142 417.415 373.998 417.481C373.855 417.547 373.698 417.581 373.54 417.58C370.72 417.53 366.66 417.36 363.11 417.36C358.98 417.36 355.39 417.59 350.54 417.59C347.6 417.59 346.86 414.59 348.1 414.35C353.72 413.13 358.3 413 363.2 410.02C363.717 409.676 364.319 409.482 364.94 409.46Z" fill="#263238"/>
<path d="M374.37 404.91H361.72C360.37 388.6 355.97 334.22 355.72 315.62C355.55 300.72 356.64 270.62 357.3 254.08H382C380.68 270.53 378.34 300.74 377.51 317.3C376.63 335.53 374.89 388.79 374.37 404.91Z" fill="#393ED0"/>
<path opacity="0.7" d="M355.75 315.62C355.97 334.22 360.36 388.62 361.75 404.91H374.41C374.79 392.75 375.88 359.43 376.79 335.99C377.08 328.36 377.35 321.78 377.58 317.3C378.08 307.3 379.13 292.42 380.16 278.54C380.85 269.36 381.53 260.63 382.06 254.08H357.33C356.67 270.58 355.58 300.72 355.75 315.62Z" fill="white"/>
<path d="M359.9 402.39C359.84 402.39 360.46 407.39 360.46 407.39H375.19L375.7 402.9L359.9 402.39Z" fill="#393ED0"/>
<path opacity="0.1" d="M376.75 336C377.04 328.37 377.31 321.79 377.54 317.31C378.04 307.31 378.81 296.24 379.84 282.36C377.05 281.58 372.49 279.56 371.6 278.01L374.84 282.35C374.3 293 374.92 317.91 376.75 336Z" fill="black"/>
<path d="M398.16 410.29H391.01L389.98 393.73H397.13L398.16 410.29Z" fill="#E4897B"/>
<path d="M399.87 404.91H387.22C386.49 399.2 385.22 388.83 383.76 376.91C381.1 354.91 377.99 327.67 377.32 315.58C376.91 308.05 376.64 296.63 376.47 285.04C376.3 273.7 376.23 262.21 376.19 254.04H399.19C399.57 274.52 399.29 300.69 399.19 317.25C399.07 335.53 399.68 388.79 399.87 404.91Z" fill="#393ED0"/>
<path opacity="0.7" d="M399.87 404.91H387.22C386.49 399.2 385.22 388.83 383.76 376.91C381.1 354.91 377.99 327.67 377.32 315.58C376.91 308.05 376.64 296.63 376.47 285.04C376.3 273.7 376.23 262.21 376.19 254.04H399.19C399.57 274.52 399.29 300.69 399.19 317.25C399.07 335.53 399.68 388.79 399.87 404.91Z" fill="white"/>
<path d="M385.39 402.39C385.34 402.39 386.17 407.39 386.17 407.39H400.91L401.22 402.9L385.39 402.39Z" fill="#393ED0"/>
<path opacity="0.6" d="M359.9 402.39C359.84 402.39 360.46 407.39 360.46 407.39H375.19L375.7 402.9L359.9 402.39Z" fill="white"/>
<path opacity="0.6" d="M385.39 402.39C385.34 402.39 386.17 407.39 386.17 407.39H400.91L401.22 402.9L385.39 402.39Z" fill="white"/>
<path d="M391 409.46H398.81C398.952 409.459 399.091 409.507 399.202 409.597C399.313 409.686 399.39 409.811 399.42 409.95L400.95 416.31C400.992 416.462 400.999 416.621 400.968 416.776C400.937 416.93 400.87 417.076 400.773 417.199C400.675 417.323 400.55 417.422 400.407 417.488C400.264 417.554 400.107 417.586 399.95 417.58C397.13 417.53 393.06 417.36 389.52 417.36C385.38 417.36 381.81 417.59 376.95 417.59C374.02 417.59 373.15 414.59 374.37 414.35C379.94 413.13 384.51 413 389.29 410.02C389.794 409.672 390.388 409.478 391 409.46Z" fill="#263238"/>
<path d="M322.94 208.6L315.15 203.1L320.98 197.1C320.98 197.1 326.98 200.18 326.39 205.7L322.94 208.6Z" fill="#E4897B"/>
<path d="M312.09 197.05L317.5 193.65L320.98 197.15L315.15 203.1L312.09 197.05Z" fill="#E4897B"/>
<path d="M361.32 194.41C353.92 196.59 350.32 209.58 344.19 221.85L326.43 204.21L320.79 209.21C320.79 209.21 337.05 235.03 344.73 235.04C354.3 235.04 364.25 208.42 364.25 208.42L361.32 194.41Z" fill="#263238"/>
<path opacity="0.1" d="M364.25 208.44C364.25 208.44 362.67 212.65 360.17 217.73C357.75 222.65 354.45 228.39 350.88 231.86C348.88 233.81 346.79 235.05 344.72 235.05C337.05 235.05 320.8 209.22 320.8 209.22L326.43 204.22L344.19 221.86C350.28 209.59 353.92 196.6 361.32 194.42L364.25 208.44Z" fill="white"/>
<path opacity="0.2" d="M360.17 217.73C357.75 222.65 354.45 228.39 350.88 231.86C351.27 220.09 357.04 208.6 357.04 208.6C358.655 211.416 359.717 214.515 360.17 217.73Z" fill="black"/>
<path d="M403.19 196.4C396.89 231.4 399.19 254.09 399.19 254.09C399.19 254.09 369.38 254.77 357.34 254.09C350.92 211.63 361.34 194.41 361.34 194.41C364.483 193.777 367.663 193.34 370.86 193.1C371.53 193.1 372.22 193.02 372.92 192.99C378.601 193 384.277 193.333 389.92 193.99C390.99 194.1 392.08 194.25 393.13 194.4C398.46 195.16 403.19 196.4 403.19 196.4Z" fill="#263238"/>
<path opacity="0.1" d="M403.19 196.39C402.41 200.74 401.76 204.9 401.19 208.83C400.35 215.05 399.78 220.75 399.41 225.83C399.3 227.37 399.2 228.83 399.12 230.28C398.82 235.51 398.74 239.96 398.75 243.57C398.75 250.35 399.16 254.08 399.16 254.08C399.16 254.08 369.35 254.77 357.31 254.08C350.88 211.63 361.31 194.41 361.31 194.41C364.453 193.778 367.632 193.344 370.83 193.11C371.5 193.05 372.19 193.02 372.89 192.99C378.571 193 384.247 193.334 389.89 193.99C390.95 194.1 392.03 194.25 393.09 194.4C398.46 195.16 403.19 196.39 403.19 196.39Z" fill="white"/>
<path d="M387.44 193.61C384.88 196.29 380.84 198.53 374.38 198.29C369.43 198.1 368.74 194.98 369.61 193.29C372.61 192.67 373.98 191.36 374.39 189.7C374.8 188.04 374.23 185.78 373.39 183.7L381.74 176.7L383.16 175.51C383.16 175.91 383.1 176.33 383.08 176.78C382.985 178.412 382.985 180.048 383.08 181.68C383.34 186.23 384.43 191.25 387.44 193.61Z" fill="#E4897B"/>
<path opacity="0.2" d="M383.07 181.63C381.51 184.81 378.78 188.63 374.39 189.69C374.85 187.92 374.23 185.77 373.39 183.69L381.74 176.69C382.19 176.69 382.63 176.69 383.08 176.77C382.983 178.388 382.98 180.011 383.07 181.63Z" fill="black"/>
<path d="M379 199.15C377.49 200.01 376 200.87 374.46 201.75C373.848 213.155 373.822 224.583 374.38 235.99C373.62 237.27 372.87 238.55 372.13 239.85C371.13 238.44 370.21 237.03 369.27 235.6C369.865 224.238 371.036 212.913 372.78 201.67C372.26 200.67 371.78 199.67 371.24 198.67L375.75 197.04C376.82 197.74 377.91 198.45 379 199.15Z" fill="white"/>
<path opacity="0.2" d="M374.18 227.19C385.3 227.62 394.38 229.05 399.18 228.98C398.88 234.2 398.8 239.98 398.81 243.57C377.81 239.45 371.21 233.57 371.21 233.57L374.18 227.19Z" fill="black"/>
<path opacity="0.2" d="M401.22 208.83C400.38 215.05 399.81 220.75 399.44 225.83C395.44 217.67 398.44 207.83 398.44 207.83L401.22 208.83Z" fill="black"/>
<path d="M363.88 162.66C362.65 165.47 362.5 171.48 366.77 169.99C371.04 168.5 366 157.85 363.88 162.66Z" fill="#263238"/>
<path d="M384.36 168.87C383.99 176.38 384.16 180.79 380.41 184.65C374.77 190.46 365.41 187.05 363.56 179.56C361.86 172.82 362.75 161.68 370.07 158.67C371.692 158.004 373.457 157.76 375.2 157.962C376.942 158.164 378.605 158.804 380.032 159.823C381.46 160.842 382.606 162.206 383.362 163.789C384.119 165.371 384.462 167.119 384.36 168.87Z" fill="#E4897B"/>
<path d="M373 171C373 171.61 372.69 172.1 372.29 172.1C371.89 172.1 371.56 171.61 371.56 171C371.56 170.39 371.87 169.89 372.27 169.89C372.67 169.89 373 170.38 373 171Z" fill="#263238"/>
<path d="M366.07 171C366.07 171.61 365.75 172.11 365.35 172.11C364.95 172.11 364.62 171.62 364.62 171.01C364.62 170.4 364.93 169.9 365.33 169.9C365.73 169.9 366.06 170.4 366.07 171Z" fill="#263238"/>
<path d="M368.27 171.31C367.536 173.119 366.557 174.818 365.36 176.36C365.784 176.64 366.262 176.828 366.764 176.911C367.265 176.993 367.778 176.969 368.27 176.84V171.31Z" fill="#DE5753"/>
<path d="M375.09 168.76C375.026 168.768 374.961 168.76 374.901 168.735C374.841 168.711 374.789 168.671 374.75 168.62C374.484 168.256 374.136 167.958 373.735 167.752C373.334 167.545 372.891 167.435 372.44 167.43C372.345 167.436 372.251 167.405 372.179 167.343C372.106 167.282 372.06 167.195 372.05 167.1C372.046 167.053 372.051 167.005 372.065 166.96C372.08 166.915 372.103 166.873 372.134 166.836C372.164 166.8 372.202 166.77 372.244 166.749C372.286 166.727 372.332 166.714 372.38 166.71C372.952 166.708 373.516 166.84 374.027 167.098C374.538 167.355 374.981 167.729 375.32 168.19C375.36 168.239 375.386 168.297 375.395 168.359C375.405 168.421 375.398 168.485 375.374 168.543C375.35 168.602 375.312 168.653 375.262 168.691C375.212 168.729 375.152 168.753 375.09 168.76Z" fill="#263238"/>
<path d="M363.05 168.64C362.984 168.659 362.915 168.659 362.85 168.64C362.807 168.62 362.769 168.591 362.737 168.556C362.705 168.521 362.681 168.48 362.665 168.435C362.649 168.391 362.643 168.343 362.645 168.296C362.648 168.249 362.659 168.203 362.68 168.16C362.916 167.647 363.272 167.198 363.717 166.85C364.163 166.502 364.685 166.266 365.24 166.16C365.333 166.151 365.427 166.178 365.501 166.236C365.575 166.293 365.625 166.377 365.64 166.47C365.654 166.564 365.63 166.66 365.574 166.737C365.518 166.814 365.434 166.865 365.34 166.88C364.899 166.966 364.486 167.158 364.138 167.441C363.789 167.723 363.515 168.087 363.34 168.5C363.307 168.545 363.263 168.582 363.212 168.607C363.162 168.631 363.106 168.642 363.05 168.64Z" fill="#263238"/>
<path d="M372.57 162.85C372.57 162.85 374.64 161.38 375.57 162.97C376.5 164.56 376.46 168.82 376.46 168.82L376.87 168.06C376.87 168.06 379.53 177.54 383.4 175.16C387.27 172.78 392.95 163.16 383.92 158.24C383.92 158.24 382.92 155.95 376.99 154.82C371.06 153.69 363.81 157.38 362.58 161.32C361.35 165.26 363.07 167.46 363.07 167.46C363.268 166.602 363.662 165.801 364.22 165.12C364.298 165.523 364.475 165.9 364.736 166.218C364.996 166.536 365.33 166.784 365.71 166.94C365.649 166.134 365.815 165.326 366.19 164.61C366.382 165.308 366.723 165.957 367.19 166.51C367.62 162.45 370.38 161.62 371.26 161.65C371.579 161.681 371.879 161.815 372.115 162.032C372.351 162.248 372.511 162.535 372.57 162.85Z" fill="#263238"/>
<path d="M387.33 175.09C387.059 175.983 386.613 176.813 386.017 177.53C385.421 178.248 384.687 178.84 383.86 179.27C381.63 180.41 380 178.53 380.18 176.16C380.35 174.03 381.7 170.87 384.18 170.72C384.712 170.701 385.241 170.814 385.719 171.048C386.197 171.283 386.611 171.631 386.922 172.063C387.234 172.496 387.434 172.998 387.505 173.526C387.576 174.054 387.516 174.591 387.33 175.09Z" fill="#E4897B"/>
<path d="M368.51 179.36C369.154 180.033 369.749 180.752 370.29 181.51L370.73 181.29C372.73 180.29 373.31 179.17 373.37 178.22C373.379 177.761 373.284 177.306 373.09 176.89C372.987 176.651 372.849 176.428 372.68 176.23C371.724 177.395 370.531 178.343 369.18 179.01C368.78 179.24 368.51 179.36 368.51 179.36Z" fill="#263238"/>
<path d="M369.18 179L369.72 179.62C371.6 178.67 372.79 177.75 373.09 176.88C372.987 176.641 372.849 176.418 372.68 176.22C371.724 177.385 370.531 178.333 369.18 179Z" fill="white"/>
<path d="M370.73 181.29C372.73 180.29 373.31 179.17 373.37 178.22C372.615 178.615 371.937 179.144 371.37 179.78C371.004 180.204 370.78 180.732 370.73 181.29Z" fill="#A24E3F"/>
<path d="M386.24 190.55C386.24 190.55 383.89 193.55 375.45 196.4C374.056 194.896 373.189 192.98 372.98 190.94L368.51 192.94C368.51 192.94 367.15 197.03 369.18 199.94L375.4 197.16L380.17 201.22C380.17 201.22 387.94 196.28 389.34 193.83L386.24 190.55Z" fill="#263238"/>
<path d="M372.82 244.07H351.51C351.105 244.064 350.716 243.909 350.419 243.634C350.122 243.359 349.937 242.983 349.9 242.58L346.9 214.3C346.88 214.111 346.901 213.919 346.96 213.738C347.02 213.557 347.117 213.391 347.245 213.25C347.374 213.109 347.531 212.997 347.706 212.921C347.88 212.846 348.069 212.808 348.26 212.81H369.56C369.966 212.816 370.356 212.971 370.655 213.245C370.954 213.52 371.141 213.896 371.18 214.3L374.18 242.58C374.201 242.77 374.182 242.962 374.123 243.144C374.064 243.326 373.967 243.493 373.838 243.634C373.709 243.775 373.552 243.887 373.376 243.962C373.201 244.037 373.011 244.074 372.82 244.07Z" fill="#263238"/>
<path opacity="0.6" d="M372.82 244.07H351.51C351.105 244.064 350.716 243.909 350.419 243.634C350.122 243.359 349.937 242.983 349.9 242.58L346.9 214.3C346.88 214.111 346.901 213.919 346.96 213.738C347.02 213.557 347.117 213.391 347.245 213.25C347.374 213.109 347.531 212.997 347.706 212.921C347.88 212.846 348.069 212.808 348.26 212.81H369.56C369.966 212.816 370.356 212.971 370.655 213.245C370.954 213.52 371.141 213.896 371.18 214.3L374.18 242.58C374.201 242.77 374.182 242.962 374.123 243.144C374.064 243.326 373.967 243.493 373.838 243.634C373.709 243.775 373.552 243.887 373.376 243.962C373.201 244.037 373.011 244.074 372.82 244.07Z" fill="white"/>
<path opacity="0.2" d="M371.93 244.07H351.51C351.105 244.064 350.716 243.909 350.419 243.634C350.122 243.359 349.937 242.983 349.9 242.58L346.9 214.3C346.88 214.111 346.901 213.919 346.96 213.738C347.02 213.557 347.117 213.391 347.245 213.25C347.374 213.109 347.531 212.997 347.706 212.921C347.88 212.846 348.069 212.808 348.26 212.81H368.7C369.105 212.818 369.494 212.973 369.792 213.248C370.091 213.522 370.278 213.897 370.32 214.3L373.32 242.58C373.342 242.772 373.322 242.967 373.261 243.151C373.2 243.335 373.1 243.504 372.968 243.645C372.836 243.787 372.675 243.898 372.496 243.972C372.316 244.045 372.123 244.079 371.93 244.07Z" fill="white"/>
<path d="M359.51 226.13C359.214 226.124 358.92 226.181 358.648 226.298C358.375 226.415 358.131 226.588 357.931 226.807C357.732 227.025 357.581 227.284 357.489 227.566C357.398 227.848 357.367 228.146 357.4 228.44C357.461 229.065 357.75 229.645 358.21 230.071C358.671 230.497 359.273 230.738 359.9 230.75C360.196 230.756 360.49 230.699 360.762 230.582C361.035 230.465 361.279 230.292 361.479 230.073C361.678 229.855 361.829 229.596 361.921 229.314C362.012 229.032 362.043 228.734 362.01 228.44C361.383 228.428 360.781 228.187 360.32 227.761C359.86 227.335 359.571 226.755 359.51 226.13Z" fill="#263238"/>
<path opacity="0.3" d="M364.12 215.05H352.86C352.582 215.046 352.311 214.965 352.078 214.814C351.844 214.664 351.658 214.451 351.54 214.2L350.87 212.81H365.72L365.29 214.2C365.215 214.451 365.06 214.669 364.849 214.823C364.637 214.977 364.381 215.056 364.12 215.05Z" fill="black"/>
<path d="M366.9 225.68L361.98 225.27L362.19 231.82L366.33 233.99L375.83 233.12L376.6 228.71C373.45 224.13 366.9 225.68 366.9 225.68Z" fill="#E4897B"/>
<path d="M398.16 198.47C393.16 204.81 398.65 217.22 401.28 230.66L376.45 227.48L375 234.89C375 234.89 403.63 245.47 409.72 240.8C417.32 234.98 412.39 213.8 408.46 203.37C407.507 200.519 405.645 198.06 403.16 196.37C402.223 196.323 401.287 196.488 400.421 196.851C399.556 197.215 398.783 197.768 398.16 198.47Z" fill="#263238"/>
<path opacity="0.1" d="M398.16 198.47C393.16 204.81 398.65 217.22 401.28 230.66L376.45 227.48L375 234.89C375 234.89 403.63 245.47 409.72 240.8C417.32 234.98 412.39 213.8 408.46 203.37C407.507 200.519 405.645 198.06 403.16 196.37C402.223 196.323 401.287 196.488 400.421 196.851C399.556 197.215 398.783 197.768 398.16 198.47Z" fill="white"/>
<path d="M383.82 255.3C389.04 255.227 394.256 255.07 399.47 254.83C399.47 255.72 399.56 256.62 399.6 257.51C394.34 257.763 389.08 257.917 383.82 257.97V255.3Z" fill="#263238"/>
<path d="M363 257.75C361 257.677 359 257.597 357 257.51L357.12 254.83C359.12 254.93 361.06 255 363.04 255.07L363 257.75Z" fill="#263238"/>
<path d="M363.9 255.1C370.113 255.3 376.327 255.37 382.54 255.31V258C376.327 258.06 370.113 257.993 363.9 257.8V255.1Z" fill="#263238"/>
<path d="M369.17 258.24L373.87 258.33C373.903 258.333 373.936 258.329 373.968 258.318C373.999 258.307 374.028 258.29 374.052 258.267C374.077 258.245 374.096 258.217 374.11 258.187C374.123 258.156 374.13 258.123 374.13 258.09V255.34C374.127 255.274 374.1 255.212 374.054 255.166C374.007 255.12 373.945 255.092 373.88 255.09L369.18 255C369.147 254.999 369.115 255.004 369.085 255.015C369.054 255.027 369.027 255.044 369.003 255.067C368.98 255.089 368.962 255.116 368.949 255.146C368.936 255.176 368.93 255.208 368.93 255.24V258C368.93 258.064 368.955 258.125 369 258.17C369.045 258.215 369.106 258.24 369.17 258.24Z" fill="white"/>
<path d="M122.503 207.643C129.517 200.629 129.517 189.257 122.503 182.243C115.489 175.23 104.118 175.23 97.1039 182.243C90.0901 189.257 90.0901 200.629 97.1039 207.643C104.118 214.657 115.489 214.657 122.503 207.643Z" fill="#393ED0"/>
<path d="M112.46 191.13C112.46 189.62 111.16 188.59 109.09 188.59C108.241 188.542 107.394 188.707 106.625 189.07C105.857 189.433 105.191 189.983 104.69 190.67L102.07 188.97C103.58 186.92 106.01 185.68 109.38 185.68C113.38 185.68 115.99 187.49 115.99 190.59C115.99 194.99 111.38 195.39 111.38 198.59H108C108 194.58 112.46 193.83 112.46 191.13ZM107.52 202.92C107.51 202.493 107.627 202.073 107.857 201.713C108.087 201.353 108.418 201.07 108.81 200.899C109.201 200.729 109.634 200.678 110.054 200.755C110.474 200.831 110.862 201.031 111.168 201.329C111.474 201.626 111.685 202.008 111.773 202.426C111.861 202.844 111.823 203.278 111.663 203.674C111.504 204.07 111.23 204.409 110.877 204.649C110.523 204.889 110.107 205.018 109.68 205.02C109.398 205.032 109.117 204.987 108.853 204.887C108.589 204.786 108.349 204.633 108.147 204.436C107.944 204.24 107.784 204.004 107.677 203.743C107.569 203.482 107.515 203.202 107.52 202.92Z" fill="white"/>
<path d="M109.8 207.77L107.35 211.09L109.8 218.42L112.26 211.09L109.8 207.77Z" fill="#393ED0"/>
<path d="M125.03 350.42L126.83 417.59H124.29L121.33 350.42H125.03Z" fill="#263238"/>
<path d="M116.54 351.95H93.8099L86.6099 417.59H83.6699L90.2999 347.28L116.54 347.98V351.95Z" fill="#263238"/>
<path d="M118.2 347.98H150.4H152.06L159.14 417.59H157.54L157.23 415.06L157.48 417.59H155.88L147.75 352.11H121.26L121.05 417.59H119.39H119.27H117.61L116.54 347.98H118.2Z" fill="#263238"/>
<path opacity="0.2" d="M119.27 417.59L118.19 347.98H152.06L159.14 417.59H157.54L149.4 352.11H121.26L121.05 417.59H119.27Z" fill="white"/>
<path opacity="0.2" d="M93.8099 351.95H91.9599L84.9399 417.59H86.6099L93.8099 351.95Z" fill="white"/>
<path d="M129.05 337.61L121.92 278.21C121.53 274.58 118.83 271.84 115.62 271.84H82.4199C81.9935 271.871 81.5965 272.069 81.3156 272.391C81.0346 272.713 80.8924 273.133 80.9199 273.56V335.7C80.9199 343 86.0999 348.92 92.5099 348.92H158.9C159.105 348.905 159.296 348.809 159.431 348.653C159.566 348.498 159.634 348.295 159.62 348.09C159.62 344.82 157.3 342.17 154.43 342.17H133.55C132.37 342.097 131.258 341.592 130.428 340.751C129.597 339.909 129.107 338.791 129.05 337.61Z" fill="#263238"/>
<path opacity="0.5" d="M80.9201 273.56V335.69C80.9201 343 86.1001 348.92 92.5001 348.92H158.9C159.106 348.905 159.298 348.809 159.434 348.654C159.571 348.499 159.641 348.296 159.63 348.09C159.643 346.556 159.103 345.069 158.11 343.9C157.658 343.362 157.095 342.928 156.46 342.628C155.825 342.328 155.133 342.168 154.43 342.16H133.55C133.089 342.161 132.632 342.079 132.2 341.92C131.323 341.567 130.563 340.975 130.006 340.211C129.45 339.447 129.118 338.543 129.05 337.6L121.91 278.21C121.54 274.57 118.83 271.84 115.62 271.84H82.4201C82.1432 271.847 81.8739 271.932 81.6437 272.086C81.4135 272.24 81.2319 272.457 81.1201 272.71C80.985 272.973 80.9164 273.265 80.9201 273.56Z" fill="white"/>
<path opacity="0.3" d="M87.0498 271.84V328.7C87.0498 336 92.2398 341.92 98.6398 341.92H132.2C131.323 341.567 130.563 340.975 130.006 340.211C129.449 339.447 129.118 338.543 129.05 337.6L121.91 278.21C121.54 274.57 118.83 271.84 115.62 271.84H87.0498Z" fill="white"/>
<path d="M129.34 312.29C128.483 309.957 127.46 307.688 126.28 305.5L97.88 307.06C97.88 307.06 87.79 335.17 100 342.38C103.67 344.56 109.73 345.38 116.4 345.56C118.238 345.604 120.067 345.28 121.778 344.608C123.489 343.935 125.049 342.927 126.365 341.644C127.681 340.36 128.728 338.826 129.443 337.132C130.158 335.438 130.528 333.619 130.53 331.78C130.53 331.78 130.51 317 129.34 312.29Z" fill="#263238"/>
<path d="M103.92 332.68V344C114.03 346.92 135.02 345.81 147.49 344.79C150.199 344.569 152.726 343.336 154.568 341.337C156.41 339.338 157.431 336.718 157.43 334V324.7C157.432 323.193 156.973 321.722 156.115 320.483C155.257 319.245 154.041 318.298 152.63 317.77C146.63 315.49 135.63 312.1 124.07 312.28C118.705 312.351 113.583 314.531 109.812 318.348C106.041 322.166 103.925 327.314 103.92 332.68Z" fill="#263238"/>
<path d="M156.36 365.48C152.69 375.42 148.44 387.86 143.9 403.56L143.66 404.42L143.39 405.32L138.71 404.18L136.95 403.75C136.95 403.75 137.01 403.06 137.16 401.83C137.16 401.57 137.22 401.29 137.25 401C138.51 390.05 143.37 349.85 148.19 341.5C145.022 342.073 141.788 342.18 138.59 341.82C135.59 341.31 131.99 320.66 131.99 320.66C137.018 319.308 142.193 318.576 147.4 318.48H147.51C147.51 318.48 162.71 322.06 165.63 326.36C169.23 331.62 165.9 339.7 156.36 365.48Z" fill="#FFDBB4"/>
<path d="M150.3 417.59L139.3 412.75L135.83 408.87L134.76 410.33L133.45 409.76C132.83 404.89 135.2 402.61 136.45 401.58L136.82 401.29L136.96 401.18H137.02L137.19 401.05L137.29 400.99L143.29 403.65C143.29 403.65 143.39 403.97 143.58 404.48C144.18 406.17 145.67 410.04 147.31 412.1L147.52 412.35C147.7 412.575 147.904 412.78 148.13 412.96C152.82 416.61 150.3 417.59 150.3 417.59Z" fill="#393ED0"/>
<path d="M147.6 412.29C145.89 412.96 143.46 411.29 141.6 409.05C140.491 407.514 139.518 405.884 138.69 404.18C138.282 403.33 137.761 402.539 137.14 401.83C136.89 401.6 136.65 401.5 136.44 401.6L136.81 401.31L136.95 401.2H137.01L137.18 401.07L137.28 401.01C137.91 400.54 138.61 400.01 138.61 400.01L143.45 402.15C143.45 402.15 143.59 402.72 143.83 403.6C144.46 405.84 145.83 410.1 147.32 412.08L147.6 412.29Z" fill="#FFDBB4"/>
<path opacity="0.1" d="M156.36 365.48C152.69 375.42 148.44 387.86 143.9 403.56C144.53 405.8 145.9 410.06 147.39 412.04L147.6 412.29C147.78 412.515 147.984 412.72 148.21 412.9C152.82 416.61 150.3 417.59 150.3 417.59L139.3 412.75L135.83 408.87L134.76 410.33L133.45 409.76C132.83 404.89 135.2 402.61 136.45 401.58L136.82 401.29L136.96 401.18H137.02L137.19 401.05C138.45 390.1 143.31 349.9 148.13 341.55C144.962 342.123 141.728 342.23 138.53 341.87C135.53 341.36 131.93 320.71 131.93 320.71C136.958 319.358 142.133 318.626 147.34 318.53H147.45C147.45 318.53 145.61 318.7 143.11 321.85C143.11 321.85 153.32 323.75 156.11 329.15C157.26 331.28 157 347.24 156.36 365.48Z" fill="black"/>
<path d="M132 320.66C132 320.66 149.47 323.4 152.4 327.66C157.4 335.04 148.4 349.56 131.82 407.49L125.37 405.9C125.37 405.9 129.09 353.34 134.67 343.65C134.67 343.65 127.21 344.65 123.07 343.97C117.75 343.11 114.38 325.36 132 320.66Z" fill="#FFDBB4"/>
<path d="M124.31 417.22H125.74L126.13 415.45L130.87 417.59H142.87C142.87 417.59 144.78 415.67 139.07 414.14C138.79 414.064 138.519 413.96 138.26 413.83C135.21 412.41 130.88 407.58 130.88 407.58H124.3C124.099 407.885 123.919 408.202 123.76 408.53C123 410 121.79 413 124.31 417.22Z" fill="#393ED0"/>
<path d="M123.75 408.53C124.62 407.53 128.57 411.82 131.47 413.27C134.05 414.55 136.96 415.12 138.25 413.81C135.2 412.39 130.41 406.15 130.41 406.15H125.12C125.12 406.15 124.06 407.91 123.75 408.53Z" fill="#FFDBB4"/>
<path d="M164.17 317.17V319.55C164.17 320.16 163.45 320.41 162.85 320.41H115.23C114.62 320.41 113.88 320.16 113.88 319.55V317.17H164.17Z" fill="#263238"/>
<path opacity="0.4" d="M164.17 317.17V319.55C164.17 320.16 163.45 320.41 162.85 320.41H115.23C114.62 320.41 113.88 320.16 113.88 319.55V317.17H164.17Z" fill="white"/>
<path opacity="0.2" d="M164.17 317.17V319.55C164.17 320.16 163.45 320.41 162.85 320.41H131.44C130.83 320.41 130.1 320.16 130.1 319.55V317.17H164.17Z" fill="black"/>
<path d="M172.14 292.43L166.47 318.14C166.368 318.553 166.132 318.92 165.799 319.184C165.466 319.448 165.055 319.595 164.63 319.6H133.63C133.442 319.589 133.258 319.537 133.094 319.445C132.929 319.354 132.787 319.227 132.678 319.073C132.57 318.919 132.497 318.743 132.466 318.557C132.435 318.371 132.447 318.181 132.5 318L138.16 292.48C138.275 292.091 138.521 291.753 138.856 291.524C139.191 291.294 139.595 291.187 140 291.22H171C171.8 291.21 172.32 291.59 172.14 292.43Z" fill="#263238"/>
<path opacity="0.4" d="M172.14 292.43L166.47 318.14C166.368 318.553 166.132 318.92 165.799 319.184C165.466 319.448 165.055 319.595 164.63 319.6H134.72C134.527 319.596 134.338 319.547 134.167 319.458C133.996 319.369 133.849 319.241 133.735 319.085C133.622 318.929 133.546 318.749 133.514 318.559C133.482 318.369 133.494 318.175 133.55 317.99L139.22 292.47C139.332 292.079 139.577 291.739 139.913 291.509C140.249 291.279 140.654 291.173 141.06 291.21H171C171.8 291.21 172.32 291.59 172.14 292.43Z" fill="white"/>
<path opacity="0.2" d="M156.87 305.5C156.773 306.543 156.308 307.518 155.559 308.251C154.81 308.984 153.825 309.426 152.78 309.5C151.05 309.5 150.03 307.72 150.52 305.5C151.01 303.28 152.73 301.59 154.43 301.5C153.93 303.7 154.99 305.5 156.71 305.5H156.87Z" fill="black"/>
<path d="M128.65 263.42C133.99 267.95 139.3 273.2 145.55 276.34L145.64 276.39C145.03 276.258 144.395 276.303 143.81 276.52C142.975 276.819 142.271 277.401 141.82 278.164C141.369 278.927 141.199 279.825 141.34 280.7C141.368 280.891 141.432 281.074 141.53 281.24C139.53 277.97 136.75 275.07 134.29 272.07C131.55 268.9 128.8 265.68 126.08 262.45C125.728 262.025 125.544 261.486 125.564 260.934C125.583 260.383 125.805 259.858 126.186 259.459C126.568 259.06 127.083 258.816 127.633 258.771C128.183 258.727 128.73 258.887 129.17 259.22C132.57 261.83 135.86 264.54 139.05 267.4C142.4 270.52 145.87 273.4 148.5 277.28C148.729 277.658 148.923 278.057 149.08 278.47C149.356 279.169 149.449 279.927 149.349 280.671C149.25 281.416 148.961 282.123 148.511 282.724C148.061 283.326 147.464 283.802 146.778 284.108C146.091 284.413 145.338 284.538 144.59 284.47C143.969 284.4 143.356 284.269 142.76 284.08C134.87 281.15 128.61 275.58 122.51 270.08C118.33 265.88 124.2 259.6 128.67 263.5L128.65 263.42Z" fill="#FFDBB4"/>
<path d="M137.56 269.63C137.23 276.04 132.56 282.68 132.56 282.68L131.45 282.06L125.91 279.06C125.91 279.06 125.79 278.76 125.6 278.25C125.41 277.74 125.17 277.14 124.87 276.35C123.32 272.23 120.5 264.51 119.96 261.24C126.48 260.44 129.66 263.29 137.56 269.63Z" fill="#393ED0"/>
<path opacity="0.7" d="M137.56 269.63C137.23 276.04 132.56 282.68 132.56 282.68L131.45 282.06L125.91 279.06C125.91 279.06 125.79 278.76 125.6 278.25C125.41 277.74 125.17 277.14 124.87 276.35C123.32 272.23 120.5 264.51 119.96 261.24C126.48 260.44 129.66 263.29 137.56 269.63Z" fill="white"/>
<path opacity="0.2" d="M131.48 282.06L125.94 279.06C125.94 279.06 125.82 278.76 125.63 278.25C125.693 276.631 125.856 275.018 126.12 273.42C127.585 274.386 128.823 275.66 129.749 277.151C130.674 278.643 131.265 280.318 131.48 282.06Z" fill="black"/>
<path d="M92.74 270.46C92.74 270.62 92.8 270.77 92.84 270.93C94.23 276.52 95.26 281.29 96.01 285.45C96.8352 289.796 97.3697 294.193 97.61 298.61C97.7575 301.712 97.6706 304.821 97.35 307.91L127.11 308.91C128.28 299.24 128.87 293.44 129.3 287.54C129.69 283.506 129.807 279.45 129.65 275.4C129.65 270.15 125.97 263.98 120.74 263.07C119.28 262.82 117.74 262.58 116.31 262.4L115.52 262.31C110.027 261.748 104.481 262.021 99.07 263.12C96.12 263.81 92.05 266.32 92.74 270.46Z" fill="#393ED0"/>
<path opacity="0.7" d="M92.74 270.46C92.74 270.62 92.8 270.77 92.84 270.93C94.23 276.52 95.26 281.29 96.01 285.45C96.8352 289.796 97.3697 294.193 97.61 298.61C97.7575 301.712 97.6706 304.821 97.35 307.91L127.11 308.91C128.28 299.24 128.87 293.44 129.3 287.54C129.69 283.506 129.807 279.45 129.65 275.4C129.65 270.15 125.97 263.98 120.74 263.07C119.28 262.82 117.74 262.58 116.31 262.4L115.52 262.31C110.027 261.748 104.481 262.021 99.07 263.12C96.12 263.81 92.05 266.32 92.74 270.46Z" fill="white"/>
<path opacity="0.2" d="M97.61 298.61C97.3664 294.192 96.8285 289.796 96 285.45C99.33 280.8 102.53 276.9 102.53 276.9C102.53 276.9 109.54 291.3 97.61 298.61Z" fill="black"/>
<path d="M100.55 276.34C100.16 282.67 98.9598 292.45 99.3998 298.6L99.1798 297.82C98.9898 297.46 99.1198 297.82 99.3298 298.03C101.72 300.69 104.82 302.76 107.77 304.93C110.95 307.21 115.64 310.36 118.92 312.61C119.45 312.884 119.85 313.358 120.031 313.928C120.212 314.497 120.159 315.114 119.885 315.645C119.61 316.175 119.136 316.575 118.567 316.756C117.998 316.937 117.38 316.884 116.85 316.61C114.66 315.76 112.57 314.81 110.45 313.85C105.45 311.36 92.7098 305.68 91.3898 300.08C90.0398 291.67 90.7798 283.78 91.5798 275.46C91.7018 274.266 92.2929 273.17 93.2231 272.413C94.1533 271.655 95.3463 271.298 96.5398 271.42C97.7333 271.542 98.8294 272.133 99.587 273.063C100.345 273.993 100.702 275.186 100.58 276.38L100.55 276.34Z" fill="#FFDBB4"/>
<path d="M126.38 311.49L124.48 310.34C124.129 310.124 123.731 309.996 123.321 309.966C122.91 309.936 122.498 310.006 122.12 310.17L118.54 311.72C117.832 312.024 117.208 312.493 116.719 313.088C116.23 313.683 115.891 314.387 115.73 315.14L115.53 316.08C118.53 318.21 123.38 318.27 123.38 318.27L124.75 318.45C125.031 318.494 125.318 318.482 125.595 318.414C125.871 318.346 126.131 318.223 126.36 318.054C126.589 317.885 126.782 317.672 126.928 317.427C127.074 317.183 127.169 316.912 127.21 316.63L127.59 313.91C127.645 313.433 127.561 312.949 127.346 312.52C127.131 312.09 126.795 311.732 126.38 311.49Z" fill="#FFDBB4"/>
<path d="M99.3801 263.13C93.3801 264.52 91.1701 269.34 89.8301 279.76C92.5001 282.82 101.52 284.02 101.52 284.02C101.52 284.02 104.92 268.38 99.3801 263.13Z" fill="#393ED0"/>
<path d="M101.05 262.71C100.37 262.8 102.78 270.08 113.05 271.3C123.32 272.52 121.75 263.3 120.77 261.08C120.73 261.08 108.43 261.67 101.05 262.71Z" fill="#FFDBB4"/>
<path d="M101.37 229.22C101.37 229.22 106.61 222.35 117.43 224.78C128.25 227.21 129.36 246.09 124.56 253.36C116.139 253.758 107.805 255.234 99.7596 257.75C99.7596 257.75 93.5496 244.51 95.4096 236.27C97.2696 228.03 101.37 229.22 101.37 229.22Z" fill="#263238"/>
<path d="M105 247.84C106 252.23 107.21 260.24 104.29 263.05C104.29 263.05 108.43 262.57 117 268.26C119.65 264.71 117.8 263.49 117.8 263.49C112.91 262.17 112.88 258.57 113.59 255.21L105 247.84Z" fill="#FFDBB4"/>
<path opacity="0.2" d="M108.53 250.85L113.61 255.21C113.433 255.995 113.329 256.795 113.3 257.6C111.43 257.27 108.81 255.15 108.53 253.2C108.386 252.423 108.386 251.627 108.53 250.85Z" fill="black"/>
<path d="M101.6 239C102.69 246.07 103 249.07 106.9 252.57C112.76 257.83 121.12 255.43 122.15 248.3C123.08 241.88 121.15 231.4 113.98 228.85C112.462 228.25 110.811 228.067 109.198 228.319C107.585 228.571 106.068 229.25 104.806 230.285C103.543 231.32 102.581 232.674 102.017 234.206C101.453 235.739 101.309 237.394 101.6 239Z" fill="#FFDBB4"/>
<path d="M110.53 240.46C110.6 241.05 110.96 241.53 111.34 241.46C111.72 241.39 111.98 240.95 111.91 240.35C111.84 239.75 111.48 239.28 111.1 239.3C110.72 239.32 110.47 239.86 110.53 240.46Z" fill="#263238"/>
<path d="M118 239.93C118.06 240.52 118.42 241 118.8 240.93C119.18 240.86 119.44 240.42 119.38 239.82C119.32 239.22 118.95 238.75 118.57 238.77C118.19 238.79 117.88 239.33 118 239.93Z" fill="#263238"/>
<path d="M118.35 238.86L119.71 238.39C119.71 238.39 119.11 239.54 118.35 238.86Z" fill="#263238"/>
<path d="M115.82 241.33C116.494 242.673 117.334 243.926 118.32 245.06C118.043 245.283 117.72 245.442 117.374 245.525C117.028 245.608 116.668 245.613 116.32 245.54L115.82 241.33Z" fill="#FFDBB4"/>
<path d="M109 236.76C109.045 236.764 109.092 236.759 109.135 236.743C109.178 236.728 109.217 236.703 109.25 236.67C109.534 236.353 109.894 236.114 110.297 235.974C110.699 235.834 111.13 235.798 111.55 235.87C111.593 235.88 111.638 235.882 111.682 235.874C111.726 235.866 111.768 235.85 111.805 235.825C111.843 235.801 111.875 235.77 111.9 235.732C111.924 235.695 111.941 235.654 111.95 235.61C111.962 235.515 111.94 235.419 111.887 235.34C111.833 235.26 111.752 235.204 111.66 235.18C111.128 235.091 110.583 235.135 110.073 235.31C109.563 235.485 109.105 235.784 108.74 236.18C108.676 236.245 108.64 236.333 108.64 236.425C108.64 236.517 108.676 236.605 108.74 236.67C108.775 236.702 108.816 236.726 108.86 236.742C108.905 236.757 108.953 236.763 109 236.76Z" fill="#263238"/>
<path d="M120.56 235.88C120.625 235.887 120.692 235.875 120.75 235.845C120.809 235.815 120.858 235.768 120.891 235.711C120.924 235.654 120.939 235.588 120.936 235.522C120.932 235.457 120.909 235.393 120.87 235.34C120.555 234.87 120.135 234.479 119.644 234.198C119.154 233.917 118.604 233.754 118.04 233.72C117.995 233.72 117.951 233.729 117.911 233.747C117.871 233.765 117.834 233.791 117.805 233.824C117.776 233.858 117.754 233.897 117.741 233.939C117.728 233.981 117.724 234.026 117.73 234.07C117.737 234.164 117.779 234.251 117.847 234.316C117.916 234.381 118.006 234.418 118.1 234.42C118.544 234.454 118.975 234.589 119.359 234.814C119.744 235.039 120.072 235.349 120.32 235.72C120.376 235.803 120.462 235.86 120.56 235.88Z" fill="#263238"/>
<path d="M110.94 239.39L112.29 238.92C112.29 238.92 111.7 240.07 110.94 239.39Z" fill="#263238"/>
<path d="M103.43 243.13C103.43 243.13 108.56 238.38 106.76 231.74C106.76 231.74 116.25 227.06 120.93 236.63C120.93 236.63 121.06 228.11 111.69 227.21C102.32 226.31 92.4599 239.71 103.69 248.33L103.43 243.13Z" fill="#263238"/>
<path d="M99.8101 244.91C100.641 246.183 101.943 247.075 103.43 247.39C105.34 247.74 106.02 245.84 105.26 243.99C104.58 242.33 102.77 240.15 100.96 240.63C99.1501 241.11 98.7501 243.31 99.8101 244.91Z" fill="#FFDBB4"/>
<path d="M122.33 240.7C122.288 240.698 122.247 240.684 122.213 240.659C122.18 240.634 122.154 240.6 122.14 240.56C117.6 228.46 106.2 231.96 106.08 232C106.03 232.016 105.975 232.011 105.928 231.986C105.881 231.962 105.846 231.92 105.83 231.87C105.821 231.844 105.817 231.817 105.818 231.79C105.82 231.763 105.827 231.736 105.839 231.712C105.851 231.688 105.868 231.666 105.889 231.649C105.91 231.631 105.934 231.618 105.96 231.61C106.08 231.61 117.84 227.96 122.52 240.42C122.53 240.445 122.534 240.471 122.533 240.498C122.532 240.525 122.526 240.551 122.515 240.575C122.504 240.599 122.488 240.621 122.468 240.639C122.448 240.657 122.425 240.671 122.4 240.68L122.33 240.7Z" fill="#263238"/>
<path d="M115.8 248.56C115.66 248.56 112.44 248.5 111.22 246.37C111.191 246.315 111.184 246.252 111.2 246.192C111.217 246.132 111.256 246.081 111.31 246.05C111.336 246.034 111.366 246.024 111.397 246.02C111.428 246.016 111.459 246.018 111.489 246.027C111.519 246.035 111.547 246.049 111.571 246.069C111.595 246.088 111.615 246.113 111.63 246.14C112.71 248.04 115.77 248.14 115.8 248.14C115.831 248.139 115.862 248.144 115.891 248.155C115.92 248.165 115.946 248.182 115.969 248.204C115.991 248.225 116.009 248.251 116.021 248.28C116.034 248.308 116.04 248.339 116.04 248.37C116.028 248.425 115.998 248.474 115.954 248.508C115.91 248.543 115.856 248.561 115.8 248.56Z" fill="#263238"/>
<path d="M117.84 280.92C117.784 280.92 117.731 280.898 117.69 280.86C111.965 275.671 107.343 269.383 104.1 262.37C104.08 262.31 104.083 262.245 104.109 262.187C104.135 262.13 104.182 262.084 104.24 262.06C104.268 262.049 104.298 262.043 104.329 262.043C104.359 262.044 104.389 262.05 104.417 262.062C104.445 262.074 104.47 262.092 104.491 262.114C104.512 262.136 104.529 262.162 104.54 262.19C107.693 269.018 112.17 275.153 117.71 280.24C118.19 278.19 120.17 268.36 115.83 261.39C115.797 261.338 115.786 261.275 115.799 261.215C115.812 261.155 115.848 261.103 115.9 261.07C115.952 261.037 116.014 261.026 116.074 261.039C116.134 261.052 116.187 261.088 116.22 261.14C121.22 269.09 118.1 280.63 118.07 280.75C118.06 280.789 118.04 280.824 118.012 280.852C117.984 280.88 117.949 280.9 117.91 280.91L117.84 280.92Z" fill="#263238"/>
<path d="M118.13 280.47L118.98 281.38C119.046 281.464 119.081 281.568 119.081 281.675C119.081 281.782 119.046 281.886 118.98 281.97L118.29 283.04C118.251 283.1 118.199 283.15 118.139 283.188C118.078 283.225 118.01 283.248 117.939 283.256C117.868 283.264 117.796 283.255 117.729 283.232C117.662 283.208 117.601 283.17 117.55 283.12L116.76 282.36C116.685 282.288 116.636 282.193 116.62 282.09C116.603 281.987 116.621 281.882 116.67 281.79L117.3 280.58C117.331 280.501 117.384 280.431 117.451 280.379C117.518 280.327 117.598 280.293 117.683 280.282C117.767 280.271 117.853 280.282 117.932 280.315C118.01 280.348 118.079 280.402 118.13 280.47Z" fill="white"/>
<path opacity="0.7" d="M99.3801 263.13C93.3801 264.52 91.1701 269.34 89.8301 279.76C92.5001 282.82 101.52 284.02 101.52 284.02C101.52 284.02 104.92 268.38 99.3801 263.13Z" fill="white"/>
<path d="M130.85 261.14L128.42 254.94L123.42 260.33C123.42 260.33 125.92 265.73 128.64 264.33L130.85 261.14Z" fill="#FFDBB4"/>
<path d="M123.18 250.95L120.42 257.05L123.38 260.33L128.42 254.94L123.18 250.95Z" fill="#FFDBB4"/>
<path d="M138.35 282.1C139.442 282.713 140.579 283.244 141.75 283.69L142.75 284.04L143.37 284.21L143.67 284.29H143.75H143.95L144.37 284.35H144.58H144.87H145.47C145.81 284.316 146.146 284.242 146.47 284.13C146.929 283.969 147.358 283.733 147.74 283.43C148.19 283.075 148.564 282.633 148.84 282.13C148.969 281.89 149.076 281.639 149.16 281.38C149.222 281.187 149.268 280.99 149.3 280.79C149.338 280.596 149.362 280.398 149.37 280.2C149.38 280.074 149.38 279.946 149.37 279.82C149.359 279.592 149.332 279.365 149.29 279.14C149.239 278.878 149.169 278.621 149.08 278.37L148.87 277.86L148.68 277.48L148.5 277.18C148.133 276.578 147.718 276.006 147.26 275.47C146.87 274.99 146.48 274.56 146.1 274.13C145.33 273.29 144.56 272.5 143.78 271.73C142.22 270.2 140.66 268.73 139.05 267.3C135.86 264.44 132.57 261.73 129.17 259.12C128.73 258.787 128.182 258.627 127.632 258.671C127.082 258.716 126.568 258.96 126.186 259.359C125.805 259.758 125.583 260.283 125.563 260.834C125.544 261.386 125.728 261.925 126.08 262.35C128.8 265.57 131.55 268.79 134.28 271.95C135.63 273.55 137 275.12 138.28 276.72C138.94 277.51 139.57 278.3 140.16 279.08C140.45 279.46 140.73 279.85 140.98 280.22C141.179 280.508 141.36 280.809 141.52 281.12C141.492 281.077 141.472 281.03 141.46 280.98C141.414 280.856 141.377 280.729 141.35 280.6C141.319 280.438 141.299 280.274 141.29 280.11V279.83C141.291 279.662 141.308 279.495 141.34 279.33C141.369 279.168 141.409 279.007 141.46 278.85C141.533 278.617 141.63 278.393 141.75 278.18C142.001 277.733 142.342 277.342 142.75 277.03C143.084 276.773 143.454 276.567 143.85 276.42C144.108 276.326 144.376 276.266 144.65 276.24C144.783 276.225 144.917 276.225 145.05 276.24H145.36H145.58H145.68H145.61L145.47 276.18L144.98 275.96C144.29 275.62 143.52 275.15 142.74 274.66C141.11 273.75 136.29 281 138.35 282.1Z" fill="#FFDBB4"/>
</svg>
