<svg width="500" height="500" viewBox="0 0 500 500" fill="none" xmlns="http://www.w3.org/2000/svg">
<path d="M500 382.4H0V382.65H500V382.4Z" fill="#EBEBEB"/>
<path d="M135.14 398.49H102.02V398.74H135.14V398.49Z" fill="#EBEBEB"/>
<path d="M214.69 390.92H171.14V391.17H214.69V390.92Z" fill="#EBEBEB"/>
<path d="M101.02 389.21H52.46V389.46H101.02V389.21Z" fill="#EBEBEB"/>
<path d="M281.9 392.59H247.61V392.84H281.9V392.59Z" fill="#EBEBEB"/>
<path d="M449.9 392.59H442.46V392.84H449.9V392.59Z" fill="#EBEBEB"/>
<path d="M339.37 392.59H290.8V392.84H339.37V392.59Z" fill="#EBEBEB"/>
<path d="M420.3 396.81H326.62V397.06H420.3V396.81Z" fill="#EBEBEB"/>
<path d="M237 337.8H43.91C42.3973 337.797 40.9475 337.195 39.8788 336.124C38.8102 335.054 38.21 333.603 38.21 332.09V60.66C38.2231 59.156 38.8292 57.718 39.8964 56.6582C40.9637 55.5985 42.4059 55.0026 43.91 55H237C238.514 55 239.967 55.6016 241.038 56.6724C242.108 57.7433 242.71 59.1956 242.71 60.71V332.09C242.71 333.604 242.108 335.057 241.038 336.128C239.967 337.198 238.514 337.8 237 337.8ZM43.91 55.2C42.4636 55.2026 41.0774 55.7791 40.0556 56.8027C39.0338 57.8264 38.46 59.2136 38.46 60.66V332.09C38.46 333.536 39.0338 334.924 40.0556 335.947C41.0774 336.971 42.4636 337.547 43.91 337.55H237C238.447 337.547 239.834 336.971 240.858 335.948C241.881 334.924 242.457 333.537 242.46 332.09V60.66C242.457 59.2127 241.881 57.8255 240.858 56.8021C239.834 55.7787 238.447 55.2026 237 55.2H43.91Z" fill="#EBEBEB"/>
<path d="M453.31 337.8H260.21C258.696 337.797 257.246 337.195 256.175 336.125C255.105 335.054 254.503 333.604 254.5 332.09V60.66C254.516 59.1551 255.124 57.7171 256.193 56.6576C257.262 55.5981 258.705 55.0025 260.21 55H453.31C454.812 55.0052 456.252 55.6022 457.317 56.6617C458.382 57.7212 458.987 59.1578 459 60.66V332.09C459 333.601 458.401 335.05 457.335 336.121C456.268 337.191 454.821 337.795 453.31 337.8ZM260.21 55.2C258.763 55.2026 257.375 55.7787 256.352 56.8021C255.329 57.8255 254.753 59.2127 254.75 60.66V332.09C254.753 333.537 255.329 334.924 256.352 335.948C257.375 336.971 258.763 337.547 260.21 337.55H453.31C454.757 337.547 456.145 336.971 457.168 335.948C458.191 334.924 458.767 333.537 458.77 332.09V60.66C458.767 59.2127 458.191 57.8255 457.168 56.8021C456.145 55.7787 454.757 55.2026 453.31 55.2H260.21Z" fill="#EBEBEB"/>
<path d="M201.66 375.92H210.52V275.65H201.66V375.92Z" fill="#F0F0F0"/>
<path d="M71.4801 382.27H207.12V375.92H71.4801V382.27Z" fill="#F0F0F0"/>
<path d="M201.66 275.65H68.0801V375.92H201.66V275.65Z" fill="#F5F5F5"/>
<path d="M188.45 287.99H81.28C77.8338 287.99 75.04 290.784 75.04 294.23V314.63C75.04 318.076 77.8338 320.87 81.28 320.87H188.45C191.896 320.87 194.69 318.076 194.69 314.63V294.23C194.69 290.784 191.896 287.99 188.45 287.99Z" fill="#F0F0F0"/>
<path d="M81.28 330.69H188.46C190.115 330.69 191.702 331.347 192.872 332.518C194.043 333.688 194.7 335.275 194.7 336.93V357.34C194.7 358.158 194.539 358.968 194.226 359.724C193.913 360.48 193.454 361.167 192.875 361.745C192.297 362.324 191.61 362.783 190.854 363.096C190.098 363.409 189.288 363.57 188.47 363.57H81.28C80.458 363.575 79.6431 363.418 78.8821 363.108C78.121 362.797 77.4289 362.339 76.8453 361.76C76.2618 361.181 75.7983 360.493 75.4817 359.734C75.165 358.976 75.0013 358.162 75 357.34V336.93C75 336.107 75.1627 335.293 75.4788 334.533C75.7949 333.773 76.2581 333.083 76.8418 332.504C77.4255 331.924 78.1181 331.465 78.8798 331.154C79.6415 330.842 80.4572 330.685 81.28 330.69Z" fill="#F0F0F0"/>
<path d="M99.5302 306.69H170.21C171.298 306.69 172.18 305.808 172.18 304.72V304.15C172.18 303.062 171.298 302.18 170.21 302.18H99.5302C98.4422 302.18 97.5602 303.062 97.5602 304.15V304.72C97.5602 305.808 98.4422 306.69 99.5302 306.69Z" fill="#F5F5F5"/>
<path d="M99.5302 349.39H170.21C171.298 349.39 172.18 348.508 172.18 347.42V346.85C172.18 345.762 171.298 344.88 170.21 344.88H99.5302C98.4422 344.88 97.5602 345.762 97.5602 346.85V347.42C97.5602 348.508 98.4422 349.39 99.5302 349.39Z" fill="#F5F5F5"/>
<path d="M386.46 375.45H422.23V169.71H386.46V375.45Z" fill="#F0F0F0"/>
<path d="M278.01 382.39H415.36V375.44H278.01V382.39Z" fill="#F0F0F0"/>
<path d="M386.46 169.7H271.14V375.44H386.46V169.7Z" fill="#F5F5F5"/>
<path d="M366.45 283.79H291.15C287.864 283.79 285.2 286.454 285.2 289.74V313.82C285.2 317.106 287.864 319.77 291.15 319.77H366.45C369.736 319.77 372.4 317.106 372.4 313.82V289.74C372.4 286.454 369.736 283.79 366.45 283.79Z" fill="#F0F0F0"/>
<path d="M366.45 326.34H291.15C287.864 326.34 285.2 329.004 285.2 332.29V356.37C285.2 359.656 287.864 362.32 291.15 362.32H366.45C369.736 362.32 372.4 359.656 372.4 356.37V332.29C372.4 329.004 369.736 326.34 366.45 326.34Z" fill="#F0F0F0"/>
<path d="M366.45 182.83H291.15C287.864 182.83 285.2 185.494 285.2 188.78V271.28C285.2 274.566 287.864 277.23 291.15 277.23H366.45C369.736 277.23 372.4 274.566 372.4 271.28V188.78C372.4 185.494 369.736 182.83 366.45 182.83Z" fill="#F0F0F0"/>
<path d="M266.37 169.7L386.46 169.7V163.75L266.37 163.75V169.7Z" fill="#F0F0F0"/>
<path d="M427.23 163.76H386.46V169.71H427.23V163.76Z" fill="#E6E6E6"/>
<path d="M366.99 133.54H337.3V163.75H366.99V133.54Z" fill="#F0F0F0"/>
<path d="M284.63 163.76H337.3V133.55H284.63V163.76Z" fill="#F5F5F5"/>
<g style="mix-blend-mode:multiply" opacity="0.7">
<path d="M366.99 138.1H284.31V140.54H366.99V138.1Z" fill="#E6E6E6"/>
</g>
<path d="M368.63 132.07H337.3V139.13H368.63V132.07Z" fill="#F0F0F0"/>
<path d="M282.98 139.12H337.29V132.06H282.98V139.12Z" fill="#F5F5F5"/>
<path d="M404.58 144.37H385.53V163.76H404.58V144.37Z" fill="#F0F0F0"/>
<path d="M351.73 163.75H385.53V144.36H351.73V163.75Z" fill="#F5F5F5"/>
<g style="mix-blend-mode:multiply" opacity="0.7">
<path d="M404.59 147.29H351.53V148.86H404.59V147.29Z" fill="#E6E6E6"/>
</g>
<path d="M405.64 143.42H385.53V147.95H405.64V143.42Z" fill="#F0F0F0"/>
<path d="M350.67 147.95H385.53V143.42H350.67V147.95Z" fill="#F5F5F5"/>
<path d="M128.06 187.89H166.32V76.23H128.06V187.89Z" fill="#F0F0F0"/>
<path d="M119.85 187.89H163.85V76.23H119.85L119.85 187.89Z" fill="#F5F5F5"/>
<path d="M123.53 80.62V183.5H160.16V80.62H123.53Z" fill="white"/>
<path d="M132.41 91.99V172.13H151.28V91.99H132.41Z" fill="#F5F5F5"/>
<path d="M73.0701 211.94H111.33L111.33 100.28H73.0701L73.0701 211.94Z" fill="#F0F0F0"/>
<path d="M64.8599 211.94H108.86L108.86 100.28H64.8599L64.8599 211.94Z" fill="#F5F5F5"/>
<path d="M68.5498 104.68V207.56H105.18V104.68H68.5498Z" fill="white"/>
<path d="M77.4302 123.58V188.65C77.4302 192.814 80.806 196.19 84.9702 196.19H88.7602C92.9244 196.19 96.3002 192.814 96.3002 188.65V123.58C96.3002 119.416 92.9244 116.04 88.7602 116.04H84.9702C80.806 116.04 77.4302 119.416 77.4302 123.58Z" fill="#F5F5F5"/>
<path d="M181.35 227.97H219.61V116.31H181.35V227.97Z" fill="#F0F0F0"/>
<path d="M173.14 227.97H217.14V116.31H173.14V227.97Z" fill="#F5F5F5"/>
<path d="M176.82 120.7V223.58H213.45V120.7H176.82Z" fill="white"/>
<path d="M185.7 139.6V204.67C185.7 208.834 189.076 212.21 193.24 212.21H197.03C201.194 212.21 204.57 208.834 204.57 204.67V139.6C204.57 135.436 201.194 132.06 197.03 132.06H193.24C189.076 132.06 185.7 135.436 185.7 139.6Z" fill="#F5F5F5"/>
<path d="M250 427.56C357.082 427.56 443.89 422.492 443.89 416.24C443.89 409.988 357.082 404.92 250 404.92C142.917 404.92 56.1099 409.988 56.1099 416.24C56.1099 422.492 142.917 427.56 250 427.56Z" fill="#F5F5F5"/>
<path d="M382.12 300.38H147.72C146.327 300.389 144.947 300.112 143.665 299.568C142.383 299.023 141.226 298.221 140.265 297.212C139.305 296.203 138.562 295.008 138.081 293.7C137.6 292.393 137.392 291.001 137.47 289.61L146.34 108.26C146.517 105.37 147.779 102.654 149.875 100.656C151.971 98.6585 154.745 97.5274 157.64 97.4899H392C393.393 97.4794 394.774 97.7549 396.057 98.2992C397.34 98.8436 398.497 99.6452 399.458 100.655C400.419 101.664 401.162 102.86 401.642 104.168C402.123 105.476 402.329 106.869 402.25 108.26L393.38 289.61C393.204 292.493 391.947 295.204 389.859 297.2C387.772 299.197 385.008 300.332 382.12 300.38Z" fill="#393ED0"/>
<path opacity="0.8" d="M382.12 300.38H147.72C146.327 300.389 144.947 300.112 143.665 299.568C142.383 299.023 141.226 298.221 140.265 297.212C139.305 296.203 138.562 295.008 138.081 293.7C137.6 292.393 137.392 291.001 137.47 289.61L146.34 108.26C146.517 105.37 147.779 102.654 149.875 100.656C151.971 98.6585 154.745 97.5274 157.64 97.4899H392C393.393 97.4794 394.774 97.7549 396.057 98.2992C397.34 98.8436 398.497 99.6452 399.458 100.655C400.419 101.664 401.162 102.86 401.642 104.168C402.123 105.476 402.329 106.869 402.25 108.26L393.38 289.61C393.204 292.493 391.947 295.204 389.859 297.2C387.772 299.197 385.008 300.332 382.12 300.38Z" fill="white"/>
<path d="M219.79 94.34H215V95.24H219.79V94.34Z" fill="#393ED0"/>
<path d="M209.61 94.34H190.01V95.24H209.61V94.34Z" fill="#393ED0"/>
<path d="M392 97.49H157.64C154.745 97.5275 151.971 98.6586 149.875 100.656C147.779 102.654 146.516 105.37 146.34 108.26H402.34C402.42 106.861 402.21 105.461 401.725 104.147C401.239 102.832 400.488 101.632 399.517 100.621C398.547 99.6107 397.378 98.811 396.085 98.2722C394.791 97.7334 393.401 97.4671 392 97.49Z" fill="#393ED0"/>
<path d="M389.5 127.11H157.29C156.916 127.115 156.544 127.042 156.199 126.897C155.854 126.752 155.542 126.536 155.284 126.265C155.026 125.994 154.827 125.672 154.699 125.32C154.571 124.968 154.517 124.594 154.54 124.22L154.83 118.33C154.875 117.559 155.209 116.834 155.765 116.298C156.321 115.763 157.058 115.456 157.83 115.44H390.07C390.444 115.437 390.815 115.51 391.159 115.656C391.504 115.802 391.815 116.017 392.072 116.288C392.33 116.559 392.53 116.88 392.658 117.231C392.787 117.583 392.842 117.957 392.82 118.33L392.53 124.22C392.484 124.996 392.146 125.725 391.584 126.262C391.022 126.798 390.277 127.101 389.5 127.11Z" fill="white"/>
<path opacity="0.3" d="M225.24 124.32H162.34C162.145 124.322 161.951 124.283 161.771 124.207C161.591 124.131 161.428 124.018 161.293 123.877C161.158 123.735 161.054 123.568 160.986 123.384C160.918 123.201 160.889 123.005 160.9 122.81L161.05 119.74C161.075 119.337 161.252 118.958 161.545 118.679C161.839 118.401 162.226 118.244 162.63 118.24H225.54C225.734 118.238 225.927 118.276 226.106 118.352C226.285 118.428 226.446 118.539 226.58 118.68C226.714 118.821 226.818 118.987 226.885 119.17C226.952 119.352 226.981 119.546 226.97 119.74L226.82 122.81C226.797 123.215 226.622 123.596 226.328 123.877C226.035 124.157 225.646 124.315 225.24 124.32Z" fill="#393ED0"/>
<path d="M388.61 145.15H156.41C156.035 145.153 155.663 145.08 155.318 144.933C154.973 144.787 154.662 144.571 154.404 144.299C154.146 144.026 153.947 143.704 153.819 143.352C153.691 142.999 153.637 142.624 153.66 142.25L153.95 136.37C153.993 135.598 154.326 134.872 154.882 134.336C155.439 133.8 156.178 133.494 156.95 133.48H389.15C389.525 133.477 389.896 133.55 390.241 133.696C390.586 133.842 390.897 134.057 391.156 134.327C391.414 134.598 391.615 134.919 391.745 135.271C391.874 135.622 391.931 135.996 391.91 136.37L391.62 142.25C391.575 143.023 391.24 143.751 390.682 144.289C390.124 144.826 389.385 145.134 388.61 145.15Z" fill="white"/>
<path opacity="0.3" d="M234.59 142.35H161.45C161.256 142.352 161.063 142.313 160.884 142.238C160.705 142.162 160.544 142.05 160.41 141.91C160.276 141.769 160.172 141.603 160.105 141.42C160.038 141.238 160.009 141.044 160.02 140.85L160.17 137.78C160.193 137.375 160.369 136.994 160.662 136.713C160.955 136.433 161.344 136.274 161.75 136.27H234.89C235.085 136.267 235.28 136.304 235.46 136.38C235.64 136.456 235.803 136.568 235.937 136.71C236.072 136.852 236.175 137.021 236.241 137.205C236.307 137.389 236.334 137.585 236.32 137.78L236.17 140.85C236.147 141.254 235.971 141.634 235.677 141.913C235.384 142.192 234.995 142.348 234.59 142.35Z" fill="#393ED0"/>
<path d="M385 282.9H152.78C152.403 282.906 152.029 282.834 151.68 282.689C151.332 282.544 151.018 282.329 150.757 282.056C150.496 281.784 150.294 281.461 150.164 281.107C150.034 280.753 149.978 280.376 150 280L156.06 156.26C156.103 155.488 156.436 154.762 156.992 154.226C157.549 153.69 158.287 153.384 159.06 153.37H391.26C391.634 153.367 392.005 153.44 392.35 153.586C392.695 153.732 393.007 153.947 393.265 154.217C393.524 154.488 393.724 154.809 393.854 155.161C393.984 155.512 394.04 155.886 394.02 156.26L388 280C387.959 280.773 387.627 281.502 387.071 282.041C386.514 282.579 385.774 282.886 385 282.9Z" fill="white"/>
<path opacity="0.3" d="M201.6 162.74H160.6C160.405 162.742 160.211 162.703 160.032 162.627C159.852 162.551 159.69 162.438 159.556 162.296C159.422 162.155 159.318 161.987 159.252 161.803C159.185 161.62 159.157 161.425 159.17 161.23L159.32 158.16C159.343 157.755 159.519 157.374 159.812 157.093C160.105 156.813 160.494 156.654 160.9 156.65H201.9C202.095 156.648 202.289 156.687 202.469 156.763C202.649 156.839 202.812 156.951 202.947 157.093C203.082 157.235 203.186 157.402 203.254 157.586C203.322 157.769 203.351 157.965 203.34 158.16L203.19 161.23C203.167 161.637 202.99 162.02 202.694 162.3C202.399 162.581 202.007 162.738 201.6 162.74Z" fill="#393ED0"/>
<path opacity="0.3" d="M279.4 175.18H159.88C159.685 175.183 159.492 175.146 159.313 175.071C159.133 174.996 158.971 174.884 158.837 174.743C158.702 174.602 158.599 174.435 158.532 174.252C158.466 174.069 158.438 173.874 158.45 173.68L158.6 170.61C158.623 170.205 158.799 169.824 159.092 169.543C159.386 169.263 159.774 169.104 160.18 169.1H279.7C279.896 169.098 280.09 169.137 280.27 169.213C280.45 169.289 280.612 169.402 280.747 169.543C280.882 169.685 280.987 169.852 281.054 170.036C281.122 170.219 281.151 170.415 281.14 170.61L280.99 173.68C280.965 174.085 280.786 174.465 280.491 174.744C280.196 175.022 279.806 175.178 279.4 175.18Z" fill="#393ED0"/>
<path opacity="0.3" d="M257.16 184.45H159.43C159.235 184.452 159.041 184.413 158.862 184.337C158.682 184.261 158.52 184.148 158.386 184.006C158.252 183.865 158.148 183.697 158.082 183.513C158.015 183.33 157.988 183.135 158 182.94L158.15 179.87C158.175 179.467 158.352 179.088 158.645 178.809C158.938 178.531 159.326 178.374 159.73 178.37H257.46C257.654 178.368 257.847 178.406 258.026 178.482C258.204 178.558 258.366 178.669 258.5 178.81C258.634 178.951 258.738 179.117 258.805 179.3C258.872 179.482 258.901 179.676 258.89 179.87L258.74 182.94C258.717 183.345 258.541 183.726 258.248 184.007C257.955 184.287 257.566 184.445 257.16 184.45Z" fill="#393ED0"/>
<path d="M363.45 293.65H380.65C381.615 293.637 382.54 293.26 383.239 292.594C383.938 291.928 384.36 291.023 384.42 290.06C384.448 289.597 384.38 289.132 384.22 288.696C384.061 288.26 383.814 287.862 383.494 287.525C383.174 287.189 382.789 286.921 382.362 286.74C381.934 286.558 381.474 286.466 381.01 286.47H363.8C362.834 286.481 361.908 286.857 361.209 287.523C360.509 288.189 360.088 289.096 360.03 290.06C360.004 290.524 360.074 290.988 360.234 291.424C360.395 291.86 360.643 292.259 360.963 292.595C361.284 292.932 361.67 293.199 362.097 293.38C362.525 293.562 362.986 293.653 363.45 293.65Z" fill="#393ED0"/>
<path opacity="0.4" d="M344.09 290.06C344.069 290.408 344.12 290.756 344.24 291.083C344.36 291.41 344.545 291.709 344.786 291.961C345.026 292.213 345.315 292.414 345.636 292.549C345.956 292.685 346.302 292.753 346.65 292.75C347.375 292.746 348.072 292.466 348.598 291.966C349.124 291.466 349.439 290.784 349.48 290.06C349.5 289.712 349.449 289.364 349.33 289.037C349.21 288.71 349.024 288.411 348.784 288.159C348.544 287.907 348.255 287.706 347.934 287.571C347.613 287.435 347.268 287.367 346.92 287.37C346.195 287.376 345.5 287.658 344.974 288.157C344.449 288.656 344.133 289.336 344.09 290.06Z" fill="#393ED0"/>
<path opacity="0.4" d="M331.37 290.06C331.35 290.408 331.401 290.756 331.52 291.083C331.64 291.41 331.826 291.709 332.066 291.961C332.306 292.213 332.595 292.414 332.916 292.549C333.237 292.685 333.582 292.753 333.93 292.75C334.655 292.744 335.35 292.462 335.876 291.963C336.401 291.464 336.717 290.784 336.76 290.06C336.781 289.711 336.729 289.362 336.609 289.035C336.489 288.707 336.302 288.408 336.061 288.155C335.82 287.903 335.529 287.703 335.207 287.568C334.886 287.433 334.539 287.365 334.19 287.37C333.466 287.376 332.772 287.658 332.249 288.158C331.725 288.657 331.411 289.337 331.37 290.06Z" fill="#393ED0"/>
<path opacity="0.4" d="M318.64 290.06C318.62 290.408 318.671 290.758 318.791 291.085C318.911 291.413 319.098 291.712 319.339 291.965C319.58 292.217 319.871 292.417 320.193 292.552C320.515 292.687 320.861 292.755 321.21 292.75C321.934 292.744 322.628 292.462 323.152 291.962C323.676 291.463 323.99 290.783 324.03 290.06C324.051 289.712 324 289.364 323.88 289.037C323.76 288.71 323.575 288.411 323.335 288.159C323.095 287.907 322.805 287.706 322.484 287.571C322.164 287.435 321.818 287.367 321.47 287.37C320.745 287.376 320.05 287.658 319.525 288.157C318.999 288.656 318.683 289.336 318.64 290.06Z" fill="#393ED0"/>
<path opacity="0.1" d="M267 271.85V271.25L267.1 269.03C267.16 267.55 267.1 266.08 267.1 264.6C267.04 261.66 266.87 258.73 266.54 255.85C266.21 252.97 265.77 250.09 265.18 247.26C265.02 246.54 264.87 245.82 264.69 245.11L267.13 243.11C267.13 243.11 263.18 229.37 259.13 228.37H259.04C258.774 228.309 258.503 228.272 258.23 228.26C252.853 227.503 247.43 227.122 242 227.12C238.89 224.12 239.37 218.07 240.49 212.68C240.69 212.35 240.88 212.02 241.05 211.68C245.635 208.709 249.03 204.221 250.64 199C253.11 199.57 256.83 199.54 261.41 196.76C259.8 197.149 258.13 197.227 256.49 196.99C258.485 196.198 260.19 194.817 261.379 193.03C262.567 191.243 263.181 189.136 263.14 186.99C263.148 185.855 262.905 184.733 262.43 183.703C261.955 182.672 261.259 181.759 260.391 181.028C259.524 180.297 258.506 179.766 257.41 179.472C256.314 179.179 255.167 179.13 254.05 179.33C251.51 179.794 249.251 181.229 247.75 183.33H247.35C245.799 182.195 243.922 181.595 242 181.62C237.19 175.48 216.31 177.17 212.91 185.39C211.1 189.77 212.29 192.39 214.31 193.87C213.92 195.382 213.725 196.938 213.73 198.5C213.466 198.711 213.219 198.941 212.99 199.19C212.944 199.233 212.908 199.285 212.883 199.342C212.858 199.4 212.845 199.462 212.845 199.525C212.845 199.588 212.858 199.65 212.883 199.707C212.908 199.765 212.944 199.817 212.99 199.86C213.053 199.909 213.128 199.94 213.207 199.951C213.286 199.961 213.366 199.951 213.44 199.92C213.525 199.889 213.6 199.838 213.66 199.77L213.76 199.68C213.867 201.28 214.204 202.856 214.76 204.36C214.806 207.804 215.397 211.22 216.51 214.48C218.51 220.12 224.04 222.36 229.51 221.11C229.51 221.51 229.57 221.91 229.57 222.31C229.57 224.99 228.23 226.82 223.25 228.31C220.53 228.71 217.68 229.25 215.11 229.78C211.947 230.474 209.152 232.311 207.26 234.94C203.45 239.04 198.7 252.06 198.7 252.06L201.83 253.76C201.49 255.08 201.15 256.4 200.83 257.76C200.809 257.815 200.792 257.872 200.78 257.93H178.36C177.632 257.924 176.91 258.069 176.239 258.354C175.569 258.64 174.965 259.06 174.464 259.589C173.963 260.118 173.576 260.744 173.328 261.429C173.08 262.114 172.975 262.843 173.02 263.57L173.57 273.8C173.48 273.854 173.397 273.918 173.32 273.99L171.44 275.75L171.87 284.68C172.613 285.165 173.4 285.58 174.22 285.92L174.48 290.92C174.52 291.556 174.665 292.181 174.91 292.77C163.91 293.77 157.83 296.56 156.33 300.5H247C247.474 297.524 247.701 294.514 247.68 291.5L248.54 291.45C249.01 291.45 249.37 291.11 249.25 290.84L248.45 287.26C248.377 287.159 248.278 287.08 248.163 287.033C248.049 286.985 247.923 286.97 247.8 286.99H247.75C247.75 285.91 247.83 284.84 247.87 283.79C250.454 283.83 253.035 283.599 255.57 283.1C257.523 282.728 259.405 282.053 261.15 281.1C262.265 280.447 263.276 279.631 264.15 278.68C265.137 277.594 265.892 276.318 266.37 274.93C266.594 274.281 266.752 273.611 266.84 272.93C267 272.46 267 272.16 267 271.85ZM257.7 273.11C257.591 273.296 257.436 273.451 257.25 273.56C256.423 274.097 255.514 274.499 254.56 274.75C252.555 275.322 250.498 275.697 248.42 275.87C249.01 269.637 250.012 263.45 251.42 257.35C251.55 256.76 251.69 256.15 251.83 255.54C251.89 255.29 251.94 255.04 252 254.78C252.06 254.52 252.16 254.12 252.24 253.78C252.63 254.39 252.88 254.78 252.88 254.78L255.47 252.68C255.85 254.56 256.22 256.46 256.47 258.39C256.83 261 257.13 263.64 257.35 266.29C257.42 267.62 257.54 268.95 257.58 270.29L257.67 273.03C257.67 273.03 257.72 273 257.69 273.11H257.7Z" fill="#393ED0"/>
<path d="M264.06 331.85H165.78C165.564 331.85 165.35 331.801 165.156 331.704C164.962 331.608 164.793 331.469 164.662 331.296C164.531 331.124 164.442 330.923 164.402 330.71C164.362 330.498 164.371 330.278 164.43 330.07V329.96C166.37 322.96 173.6 317.36 180.55 317.36H267.3C267.516 317.361 267.728 317.412 267.921 317.509C268.114 317.606 268.281 317.746 268.411 317.918C268.541 318.09 268.629 318.29 268.669 318.502C268.708 318.714 268.699 318.932 268.64 319.14L265.36 330.83C265.282 331.118 265.114 331.372 264.88 331.556C264.645 331.74 264.358 331.843 264.06 331.85Z" fill="#393ED0"/>
<path d="M265.97 416.24H269.88L255.22 331.85H251.31L265.97 416.24Z" fill="#393ED0"/>
<path opacity="0.6" d="M265.97 416.24H269.88L255.22 331.85H251.31L265.97 416.24Z" fill="white"/>
<path d="M243.98 416.24H247.89L240.56 331.85H236.65L243.98 416.24Z" fill="#393ED0"/>
<path opacity="0.6" d="M243.98 416.24H247.89L240.56 331.85H236.65L243.98 416.24Z" fill="white"/>
<path d="M165.84 416.24H161.93L176.59 331.85H180.5L165.84 416.24Z" fill="#393ED0"/>
<path opacity="0.6" d="M165.84 416.24H161.93L176.59 331.85H180.5L165.84 416.24Z" fill="white"/>
<path d="M187.83 416.24H183.92L191.26 331.85H195.16L187.83 416.24Z" fill="#393ED0"/>
<path opacity="0.6" d="M187.83 416.24H183.92L191.26 331.85H195.16L187.83 416.24Z" fill="white"/>
<path d="M235.869 197.485C240.599 196.7 243.758 192 242.927 186.988C242.095 181.975 237.587 178.548 232.858 179.333C228.129 180.117 224.969 184.817 225.801 189.829C226.632 194.842 231.14 198.269 235.869 197.485Z" fill="#263238"/>
<path d="M228.45 197.57C228.45 197.57 234.58 201.97 242.45 196.77C238.34 197.86 233.79 196.12 233.79 196.12L228.45 197.57Z" fill="#263238"/>
<path d="M234 190.12C234.73 194.5 232.16 198.58 228.27 199.22C224.38 199.86 220.64 196.84 219.91 192.46C219.18 188.08 221.75 184 225.64 183.35C229.53 182.7 233.25 185.74 234 190.12Z" fill="#393ED0"/>
<path d="M220.11 213.56C227.89 211.51 237.33 198.56 228.95 185.74C225.78 185.74 217.1 188.67 217.1 188.67L220.11 213.56Z" fill="#263238"/>
<path d="M199.87 183.82C193.87 189.15 190.99 203.59 204.51 212.63C207.34 211.2 213.78 204.68 213.78 204.68L199.87 183.82Z" fill="#263238"/>
<path d="M201.6 243.41C201.6 244.87 201.49 246.13 201.38 247.46C201.27 248.79 201.15 250.09 201 251.39C200.73 254.01 200.37 256.6 199.94 259.19C199.083 264.357 197.965 269.476 196.59 274.53L195.5 278.31L194.3 282.06C193.722 283.996 192.636 285.742 191.155 287.117C189.675 288.492 187.854 289.446 185.88 289.88C182.787 290.49 179.592 290.339 176.57 289.44C175.207 289.081 173.87 288.627 172.57 288.08C171.281 287.553 170.029 286.942 168.82 286.25L170.82 281.57C171.89 281.78 173.13 282.04 174.28 282.2C175.43 282.36 176.61 282.49 177.74 282.54C179.707 282.729 181.691 282.497 183.56 281.86C184.092 281.664 184.554 281.316 184.89 280.86C185.014 280.676 185.115 280.478 185.19 280.27C185.19 280.16 185.27 280.03 185.31 279.9C185.316 279.827 185.316 279.753 185.31 279.68L185.39 279.38L186.3 275.8L187.13 272.19C188.19 267.37 189.05 262.5 189.75 257.61C190.11 255.17 190.41 252.72 190.69 250.27C190.82 249.05 190.94 247.82 191.04 246.61C191.14 245.4 191.25 244.13 191.31 243.05L201.6 243.41Z" fill="#FFDBB4"/>
<path d="M194.37 233.88C190.72 236.1 187 252 187 252L202.73 260C202.73 260 209.43 242.86 206.31 238.28C203 233.45 199.68 230.63 194.37 233.88Z" fill="#393ED0"/>
<path opacity="0.2" d="M191.32 245.81C190.599 248.56 190.62 251.451 191.38 254.19L202.71 260C202.71 260 206.62 250 207.07 243.22C203.06 239.23 193.85 238.73 191.32 245.81Z" fill="black"/>
<path d="M172.78 282.23L162.65 275.61L164.24 284.54C164.24 284.54 167.93 286.85 170.24 286.34L172.78 282.23Z" fill="#FFDBB4"/>
<path d="M191.8 241.25C192.38 250.09 194.3 265.91 200.04 291.94L240.71 289.54C239.05 273.03 238.43 262.82 244.34 228.38C238.578 227.541 232.763 227.12 226.94 227.12C220.762 227.048 214.587 227.412 208.46 228.21C205.8 228.61 203.03 229.15 200.52 229.68C197.918 230.237 195.604 231.713 194.002 233.838C192.4 235.964 191.619 238.595 191.8 241.25Z" fill="#393ED0"/>
<path opacity="0.2" d="M211.34 236C211.34 236 215.34 241.06 220.78 242.7C226.22 244.34 227.78 233.23 226.94 227.13C221.9 225.87 211.34 236 211.34 236Z" fill="black"/>
<path d="M211.34 236C211.34 236 215.85 240.53 221.34 242.16C226.83 243.79 227.8 233.23 226.98 227.16C221.9 225.87 211.34 236 211.34 236Z" fill="white"/>
<path opacity="0.2" d="M211.34 236C209.65 238.863 207.011 241.042 203.88 242.16C198.55 244.16 204.23 230.44 208.46 228.22C213.5 227 211.34 236 211.34 236Z" fill="black"/>
<path d="M211.34 236C209.481 238.683 206.743 240.632 203.6 241.51C198.16 243.14 204.23 230.44 208.46 228.22C213.5 227 211.34 236 211.34 236Z" fill="white"/>
<path d="M241.18 287.12L242.44 290.7C242.59 290.97 242.28 291.28 241.81 291.31L199.94 293.78C199.58 293.78 199.26 293.64 199.22 293.41L198.64 289.79C198.64 289.54 198.91 289.31 199.31 289.28L240.5 286.85C240.627 286.833 240.756 286.849 240.875 286.896C240.994 286.944 241.099 287.021 241.18 287.12Z" fill="white"/>
<path d="M235.78 292.06L236.89 292C237.11 292 237.27 291.86 237.24 291.72L236.45 287.02C236.45 286.88 236.23 286.78 236.01 286.8L234.9 286.86C234.68 286.86 234.52 287 234.55 287.13L235.34 291.83C235.37 292 235.56 292.07 235.78 292.06Z" fill="#263238"/>
<path d="M203.07 294L204.17 293.93C204.39 293.93 204.55 293.8 204.53 293.66L203.73 288.96C203.73 288.82 203.51 288.72 203.29 288.73L202.18 288.8C201.96 288.8 201.8 288.94 201.83 289.07L202.62 293.77C202.65 293.9 202.85 294 203.07 294Z" fill="#263238"/>
<path d="M219.36 293L220.46 292.93C220.68 292.93 220.84 292.8 220.82 292.66L220 288C220 287.86 219.78 287.76 219.56 287.77L218.46 287.84C218.24 287.84 218.08 287.98 218.1 288.11L218.89 292.81C218.94 292.94 219.14 293 219.36 293Z" fill="#263238"/>
<path opacity="0.2" d="M243.45 233.7C239.929 235.377 237.133 238.272 235.58 241.85C233.77 246.41 239 255.48 240.25 257.52C240.83 251.11 241.86 243.45 243.45 233.7Z" fill="black"/>
<path d="M224 208.66C223.19 214.66 222.53 223.4 226.93 227.12C220.845 231.088 215.571 236.179 211.39 242.12C204.3 232.75 208.45 228.18 208.45 228.18C214.99 226.18 214.66 223.53 213.23 218.98L224 208.66Z" fill="#FFDBB4"/>
<path opacity="0.2" d="M219.62 212.89L213.25 219C213.598 220.056 213.852 221.14 214.01 222.24C216.52 221.73 220.37 219.33 220.76 216.55C220.94 215.24 219.87 213.49 219.62 212.89Z" fill="black"/>
<path d="M223.81 194.62C225.39 204.45 226.26 208.57 222.48 214.62C216.79 223.76 204.37 223.55 199.89 214.39C195.89 206.14 193.95 191.45 202.57 185.46C204.469 184.131 206.677 183.309 208.983 183.073C211.289 182.838 213.617 183.196 215.746 184.114C217.875 185.032 219.733 186.479 221.145 188.318C222.556 190.157 223.474 192.326 223.81 194.62Z" fill="#FFDBB4"/>
<path d="M221.11 181.56C211.11 174.39 186.43 177.43 190.22 185.74C194.78 195.74 202.61 196 202.61 196C202.61 196 199.49 194.5 199.56 192.5C206.89 190.22 212.5 194.83 215.67 191.82C214.28 197.5 223.39 202.87 223.39 202.87C225.93 200.654 227.974 197.928 229.39 194.87C231.55 189.93 229.83 181.83 221.11 181.56Z" fill="#263238"/>
<path d="M208.92 200.66C209.09 201.45 208.82 202.18 208.3 202.3C207.78 202.42 207.23 201.87 207.05 201.08C206.87 200.29 207.15 199.55 207.66 199.44C208.17 199.33 208.74 199.87 208.92 200.66Z" fill="#263238"/>
<path d="M200 202.66C200.18 203.45 199.9 204.18 199.39 204.3C198.88 204.42 198.31 203.87 198.13 203.08C197.95 202.29 198.23 201.56 198.75 201.44C199.27 201.32 199.82 201.87 200 202.66Z" fill="#263238"/>
<path d="M199 201.43L197 201.31C197 201.31 198.26 202.57 199 201.43Z" fill="#263238"/>
<path d="M203.06 203.47C202.765 205.429 202.2 207.337 201.38 209.14C201.847 209.337 202.351 209.43 202.858 209.411C203.364 209.392 203.86 209.262 204.31 209.03L203.06 203.47Z" fill="#FF5652"/>
<path d="M209.31 211.16C208.941 211.308 208.559 211.425 208.17 211.51C208.14 211.517 208.108 211.518 208.076 211.513C208.045 211.508 208.015 211.497 207.988 211.48C207.961 211.463 207.938 211.441 207.919 211.416C207.901 211.39 207.888 211.361 207.88 211.33C207.873 211.299 207.872 211.267 207.877 211.236C207.882 211.205 207.894 211.175 207.91 211.148C207.927 211.121 207.949 211.097 207.975 211.079C208 211.06 208.03 211.047 208.06 211.04C209.046 210.842 209.972 210.415 210.763 209.793C211.553 209.171 212.186 208.372 212.61 207.46C212.621 207.43 212.638 207.403 212.66 207.38C212.682 207.357 212.707 207.339 212.736 207.326C212.765 207.313 212.796 207.305 212.828 207.304C212.859 207.303 212.891 207.309 212.92 207.32C212.95 207.33 212.976 207.346 212.999 207.367C213.022 207.387 213.041 207.412 213.054 207.44C213.067 207.468 213.074 207.499 213.076 207.529C213.077 207.56 213.071 207.591 213.06 207.62C212.702 208.43 212.186 209.16 211.542 209.768C210.899 210.376 210.14 210.849 209.31 211.16Z" fill="#263238"/>
<path d="M227.6 202.23C227.3 204.132 226.257 205.836 224.7 206.97C222.62 208.46 220.7 206.81 220.57 204.4C220.43 202.23 221.35 198.84 223.78 198.31C224.313 198.206 224.864 198.236 225.383 198.398C225.901 198.559 226.371 198.848 226.751 199.237C227.13 199.626 227.406 200.103 227.554 200.626C227.703 201.149 227.718 201.7 227.6 202.23Z" fill="#FFDBB4"/>
<path d="M210.28 196.39C210.184 196.418 210.08 196.414 209.987 196.378C209.893 196.342 209.813 196.276 209.76 196.19C208.57 194.34 205.76 194.19 205.76 194.19C205.698 194.189 205.636 194.175 205.579 194.15C205.522 194.124 205.47 194.087 205.427 194.042C205.384 193.996 205.351 193.942 205.329 193.884C205.307 193.825 205.298 193.763 205.3 193.7C205.303 193.637 205.318 193.575 205.344 193.518C205.371 193.461 205.408 193.409 205.455 193.366C205.501 193.324 205.556 193.29 205.615 193.269C205.674 193.247 205.737 193.237 205.8 193.24C205.93 193.24 209.15 193.41 210.6 195.67C210.634 195.722 210.657 195.78 210.668 195.841C210.679 195.901 210.678 195.964 210.665 196.024C210.652 196.084 210.627 196.142 210.592 196.192C210.557 196.243 210.512 196.287 210.46 196.32C210.406 196.357 210.345 196.381 210.28 196.39Z" fill="#263238"/>
<path d="M194.91 199.86C194.813 199.902 194.705 199.91 194.603 199.884C194.501 199.857 194.411 199.796 194.348 199.712C194.284 199.628 194.251 199.524 194.253 199.419C194.255 199.313 194.293 199.212 194.36 199.13C194.809 198.522 195.398 198.031 196.077 197.699C196.756 197.366 197.505 197.202 198.26 197.22C198.322 197.225 198.382 197.242 198.437 197.271C198.492 197.299 198.541 197.338 198.581 197.386C198.621 197.433 198.652 197.488 198.67 197.547C198.689 197.606 198.696 197.668 198.69 197.73C198.678 197.855 198.618 197.97 198.523 198.052C198.428 198.133 198.305 198.176 198.18 198.17C197.583 198.162 196.992 198.298 196.457 198.566C195.923 198.834 195.461 199.226 195.11 199.71C195.06 199.779 194.99 199.831 194.91 199.86Z" fill="#263238"/>
<path d="M149.24 407.38L140.39 403.46L148.99 380.92L157.83 384.84L149.24 407.38Z" fill="#FFDBB4"/>
<path d="M140.05 401.59L150.73 405.21C150.916 405.27 151.073 405.395 151.172 405.563C151.272 405.731 151.306 405.929 151.27 406.12L149.62 415C149.569 415.221 149.473 415.428 149.337 415.61C149.2 415.791 149.028 415.941 148.83 416.051C148.632 416.162 148.413 416.229 148.188 416.25C147.962 416.27 147.735 416.243 147.52 416.17C143.82 414.84 142.1 414.02 137.41 412.42C134.52 411.42 128.41 410.42 124.41 409.07C120.41 407.72 121.55 403.7 123.33 403.91C131.33 404.84 135.07 402.91 138.33 401.66C138.879 401.442 139.486 401.417 140.05 401.59Z" fill="#263238"/>
<g opacity="0.2">
<path d="M157.83 384.85L148.98 380.93L143.86 394.38L153.16 397.11L157.83 384.85Z" fill="black"/>
</g>
<path d="M219.47 290.8C219.47 290.8 164.87 294.72 162.72 313.24C159.05 344.75 143.72 388.29 143.72 388.29L156 393.51C156 393.51 178.78 351.58 185.12 324.22C195.69 318.22 248.36 339.66 240.67 289.54L219.47 290.8Z" fill="#263238"/>
<path d="M157.38 395.32L141.16 390.35L142.32 384.37L160.34 389.71L157.38 395.32Z" fill="#393ED0"/>
<path d="M134.66 401.14L134.6 401.04C134.487 400.838 134.428 400.611 134.428 400.38C134.428 400.149 134.487 399.922 134.6 399.72C134.654 399.586 134.745 399.47 134.861 399.385C134.978 399.301 135.116 399.25 135.26 399.24C136.54 399.11 138.79 401.95 139.04 402.24C139.069 402.277 139.085 402.323 139.085 402.37C139.085 402.417 139.069 402.463 139.04 402.5C139.018 402.541 138.985 402.574 138.944 402.596C138.903 402.617 138.856 402.626 138.81 402.62C137.58 402.54 135.36 402.18 134.66 401.14ZM138.34 402.14C137.4 401.03 136.01 399.66 135.34 399.73C135.276 399.735 135.214 399.759 135.163 399.798C135.112 399.837 135.073 399.89 135.05 399.95C134.975 400.084 134.935 400.236 134.935 400.39C134.935 400.544 134.975 400.696 135.05 400.83C135.34 401.42 136.57 401.89 138.34 402.12V402.14Z" fill="#393ED0"/>
<path d="M138.48 402.28C137.79 401.28 137 399.02 137.48 398.12C137.578 397.952 137.732 397.824 137.914 397.756C138.096 397.689 138.296 397.686 138.48 397.75C138.659 397.786 138.829 397.861 138.976 397.97C139.123 398.079 139.244 398.219 139.33 398.38C140.06 399.64 139.14 402.38 139.1 402.5C139.087 402.539 139.064 402.574 139.032 402.601C139 402.628 138.961 402.645 138.92 402.65C138.881 402.659 138.839 402.657 138.801 402.645C138.762 402.632 138.727 402.61 138.7 402.58C138.62 402.485 138.547 402.385 138.48 402.28ZM138.89 398.55C138.836 398.464 138.764 398.39 138.68 398.333C138.596 398.276 138.5 398.238 138.4 398.22C138.1 398.16 137.99 398.22 137.93 398.36C137.58 398.97 138.14 400.88 138.8 401.9C139.05 400.97 139.36 399.37 138.93 398.61L138.89 398.55Z" fill="#393ED0"/>
<path d="M175 379.05L166.71 384.04L153.2 364.05L161.49 359.06L175 379.05Z" fill="#FFDBB4"/>
<path d="M165 383.24L174.1 376.58C174.252 376.479 174.434 376.432 174.616 376.449C174.798 376.465 174.969 376.543 175.1 376.67L181.4 383.11C181.553 383.278 181.668 383.476 181.739 383.692C181.81 383.907 181.834 384.135 181.81 384.361C181.787 384.587 181.716 384.805 181.602 385.001C181.488 385.197 181.334 385.367 181.15 385.5C177.94 387.76 176.28 388.69 172.28 391.62C169.82 393.42 165.45 397.87 162.05 400.35C158.65 402.83 156.05 399.61 157.2 398.27C162.55 392.27 163.14 388.09 163.96 384.73C164.119 384.126 164.487 383.597 165 383.24Z" fill="#263238"/>
<g opacity="0.2">
<path d="M161.49 359.07L153.2 364.06L161.26 375.98L168.84 369.93L161.49 359.07Z" fill="black"/>
</g>
<path d="M195 291.94C195 291.94 137.35 289.29 134 307.63C128.29 338.84 156.18 372.63 156.18 372.63L167.54 365.55C167.54 365.55 158.95 341.55 155.68 320.07C166.62 314.79 225.4 341.34 220.98 290.83L195 291.94Z" fill="#263238"/>
<path opacity="0.2" d="M175.93 300.22C175.003 300.221 174.087 300.429 173.25 300.83C166.59 303.97 161.67 308.02 160.85 313.24C160.54 315.24 160.18 317.24 159.78 319.31C160.44 319.31 161.14 319.31 161.89 319.31C162.21 317.24 162.49 315.2 162.72 313.21C163.36 307.65 168.72 303.41 175.93 300.21V300.22Z" fill="black"/>
<path d="M169.81 365.45L156.41 375.88L152.19 371.48L166.92 359.81L169.81 365.45Z" fill="#393ED0"/>
<path d="M161.51 387.39H161.39C161.161 387.359 160.943 387.271 160.758 387.132C160.572 386.994 160.425 386.811 160.33 386.6C160.258 386.475 160.22 386.334 160.22 386.19C160.22 386.046 160.258 385.905 160.33 385.78C160.97 384.67 164.59 384.46 165 384.43C165.047 384.428 165.093 384.441 165.132 384.466C165.171 384.491 165.202 384.527 165.22 384.57C165.244 384.609 165.257 384.654 165.257 384.7C165.257 384.746 165.244 384.791 165.22 384.83C164.33 385.81 162.76 387.42 161.51 387.39ZM164.43 384.95C162.98 385.08 161.06 385.43 160.73 386.02C160.695 386.074 160.677 386.136 160.677 386.2C160.677 386.264 160.695 386.326 160.73 386.38C160.788 386.521 160.883 386.644 161.004 386.737C161.125 386.83 161.269 386.89 161.42 386.91C162.13 387 163.22 386.26 164.43 385V384.95Z" fill="#393ED0"/>
<path d="M164.64 384.92C163.4 384.92 161.12 384.26 160.69 383.32C160.611 383.15 160.593 382.958 160.638 382.776C160.684 382.594 160.79 382.433 160.94 382.32C161.073 382.195 161.23 382.1 161.403 382.041C161.576 381.982 161.759 381.962 161.94 381.98C163.39 382.12 165.11 384.44 165.18 384.54C165.199 384.577 165.209 384.618 165.209 384.66C165.209 384.702 165.199 384.743 165.18 384.78C165.161 384.816 165.134 384.848 165.101 384.872C165.068 384.896 165.03 384.913 164.99 384.92C164.874 384.929 164.757 384.929 164.64 384.92ZM161.82 382.44C161.718 382.439 161.617 382.457 161.523 382.495C161.429 382.533 161.343 382.589 161.27 382.66C161.04 382.87 161.07 383.01 161.12 383.12C161.41 383.76 163.29 384.4 164.51 384.45C163.9 383.7 162.76 382.53 161.9 382.45L161.82 382.44Z" fill="#393ED0"/>
<path d="M207.9 199.43L205.9 199.31C205.9 199.31 207.19 200.57 207.9 199.43Z" fill="#263238"/>
<path d="M226.67 277.16L217 272.25L219.33 282.19C219.33 282.19 225.53 283.92 228.42 280.91L226.67 277.16Z" fill="#FFDBB4"/>
<path d="M249.33 238.76C249.75 239.59 250.04 240.23 250.33 240.94C250.62 241.65 250.92 242.34 251.2 243.04C251.76 244.44 252.28 245.85 252.77 247.26C253.72 250.09 254.52 252.96 255.23 255.85C255.94 258.74 256.47 261.66 256.92 264.6C257.12 266.08 257.33 267.55 257.46 269.03L257.65 271.25L257.7 271.85C257.7 272.16 257.7 272.46 257.7 272.78C257.694 273.452 257.623 274.122 257.49 274.78C257.202 276.148 256.603 277.431 255.74 278.53C254.982 279.49 254.061 280.309 253.02 280.95C251.376 281.913 249.581 282.589 247.71 282.95C244.606 283.556 241.439 283.778 238.28 283.61C232.402 283.348 226.567 282.473 220.87 281L221.73 276C227.214 276.355 232.716 276.355 238.2 276C240.726 275.859 243.228 275.436 245.66 274.74C246.569 274.493 247.429 274.09 248.2 273.55C248.37 273.44 248.506 273.284 248.59 273.1C248.59 273.01 248.59 273.04 248.59 273L248.15 270.26C247.93 268.92 247.65 267.59 247.41 266.26C246.85 263.61 246.2 260.97 245.51 258.36C244.82 255.75 243.96 253.17 243.06 250.63C242.62 249.35 242.15 248.09 241.66 246.85L240.91 245.01C240.67 244.43 240.38 243.76 240.18 243.32L249.33 238.76Z" fill="#FFDBB4"/>
<path d="M244.34 228.38C248.49 229.38 254.21 243.12 254.21 243.12L241.39 254.76C241.39 254.76 232.61 244 234 238.62C235.47 233 239.61 227.24 244.34 228.38Z" fill="#393ED0"/>
<path d="M208.73 273.88L211.13 282.09L219.34 282.19L217.01 272.25L208.73 273.88Z" fill="#FFDBB4"/>
<path d="M216.38 296.44H174.38C172.8 296.376 171.285 295.787 170.077 294.765C168.869 293.743 168.036 292.348 167.71 290.8L162.71 263.43C162.547 262.744 162.544 262.03 162.701 261.343C162.859 260.656 163.173 260.015 163.619 259.469C164.065 258.923 164.632 258.488 165.273 258.196C165.915 257.905 166.616 257.766 167.32 257.79H209.37C210.951 257.854 212.466 258.443 213.674 259.465C214.882 260.486 215.715 261.882 216.04 263.43L221.04 290.8C221.205 291.49 221.208 292.209 221.047 292.9C220.887 293.591 220.568 294.235 220.117 294.782C219.665 295.329 219.092 295.763 218.444 296.051C217.795 296.339 217.089 296.472 216.38 296.44Z" fill="white"/>
<path opacity="0.5" d="M215.63 296.44H174.33C172.749 296.376 171.235 295.787 170.027 294.765C168.819 293.743 167.986 292.348 167.66 290.8L162.66 263.43C162.497 262.744 162.494 262.03 162.651 261.343C162.809 260.656 163.123 260.015 163.569 259.469C164.015 258.923 164.581 258.488 165.223 258.196C165.865 257.905 166.566 257.766 167.27 257.79H208.57C210.151 257.854 211.665 258.443 212.873 259.465C214.081 260.486 214.914 261.882 215.24 263.43L220.24 290.8C220.404 291.486 220.407 292.2 220.249 292.887C220.091 293.574 219.777 294.215 219.331 294.761C218.885 295.307 218.319 295.742 217.677 296.034C217.035 296.325 216.335 296.464 215.63 296.44Z" fill="#393ED0"/>
<path d="M162.65 275.61L164.24 284.54L167.72 281.28L166.78 274.63C166.742 274.361 166.629 274.108 166.453 273.9C166.277 273.693 166.046 273.539 165.787 273.457C165.527 273.376 165.25 273.369 164.987 273.439C164.724 273.508 164.486 273.651 164.3 273.85L162.65 275.61Z" fill="#FFDBB4"/>
</svg>
